<?xml version="1.0" encoding="UTF-8"?>
<svg xmlns="http://www.w3.org/2000/svg" version="1.1" viewBox="0 0 841.89 841.89">
  <!-- Generator: Adobe Illustrator 30.3.0, SVG Export Plug-In . SVG Version: 2.1.3 Build 182)  -->
  <defs>
    <style>
      .st0, .st1, .st2 {
        fill: none;
        stroke: #000;
        stroke-linecap: round;
        stroke-linejoin: round;
      }

      .st1 {
        opacity: .91;
      }

      .st1, .st2 {
        stroke-width: .5px;
      }

      .st3 {
        fill: #1d1d1b;
      }

      .st4 {
        opacity: .5;
      }
    </style>
  </defs>
  <g id="Layer_1">
    <line class="st0" x1="830.71" y1="486.41" x2="406.73" y2="731.26"/>
    <line class="st0" x1="406.73" y1="731.26" x2="126.42" y2="569.41"/>
    <line class="st0" x1="126.42" y1="533.51" x2="126.42" y2="233.15"/>
    <circle class="st3" cx="126.42" cy="533.51" r="3.98" transform="translate(-29.31 7.81) rotate(-3.17)"/>
    <circle class="st3" cx="126.42" cy="237.13" r="3.98"/>
    <circle class="st3" cx="126.42" cy="569.41" r="3.98" transform="translate(-31.3 7.86) rotate(-3.17)"/>
    <circle class="st3" cx="406.73" cy="731.26" r="3.98"/>
    <circle class="st3" cx="830.71" cy="486.41" r="3.98"/>
    <path d="M111.48,394.03c0-8.37-4.14-12.96-11.97-12.96s-12.24,4.68-12.24,12.96v26.91h-4.59v-64.08h4.59v25.83c3.24-3.78,7.47-5.67,12.78-5.67,9.99,0,16.02,6.12,16.02,16.2v27.72h-4.59v-26.91h0Z"/>
    <path d="M243.16,710.27c-3.87,5.04-7.92,6.12-12.87,6.12-4.59,0-8.37-1.53-10.62-3.78-4.41-4.41-5.58-11.61-5.58-18.45s1.17-14.04,5.58-18.45c2.25-2.25,6.03-3.78,10.62-3.78,4.95,0,9,1.08,12.87,6.12v-26.28h4.59v64.08h-4.59v-5.58h0ZM230.92,675.98c-10.62,0-12.24,9.18-12.24,18.18s1.62,18.18,12.24,18.18,12.24-9.18,12.24-18.18-1.62-18.18-12.24-18.18Z"/>
    <path d="M655.22,665.9l-12.24-36.18-12.24,36.18h-4.68l-13.86-43.38h5.04l11.07,37.98,12.42-37.98h4.5l12.42,37.98,11.07-37.98h5.04l-13.86,43.38h-4.68Z"/>
  </g>
  <g id="Layer_3" class="st4">
    <polyline class="st1" points="669.97 252.8 670.03 382.22 670.09 252.68"/>
    <polyline class="st1" points="669.79 252.92 669.67 381.92 670.03 382.22"/>
    <line class="st1" x1="669.73" y1="252.92" x2="669.67" y2="381.92"/>
    <polyline class="st1" points="669.67 252.98 669.61 381.62 669.67 381.92"/>
    <line class="st1" x1="703.93" y1="233.24" x2="703.81" y2="381.62"/>
    <line class="st1" x1="703.87" y1="233.24" x2="703.81" y2="381.62"/>
    <polyline class="st1" points="703.81 233.3 703.69 381.98 703.81 381.62"/>
    <line class="st1" x1="703.63" y1="233.36" x2="703.69" y2="381.98"/>
    <polyline class="st1" points="703.45 233.48 703.39 382.22 703.69 381.98"/>
    <polyline class="st1" points="687.61 242.6 687.79 391.22 687.85 242.48"/>
    <polyline class="st1" points="687.37 242.78 687.25 391.46 687.79 391.22"/>
    <line class="st1" x1="687.07" y1="242.96" x2="687.25" y2="391.46"/>
    <polyline class="st1" points="686.77 243.08 686.71 391.52 687.25 391.46"/>
    <line class="st1" x1="686.47" y1="243.26" x2="686.71" y2="391.52"/>
    <polyline class="st1" points="686.23 243.44 686.11 391.46 686.71 391.52"/>
    <line class="st1" x1="685.93" y1="243.56" x2="686.11" y2="391.46"/>
    <polyline class="st1" points="685.75 243.68 685.63 391.22 686.11 391.46"/>
    <line class="st1" x1="670.03" y1="382.22" x2="670.09" y2="252.68"/>
    <line class="st1" x1="687.79" y1="391.22" x2="703.39" y2="382.22"/>
    <line class="st1" x1="703.39" y1="382.22" x2="703.45" y2="233.48"/>
    <line class="st1" x1="687.79" y1="391.22" x2="687.85" y2="242.48"/>
    <line class="st1" x1="670.03" y1="382.22" x2="685.63" y2="391.22"/>
    <line class="st1" x1="685.63" y1="391.22" x2="685.75" y2="243.68"/>
    <line class="st1" x1="319.09" y1="361.22" x2="318.97" y2="603.56"/>
    <line class="st1" x1="318.97" y1="361.16" x2="318.97" y2="603.56"/>
    <polyline class="st1" points="318.97 361.16 318.85 603.86 318.97 603.56"/>
    <line class="st1" x1="318.67" y1="361.04" x2="318.85" y2="603.86"/>
    <polyline class="st1" points="318.67 361.04 318.49 604.16 318.85 603.86"/>
    <polyline class="st1" points="302.59 354.98 302.89 613.16 303.01 355.16"/>
    <polyline class="st1" points="302.53 354.98 302.41 613.34 302.89 613.16"/>
    <line class="st1" x1="301.99" y1="354.74" x2="302.41" y2="613.34"/>
    <polyline class="st1" points="301.99 354.74 301.81 613.4 302.41 613.34"/>
    <line class="st1" x1="301.45" y1="354.44" x2="301.81" y2="613.4"/>
    <polyline class="st1" points="301.39 354.44 301.27 613.34 301.81 613.4"/>
    <line class="st1" x1="300.97" y1="354.14" x2="301.27" y2="613.34"/>
    <polyline class="st1" points="300.91 354.14 300.73 613.16 301.27 613.34"/>
    <polyline class="st1" points="285.01 344.96 285.13 604.16 285.31 345.14"/>
    <polyline class="st1" points="284.95 344.9 284.83 603.86 285.13 604.16"/>
    <line class="st1" x1="284.89" y1="344.84" x2="284.83" y2="603.86"/>
    <polyline class="st1" points="284.83 344.84 284.71 603.5 284.83 603.86"/>
    <line class="st1" x1="302.89" y1="613.16" x2="318.49" y2="604.16"/>
    <line class="st1" x1="318.49" y1="604.16" x2="318.67" y2="361.04"/>
    <line class="st1" x1="302.89" y1="613.16" x2="303.01" y2="355.16"/>
    <line class="st1" x1="285.13" y1="604.16" x2="300.73" y2="613.16"/>
    <line class="st1" x1="300.73" y1="613.16" x2="300.91" y2="354.14"/>
    <line class="st1" x1="285.13" y1="604.16" x2="285.31" y2="345.14"/>
    <polyline class="st1" points="781.81 454.1 781.81 456.02 784.87 455.9"/>
    <polyline class="st1" points="779.71 452.9 777.97 452.66 781.81 456.02"/>
    <polyline class="st1" points="777.97 452.66 777.97 455.54 781.81 456.02"/>
    <polyline class="st1" points="777.97 452.66 774.49 451.64 777.97 455.54"/>
    <polyline class="st1" points="774.49 451.64 774.49 454.46 777.97 455.54"/>
    <polyline class="st1" points="774.49 451.64 771.73 450.02 774.49 454.46"/>
    <polyline class="st1" points="771.73 450.02 771.67 452.9 774.49 454.46"/>
    <polyline class="st1" points="771.73 450.02 769.81 448.04 771.67 452.9"/>
    <polyline class="st1" points="769.81 448.04 769.81 450.92 771.67 452.9"/>
    <line class="st1" x1="769.81" y1="448.04" x2="769.33" y2="446.9"/>
    <line class="st1" x1="769.09" y1="446.78" x2="769.81" y2="450.92"/>
    <polyline class="st1" points="768.91 446.66 768.91 448.7 769.81 450.92"/>
    <line class="st1" x1="772.93" y1="453.68" x2="772.27" y2="453.2"/>
    <polyline class="st1" points="771.37 452.54 770.77 452.12 770.23 451.4"/>
    <polyline class="st1" points="769.69 450.62 769.45 450.26 769.15 449.3"/>
    <polyline class="st1" points="768.91 448.46 768.91 448.28 768.91 448.1"/>
    <polyline class="st1" points="784.87 455.9 782.23 456.02 781.99 456.02"/>
    <polyline class="st1" points="780.85 455.9 778.81 455.72 778.39 455.6"/>
    <polyline class="st1" points="777.07 455.3 775.63 454.94 775.03 454.64"/>
    <line class="st1" x1="773.89" y1="454.1" x2="772.93" y2="453.68"/>
    <polyline class="st1" points="772.93 450.8 770.77 449.24 769.45 447.44 769.27 446.9"/>
    <polyline class="st1" points="779.77 452.96 778.81 452.84 775.63 452.06 772.93 450.8"/>
    <polyline class="st1" points="589.99 343.22 589.99 345.26 593.29 345.14"/>
    <polyline class="st1" points="588.07 342.14 586.15 341.84 589.99 345.26"/>
    <polyline class="st1" points="586.15 341.84 586.15 344.72 589.99 345.26"/>
    <polyline class="st1" points="586.15 341.84 582.73 340.76 586.15 344.72"/>
    <polyline class="st1" points="582.73 340.76 582.73 343.64 586.15 344.72"/>
    <polyline class="st1" points="582.73 340.76 579.97 339.14 582.73 343.64"/>
    <polyline class="st1" points="579.97 339.14 579.97 342.02 582.73 343.64"/>
    <polyline class="st1" points="579.97 339.14 578.11 337.16 579.97 342.02"/>
    <polyline class="st1" points="578.11 337.16 578.11 339.98 579.97 342.02"/>
    <line class="st1" x1="578.11" y1="337.16" x2="577.75" y2="336.14"/>
    <line class="st1" x1="577.45" y1="335.96" x2="578.11" y2="339.98"/>
    <polyline class="st1" points="577.33 335.9 577.33 337.76 578.11 339.98"/>
    <polyline class="st1" points="577.45 338.12 577.45 338.54 577.87 339.44"/>
    <polyline class="st1" points="578.29 340.22 578.41 340.46 579.49 341.54"/>
    <polyline class="st1" points="580.09 342.08 580.15 342.2 582.61 343.58 582.67 343.58"/>
    <polyline class="st1" points="583.15 343.76 585.61 344.6 585.91 344.66"/>
    <polyline class="st1" points="587.11 344.84 588.91 345.14 589.51 345.2"/>
    <polyline class="st1" points="590.95 345.2 592.39 345.26 593.23 345.14"/>
    <polyline class="st1" points="577.69 336.08 578.41 337.58 580.15 339.32 582.61 340.7 585.61 341.72 588.19 342.2"/>
    <polyline class="st1" points="396.49 675.98 396.49 678.02 399.79 677.9"/>
    <polyline class="st1" points="394.63 674.9 392.71 674.66 396.49 678.02"/>
    <polyline class="st1" points="392.71 674.66 392.65 677.54 396.49 678.02"/>
    <polyline class="st1" points="392.71 674.66 389.23 673.52 392.65 677.54"/>
    <polyline class="st1" points="389.23 673.52 389.23 676.4 392.65 677.54"/>
    <polyline class="st1" points="389.23 673.52 386.47 671.9 389.23 676.4"/>
    <polyline class="st1" points="386.47 671.9 386.47 674.78 389.23 676.4"/>
    <polyline class="st1" points="386.47 671.9 384.67 669.92 386.47 674.78"/>
    <polyline class="st1" points="384.67 669.92 384.67 672.8 386.47 674.78"/>
    <line class="st1" x1="384.67" y1="669.92" x2="384.31" y2="668.96"/>
    <line class="st1" x1="384.01" y1="668.78" x2="384.67" y2="672.8"/>
    <polyline class="st1" points="383.83 668.66 383.83 670.58 384.67 672.8"/>
    <polyline class="st1" points="383.95 670.88 384.01 671.3 384.43 672.2"/>
    <polyline class="st1" points="384.85 672.98 384.97 673.22 386.05 674.3"/>
    <polyline class="st1" points="386.59 674.84 386.71 674.96 389.17 676.4 389.23 676.4"/>
    <polyline class="st1" points="389.71 676.58 392.11 677.36 392.47 677.42"/>
    <polyline class="st1" points="393.67 677.66 395.47 677.96 396.01 677.96"/>
    <polyline class="st1" points="397.51 677.96 398.89 678.02 399.73 677.9"/>
    <polyline class="st1" points="384.19 668.9 384.97 670.34 386.71 672.08 389.17 673.52 392.11 674.54 394.69 674.96"/>
    <polyline class="st1" points="205.15 565.4 205.15 567.26 208.21 567.14"/>
    <polyline class="st1" points="203.05 564.14 201.31 563.96 205.15 567.26"/>
    <polyline class="st1" points="201.31 563.96 201.31 566.78 205.15 567.26"/>
    <polyline class="st1" points="201.31 563.96 197.83 562.88 201.31 566.78"/>
    <polyline class="st1" points="197.83 562.88 197.83 565.7 201.31 566.78"/>
    <polyline class="st1" points="197.83 562.88 195.07 561.26 197.83 565.7"/>
    <polyline class="st1" points="195.07 561.26 195.07 564.14 197.83 565.7"/>
    <polyline class="st1" points="195.07 561.26 193.15 559.28 195.07 564.14"/>
    <polyline class="st1" points="193.15 559.28 193.15 562.16 195.07 564.14"/>
    <line class="st1" x1="193.15" y1="559.28" x2="192.67" y2="558.14"/>
    <line class="st1" x1="192.43" y1="558.02" x2="193.15" y2="562.16"/>
    <polyline class="st1" points="192.25 557.9 192.25 559.94 193.15 562.16"/>
    <line class="st1" x1="196.27" y1="564.92" x2="195.61" y2="564.44"/>
    <polyline class="st1" points="194.71 563.78 194.17 563.36 193.63 562.64"/>
    <polyline class="st1" points="193.03 561.86 192.79 561.5 192.49 560.54"/>
    <polyline class="st1" points="192.25 559.7 192.25 559.58 192.25 559.34"/>
    <polyline class="st1" points="208.21 567.14 205.57 567.26 205.33 567.26"/>
    <polyline class="st1" points="204.19 567.14 202.15 566.96 201.73 566.84"/>
    <polyline class="st1" points="200.41 566.54 198.97 566.18 198.37 565.88"/>
    <line class="st1" x1="197.23" y1="565.34" x2="196.27" y2="564.92"/>
    <polyline class="st1" points="196.27 562.1 194.17 560.48 192.79 558.68 192.61 558.14"/>
    <polyline class="st1" points="203.11 564.2 202.15 564.08 198.97 563.3 196.27 562.1"/>
    <line class="st1" x1="584.17" y1="306.14" x2="585.79" y2="306.74"/>
    <line class="st1" x1="582.25" y1="305.9" x2="584.17" y2="306.14"/>
    <line class="st1" x1="580.33" y1="306.14" x2="582.25" y2="305.9"/>
    <line class="st1" x1="578.65" y1="306.74" x2="580.33" y2="306.14"/>
    <line class="st1" x1="556.27" y1="320" x2="557.35" y2="319.04"/>
    <polyline class="st1" points="555.91 322.34 555.91 321.08 556.27 320"/>
    <polyline class="st1" points="555.91 322.34 556.27 323.42 555.91 321.08"/>
    <polyline class="st1" points="556.27 323.42 556.27 322.22 555.91 321.08"/>
    <polyline class="st1" points="556.27 323.42 557.35 324.38 556.27 322.22"/>
    <polyline class="st1" points="557.35 324.38 557.35 323.12 556.27 322.22"/>
    <polyline class="st1" points="816.37 445.4 817.51 444.5 816.37 444.2 816.37 445.4"/>
    <polyline class="st1" points="817.51 444.5 817.51 443.24 816.37 444.2"/>
    <polyline class="st1" points="817.51 444.5 817.87 443.36 817.51 443.24"/>
    <polyline class="st1" points="817.87 443.36 817.87 442.16 817.51 443.24"/>
    <line class="st1" x1="817.51" y1="441.02" x2="817.87" y2="442.16"/>
    <line class="st1" x1="816.43" y1="440.12" x2="817.51" y2="441.02"/>
    <polyline class="st1" points="787.99 457.7 789.61 458.3 787.99 456.44 787.99 457.7"/>
    <polyline class="st1" points="789.61 458.3 789.61 457.1 787.99 456.44"/>
    <polyline class="st1" points="789.61 458.3 791.53 458.54 789.61 457.1"/>
    <polyline class="st1" points="791.53 458.54 791.53 457.34 789.61 457.1"/>
    <polyline class="st1" points="791.53 458.54 793.45 458.36 791.53 457.34"/>
    <polyline class="st1" points="793.45 458.36 793.45 457.1 791.53 457.34"/>
    <polyline class="st1" points="793.45 458.36 795.07 457.7 793.45 457.1"/>
    <polyline class="st1" points="795.07 457.7 795.07 456.5 793.45 457.1"/>
    <line class="st1" x1="557.35" y1="319.04" x2="578.65" y2="306.74"/>
    <line class="st1" x1="585.79" y1="306.74" x2="669.61" y2="355.22"/>
    <line class="st1" x1="703.81" y1="375.02" x2="816.43" y2="440.12"/>
    <line class="st1" x1="787.99" y1="456.44" x2="557.35" y2="323.12"/>
    <line class="st1" x1="557.35" y1="323.12" x2="557.35" y2="324.38"/>
    <line class="st1" x1="787.99" y1="457.7" x2="787.99" y2="456.44"/>
    <polyline class="st1" points="585.79 306.74 584.17 306.14 582.25 305.9 580.33 306.14 578.65 306.74"/>
    <polyline class="st1" points="557.35 319.04 556.27 320 555.91 321.08 556.27 322.22 557.35 323.12"/>
    <polyline class="st1" points="787.99 456.44 789.61 457.1 791.53 457.34 793.45 457.1 795.07 456.5"/>
    <polyline class="st1" points="816.37 444.2 817.51 443.24 817.87 442.16 817.51 441.02 816.43 440.12"/>
    <line class="st1" x1="816.37" y1="445.4" x2="816.37" y2="444.2"/>
    <line class="st1" x1="816.37" y1="444.2" x2="795.07" y2="456.5"/>
    <line class="st1" x1="795.07" y1="456.5" x2="795.07" y2="457.7"/>
    <polyline class="st1" points="817.87 443.36 817.51 444.5 816.37 445.4"/>
    <line class="st1" x1="816.37" y1="445.4" x2="795.07" y2="457.7"/>
    <polyline class="st1" points="795.07 457.7 793.45 458.36 791.53 458.54 789.61 458.3 787.99 457.7"/>
    <line class="st1" x1="787.99" y1="457.7" x2="557.35" y2="324.38"/>
    <polyline class="st1" points="557.35 324.38 556.27 323.42 555.91 322.34"/>
    <line class="st1" x1="171.25" y1="542" x2="172.33" y2="541.04"/>
    <polyline class="st1" points="170.83 544.34 170.83 543.08 171.25 542"/>
    <polyline class="st1" points="170.83 544.34 171.25 545.42 170.83 543.08"/>
    <polyline class="st1" points="171.25 545.42 171.25 544.22 170.83 543.08"/>
    <polyline class="st1" points="171.25 545.42 172.33 546.38 171.25 544.22"/>
    <polyline class="st1" points="172.33 546.38 172.33 545.18 171.25 544.22"/>
    <line class="st1" x1="199.09" y1="528.14" x2="200.71" y2="528.8"/>
    <line class="st1" x1="197.17" y1="527.9" x2="199.09" y2="528.14"/>
    <line class="st1" x1="195.25" y1="528.14" x2="197.17" y2="527.9"/>
    <line class="st1" x1="193.63" y1="528.74" x2="195.25" y2="528.14"/>
    <polyline class="st1" points="402.97 679.7 404.59 680.36 402.97 678.5 402.97 679.7"/>
    <polyline class="st1" points="404.59 680.36 404.59 679.1 402.97 678.5"/>
    <polyline class="st1" points="404.59 680.36 406.51 680.54 404.59 679.1"/>
    <polyline class="st1" points="406.51 680.54 406.51 679.34 404.59 679.1"/>
    <polyline class="st1" points="406.51 680.54 408.43 680.36 406.51 679.34"/>
    <polyline class="st1" points="408.43 680.36 408.43 679.1 406.51 679.34"/>
    <polyline class="st1" points="408.43 680.36 410.05 679.7 408.43 679.1"/>
    <polyline class="st1" points="410.05 679.7 410.05 678.5 408.43 679.1"/>
    <polyline class="st1" points="431.35 667.46 432.43 666.5 431.35 666.2 431.35 667.46"/>
    <polyline class="st1" points="432.43 666.5 432.43 665.24 431.35 666.2"/>
    <polyline class="st1" points="432.43 666.5 432.79 665.36 432.43 665.24"/>
    <polyline class="st1" points="432.79 665.36 432.79 664.16 432.43 665.24"/>
    <line class="st1" x1="432.43" y1="663.02" x2="432.79" y2="664.16"/>
    <line class="st1" x1="431.35" y1="662.12" x2="432.43" y2="663.02"/>
    <line class="st1" x1="172.33" y1="545.18" x2="402.97" y2="678.5"/>
    <line class="st1" x1="410.05" y1="678.5" x2="431.35" y2="666.2"/>
    <line class="st1" x1="431.35" y1="662.12" x2="318.97" y2="597.14"/>
    <line class="st1" x1="284.71" y1="577.34" x2="200.71" y2="528.8"/>
    <line class="st1" x1="193.63" y1="528.74" x2="172.33" y2="541.04"/>
    <line class="st1" x1="410.05" y1="679.7" x2="431.35" y2="667.46"/>
    <line class="st1" x1="172.33" y1="546.38" x2="402.97" y2="679.7"/>
    <polyline class="st1" points="170.83 544.34 171.25 545.42 172.33 546.38"/>
    <line class="st1" x1="172.33" y1="546.38" x2="172.33" y2="545.18"/>
    <polyline class="st1" points="172.33 545.18 171.25 544.22 170.83 543.08 171.25 542 172.33 541.04"/>
    <polyline class="st1" points="193.63 528.74 195.25 528.14 197.17 527.9 199.09 528.14 200.71 528.8"/>
    <polyline class="st1" points="402.97 679.7 404.59 680.36 406.51 680.54 408.43 680.36 410.05 679.7"/>
    <line class="st1" x1="410.05" y1="679.7" x2="410.05" y2="678.5"/>
    <polyline class="st1" points="410.05 678.5 408.43 679.1 406.51 679.34 404.59 679.1 402.97 678.5"/>
    <line class="st1" x1="402.97" y1="678.5" x2="402.97" y2="679.7"/>
    <polyline class="st1" points="431.35 667.46 432.43 666.5 432.79 665.36"/>
    <polyline class="st1" points="431.35 662.12 432.43 663.02 432.79 664.16 432.43 665.24 431.35 666.2"/>
    <line class="st1" x1="431.35" y1="666.2" x2="431.35" y2="667.46"/>
    <line class="st1" x1="235.33" y1="306.8" x2="282.13" y2="343.28"/>
    <line class="st1" x1="282.13" y1="343.28" x2="301.99" y2="354.74"/>
    <line class="st1" x1="301.99" y1="354.74" x2="348.79" y2="372.38"/>
  </g>
  <g id="Layer_2">
    <g>
      <line class="st2" x1="583.27" y1="5.72" x2="831.67" y2="149.3"/>
      <line class="st2" x1="157.21" y1="261.62" x2="157.21" y2="251.36"/>
      <line class="st2" x1="157.21" y1="251.36" x2="583.27" y2="5.72"/>
      <line class="st2" x1="831.67" y1="149.3" x2="405.61" y2="395"/>
      <line class="st2" x1="405.61" y1="395" x2="405.61" y2="405.2"/>
      <line class="st2" x1="405.61" y1="405.2" x2="831.67" y2="159.56"/>
      <line class="st2" x1="831.67" y1="159.56" x2="831.67" y2="149.3"/>
      <line class="st2" x1="405.61" y1="395" x2="157.21" y2="251.36"/>
      <line class="st2" x1="157.21" y1="261.62" x2="405.61" y2="405.2"/>
    </g>
  </g>
</svg>