<?xml version="1.0" encoding="UTF-8"?>
<svg xmlns="http://www.w3.org/2000/svg" version="1.1" viewBox="0 0 841.89 841.89">
  <!-- Generator: Adobe Illustrator 30.3.0, SVG Export Plug-In . SVG Version: 2.1.3 Build 182)  -->
  <defs>
    <style>
      .st0 {
        stroke-width: .2px;
      }

      .st0, .st1 {
        fill: none;
        stroke: #000;
        stroke-linecap: square;
        stroke-miterlimit: 10;
      }

      .st1 {
        stroke-width: .5px;
      }

      .st2 {
        opacity: .5;
      }
    </style>
  </defs>
  <g id="Layer_2" class="st2">
    <line class="st0" x1="318.02" y1="820.4" x2="318.02" y2="541.1"/>
    <polyline class="st0" points="318.02 820.4 318.08 820.88 318.02 541.1"/>
    <line class="st0" x1="318.08" y1="820.88" x2="318.14" y2="541.16"/>
    <polyline class="st0" points="318.08 820.88 318.44 821.9 318.14 541.16"/>
    <line class="st0" x1="318.44" y1="821.9" x2="318.44" y2="541.34"/>
    <polyline class="st0" points="326.96 836.66 327.44 837.32 326.96 546.26"/>
    <line class="st0" x1="326.96" y1="546.26" x2="326.96" y2="836.66"/>
    <line class="st0" x1="327.44" y1="837.32" x2="327.44" y2="546.56"/>
    <polyline class="st0" points="327.44 837.32 328.04 837.8 327.44 546.56"/>
    <line class="st0" x1="328.04" y1="837.8" x2="328.04" y2="546.92"/>
    <polyline class="st0" points="328.04 837.8 328.34 837.92 328.04 546.92"/>
    <line class="st0" x1="328.34" y1="837.92" x2="328.58" y2="546.56"/>
    <polyline class="st0" points="328.34 837.92 328.58 837.98 328.58 546.56"/>
    <polyline class="st0" points="328.58 837.98 328.88 837.98 328.58 546.56"/>
    <line class="st0" x1="328.88" y1="837.98" x2="329.06" y2="546.26"/>
    <polyline class="st0" points="328.88 837.98 329.06 837.86 329.06 546.26"/>
    <polyline class="st0" points="344.72 828.86 344.9 828.68 344.72 537.26"/>
    <line class="st0" x1="344.72" y1="537.26" x2="344.72" y2="828.86"/>
    <line class="st0" x1="344.9" y1="828.68" x2="345.02" y2="537.08"/>
    <polyline class="st0" points="344.9 828.68 345.02 828.5 345.02 537.08"/>
    <polyline class="st0" points="345.02 828.5 345.14 828.2 345.02 537.08"/>
    <line class="st0" x1="345.14" y1="828.2" x2="345.14" y2="537.02"/>
    <polyline class="st0" points="345.14 828.2 345.14 827.9 345.14 537.02"/>
    <line class="st0" x1="318.44" y1="541.34" x2="318.44" y2="821.9"/>
    <line class="st0" x1="318.44" y1="821.9" x2="326.96" y2="836.66"/>
    <line class="st0" x1="326.96" y1="546.26" x2="326.96" y2="836.66"/>
    <line class="st0" x1="329.06" y1="546.26" x2="329.06" y2="837.86"/>
    <line class="st0" x1="329.06" y1="837.86" x2="344.72" y2="828.86"/>
    <line class="st0" x1="344.72" y1="537.26" x2="344.72" y2="828.86"/>
    <line class="st0" x1="720.74" y1="320.18" x2="722.6" y2="321.26"/>
    <line class="st0" x1="722.6" y1="321.2" x2="720.74" y2="320.12"/>
    <line class="st0" x1="720.44" y1="320.36" x2="722.6" y2="321.62"/>
    <line class="st0" x1="720.44" y1="320.36" x2="722.6" y2="321.62"/>
    <line class="st0" x1="720.32" y1="320.42" x2="722.6" y2="321.74"/>
    <line class="st0" x1="722.6" y1="321.2" x2="720.74" y2="320.12"/>
    <polyline class="st0" points="497.3 449.12 497.3 457.94 497.36 449.12"/>
    <polyline class="st0" points="497.3 457.94 498.02 457.58 498.02 448.76"/>
    <line class="st0" x1="498.02" y1="457.58" x2="498.02" y2="448.76"/>
    <polyline class="st0" points="498.02 457.58 498.38 457.34 498.38 448.52"/>
    <polyline class="st0" points="498.38 457.34 498.8 457.1 498.8 448.34"/>
    <line class="st0" x1="498.8" y1="457.1" x2="498.8" y2="448.28"/>
    <polyline class="st0" points="498.8 457.1 499.16 456.92 499.16 448.1"/>
    <line class="st0" x1="499.16" y1="456.92" x2="499.16" y2="448.1"/>
    <polyline class="st0" points="499.16 456.92 499.46 456.74 499.46 447.92"/>
    <polyline class="st0" points="515.06 447.74 515.3 447.56 515.3 438.74"/>
    <line class="st0" x1="515.06" y1="438.92" x2="515.06" y2="447.74"/>
    <line class="st0" x1="515.3" y1="447.56" x2="515.3" y2="438.74"/>
    <polyline class="st0" points="515.3 447.56 515.48 447.5 515.48 438.68"/>
    <line class="st0" x1="515.48" y1="447.5" x2="515.48" y2="438.68"/>
    <polyline class="st0" points="515.48 447.5 515.54 447.44 515.54 438.62"/>
    <line class="st0" x1="488.36" y1="463.1" x2="488.36" y2="454.34"/>
    <polyline class="st0" points="488.36 463.1 488.48 463.04 488.48 454.28"/>
    <line class="st0" x1="488.48" y1="463.04" x2="488.48" y2="454.28"/>
    <polyline class="st0" points="488.48 463.04 488.78 462.86 488.78 454.04"/>
    <line class="st0" x1="488.78" y1="462.86" x2="488.78" y2="454.04"/>
    <line class="st0" x1="499.46" y1="456.74" x2="515.06" y2="447.74"/>
    <line class="st0" x1="515.06" y1="447.74" x2="515.06" y2="438.92"/>
    <line class="st0" x1="499.46" y1="456.74" x2="499.46" y2="447.92"/>
    <line class="st0" x1="488.78" y1="462.86" x2="488.78" y2="454.04"/>
    <line class="st0" x1="488.78" y1="462.86" x2="497.3" y2="457.94"/>
    <line class="st0" x1="497.3" y1="457.94" x2="497.3" y2="449.12"/>
    <polyline class="st0" points="722.6 585.56 499.46 456.74 722.6 585.92"/>
    <polyline class="st0" points="499.46 456.74 499.16 456.92 722.6 585.92"/>
    <polyline class="st0" points="499.16 456.92 498.8 457.1 722.6 585.92"/>
    <line class="st0" x1="498.8" y1="457.1" x2="722.6" y2="586.34"/>
    <polyline class="st0" points="498.8 457.1 498.38 457.34 722.6 586.34"/>
    <line class="st0" x1="498.38" y1="457.34" x2="722.6" y2="586.82"/>
    <polyline class="st0" points="498.38 457.34 498.02 457.58 722.6 586.82"/>
    <polyline class="st0" points="498.02 457.58 722.66 587.3 722.6 586.82"/>
    <polyline class="st0" points="498.02 457.58 497.3 457.94 722.66 587.3"/>
    <polyline class="st0" points="497.3 457.94 723.08 588.26 722.66 587.3"/>
    <line class="st0" x1="515.54" y1="447.44" x2="722.6" y2="567.02"/>
    <polyline class="st0" points="515.54 447.44 515.48 447.5 722.6 567.02"/>
    <line class="st0" x1="515.48" y1="447.5" x2="722.6" y2="567.08"/>
    <polyline class="st0" points="515.48 447.5 515.3 447.56 722.6 567.08"/>
    <line class="st0" x1="515.3" y1="447.56" x2="722.6" y2="567.26"/>
    <line class="st0" x1="515.06" y1="447.74" x2="722.6" y2="567.56"/>
    <polyline class="st0" points="722.6 567.5 515.3 447.56 515.06 447.74"/>
    <line class="st0" x1="749.54" y1="595.1" x2="749.36" y2="595.28"/>
    <line class="st0" x1="749.72" y1="594.62" x2="749.66" y2="594.86"/>
    <line class="st0" x1="749.66" y1="594.86" x2="749.54" y2="595.1"/>
    <line class="st0" x1="749.78" y1="594.26" x2="749.72" y2="594.62"/>
    <polyline class="st0" points="488.78 462.86 488.48 463.04 731.6 603.02 488.78 462.86"/>
    <polyline class="st0" points="488.48 463.04 732.08 603.68 731.6 603.02"/>
    <polyline class="st0" points="488.48 463.04 488.36 463.1 732.08 603.68"/>
    <polyline class="st0" points="488.36 463.1 732.62 604.16 732.08 603.68"/>
    <line class="st0" x1="732.92" y1="604.28" x2="732.62" y2="604.16"/>
    <line class="st0" x1="733.22" y1="604.34" x2="732.92" y2="604.28"/>
    <line class="st0" x1="733.7" y1="604.28" x2="733.46" y2="604.34"/>
    <line class="st0" x1="733.46" y1="604.34" x2="733.22" y2="604.34"/>
    <line class="st0" x1="722.6" y1="585.56" x2="499.46" y2="456.74"/>
    <line class="st0" x1="722.6" y1="567.56" x2="515.06" y2="447.74"/>
    <line class="st0" x1="515.06" y1="447.74" x2="499.46" y2="456.74"/>
    <line class="st0" x1="749.36" y1="595.28" x2="733.7" y2="604.28"/>
    <line class="st0" x1="731.6" y1="603.02" x2="488.78" y2="462.86"/>
    <line class="st0" x1="723.08" y1="588.26" x2="497.3" y2="457.94"/>
    <line class="st0" x1="497.3" y1="457.94" x2="488.78" y2="462.86"/>
    <line class="st0" x1="731.6" y1="603.02" x2="723.08" y2="588.26"/>
    <line class="st0" x1="722.6" y1="586.82" x2="722.6" y2="319.1"/>
    <polyline class="st0" points="722.6 586.82 722.66 587.3 722.6 319.04"/>
    <line class="st0" x1="722.66" y1="587.3" x2="722.72" y2="318.98"/>
    <polyline class="st0" points="722.66 587.3 723.08 588.26 722.78 318.98"/>
    <line class="st0" x1="723.08" y1="588.26" x2="723.08" y2="318.8"/>
    <polyline class="st0" points="731.6 603.02 732.08 603.68 731.6 313.88"/>
    <line class="st0" x1="731.6" y1="313.88" x2="731.6" y2="603.02"/>
    <line class="st0" x1="732.08" y1="603.68" x2="732.08" y2="313.64"/>
    <polyline class="st0" points="732.08 603.68 732.62 604.16 732.08 313.64"/>
    <line class="st0" x1="732.62" y1="604.16" x2="732.62" y2="313.28"/>
    <polyline class="st0" points="732.62 604.16 732.92 604.28 732.68 313.28"/>
    <line class="st0" x1="732.92" y1="604.28" x2="733.22" y2="312.98"/>
    <polyline class="st0" points="732.92 604.28 733.22 604.34 733.22 312.98"/>
    <polyline class="st0" points="733.22 604.34 733.46 604.34 733.22 312.92"/>
    <line class="st0" x1="733.46" y1="604.34" x2="733.7" y2="312.68"/>
    <polyline class="st0" points="733.46 604.34 733.7 604.28 733.7 312.68"/>
    <polyline class="st0" points="749.36 595.28 749.54 595.1 749.36 303.68"/>
    <line class="st0" x1="749.36" y1="303.68" x2="749.36" y2="595.28"/>
    <line class="st0" x1="749.54" y1="595.1" x2="749.66" y2="303.44"/>
    <polyline class="st0" points="749.54 595.1 749.66 594.86 749.66 303.44"/>
    <polyline class="st0" points="749.66 594.86 749.72 594.62 749.66 303.44"/>
    <line class="st0" x1="749.72" y1="594.62" x2="749.78" y2="303.38"/>
    <polyline class="st0" points="749.72 594.62 749.78 594.26 749.78 303.38"/>
    <line class="st0" x1="723.08" y1="318.8" x2="723.08" y2="588.26"/>
    <line class="st0" x1="723.08" y1="588.26" x2="731.6" y2="603.02"/>
    <line class="st0" x1="731.6" y1="313.88" x2="731.6" y2="603.02"/>
    <line class="st0" x1="733.7" y1="312.68" x2="733.7" y2="604.28"/>
    <line class="st0" x1="733.7" y1="604.28" x2="749.36" y2="595.28"/>
    <line class="st0" x1="749.36" y1="303.68" x2="749.36" y2="595.28"/>
    <polyline class="st0" points="318.02 819.2 94.82 690.32 318.02 819.56"/>
    <polyline class="st0" points="94.82 690.32 94.52 690.5 318.02 819.56"/>
    <polyline class="st0" points="94.52 690.5 94.16 690.74 318.02 819.56"/>
    <line class="st0" x1="94.16" y1="690.74" x2="318.02" y2="819.98"/>
    <polyline class="st0" points="94.16 690.74 93.74 690.98 318.02 819.98"/>
    <line class="st0" x1="93.74" y1="690.98" x2="318.02" y2="820.4"/>
    <polyline class="st0" points="93.74 690.98 93.38 691.16 318.02 820.4"/>
    <polyline class="st0" points="93.38 691.16 318.08 820.88 318.02 820.4"/>
    <polyline class="st0" points="93.38 691.16 92.72 691.58 318.08 820.88"/>
    <polyline class="st0" points="92.72 691.58 318.44 821.9 318.08 820.88"/>
    <line class="st0" x1="110.9" y1="681.08" x2="318.02" y2="800.66"/>
    <polyline class="st0" points="110.9 681.08 110.84 681.08 318.02 800.66"/>
    <line class="st0" x1="110.84" y1="681.08" x2="318.02" y2="800.72"/>
    <polyline class="st0" points="110.84 681.08 110.72 681.2 318.02 800.72"/>
    <line class="st0" x1="110.72" y1="681.2" x2="318.02" y2="800.9"/>
    <line class="st0" x1="110.48" y1="681.32" x2="318.02" y2="801.14"/>
    <polyline class="st0" points="318.02 801.14 110.72 681.2 110.48 681.32"/>
    <line class="st0" x1="344.9" y1="828.68" x2="344.72" y2="828.86"/>
    <line class="st0" x1="345.14" y1="828.2" x2="345.02" y2="828.5"/>
    <line class="st0" x1="345.02" y1="828.5" x2="344.9" y2="828.68"/>
    <line class="st0" x1="345.14" y1="827.9" x2="345.14" y2="828.2"/>
    <polyline class="st0" points="84.2 696.5 83.84 696.68 326.96 836.66 84.2 696.5"/>
    <polyline class="st0" points="83.84 696.68 327.44 837.32 326.96 836.66"/>
    <polyline class="st0" points="83.84 696.68 83.72 696.74 327.44 837.32"/>
    <polyline class="st0" points="83.72 696.74 328.04 837.8 327.44 837.32"/>
    <line class="st0" x1="328.34" y1="837.92" x2="328.04" y2="837.8"/>
    <line class="st0" x1="328.58" y1="837.98" x2="328.34" y2="837.92"/>
    <line class="st0" x1="329.06" y1="837.86" x2="328.88" y2="837.98"/>
    <line class="st0" x1="328.88" y1="837.98" x2="328.58" y2="837.98"/>
    <line class="st0" x1="318.02" y1="819.2" x2="94.82" y2="690.32"/>
    <line class="st0" x1="318.02" y1="801.14" x2="110.48" y2="681.32"/>
    <line class="st0" x1="110.48" y1="681.32" x2="94.82" y2="690.32"/>
    <line class="st0" x1="344.72" y1="828.86" x2="329.06" y2="837.86"/>
    <line class="st0" x1="326.96" y1="836.66" x2="84.2" y2="696.5"/>
    <line class="st0" x1="318.44" y1="821.9" x2="92.72" y2="691.58"/>
    <line class="st0" x1="92.72" y1="691.58" x2="84.2" y2="696.5"/>
    <line class="st0" x1="326.96" y1="836.66" x2="318.44" y2="821.9"/>
    <polyline class="st0" points="92.72 411.02 92.72 691.58 93.2 411.32"/>
    <polyline class="st0" points="92.72 691.58 93.38 691.16 93.2 411.32"/>
    <line class="st0" x1="93.38" y1="691.16" x2="93.74" y2="411.62"/>
    <polyline class="st0" points="93.38 691.16 93.74 690.98 93.74 411.62"/>
    <polyline class="st0" points="93.74 690.98 94.16 690.74 93.8 411.62"/>
    <line class="st0" x1="94.16" y1="690.74" x2="94.34" y2="411.98"/>
    <polyline class="st0" points="94.16 690.74 94.52 690.5 94.34 411.98"/>
    <line class="st0" x1="94.52" y1="690.5" x2="94.82" y2="412.28"/>
    <polyline class="st0" points="94.52 690.5 94.82 690.32 94.82 412.28"/>
    <polyline class="st0" points="110.48 681.32 110.72 681.2 110.48 435.56"/>
    <line class="st0" x1="110.48" y1="435.5" x2="110.48" y2="681.32"/>
    <line class="st0" x1="110.72" y1="681.2" x2="110.78" y2="435.68"/>
    <polyline class="st0" points="110.72 681.2 110.84 681.08 110.78 435.68"/>
    <line class="st0" x1="110.84" y1="681.08" x2="110.9" y2="435.74"/>
    <polyline class="st0" points="110.84 681.08 110.9 681.08 110.9 435.74"/>
    <line class="st0" x1="83.72" y1="696.74" x2="83.72" y2="405.86"/>
    <polyline class="st0" points="83.72 696.74 83.84 696.68 83.72 405.86"/>
    <line class="st0" x1="83.84" y1="696.68" x2="83.84" y2="405.92"/>
    <polyline class="st0" points="83.84 696.68 84.2 696.5 83.84 405.92"/>
    <line class="st0" x1="84.2" y1="696.5" x2="84.2" y2="406.1"/>
    <line class="st0" x1="97.46" y1="428.06" x2="97.58" y2="428.12"/>
    <line class="st0" x1="97.58" y1="428.18" x2="97.82" y2="428.24"/>
    <line class="st0" x1="97.34" y1="427.88" x2="97.58" y2="428.18"/>
    <line class="st0" x1="97.28" y1="427.46" x2="97.34" y2="427.88"/>
    <line class="st0" x1="94.82" y1="690.32" x2="110.48" y2="681.32"/>
    <line class="st0" x1="110.48" y1="681.32" x2="110.48" y2="435.5"/>
    <line class="st0" x1="94.82" y1="690.32" x2="94.82" y2="412.28"/>
    <line class="st0" x1="84.2" y1="696.5" x2="84.2" y2="406.1"/>
    <line class="st0" x1="84.2" y1="696.5" x2="92.72" y2="691.58"/>
    <line class="st0" x1="92.72" y1="691.58" x2="92.72" y2="411.02"/>
    <line class="st0" x1="97.28" y1="427.46" x2="97.34" y2="427.52"/>
    <line class="st0" x1="97.28" y1="413.66" x2="97.28" y2="427.46"/>
    <line class="st0" x1="97.34" y1="427.82" x2="318.02" y2="554.84"/>
    <line class="st0" x1="318.02" y1="554.84" x2="97.28" y2="427.4"/>
    <line class="st0" x1="97.34" y1="427.82" x2="318.02" y2="555.2"/>
    <line class="st0" x1="97.46" y1="428" x2="318.02" y2="555.2"/>
    <line class="st0" x1="97.46" y1="428" x2="318.02" y2="555.32"/>
    <line class="st0" x1="318.02" y1="554.84" x2="97.28" y2="427.4"/>
  </g>
  <g id="Layer_3">
    <line class="st1" x1="505.52" y1="148.52" x2="752.9" y2="291.38"/>
    <line class="st1" x1="80.66" y1="393.8" x2="505.52" y2="148.52"/>
    <line class="st1" x1="752.9" y1="291.38" x2="328.04" y2="536.66"/>
    <line class="st1" x1="328.04" y1="546.92" x2="752.9" y2="301.58"/>
    <line class="st1" x1="80.66" y1="404.06" x2="328.04" y2="546.92"/>
    <line class="st1" x1="328.04" y1="536.66" x2="80.66" y2="393.8"/>
    <line class="st1" x1="80.66" y1="404.06" x2="80.66" y2="393.8"/>
    <line class="st1" x1="328.04" y1="536.66" x2="328.04" y2="546.92"/>
    <line class="st1" x1="752.9" y1="301.58" x2="752.9" y2="291.38"/>
  </g>
</svg>