<?xml version="1.0" encoding="UTF-8"?>
<svg id="Layer_2" xmlns="http://www.w3.org/2000/svg" version="1.1" viewBox="0 0 677.66 693.2">
  <!-- Generator: Adobe Illustrator 30.5.0, SVG Export Plug-In . SVG Version: 2.1.4 Build 138)  -->
  <defs>
    <style>
      .st0 {
        fill: #fff;
      }

      .st0, .st1, .st2 {
        stroke: #000;
        stroke-miterlimit: 10;
        stroke-width: .5px;
      }

      .st1, .st2 {
        fill: none;
      }

      .st2 {
        stroke-linecap: square;
      }
    </style>
  </defs>
  <polyline class="st0" points="19.63 268.66 19.99 282.4 19.99 268.84"/>
  <polyline class="st0" points="19.63 268.6 19.63 282.1 19.99 282.4"/>
  <line class="st1" x1="19.51" y1="268.54" x2="19.63" y2="282.1"/>
  <polyline class="st0" points="19.45 268.54 19.45 281.74 19.63 282.1"/>
  <polyline class="st0" points="28.33 287.26 28.87 287.44 28.33 273.64"/>
  <line class="st1" x1="28.33" y1="273.64" x2="28.33" y2="287.26"/>
  <line class="st1" x1="28.87" y1="287.44" x2="28.87" y2="273.94"/>
  <polyline class="st0" points="28.87 287.44 29.47 287.5 28.87 274"/>
  <line class="st1" x1="29.47" y1="287.5" x2="29.47" y2="274.3"/>
  <polyline class="st0" points="29.47 287.5 30.13 287.44 29.53 274.36"/>
  <line class="st1" x1="30.13" y1="287.44" x2="30.13" y2="274.72"/>
  <polyline class="st0" points="30.13 287.44 30.67 287.26 30.19 274.72"/>
  <line class="st1" x1="30.67" y1="287.26" x2="30.67" y2="275.02"/>
  <line class="st1" x1="19.99" y1="268.84" x2="19.99" y2="282.4"/>
  <line class="st1" x1="19.99" y1="282.4" x2="28.33" y2="287.26"/>
  <line class="st1" x1="28.33" y1="287.26" x2="28.33" y2="273.64"/>
  <line class="st1" x1="30.67" y1="275.02" x2="30.67" y2="287.26"/>
  <line class="st1" x1="30.67" y1="287.26" x2="37.69" y2="283.18"/>
  <line class="st1" x1="37.69" y1="283.18" x2="37.69" y2="279.04"/>
  <line class="st1" x1="39.79" y1="280.3" x2="39.79" y2="284.44"/>
  <line class="st1" x1="37.69" y1="283.18" x2="37.69" y2="279.04"/>
  <polyline class="st0" points="204.97 375.64 205.27 389.44 205.27 375.82"/>
  <polyline class="st0" points="204.91 375.64 204.91 389.08 205.27 389.44"/>
  <line class="st1" x1="204.85" y1="375.58" x2="204.91" y2="389.08"/>
  <polyline class="st0" points="204.79 375.58 204.79 388.72 204.91 389.08"/>
  <polyline class="st0" points="213.61 394.24 214.15 394.42 213.67 380.68"/>
  <line class="st1" x1="213.61" y1="380.68" x2="213.61" y2="394.24"/>
  <line class="st1" x1="214.15" y1="394.42" x2="214.15" y2="380.98"/>
  <polyline class="st0" points="214.15 394.42 214.81 394.54 214.21 380.98"/>
  <line class="st1" x1="214.81" y1="394.54" x2="214.81" y2="381.34"/>
  <polyline class="st0" points="214.81 394.54 215.47 394.42 214.87 381.34"/>
  <line class="st1" x1="215.47" y1="394.42" x2="215.47" y2="381.7"/>
  <polyline class="st0" points="215.47 394.42 216.01 394.24 215.53 381.76"/>
  <line class="st1" x1="216.01" y1="394.24" x2="216.01" y2="382"/>
  <line class="st1" x1="205.27" y1="375.82" x2="205.27" y2="389.44"/>
  <line class="st1" x1="205.27" y1="389.44" x2="213.61" y2="394.24"/>
  <line class="st1" x1="213.61" y1="394.24" x2="213.61" y2="380.68"/>
  <line class="st1" x1="216.01" y1="382" x2="216.01" y2="394.24"/>
  <line class="st1" x1="216.01" y1="394.24" x2="223.03" y2="390.16"/>
  <line class="st1" x1="223.03" y1="390.16" x2="223.03" y2="386.08"/>
  <line class="st1" x1="225.13" y1="387.28" x2="225.13" y2="391.42"/>
  <line class="st1" x1="223.03" y1="390.16" x2="223.03" y2="386.08"/>
  <line class="st1" x1="677.41" y1="169" x2="664.93" y2="161.8"/>
  <line class="st1" x1="656.05" y1="166.9" x2="668.53" y2="174.1"/>
  <line class="st1" x1="668.53" y1="174.1" x2="668.53" y2="451.06"/>
  <line class="st1" x1="668.53" y1="451.06" x2="677.41" y2="445.96"/>
  <line class="st1" x1="677.41" y1="445.96" x2="677.41" y2="169"/>
  <line class="st1" x1="677.41" y1="169" x2="668.53" y2="174.1"/>
  <line class="st1" x1="668.53" y1="451.06" x2="524.89" y2="368.14"/>
  <line class="st1" x1="677.41" y1="445.96" x2="677.41" y2="169"/>
  <line class="st1" x1="677.41" y1="169" x2="668.53" y2="174.1"/>
  <line class="st1" x1="668.53" y1="451.06" x2="677.41" y2="445.96"/>
  <line class="st1" x1="676.75" y1="168.58" x2="677.41" y2="169"/>
  <line class="st1" x1="668.53" y1="451.06" x2="668.53" y2="174.1"/>
  <line class="st1" x1="668.53" y1="174.1" x2="667.81" y2="173.68"/>
  <line class="st1" x1="667.81" y1="450.7" x2="668.53" y2="451.06"/>
  <line class="st1" x1="667.81" y1="450.7" x2="667.81" y2="173.68"/>
  <line class="st1" x1="667.81" y1="173.68" x2="676.75" y2="168.58"/>
  <line class="st1" x1="676.75" y1="168.58" x2="664.93" y2="161.8"/>
  <line class="st1" x1="667.81" y1="173.68" x2="676.75" y2="168.58"/>
  <line class="st1" x1="667.81" y1="173.68" x2="656.05" y2="166.9"/>
  <line class="st1" x1="667.81" y1="174.52" x2="667.81" y2="173.68"/>
  <line class="st1" x1="667.81" y1="174.52" x2="655.33" y2="167.32"/>
  <line class="st1" x1="525.61" y1="367.72" x2="667.81" y2="449.86"/>
  <line class="st1" x1="524.89" y1="368.14" x2="667.81" y2="450.7"/>
  <line class="st1" x1="667.81" y1="450.7" x2="667.81" y2="449.86"/>
  <line class="st1" x1="249.73" y1="391.18" x2=".25" y2="247.18"/>
  <line class="st1" x1=".25" y1="257.44" x2="249.73" y2="401.5"/>
  <line class="st1" x1="249.73" y1="401.5" x2="677.41" y2="154.54"/>
  <line class="st1" x1="677.41" y1="154.54" x2="677.41" y2="144.28"/>
  <line class="st1" x1="677.41" y1="144.28" x2="249.73" y2="391.18"/>
  <line class="st1" x1="249.73" y1="391.18" x2="249.73" y2="401.5"/>
  <line class="st1" x1=".25" y1="247.18" x2="427.93" y2=".22"/>
  <line class="st1" x1=".25" y1="257.44" x2=".25" y2="247.18"/>
  <line class="st1" x1="427.93" y1=".22" x2="677.41" y2="144.28"/>
  <line class="st1" x1=".25" y1="247.18" x2="427.93" y2=".22"/>
  <line class="st1" x1=".25" y1="257.44" x2=".25" y2="247.18"/>
  <line class="st1" x1=".97" y1="247.6" x2="428.65" y2=".64"/>
  <line class="st1" x1="428.65" y1=".64" x2="427.93" y2=".22"/>
  <line class="st1" x1=".25" y1="247.18" x2=".97" y2="247.6"/>
  <line class="st1" x1=".97" y1="257.86" x2=".25" y2="257.44"/>
  <line class="st1" x1=".97" y1="247.6" x2=".97" y2="257.86"/>
  <line class="st1" x1="249.01" y1="390.82" x2=".97" y2="247.6"/>
  <line class="st1" x1=".97" y1="247.6" x2=".97" y2="257.86"/>
  <line class="st1" x1="249.01" y1="401.08" x2="249.01" y2="390.82"/>
  <line class="st1" x1="249.73" y1="390.4" x2="1.69" y2="247.18"/>
  <line class="st1" x1="1.69" y1="247.18" x2=".97" y2="247.6"/>
  <line class="st1" x1="249.01" y1="390.82" x2="249.73" y2="390.4"/>
  <line class="st1" x1="249.01" y1="401.08" x2=".97" y2="257.86"/>
  <line class="st1" x1="677.41" y1="144.28" x2="249.73" y2="391.18"/>
  <line class="st1" x1="249.73" y1="391.18" x2="249.73" y2="401.5"/>
  <line class="st1" x1="677.41" y1="154.54" x2="677.41" y2="144.28"/>
  <line class="st1" x1="676.75" y1="143.86" x2="249.01" y2="390.82"/>
  <line class="st1" x1="249.01" y1="390.82" x2="249.73" y2="391.18"/>
  <line class="st1" x1="677.41" y1="144.28" x2="676.75" y2="143.86"/>
  <line class="st1" x1="677.41" y1="154.54" x2="249.73" y2="401.5"/>
  <line class="st1" x1="249.73" y1="401.5" x2="249.01" y2="401.08"/>
  <line class="st1" x1="249.01" y1="401.08" x2="249.01" y2="390.82"/>
  <line class="st1" x1="428.65" y1=".64" x2="676.75" y2="143.86"/>
  <line class="st1" x1="427.93" y1="1.06" x2="676.03" y2="144.28"/>
  <line class="st1" x1="676.03" y1="144.28" x2="676.75" y2="143.86"/>
  <line class="st1" x1="428.65" y1=".64" x2="427.93" y2="1.06"/>
  <line class="st1" x1="258.67" y1="410.74" x2="223.03" y2="390.16"/>
  <line class="st1" x1="204.79" y1="379.66" x2="37.69" y2="283.18"/>
  <line class="st1" x1="19.45" y1="272.68" x2="9.19" y2="266.74"/>
  <line class="st1" x1=".25" y1="271.84" x2="249.73" y2="415.9"/>
  <line class="st1" x1=".25" y1="548.8" x2=".25" y2="271.84"/>
  <line class="st1" x1=".25" y1="271.84" x2="9.19" y2="266.74"/>
  <line class="st1" x1="249.73" y1="415.9" x2="249.73" y2="692.86"/>
  <line class="st1" x1="249.73" y1="692.86" x2="258.67" y2="687.7"/>
  <line class="st1" x1="258.67" y1="687.7" x2="258.67" y2="410.74"/>
  <line class="st1" x1="258.67" y1="410.74" x2="249.73" y2="415.9"/>
  <line class="st1" x1="249.73" y1="692.86" x2=".25" y2="548.8"/>
  <line class="st1" x1="249.73" y1="415.9" x2="249.73" y2="692.86"/>
  <line class="st1" x1="249.73" y1="692.86" x2="258.67" y2="687.7"/>
  <line class="st1" x1="258.67" y1="410.74" x2="249.73" y2="415.9"/>
  <line class="st1" x1="249.01" y1="415.48" x2="249.01" y2="692.44"/>
  <line class="st2" x1="249.01" y1="692.44" x2="249.73" y2="692.86"/>
  <line class="st1" x1="249.73" y1="415.9" x2="249.01" y2="415.48"/>
  <line class="st1" x1="258.67" y1="410.74" x2="258.67" y2="687.7"/>
  <line class="st1" x1="257.95" y1="410.32" x2="258.67" y2="410.74"/>
  <line class="st1" x1="249.01" y1="415.48" x2="257.95" y2="410.32"/>
  <line class="st1" x1=".97" y1="272.26" x2="249.01" y2="415.48"/>
  <line class="st1" x1="249.01" y1="415.48" x2="257.95" y2="410.32"/>
  <line class="st1" x1="9.85" y1="267.1" x2=".97" y2="272.26"/>
  <line class="st1" x1=".97" y1="273.1" x2="249.01" y2="416.32"/>
  <line class="st1" x1="249.01" y1="416.32" x2="249.01" y2="415.48"/>
  <line class="st1" x1=".97" y1="272.26" x2=".97" y2="273.1"/>
  <line class="st1" x1="9.85" y1="267.1" x2="19.45" y2="272.68"/>
  <line class="st1" x1="37.69" y1="283.18" x2="204.79" y2="379.66"/>
  <line class="st1" x1="223.03" y1="390.16" x2="257.95" y2="410.32"/>
  <line class="st1" x1=".25" y1="548.8" x2=".25" y2="271.84"/>
  <line class="st1" x1=".25" y1="271.84" x2="9.19" y2="266.74"/>
  <line class="st1" x1=".97" y1="549.22" x2=".97" y2="272.26"/>
  <line class="st1" x1=".97" y1="272.26" x2=".25" y2="271.84"/>
  <line class="st1" x1=".25" y1="548.8" x2=".97" y2="549.22"/>
  <line class="st1" x1="9.19" y1="266.74" x2="9.85" y2="267.1"/>
  <line class="st1" x1="9.85" y1="267.1" x2=".97" y2="272.26"/>
  <line class="st1" x1="249.01" y1="691.66" x2=".97" y2="548.44"/>
  <line class="st1" x1=".97" y1="548.44" x2=".97" y2="549.22"/>
  <line class="st2" x1="249.01" y1="692.44" x2="249.01" y2="691.66"/>
  <line class="st1" x1="249.01" y1="692.44" x2=".97" y2="549.22"/>
  <line class="st1" x1="650.71" y1="170.02" x2="650.71" y2="295.54"/>
  <line class="st1" x1="650.71" y1="295.54" x2="258.67" y2="521.86"/>
  <line class="st1" x1="240.85" y1="400.48" x2="244.39" y2="398.44"/>
  <line class="st1" x1="237.97" y1="394.72" x2="234.43" y2="396.76"/>
  <line class="st1" x1="234.43" y1="396.76" x2="240.85" y2="400.48"/>
  <line class="st1" x1="240.85" y1="400.48" x2="244.39" y2="398.38"/>
  <line class="st1" x1="234.43" y1="396.76" x2="240.85" y2="400.48"/>
  <line class="st1" x1="241.57" y1="400.9" x2="245.11" y2="398.8"/>
  <line class="st1" x1="234.43" y1="396.76" x2="237.97" y2="394.72"/>
  <line class="st1" x1="650.71" y1="170.02" x2="650.71" y2="294.7"/>
  <line class="st1" x1="649.99" y1="170.44" x2="649.99" y2="295.12"/>
  <line class="st1" x1="649.99" y1="295.12" x2="650.71" y2="294.7"/>
  <line class="st1" x1="650.71" y1="295.54" x2="258.67" y2="521.86"/>
  <line class="st1" x1="650.71" y1="294.7" x2="258.67" y2="521.08"/>
  <line class="st1" x1="650.71" y1="295.54" x2="650.71" y2="294.7"/>
</svg>