<?xml version="1.0" encoding="UTF-8"?>
<svg xmlns="http://www.w3.org/2000/svg" version="1.1" viewBox="0 0 841.89 841.89">
  <!-- Generator: Adobe Illustrator 30.3.0, SVG Export Plug-In . SVG Version: 2.1.3 Build 182)  -->
  <defs>
    <style>
      .st0 {
        opacity: .91;
      }

      .st0, .st1 {
        fill: none;
        stroke: #000;
        stroke-linecap: round;
        stroke-linejoin: round;
        stroke-width: .5px;
      }

      .st2 {
        opacity: .5;
      }
    </style>
  </defs>
  <g id="Layer_3" class="st2">
    <polyline class="st0" points="592.4 394.52 592.46 523.94 592.52 394.4"/>
    <polyline class="st0" points="592.22 394.64 592.1 523.64 592.46 523.94"/>
    <line class="st0" x1="592.16" y1="394.64" x2="592.1" y2="523.64"/>
    <polyline class="st0" points="592.1 394.7 592.04 523.34 592.1 523.64"/>
    <line class="st0" x1="626.36" y1="374.96" x2="626.24" y2="523.34"/>
    <line class="st0" x1="626.3" y1="374.96" x2="626.24" y2="523.34"/>
    <polyline class="st0" points="626.24 375.02 626.12 523.7 626.24 523.34"/>
    <line class="st0" x1="626.06" y1="375.08" x2="626.12" y2="523.7"/>
    <polyline class="st0" points="625.88 375.2 625.82 523.94 626.12 523.7"/>
    <polyline class="st0" points="610.04 384.32 610.22 532.94 610.28 384.2"/>
    <polyline class="st0" points="609.8 384.5 609.68 533.18 610.22 532.94"/>
    <line class="st0" x1="609.5" y1="384.68" x2="609.68" y2="533.18"/>
    <polyline class="st0" points="609.2 384.8 609.14 533.24 609.68 533.18"/>
    <line class="st0" x1="608.9" y1="384.98" x2="609.14" y2="533.24"/>
    <polyline class="st0" points="608.66 385.16 608.54 533.18 609.14 533.24"/>
    <line class="st0" x1="608.36" y1="385.28" x2="608.54" y2="533.18"/>
    <polyline class="st0" points="608.18 385.4 608.06 532.94 608.54 533.18"/>
    <line class="st0" x1="592.46" y1="523.94" x2="592.52" y2="394.4"/>
    <line class="st0" x1="610.22" y1="532.94" x2="625.82" y2="523.94"/>
    <line class="st0" x1="625.82" y1="523.94" x2="625.88" y2="375.2"/>
    <line class="st0" x1="610.22" y1="532.94" x2="610.28" y2="384.2"/>
    <line class="st0" x1="592.46" y1="523.94" x2="608.06" y2="532.94"/>
    <line class="st0" x1="608.06" y1="532.94" x2="608.18" y2="385.4"/>
    <line class="st0" x1="241.52" y1="502.94" x2="241.4" y2="745.28"/>
    <line class="st0" x1="241.4" y1="502.88" x2="241.4" y2="745.28"/>
    <polyline class="st0" points="241.4 502.88 241.28 745.58 241.4 745.28"/>
    <line class="st0" x1="241.1" y1="502.76" x2="241.28" y2="745.58"/>
    <polyline class="st0" points="241.1 502.76 240.92 745.88 241.28 745.58"/>
    <polyline class="st0" points="225.02 496.7 225.32 754.88 225.44 496.88"/>
    <polyline class="st0" points="224.96 496.7 224.84 755.06 225.32 754.88"/>
    <line class="st0" x1="224.42" y1="496.46" x2="224.84" y2="755.06"/>
    <polyline class="st0" points="224.42 496.46 224.24 755.12 224.84 755.06"/>
    <line class="st0" x1="223.88" y1="496.16" x2="224.24" y2="755.12"/>
    <polyline class="st0" points="223.82 496.16 223.7 755.06 224.24 755.12"/>
    <line class="st0" x1="223.4" y1="495.86" x2="223.7" y2="755.06"/>
    <polyline class="st0" points="223.34 495.86 223.16 754.88 223.7 755.06"/>
    <polyline class="st0" points="207.44 486.68 207.56 745.88 207.74 486.86"/>
    <polyline class="st0" points="207.38 486.62 207.26 745.58 207.56 745.88"/>
    <line class="st0" x1="207.32" y1="486.56" x2="207.26" y2="745.58"/>
    <polyline class="st0" points="207.26 486.56 207.14 745.22 207.26 745.58"/>
    <line class="st0" x1="225.32" y1="754.88" x2="240.92" y2="745.88"/>
    <line class="st0" x1="240.92" y1="745.88" x2="241.1" y2="502.76"/>
    <line class="st0" x1="225.32" y1="754.88" x2="225.44" y2="496.88"/>
    <line class="st0" x1="207.56" y1="745.88" x2="223.16" y2="754.88"/>
    <line class="st0" x1="223.16" y1="754.88" x2="223.34" y2="495.86"/>
    <line class="st0" x1="207.56" y1="745.88" x2="207.74" y2="486.86"/>
    <polyline class="st0" points="704.24 595.82 704.24 597.74 707.3 597.62"/>
    <polyline class="st0" points="702.14 594.62 700.4 594.38 704.24 597.74"/>
    <polyline class="st0" points="700.4 594.38 700.4 597.26 704.24 597.74"/>
    <polyline class="st0" points="700.4 594.38 696.92 593.36 700.4 597.26"/>
    <polyline class="st0" points="696.92 593.36 696.92 596.18 700.4 597.26"/>
    <polyline class="st0" points="696.92 593.36 694.16 591.74 696.92 596.18"/>
    <polyline class="st0" points="694.16 591.74 694.1 594.62 696.92 596.18"/>
    <polyline class="st0" points="694.16 591.74 692.24 589.76 694.1 594.62"/>
    <polyline class="st0" points="692.24 589.76 692.24 592.64 694.1 594.62"/>
    <line class="st0" x1="692.24" y1="589.76" x2="691.76" y2="588.62"/>
    <line class="st0" x1="691.52" y1="588.5" x2="692.24" y2="592.64"/>
    <polyline class="st0" points="691.34 588.38 691.34 590.42 692.24 592.64"/>
    <line class="st0" x1="695.36" y1="595.4" x2="694.7" y2="594.92"/>
    <polyline class="st0" points="693.8 594.26 693.2 593.84 692.66 593.12"/>
    <polyline class="st0" points="692.12 592.34 691.88 591.98 691.58 591.02"/>
    <polyline class="st0" points="691.34 590.18 691.34 590 691.34 589.82"/>
    <polyline class="st0" points="707.3 597.62 704.66 597.74 704.42 597.74"/>
    <polyline class="st0" points="703.28 597.62 701.24 597.44 700.82 597.32"/>
    <polyline class="st0" points="699.5 597.02 698.06 596.66 697.46 596.36"/>
    <line class="st0" x1="696.32" y1="595.82" x2="695.36" y2="595.4"/>
    <polyline class="st0" points="695.36 592.52 693.2 590.96 691.88 589.16 691.7 588.62"/>
    <polyline class="st0" points="702.2 594.68 701.24 594.56 698.06 593.78 695.36 592.52"/>
    <polyline class="st0" points="512.42 484.94 512.42 486.98 515.72 486.86"/>
    <polyline class="st0" points="510.5 483.86 508.58 483.56 512.42 486.98"/>
    <polyline class="st0" points="508.58 483.56 508.58 486.44 512.42 486.98"/>
    <polyline class="st0" points="508.58 483.56 505.16 482.48 508.58 486.44"/>
    <polyline class="st0" points="505.16 482.48 505.16 485.36 508.58 486.44"/>
    <polyline class="st0" points="505.16 482.48 502.4 480.86 505.16 485.36"/>
    <polyline class="st0" points="502.4 480.86 502.4 483.74 505.16 485.36"/>
    <polyline class="st0" points="502.4 480.86 500.54 478.88 502.4 483.74"/>
    <polyline class="st0" points="500.54 478.88 500.54 481.7 502.4 483.74"/>
    <line class="st0" x1="500.54" y1="478.88" x2="500.18" y2="477.86"/>
    <line class="st0" x1="499.88" y1="477.68" x2="500.54" y2="481.7"/>
    <polyline class="st0" points="499.76 477.62 499.76 479.48 500.54 481.7"/>
    <polyline class="st0" points="499.88 479.84 499.88 480.26 500.3 481.16"/>
    <polyline class="st0" points="500.72 481.94 500.84 482.18 501.92 483.26"/>
    <polyline class="st0" points="502.52 483.8 502.58 483.92 505.04 485.3 505.1 485.3"/>
    <polyline class="st0" points="505.58 485.48 508.04 486.32 508.34 486.38"/>
    <polyline class="st0" points="509.54 486.56 511.34 486.86 511.94 486.92"/>
    <polyline class="st0" points="513.38 486.92 514.82 486.98 515.66 486.86"/>
    <polyline class="st0" points="500.12 477.8 500.84 479.3 502.58 481.04 505.04 482.42 508.04 483.44 510.62 483.92"/>
    <polyline class="st0" points="318.92 817.7 318.92 819.74 322.22 819.62"/>
    <polyline class="st0" points="317.06 816.62 315.14 816.38 318.92 819.74"/>
    <polyline class="st0" points="315.14 816.38 315.08 819.26 318.92 819.74"/>
    <polyline class="st0" points="315.14 816.38 311.66 815.24 315.08 819.26"/>
    <polyline class="st0" points="311.66 815.24 311.66 818.12 315.08 819.26"/>
    <polyline class="st0" points="311.66 815.24 308.9 813.62 311.66 818.12"/>
    <polyline class="st0" points="308.9 813.62 308.9 816.5 311.66 818.12"/>
    <polyline class="st0" points="308.9 813.62 307.1 811.64 308.9 816.5"/>
    <polyline class="st0" points="307.1 811.64 307.1 814.52 308.9 816.5"/>
    <line class="st0" x1="307.1" y1="811.64" x2="306.74" y2="810.68"/>
    <line class="st0" x1="306.44" y1="810.5" x2="307.1" y2="814.52"/>
    <polyline class="st0" points="306.26 810.38 306.26 812.3 307.1 814.52"/>
    <polyline class="st0" points="306.38 812.6 306.44 813.02 306.86 813.92"/>
    <polyline class="st0" points="307.28 814.7 307.4 814.94 308.48 816.02"/>
    <polyline class="st0" points="309.02 816.56 309.14 816.68 311.6 818.12 311.66 818.12"/>
    <polyline class="st0" points="312.14 818.3 314.54 819.08 314.9 819.14"/>
    <polyline class="st0" points="316.1 819.38 317.9 819.68 318.44 819.68"/>
    <polyline class="st0" points="319.94 819.68 321.32 819.74 322.16 819.62"/>
    <polyline class="st0" points="306.62 810.62 307.4 812.06 309.14 813.8 311.6 815.24 314.54 816.26 317.12 816.68"/>
    <polyline class="st0" points="127.58 707.12 127.58 708.98 130.64 708.86"/>
    <polyline class="st0" points="125.48 705.86 123.74 705.68 127.58 708.98"/>
    <polyline class="st0" points="123.74 705.68 123.74 708.5 127.58 708.98"/>
    <polyline class="st0" points="123.74 705.68 120.26 704.6 123.74 708.5"/>
    <polyline class="st0" points="120.26 704.6 120.26 707.42 123.74 708.5"/>
    <polyline class="st0" points="120.26 704.6 117.5 702.98 120.26 707.42"/>
    <polyline class="st0" points="117.5 702.98 117.5 705.86 120.26 707.42"/>
    <polyline class="st0" points="117.5 702.98 115.58 701 117.5 705.86"/>
    <polyline class="st0" points="115.58 701 115.58 703.88 117.5 705.86"/>
    <line class="st0" x1="115.58" y1="701" x2="115.1" y2="699.86"/>
    <line class="st0" x1="114.86" y1="699.74" x2="115.58" y2="703.88"/>
    <polyline class="st0" points="114.68 699.62 114.68 701.66 115.58 703.88"/>
    <line class="st0" x1="118.7" y1="706.64" x2="118.04" y2="706.16"/>
    <polyline class="st0" points="117.14 705.5 116.6 705.08 116.06 704.36"/>
    <polyline class="st0" points="115.46 703.58 115.22 703.22 114.92 702.26"/>
    <polyline class="st0" points="114.68 701.42 114.68 701.3 114.68 701.06"/>
    <polyline class="st0" points="130.64 708.86 128 708.98 127.76 708.98"/>
    <polyline class="st0" points="126.62 708.86 124.58 708.68 124.16 708.56"/>
    <polyline class="st0" points="122.84 708.26 121.4 707.9 120.8 707.6"/>
    <line class="st0" x1="119.66" y1="707.06" x2="118.7" y2="706.64"/>
    <polyline class="st0" points="118.7 703.82 116.6 702.2 115.22 700.4 115.04 699.86"/>
    <polyline class="st0" points="125.54 705.92 124.58 705.8 121.4 705.02 118.7 703.82"/>
    <line class="st0" x1="506.6" y1="447.86" x2="508.22" y2="448.46"/>
    <line class="st0" x1="504.68" y1="447.62" x2="506.6" y2="447.86"/>
    <line class="st0" x1="502.76" y1="447.86" x2="504.68" y2="447.62"/>
    <line class="st0" x1="501.08" y1="448.46" x2="502.76" y2="447.86"/>
    <line class="st0" x1="478.7" y1="461.72" x2="479.78" y2="460.76"/>
    <polyline class="st0" points="478.34 464.06 478.34 462.8 478.7 461.72"/>
    <polyline class="st0" points="478.34 464.06 478.7 465.14 478.34 462.8"/>
    <polyline class="st0" points="478.7 465.14 478.7 463.94 478.34 462.8"/>
    <polyline class="st0" points="478.7 465.14 479.78 466.1 478.7 463.94"/>
    <polyline class="st0" points="479.78 466.1 479.78 464.84 478.7 463.94"/>
    <polyline class="st0" points="738.8 587.12 739.94 586.22 738.8 585.92 738.8 587.12"/>
    <polyline class="st0" points="739.94 586.22 739.94 584.96 738.8 585.92"/>
    <polyline class="st0" points="739.94 586.22 740.3 585.08 739.94 584.96"/>
    <polyline class="st0" points="740.3 585.08 740.3 583.88 739.94 584.96"/>
    <line class="st0" x1="739.94" y1="582.74" x2="740.3" y2="583.88"/>
    <line class="st0" x1="738.86" y1="581.84" x2="739.94" y2="582.74"/>
    <polyline class="st0" points="710.42 599.42 712.04 600.02 710.42 598.16 710.42 599.42"/>
    <polyline class="st0" points="712.04 600.02 712.04 598.82 710.42 598.16"/>
    <polyline class="st0" points="712.04 600.02 713.96 600.26 712.04 598.82"/>
    <polyline class="st0" points="713.96 600.26 713.96 599.06 712.04 598.82"/>
    <polyline class="st0" points="713.96 600.26 715.88 600.08 713.96 599.06"/>
    <polyline class="st0" points="715.88 600.08 715.88 598.82 713.96 599.06"/>
    <polyline class="st0" points="715.88 600.08 717.5 599.42 715.88 598.82"/>
    <polyline class="st0" points="717.5 599.42 717.5 598.22 715.88 598.82"/>
    <line class="st0" x1="479.78" y1="460.76" x2="501.08" y2="448.46"/>
    <line class="st0" x1="508.22" y1="448.46" x2="592.04" y2="496.94"/>
    <line class="st0" x1="626.24" y1="516.74" x2="738.86" y2="581.84"/>
    <line class="st0" x1="710.42" y1="598.16" x2="479.78" y2="464.84"/>
    <line class="st0" x1="479.78" y1="464.84" x2="479.78" y2="466.1"/>
    <line class="st0" x1="710.42" y1="599.42" x2="710.42" y2="598.16"/>
    <polyline class="st0" points="508.22 448.46 506.6 447.86 504.68 447.62 502.76 447.86 501.08 448.46"/>
    <polyline class="st0" points="479.78 460.76 478.7 461.72 478.34 462.8 478.7 463.94 479.78 464.84"/>
    <polyline class="st0" points="710.42 598.16 712.04 598.82 713.96 599.06 715.88 598.82 717.5 598.22"/>
    <polyline class="st0" points="738.8 585.92 739.94 584.96 740.3 583.88 739.94 582.74 738.86 581.84"/>
    <line class="st0" x1="738.8" y1="587.12" x2="738.8" y2="585.92"/>
    <line class="st0" x1="738.8" y1="585.92" x2="717.5" y2="598.22"/>
    <line class="st0" x1="717.5" y1="598.22" x2="717.5" y2="599.42"/>
    <polyline class="st0" points="740.3 585.08 739.94 586.22 738.8 587.12"/>
    <line class="st0" x1="738.8" y1="587.12" x2="717.5" y2="599.42"/>
    <polyline class="st0" points="717.5 599.42 715.88 600.08 713.96 600.26 712.04 600.02 710.42 599.42"/>
    <line class="st0" x1="710.42" y1="599.42" x2="479.78" y2="466.1"/>
    <polyline class="st0" points="479.78 466.1 478.7 465.14 478.34 464.06"/>
    <line class="st0" x1="93.68" y1="683.72" x2="94.76" y2="682.76"/>
    <polyline class="st0" points="93.26 686.06 93.26 684.8 93.68 683.72"/>
    <polyline class="st0" points="93.26 686.06 93.68 687.14 93.26 684.8"/>
    <polyline class="st0" points="93.68 687.14 93.68 685.94 93.26 684.8"/>
    <polyline class="st0" points="93.68 687.14 94.76 688.1 93.68 685.94"/>
    <polyline class="st0" points="94.76 688.1 94.76 686.9 93.68 685.94"/>
    <line class="st0" x1="121.52" y1="669.86" x2="123.14" y2="670.52"/>
    <line class="st0" x1="119.6" y1="669.62" x2="121.52" y2="669.86"/>
    <line class="st0" x1="117.68" y1="669.86" x2="119.6" y2="669.62"/>
    <line class="st0" x1="116.06" y1="670.46" x2="117.68" y2="669.86"/>
    <polyline class="st0" points="325.4 821.42 327.02 822.08 325.4 820.22 325.4 821.42"/>
    <polyline class="st0" points="327.02 822.08 327.02 820.82 325.4 820.22"/>
    <polyline class="st0" points="327.02 822.08 328.94 822.26 327.02 820.82"/>
    <polyline class="st0" points="328.94 822.26 328.94 821.06 327.02 820.82"/>
    <polyline class="st0" points="328.94 822.26 330.86 822.08 328.94 821.06"/>
    <polyline class="st0" points="330.86 822.08 330.86 820.82 328.94 821.06"/>
    <polyline class="st0" points="330.86 822.08 332.48 821.42 330.86 820.82"/>
    <polyline class="st0" points="332.48 821.42 332.48 820.22 330.86 820.82"/>
    <polyline class="st0" points="353.78 809.18 354.86 808.22 353.78 807.92 353.78 809.18"/>
    <polyline class="st0" points="354.86 808.22 354.86 806.96 353.78 807.92"/>
    <polyline class="st0" points="354.86 808.22 355.22 807.08 354.86 806.96"/>
    <polyline class="st0" points="355.22 807.08 355.22 805.88 354.86 806.96"/>
    <line class="st0" x1="354.86" y1="804.74" x2="355.22" y2="805.88"/>
    <line class="st0" x1="353.78" y1="803.84" x2="354.86" y2="804.74"/>
    <line class="st0" x1="94.76" y1="686.9" x2="325.4" y2="820.22"/>
    <line class="st0" x1="332.48" y1="820.22" x2="353.78" y2="807.92"/>
    <line class="st0" x1="353.78" y1="803.84" x2="241.4" y2="738.86"/>
    <line class="st0" x1="207.14" y1="719.06" x2="123.14" y2="670.52"/>
    <line class="st0" x1="116.06" y1="670.46" x2="94.76" y2="682.76"/>
    <line class="st0" x1="332.48" y1="821.42" x2="353.78" y2="809.18"/>
    <line class="st0" x1="94.76" y1="688.1" x2="325.4" y2="821.42"/>
    <polyline class="st0" points="93.26 686.06 93.68 687.14 94.76 688.1"/>
    <line class="st0" x1="94.76" y1="688.1" x2="94.76" y2="686.9"/>
    <polyline class="st0" points="94.76 686.9 93.68 685.94 93.26 684.8 93.68 683.72 94.76 682.76"/>
    <polyline class="st0" points="116.06 670.46 117.68 669.86 119.6 669.62 121.52 669.86 123.14 670.52"/>
    <polyline class="st0" points="325.4 821.42 327.02 822.08 328.94 822.26 330.86 822.08 332.48 821.42"/>
    <line class="st0" x1="332.48" y1="821.42" x2="332.48" y2="820.22"/>
    <polyline class="st0" points="332.48 820.22 330.86 820.82 328.94 821.06 327.02 820.82 325.4 820.22"/>
    <line class="st0" x1="325.4" y1="820.22" x2="325.4" y2="821.42"/>
    <polyline class="st0" points="353.78 809.18 354.86 808.22 355.22 807.08"/>
    <polyline class="st0" points="353.78 803.84 354.86 804.74 355.22 805.88 354.86 806.96 353.78 807.92"/>
    <line class="st0" x1="353.78" y1="807.92" x2="353.78" y2="809.18"/>
    <line class="st0" x1="157.76" y1="448.52" x2="204.56" y2="485"/>
    <line class="st0" x1="204.56" y1="485" x2="224.42" y2="496.46"/>
    <line class="st0" x1="224.42" y1="496.46" x2="271.22" y2="514.1"/>
  </g>
  <g id="Layer_2">
    <g>
      <line class="st1" x1="505.7" y1="147.44" x2="754.1" y2="291.02"/>
      <line class="st1" x1="79.64" y1="403.34" x2="79.64" y2="393.08"/>
      <line class="st1" x1="79.64" y1="393.08" x2="505.7" y2="147.44"/>
      <line class="st1" x1="754.1" y1="291.02" x2="328.04" y2="536.72"/>
      <line class="st1" x1="328.04" y1="536.72" x2="328.04" y2="546.92"/>
      <line class="st1" x1="328.04" y1="546.92" x2="754.1" y2="301.28"/>
      <line class="st1" x1="754.1" y1="301.28" x2="754.1" y2="291.02"/>
      <line class="st1" x1="328.04" y1="536.72" x2="79.64" y2="393.08"/>
      <line class="st1" x1="79.64" y1="403.34" x2="328.04" y2="546.92"/>
    </g>
  </g>
</svg>