<?xml version="1.0" encoding="UTF-8"?>
<svg xmlns="http://www.w3.org/2000/svg" version="1.1" viewBox="0 0 841.89 841.89">
  <!-- Generator: Adobe Illustrator 30.3.0, SVG Export Plug-In . SVG Version: 2.1.3 Build 182)  -->
  <defs>
    <style>
      .st0 {
        stroke-width: .2px;
      }

      .st0, .st1 {
        fill: none;
        stroke: #000;
        stroke-linecap: round;
        stroke-linejoin: round;
      }

      .st1 {
        stroke-width: .5px;
      }

      .st2 {
        opacity: .5;
      }
    </style>
  </defs>
  <g id="Layer_1" class="st2">
    <polyline class="st0" points="79.58 692.42 79.58 407.54 328.04 551 328.04 835.82"/>
    <polyline class="st0" points="750.38 303.02 753.92 305.12 753.92 589.94"/>
    <line class="st0" x1="-440.62" y1="-66.7" x2="-440.62" y2="-66.7"/>
    <line class="st0" x1="-440.62" y1="-66.7" x2="-440.62" y2="-66.7"/>
    <line class="st0" x1="-440.62" y1="-66.7" x2="-440.62" y2="-66.7"/>
    <line class="st0" x1="-440.62" y1="-66.7" x2="-440.62" y2="-66.7"/>
    <line class="st0" x1="110.9" y1="443.36" x2="110.9" y2="692.42"/>
    <line class="st0" x1="110.84" y1="443.36" x2="110.9" y2="692.42"/>
    <polyline class="st0" points="110.84 443.36 110.78 692.72 110.9 692.42"/>
    <line class="st0" x1="110.78" y1="443.3" x2="110.78" y2="692.72"/>
    <line class="st0" x1="110.66" y1="443.24" x2="110.78" y2="692.72"/>
    <polyline class="st0" points="110.6 443.18 110.42 693.02 110.78 692.72"/>
    <line class="st0" x1="110.42" y1="443.12" x2="110.42" y2="693.02"/>
    <polyline class="st0" points="80.6 693.02 80.6 409.4 80.3 692.72"/>
    <line class="st0" x1="80.3" y1="692.72" x2="80.6" y2="693.02"/>
    <polyline class="st0" points="80.6 409.4 80.24 408.38 80.3 692.72"/>
    <line class="st0" x1="80.24" y1="408.38" x2="80.18" y2="692.42"/>
    <line class="st0" x1="80.18" y1="692.42" x2="80.3" y2="692.72"/>
    <polyline class="st0" points="80.24 408.38 80.18 407.9 80.18 692.42"/>
    <line class="st0" x1="80.18" y1="407.9" x2="80.24" y2="407.48"/>
    <line class="st0" x1="80.24" y1="407.48" x2="80.36" y2="407.18"/>
    <line class="st0" x1="80.36" y1="407.18" x2="80.6" y2="406.94"/>
    <polyline class="st0" points="96.26 434.96 96.62 701 96.62 435.14"/>
    <line class="st0" x1="96.26" y1="434.96" x2="96.08" y2="701.18"/>
    <line class="st0" x1="96.08" y1="701.18" x2="96.62" y2="701"/>
    <line class="st0" x1="95.9" y1="434.72" x2="96.08" y2="701.18"/>
    <line class="st0" x1="95.9" y1="434.72" x2="95.54" y2="701.24"/>
    <line class="st0" x1="95.54" y1="701.24" x2="96.08" y2="701.18"/>
    <line class="st0" x1="95.54" y1="434.48" x2="95.54" y2="701.24"/>
    <polyline class="st0" points="95.54 434.48 95.12 434.24 95.54 701.24"/>
    <line class="st0" x1="95.12" y1="434.24" x2="94.94" y2="701.18"/>
    <line class="st0" x1="94.94" y1="701.18" x2="95.54" y2="701.24"/>
    <polyline class="st0" points="95.12 434.24 94.46 433.4 94.94 701.18"/>
    <polyline class="st0" points="94.46 433.4 94.46 701 94.94 701.18"/>
    <line class="st0" x1="110.42" y1="443.12" x2="110.42" y2="693.02"/>
    <line class="st0" x1="80.6" y1="406.94" x2="83.12" y2="405.5"/>
    <line class="st0" x1="94.46" y1="433.4" x2="80.6" y2="409.4"/>
    <line class="st0" x1="80.6" y1="409.4" x2="80.6" y2="693.02"/>
    <line class="st0" x1="94.46" y1="433.4" x2="94.46" y2="701"/>
    <line class="st0" x1="94.46" y1="701" x2="80.6" y2="693.02"/>
    <line class="st0" x1="110.42" y1="693.02" x2="96.62" y2="701"/>
    <line class="st0" x1="96.62" y1="435.14" x2="96.62" y2="701"/>
    <line class="st0" x1="339.8" y1="540.08" x2="343.34" y2="542.12"/>
    <polyline class="st0" points="339.8 540.08 343.34 542.18 343.34 542.12"/>
    <line class="st0" x1="339.8" y1="540.08" x2="343.34" y2="542.18"/>
    <line class="st0" x1="339.8" y1="540.08" x2="343.34" y2="542.18"/>
    <polyline class="st0" points="339.56 540.26 343.1 542.3 339.56 540.26"/>
    <polyline class="st0" points="343.1 542.3 343.22 542.18 339.68 540.14"/>
    <line class="st0" x1="343.22" y1="542.18" x2="343.34" y2="542.18"/>
    <line class="st0" x1="339.56" y1="540.26" x2="343.1" y2="542.3"/>
    <polyline class="st0" points="339.38 540.32 342.92 542.42 343.1 542.3"/>
    <polyline class="st0" points="94.46 433.4 95.12 434.24 313.1 559.58 94.46 433.4"/>
    <polyline class="st0" points="95.12 434.24 312.74 559.82 313.1 559.58"/>
    <polyline class="st0" points="95.12 434.24 95.54 434.48 312.74 559.82"/>
    <polyline class="st0" points="95.54 434.48 312.68 559.88 312.74 559.82"/>
    <polyline class="st0" points="329.06 550.4 80.6 406.94 328.76 550.58 329.06 550.4"/>
    <polyline class="st0" points="80.6 406.94 80.36 407.18 328.76 550.58"/>
    <polyline class="st0" points="80.36 407.18 80.24 407.48 328.76 550.58"/>
    <polyline class="st0" points="80.24 407.48 328.4 550.76 328.76 550.58"/>
    <polyline class="st0" points="80.24 407.48 80.18 407.9 328.4 550.76"/>
    <polyline class="st0" points="80.18 407.9 328.04 551 328.4 550.76"/>
    <polyline class="st0" points="80.18 407.9 80.24 408.38 328.04 551"/>
    <polyline class="st0" points="80.24 408.38 327.62 551.24 328.04 551"/>
    <polyline class="st0" points="80.24 408.38 80.6 409.4 327.62 551.24"/>
    <polyline class="st0" points="80.6 409.4 326.96 551.6 327.62 551.24"/>
    <line class="st0" x1="313.1" y1="559.58" x2="94.46" y2="433.4"/>
    <line class="st0" x1="326.96" y1="551.6" x2="80.6" y2="409.4"/>
    <line class="st0" x1="80.6" y1="409.4" x2="94.46" y2="433.4"/>
    <line class="st0" x1="313.1" y1="559.58" x2="326.96" y2="551.6"/>
    <line class="st0" x1="329.06" y1="550.4" x2="80.6" y2="406.94"/>
    <line class="st0" x1="342.92" y1="542.42" x2="339.38" y2="540.32"/>
    <line class="st0" x1="83.12" y1="405.5" x2="80.6" y2="406.94"/>
    <line class="st0" x1="329.06" y1="550.4" x2="342.92" y2="542.42"/>
    <polyline class="st0" points="313.1 827.24 313.1 559.58 312.8 826.94"/>
    <line class="st0" x1="312.8" y1="826.94" x2="313.1" y2="827.24"/>
    <polyline class="st0" points="313.1 559.58 312.74 559.82 312.8 826.94"/>
    <line class="st0" x1="312.74" y1="559.82" x2="312.68" y2="826.64"/>
    <line class="st0" x1="312.68" y1="826.64" x2="312.8" y2="826.94"/>
    <polyline class="st0" points="312.74 559.82 312.68 559.88 312.68 826.64"/>
    <polyline class="st0" points="329.06 550.4 328.76 550.58 329.06 835.22 329.06 550.4"/>
    <line class="st0" x1="328.76" y1="550.58" x2="328.58" y2="835.4"/>
    <line class="st0" x1="328.58" y1="835.4" x2="329.06" y2="835.22"/>
    <polyline class="st0" points="328.76 550.58 328.4 550.76 328.58 835.4"/>
    <line class="st0" x1="328.4" y1="550.76" x2="328.04" y2="835.46"/>
    <line class="st0" x1="328.04" y1="835.46" x2="328.58" y2="835.4"/>
    <polyline class="st0" points="328.4 550.76 328.04 551 328.04 835.46"/>
    <polyline class="st0" points="328.04 551 327.62 551.24 328.04 835.46"/>
    <line class="st0" x1="327.62" y1="551.24" x2="327.44" y2="835.4"/>
    <line class="st0" x1="327.44" y1="835.4" x2="328.04" y2="835.46"/>
    <polyline class="st0" points="327.62 551.24 326.96 551.6 327.44 835.4"/>
    <polyline class="st0" points="326.96 551.6 326.96 835.22 327.44 835.4"/>
    <line class="st0" x1="343.34" y1="542.12" x2="343.34" y2="826.64"/>
    <polyline class="st0" points="343.34 542.12 343.34 542.18 343.34 826.64"/>
    <polyline class="st0" points="343.34 542.18 343.22 826.94 343.34 826.64"/>
    <polyline class="st0" points="343.34 542.18 343.22 542.18 343.22 826.94"/>
    <polyline class="st0" points="343.22 542.18 343.1 542.3 343.22 826.94"/>
    <polyline class="st0" points="343.1 542.3 342.92 827.24 343.22 826.94"/>
    <polyline class="st0" points="343.1 542.3 342.92 542.42 342.92 827.24"/>
    <line class="st0" x1="313.1" y1="827.24" x2="313.1" y2="559.58"/>
    <line class="st0" x1="326.96" y1="835.22" x2="326.96" y2="551.6"/>
    <line class="st0" x1="326.96" y1="551.6" x2="313.1" y2="559.58"/>
    <line class="st0" x1="313.1" y1="827.24" x2="326.96" y2="835.22"/>
    <line class="st0" x1="329.06" y1="835.22" x2="329.06" y2="550.4"/>
    <line class="st0" x1="342.92" y1="827.24" x2="342.92" y2="542.42"/>
    <line class="st0" x1="342.92" y1="542.42" x2="329.06" y2="550.4"/>
    <line class="st0" x1="329.06" y1="835.22" x2="342.92" y2="827.24"/>
    <polyline class="st0" points="490.58 453.02 490.58 456.32 490.58 453.02"/>
    <polyline class="st0" points="490.22 453.26 490.22 456.02 490.58 456.32"/>
    <line class="st0" x1="490.22" y1="453.26" x2="490.22" y2="456.02"/>
    <polyline class="st0" points="490.1 453.32 490.1 455.72 490.22 456.02"/>
    <polyline class="st0" points="506.54 443.84 506.54 464.3 506.54 443.84"/>
    <polyline class="st0" points="506.06 444.08 506.06 464.48 506.54 464.3"/>
    <line class="st0" x1="506.06" y1="444.08" x2="506.06" y2="464.48"/>
    <line class="st0" x1="506.06" y1="444.14" x2="506.06" y2="464.48"/>
    <polyline class="st0" points="505.52 444.44 505.46 464.6 506.06 464.48"/>
    <line class="st0" x1="505.46" y1="444.44" x2="505.46" y2="464.6"/>
    <line class="st0" x1="505.46" y1="444.44" x2="505.46" y2="464.6"/>
    <polyline class="st0" points="504.92 444.8 504.92 464.48 505.46 464.6"/>
    <line class="st0" x1="504.86" y1="444.8" x2="504.92" y2="464.48"/>
    <polyline class="st0" points="504.44 445.04 504.44 464.3 504.92 464.48"/>
    <line class="st0" x1="520.82" y1="435.56" x2="520.82" y2="455.72"/>
    <line class="st0" x1="520.82" y1="435.56" x2="520.82" y2="455.72"/>
    <line class="st0" x1="520.7" y1="435.62" x2="520.7" y2="456.02"/>
    <line class="st0" x1="520.7" y1="456.02" x2="520.82" y2="455.72"/>
    <line class="st0" x1="520.7" y1="435.62" x2="520.7" y2="456.02"/>
    <polyline class="st0" points="520.4 435.8 520.4 456.32 520.7 456.02"/>
    <line class="st0" x1="520.4" y1="435.86" x2="520.4" y2="456.32"/>
    <line class="st0" x1="490.58" y1="453.02" x2="490.58" y2="456.32"/>
    <line class="st0" x1="504.44" y1="445.04" x2="504.44" y2="464.3"/>
    <line class="st0" x1="506.54" y1="443.84" x2="506.54" y2="464.3"/>
    <line class="st0" x1="520.4" y1="435.86" x2="520.4" y2="456.32"/>
    <line class="st0" x1="520.4" y1="456.32" x2="506.54" y2="464.3"/>
    <line class="st0" x1="504.44" y1="464.3" x2="490.58" y2="456.32"/>
    <polyline class="st0" points="735.5 311.66 739.04 313.7 735.5 311.66"/>
    <polyline class="st0" points="735.26 311.78 738.8 313.82 739.04 313.7"/>
    <polyline class="st0" points="734.96 311.96 738.56 314 738.8 313.82"/>
    <line class="st0" x1="734.96" y1="311.96" x2="738.56" y2="314"/>
    <line class="st0" x1="734.96" y1="311.96" x2="738.56" y2="314"/>
    <polyline class="st0" points="734.42 312.26 737.96 314.3 734.42 312.26"/>
    <polyline class="st0" points="737.96 314.3 738.26 314.12 734.72 312.08"/>
    <line class="st0" x1="738.26" y1="314.12" x2="738.56" y2="314"/>
    <line class="st0" x1="734.42" y1="312.26" x2="737.96" y2="314.3"/>
    <polyline class="st0" points="733.82 312.62 737.36 314.66 737.96 314.3"/>
    <line class="st0" x1="733.82" y1="312.62" x2="737.36" y2="314.66"/>
    <polyline class="st0" points="733.34 312.86 736.88 314.9 737.36 314.66"/>
    <polyline class="st0" points="719.48 320.9 723.08 322.94 719.48 320.9"/>
    <polyline class="st0" points="719.18 321.08 722.72 323.12 723.08 322.94"/>
    <line class="st0" x1="719.18" y1="321.08" x2="722.72" y2="323.12"/>
    <polyline class="st0" points="719.06 321.14 722.6 323.18 722.72 323.12"/>
    <line class="st0" x1="749.78" y1="303.38" x2="753.32" y2="305.48"/>
    <line class="st0" x1="749.78" y1="303.38" x2="753.32" y2="305.48"/>
    <polyline class="st0" points="749.72 303.44 753.26 305.48 753.32 305.48"/>
    <line class="st0" x1="749.72" y1="303.44" x2="753.26" y2="305.48"/>
    <polyline class="st0" points="749.54 303.5 753.08 305.54 753.26 305.48"/>
    <polyline class="st0" points="749.3 303.68 752.84 305.72 749.3 303.68"/>
    <line class="st0" x1="752.84" y1="305.72" x2="753.08" y2="305.54"/>
    <line class="st0" x1="752.84" y1="305.72" x2="749.3" y2="303.68"/>
    <line class="st0" x1="739.04" y1="313.7" x2="752.84" y2="305.72"/>
    <line class="st0" x1="736.88" y1="314.9" x2="733.34" y2="312.86"/>
    <line class="st0" x1="723.08" y1="322.94" x2="736.88" y2="314.9"/>
    <line class="st0" x1="739.04" y1="313.7" x2="735.5" y2="311.66"/>
    <line class="st0" x1="723.08" y1="322.94" x2="719.48" y2="320.9"/>
    <line class="st0" x1="753.32" y1="305.48" x2="753.32" y2="589.94"/>
    <polyline class="st0" points="753.32 305.48 753.26 305.48 753.32 589.94"/>
    <line class="st0" x1="753.26" y1="305.48" x2="753.2" y2="590.24"/>
    <line class="st0" x1="753.2" y1="590.24" x2="753.32" y2="589.94"/>
    <polyline class="st0" points="753.26 305.48 753.08 305.54 753.2 590.24"/>
    <polyline class="st0" points="753.08 305.54 752.84 590.54 753.2 590.24"/>
    <polyline class="st0" points="753.08 305.54 752.84 305.72 752.84 590.54"/>
    <polyline class="st0" points="723.08 322.94 722.72 323.12 723.08 590.54 723.08 322.94"/>
    <polyline class="st0" points="722.72 323.12 722.72 590.24 723.08 590.54"/>
    <polyline class="st0" points="722.72 323.12 722.6 323.18 722.72 590.24"/>
    <polyline class="st0" points="722.6 323.18 722.6 589.94 722.72 590.24"/>
    <polyline class="st0" points="739.04 313.7 738.8 313.82 739.04 598.52 739.04 313.7"/>
    <polyline class="st0" points="738.8 313.82 738.56 598.7 739.04 598.52"/>
    <polyline class="st0" points="738.8 313.82 738.56 314 738.56 598.7"/>
    <polyline class="st0" points="738.56 314 738.26 314.12 738.56 598.7"/>
    <polyline class="st0" points="738.26 314.12 737.96 598.82 738.56 598.7"/>
    <polyline class="st0" points="738.26 314.12 737.96 314.3 737.96 598.82"/>
    <polyline class="st0" points="737.96 314.3 737.36 314.66 737.96 598.82"/>
    <polyline class="st0" points="737.36 314.66 737.36 598.7 737.96 598.82"/>
    <polyline class="st0" points="737.36 314.66 736.88 314.9 737.36 598.7"/>
    <polyline class="st0" points="736.88 314.9 736.88 598.52 737.36 598.7"/>
    <line class="st0" x1="752.84" y1="590.54" x2="752.84" y2="305.72"/>
    <line class="st0" x1="752.84" y1="305.72" x2="739.04" y2="313.7"/>
    <line class="st0" x1="739.04" y1="598.52" x2="752.84" y2="590.54"/>
    <line class="st0" x1="723.08" y1="590.54" x2="723.08" y2="322.94"/>
    <line class="st0" x1="736.88" y1="598.52" x2="736.88" y2="314.9"/>
    <line class="st0" x1="736.88" y1="314.9" x2="723.08" y2="322.94"/>
    <line class="st0" x1="723.08" y1="590.54" x2="736.88" y2="598.52"/>
    <line class="st0" x1="739.04" y1="598.52" x2="739.04" y2="313.7"/>
    <polyline class="st0" points="520.76 457.94 520.82 457.94 520.76 456.14 520.76 457.94"/>
    <polyline class="st0" points="520.82 457.94 520.94 455.96 520.76 456.14"/>
    <polyline class="st0" points="520.82 457.94 521 457.76 520.94 455.96"/>
    <polyline class="st0" points="521 457.76 521.06 455.72 520.94 455.96"/>
    <polyline class="st0" points="521 457.76 521.06 457.52 521.06 455.72"/>
    <line class="st0" x1="520.94" y1="455.48" x2="521.06" y2="455.72"/>
    <line class="st0" x1="520.82" y1="455.36" x2="520.94" y2="455.48"/>
    <polyline class="st0" points="504.74 466.34 504.92 466.46 504.74 464.54 504.74 466.34"/>
    <polyline class="st0" points="504.92 466.46 505.1 464.66 504.74 464.54"/>
    <polyline class="st0" points="504.92 466.46 505.22 466.52 505.1 464.66"/>
    <polyline class="st0" points="505.22 466.52 505.46 464.72 505.1 464.66"/>
    <polyline class="st0" points="505.22 466.52 505.64 466.52 505.46 464.72"/>
    <polyline class="st0" points="505.64 466.52 505.88 464.66 505.46 464.72"/>
    <polyline class="st0" points="505.64 466.52 505.94 466.46 505.88 464.66"/>
    <polyline class="st0" points="505.94 466.46 506.18 464.54 505.88 464.66"/>
    <polyline class="st0" points="505.94 466.46 506.18 466.34 506.18 464.54"/>
    <line class="st0" x1="489.98" y1="455.48" x2="490.1" y2="455.36"/>
    <polyline class="st0" points="489.92 457.46 489.92 455.72 489.98 455.48"/>
    <polyline class="st0" points="489.92 457.46 489.92 457.7 489.92 455.72"/>
    <polyline class="st0" points="489.92 457.7 489.98 455.96 489.92 455.72"/>
    <polyline class="st0" points="489.92 457.7 490.1 457.88 489.98 455.96"/>
    <polyline class="st0" points="490.1 457.88 490.22 456.14 489.98 455.96"/>
    <polyline class="st0" points="490.1 457.88 490.22 457.94 490.22 456.14"/>
    <polyline class="st0" points="504.74 466.34 490.22 457.94 504.8 466.4 504.74 466.34"/>
    <polyline class="st0" points="490.22 457.94 490.22 458 504.8 466.4"/>
    <polyline class="st0" points="490.22 458 490.22 458.06 504.8 466.4"/>
    <polyline class="st0" points="490.22 458.06 504.8 466.46 504.8 466.4"/>
    <polyline class="st0" points="490.22 458.06 490.28 458.06 504.8 466.46"/>
    <polyline class="st0" points="490.28 458.06 504.86 466.46 504.8 466.46"/>
    <line class="st0" x1="489.92" y1="457.7" x2="489.92" y2="457.46"/>
    <line class="st0" x1="489.98" y1="457.7" x2="489.92" y2="457.7"/>
    <polyline class="st0" points="489.98 457.7 490.1 457.88 489.92 457.7"/>
    <polyline class="st0" points="489.98 457.7 490.1 457.94 490.1 457.88"/>
    <polyline class="st0" points="490.1 457.94 490.22 457.94 490.1 457.88"/>
    <polyline class="st0" points="490.1 457.94 490.22 458 490.22 457.94"/>
    <line class="st0" x1="489.98" y1="457.76" x2="489.98" y2="457.7"/>
    <line class="st0" x1="489.98" y1="457.76" x2="490.1" y2="457.94"/>
    <polyline class="st0" points="489.98 457.76 490.1 458 490.1 457.94"/>
    <line class="st0" x1="490.1" y1="458" x2="490.22" y2="458"/>
    <polyline class="st0" points="490.1 458 490.22 458.06 490.22 458"/>
    <line class="st0" x1="490.28" y1="458.06" x2="490.22" y2="458.06"/>
    <polyline class="st0" points="504.74 466.34 504.8 466.4 504.92 466.46 504.74 466.34"/>
    <polyline class="st0" points="504.8 466.4 504.92 466.46 504.92 466.46"/>
    <polyline class="st0" points="504.92 466.46 505.22 466.52 504.92 466.46"/>
    <polyline class="st0" points="504.92 466.46 505.22 466.58 505.22 466.52"/>
    <polyline class="st0" points="505.22 466.58 505.64 466.52 505.22 466.52"/>
    <polyline class="st0" points="505.22 466.58 505.64 466.58 505.64 466.52"/>
    <polyline class="st0" points="505.64 466.58 505.94 466.46 505.64 466.52"/>
    <polyline class="st0" points="505.64 466.58 505.94 466.52 505.94 466.46"/>
    <polyline class="st0" points="505.94 466.52 506.18 466.34 505.94 466.46"/>
    <polyline class="st0" points="505.94 466.52 506.18 466.4 506.18 466.34"/>
    <polyline class="st0" points="504.8 466.4 504.8 466.46 504.92 466.46"/>
    <polyline class="st0" points="504.8 466.46 504.92 466.52 504.92 466.46"/>
    <line class="st0" x1="504.92" y1="466.52" x2="505.22" y2="466.58"/>
    <polyline class="st0" points="504.92 466.52 505.28 466.58 505.22 466.58"/>
    <line class="st0" x1="505.28" y1="466.58" x2="505.64" y2="466.58"/>
    <polyline class="st0" points="505.28 466.58 505.64 466.64 505.64 466.58"/>
    <line class="st0" x1="505.64" y1="466.64" x2="505.94" y2="466.52"/>
    <polyline class="st0" points="505.64 466.64 505.94 466.58 505.94 466.52"/>
    <line class="st0" x1="505.94" y1="466.58" x2="506.18" y2="466.4"/>
    <polyline class="st0" points="505.94 466.58 506.18 466.46 506.18 466.4"/>
    <polyline class="st0" points="504.8 466.46 504.86 466.46 504.92 466.52"/>
    <polyline class="st0" points="504.86 466.46 504.98 466.52 504.92 466.52"/>
    <line class="st0" x1="504.98" y1="466.52" x2="505.28" y2="466.58"/>
    <polyline class="st0" points="504.98 466.52 505.28 466.64 505.28 466.58"/>
    <line class="st0" x1="505.28" y1="466.64" x2="505.64" y2="466.64"/>
    <polyline class="st0" points="505.28 466.64 505.58 466.64 505.64 466.64"/>
    <line class="st0" x1="505.58" y1="466.64" x2="505.94" y2="466.58"/>
    <polyline class="st0" points="505.58 466.64 505.94 466.58 505.94 466.58"/>
    <line class="st0" x1="505.94" y1="466.58" x2="506.18" y2="466.46"/>
    <polyline class="st0" points="505.94 466.58 506.12 466.46 506.18 466.46"/>
    <line class="st0" x1="520.64" y1="458.06" x2="506.12" y2="466.46"/>
    <polyline class="st0" points="520.64 458.06 520.7 458.06 506.12 466.46"/>
    <polyline class="st0" points="520.7 458.06 506.18 466.46 506.12 466.46"/>
    <polyline class="st0" points="520.7 458.06 520.76 458 506.18 466.46"/>
    <polyline class="st0" points="520.76 458 506.18 466.4 506.18 466.46"/>
    <polyline class="st0" points="520.76 458 506.18 466.34 506.18 466.4"/>
    <polyline class="st0" points="520.76 458 520.76 457.94 506.18 466.34"/>
    <line class="st0" x1="520.7" y1="458.06" x2="520.64" y2="458.06"/>
    <polyline class="st0" points="520.94 457.82 520.76 458 520.7 458.06"/>
    <line class="st0" x1="520.76" y1="458" x2="520.64" y2="458.06"/>
    <polyline class="st0" points="520.76 458 520.7 458.06 520.64 458.06"/>
    <polyline class="st0" points="521 457.58 521 457.76 520.94 457.82"/>
    <line class="st0" x1="521" y1="457.76" x2="520.76" y2="458"/>
    <polyline class="st0" points="521 457.76 520.82 457.94 520.76 458"/>
    <line class="st0" x1="520.82" y1="457.94" x2="520.7" y2="458.06"/>
    <polyline class="st0" points="520.82 457.94 520.76 458 520.7 458.06"/>
    <line class="st0" x1="521.06" y1="457.52" x2="521" y2="457.58"/>
    <line class="st0" x1="521.06" y1="457.52" x2="521" y2="457.76"/>
    <polyline class="st0" points="521.06 457.52 521 457.76 521 457.76"/>
    <line class="st0" x1="521" y1="457.76" x2="520.82" y2="457.94"/>
    <polyline class="st0" points="521 457.76 520.82 457.94 520.82 457.94"/>
    <line class="st0" x1="520.82" y1="457.94" x2="520.76" y2="458"/>
    <polyline class="st0" points="520.82 457.94 520.76 457.94 520.76 458"/>
    <line class="st0" x1="490.22" y1="456.14" x2="490.22" y2="457.94"/>
    <line class="st0" x1="490.22" y1="457.94" x2="504.74" y2="466.34"/>
    <line class="st0" x1="504.74" y1="466.34" x2="504.74" y2="464.54"/>
    <line class="st0" x1="490.22" y1="455.96" x2="490.22" y2="456.14"/>
    <line class="st0" x1="490.22" y1="456.14" x2="504.74" y2="464.54"/>
    <line class="st0" x1="504.74" y1="464.54" x2="505.04" y2="464.54"/>
    <line class="st0" x1="505.94" y1="464.54" x2="506.18" y2="464.54"/>
    <line class="st0" x1="506.18" y1="464.54" x2="520.76" y2="456.14"/>
    <line class="st0" x1="520.76" y1="456.14" x2="520.76" y2="455.96"/>
    <line class="st0" x1="506.18" y1="464.54" x2="506.18" y2="466.34"/>
    <line class="st0" x1="506.18" y1="466.34" x2="520.76" y2="457.94"/>
    <line class="st0" x1="520.76" y1="457.94" x2="520.76" y2="456.14"/>
    <line class="st0" x1="495.5" y1="461.96" x2="495.38" y2="461.84"/>
    <line class="st0" x1="495.38" y1="461.84" x2="495.26" y2="461.72"/>
    <line class="st0" x1="495.26" y1="461.72" x2="495.2" y2="461.6"/>
    <line class="st0" x1="495.2" y1="461.6" x2="495.2" y2="461.42"/>
    <line class="st0" x1="501.32" y1="465.32" x2="495.5" y2="461.96"/>
    <polyline class="st0" points="501.32 465.32 501.26 465.26 495.5 461.96"/>
    <polyline class="st0" points="501.26 465.26 495.38 461.84 495.5 461.96"/>
    <polyline class="st0" points="501.26 465.26 495.26 461.72 495.38 461.84"/>
    <polyline class="st0" points="501.26 465.26 501.26 465.2 495.26 461.72"/>
    <polyline class="st0" points="501.26 465.2 501.2 465.08 495.26 461.72"/>
    <polyline class="st0" points="501.2 464.9 495.2 461.42 501.2 465.08 501.2 464.9"/>
    <polyline class="st0" points="495.2 461.42 495.2 461.6 501.2 465.08"/>
    <line class="st0" x1="495.2" y1="461.6" x2="495.26" y2="461.72"/>
    <line class="st0" x1="515.78" y1="461.42" x2="515.72" y2="461.6"/>
    <line class="st0" x1="515.72" y1="461.6" x2="515.72" y2="461.72"/>
    <line class="st0" x1="515.72" y1="461.72" x2="515.6" y2="461.84"/>
    <line class="st0" x1="515.6" y1="461.84" x2="515.48" y2="461.96"/>
    <line class="st0" x1="509.6" y1="465.32" x2="508.1" y2="465.32"/>
    <line class="st0" x1="502.82" y1="465.32" x2="501.32" y2="465.32"/>
    <polyline class="st0" points="509.6 465.32 509.66 465.26 508.16 465.32"/>
    <line class="st0" x1="502.82" y1="465.32" x2="501.32" y2="465.32"/>
    <line class="st0" x1="509.66" y1="465.26" x2="508.22" y2="465.26"/>
    <polyline class="st0" points="502.76 465.26 501.26 465.26 501.32 465.32"/>
    <line class="st0" x1="509.66" y1="465.26" x2="508.22" y2="465.26"/>
    <polyline class="st0" points="502.64 465.2 501.26 465.2 501.26 465.26"/>
    <polyline class="st0" points="509.66 465.26 509.72 465.2 508.34 465.2"/>
    <line class="st0" x1="502.58" y1="465.2" x2="501.26" y2="465.2"/>
    <polyline class="st0" points="509.72 465.2 509.72 465.08 508.52 465.08"/>
    <line class="st0" x1="502.58" y1="465.2" x2="501.26" y2="465.2"/>
    <line class="st0" x1="509.72" y1="464.9" x2="508.82" y2="464.9"/>
    <polyline class="st0" points="502.16 464.9 501.2 464.9 502.16 464.96"/>
    <polyline class="st0" points="508.58 465.08 509.72 465.08 509.72 464.9"/>
    <polyline class="st0" points="501.2 464.9 501.2 465.08 502.4 465.08"/>
    <line class="st0" x1="508.58" y1="465.08" x2="509.72" y2="465.08"/>
    <line class="st0" x1="501.2" y1="465.08" x2="501.26" y2="465.2"/>
    <line class="st0" x1="-440.62" y1="-66.7" x2="-440.62" y2="-66.7"/>
    <line class="st0" x1="515.48" y1="461.96" x2="509.6" y2="465.32"/>
    <polyline class="st0" points="515.48 461.96 515.6 461.84 509.6 465.32"/>
    <polyline class="st0" points="515.6 461.84 509.66 465.26 509.6 465.32"/>
    <polyline class="st0" points="515.6 461.84 509.72 465.2 509.66 465.26"/>
    <polyline class="st0" points="515.6 461.84 515.72 461.72 509.72 465.2"/>
    <polyline class="st0" points="515.72 461.72 515.72 461.6 509.72 465.2"/>
    <polyline class="st0" points="515.78 461.42 509.72 464.9 515.72 461.6 515.78 461.42"/>
    <polyline class="st0" points="509.72 464.9 509.72 465.08 515.72 461.6"/>
    <line class="st0" x1="509.72" y1="465.08" x2="509.72" y2="465.2"/>
    <line class="st0" x1="515.78" y1="461.42" x2="515.78" y2="460.94"/>
    <line class="st0" x1="509.72" y1="464.9" x2="515.78" y2="461.42"/>
    <line class="st0" x1="515.66" y1="461.84" x2="515.6" y2="461.84"/>
    <line class="st0" x1="495.2" y1="461.42" x2="495.2" y2="460.94"/>
    <line class="st0" x1="501.2" y1="464.9" x2="501.2" y2="464.42"/>
    <line class="st0" x1="495.2" y1="461.42" x2="501.2" y2="464.9"/>
    <line class="st0" x1="509.72" y1="464.9" x2="509.72" y2="464.42"/>
    <line class="st0" x1="501.2" y1="464.9" x2="502.16" y2="464.9"/>
    <line class="st0" x1="508.82" y1="464.9" x2="509.72" y2="464.9"/>
    <line class="st0" x1="110.9" y1="692.06" x2="111.02" y2="692.18"/>
    <line class="st0" x1="111.02" y1="692.18" x2="111.08" y2="692.42"/>
    <line class="st0" x1="111.08" y1="692.42" x2="111.08" y2="694.34"/>
    <polyline class="st0" points="111.08 692.42 111.02 692.6 111.08 694.34"/>
    <polyline class="st0" points="111.02 692.6 110.96 694.52 111.08 694.34"/>
    <polyline class="st0" points="111.02 692.6 110.78 692.78 110.96 694.52"/>
    <polyline class="st0" points="110.78 692.78 110.78 694.64 110.96 694.52"/>
    <polyline class="st0" points="80.24 692.78 80.06 692.6 80.24 694.64 80.24 692.78"/>
    <polyline class="st0" points="80.06 692.6 80.06 694.46 80.24 694.64"/>
    <polyline class="st0" points="80.06 692.6 80 694.28 80.06 694.46"/>
    <polyline class="st0" points="80.06 692.6 80 692.42 80 694.28"/>
    <line class="st0" x1="80" y1="692.42" x2="80.06" y2="692.18"/>
    <line class="st0" x1="80.06" y1="692.18" x2="80.18" y2="692.06"/>
    <line class="st0" x1="111.02" y1="694.4" x2="110.9" y2="694.64"/>
    <polyline class="st0" points="110.9 694.64 110.78 694.76 110.72 694.76"/>
    <line class="st0" x1="111.08" y1="694.34" x2="111.02" y2="694.4"/>
    <line class="st0" x1="111.08" y1="694.34" x2="110.9" y2="694.64"/>
    <polyline class="st0" points="111.08 694.34 110.96 694.58 110.9 694.64"/>
    <line class="st0" x1="110.96" y1="694.58" x2="110.78" y2="694.76"/>
    <polyline class="st0" points="110.96 694.58 110.78 694.7 110.78 694.76"/>
    <line class="st0" x1="-440.62" y1="-66.7" x2="-440.62" y2="-66.7"/>
    <line class="st0" x1="111.08" y1="694.34" x2="110.96" y2="694.58"/>
    <polyline class="st0" points="111.08 694.34 110.96 694.52 110.96 694.58"/>
    <line class="st0" x1="110.96" y1="694.52" x2="110.78" y2="694.7"/>
    <polyline class="st0" points="110.96 694.52 110.78 694.64 110.78 694.7"/>
    <polyline class="st0" points="110.78 694.64 96.26 703.04 110.78 694.7 110.78 694.64"/>
    <polyline class="st0" points="96.26 703.04 96.26 703.1 110.78 694.7"/>
    <polyline class="st0" points="96.26 703.1 96.2 703.16 110.78 694.7"/>
    <polyline class="st0" points="96.2 703.16 110.78 694.76 110.78 694.7"/>
    <polyline class="st0" points="96.2 703.16 96.14 703.16 110.78 694.76"/>
    <polyline class="st0" points="96.14 703.16 110.72 694.76 110.78 694.76"/>
    <polyline class="st0" points="94.82 703.04 94.82 703.1 94.94 703.1 94.82 703.04"/>
    <polyline class="st0" points="94.82 703.1 95.12 703.22 94.94 703.1"/>
    <polyline class="st0" points="95.12 703.22 95.12 703.16 94.94 703.1"/>
    <polyline class="st0" points="95.12 703.22 95.3 703.22 95.12 703.16"/>
    <polyline class="st0" points="94.82 703.1 94.82 703.16 95.12 703.22"/>
    <polyline class="st0" points="94.82 703.16 95.12 703.28 95.12 703.22"/>
    <polyline class="st0" points="95.12 703.28 95.48 703.28 95.12 703.22"/>
    <polyline class="st0" points="95.12 703.28 95.48 703.28 95.48 703.28"/>
    <polyline class="st0" points="95.48 703.28 95.84 703.22 95.48 703.28"/>
    <polyline class="st0" points="95.48 703.28 95.84 703.28 95.84 703.22"/>
    <polyline class="st0" points="95.84 703.28 96.14 703.1 95.84 703.22"/>
    <polyline class="st0" points="95.84 703.28 96.14 703.16 96.14 703.1"/>
    <polyline class="st0" points="96.14 703.16 96.26 703.1 96.14 703.1"/>
    <polyline class="st0" points="96.14 703.16 96.2 703.16 96.26 703.1"/>
    <polyline class="st0" points="94.82 703.16 94.88 703.16 95.12 703.28"/>
    <polyline class="st0" points="94.88 703.16 95.18 703.28 95.12 703.28"/>
    <line class="st0" x1="95.18" y1="703.28" x2="95.48" y2="703.28"/>
    <polyline class="st0" points="95.18 703.28 95.48 703.34 95.48 703.28"/>
    <line class="st0" x1="95.48" y1="703.34" x2="95.84" y2="703.28"/>
    <polyline class="st0" points="95.48 703.34 95.84 703.28 95.84 703.28"/>
    <line class="st0" x1="95.84" y1="703.28" x2="96.14" y2="703.16"/>
    <polyline class="st0" points="95.84 703.28 96.08 703.22 96.14 703.16"/>
    <line class="st0" x1="96.08" y1="703.22" x2="96.2" y2="703.16"/>
    <polyline class="st0" points="96.08 703.22 96.14 703.16 96.2 703.16"/>
    <polyline class="st0" points="96.26 703.1 96.26 703.04 96.14 703.1"/>
    <polyline class="st0" points="96.26 703.04 96.2 703.1 96.14 703.1"/>
    <polyline class="st0" points="96.2 703.1 96.02 703.16 96.14 703.1"/>
    <line class="st0" x1="96.02" y1="703.16" x2="95.84" y2="703.22"/>
    <polyline class="st0" points="96.02 703.16 95.84 703.16 95.84 703.22"/>
    <polyline class="st0" points="95.84 703.16 95.66 703.22 95.84 703.22"/>
    <line class="st0" x1="95.66" y1="703.22" x2="95.48" y2="703.28"/>
    <polyline class="st0" points="95.66 703.22 95.48 703.22 95.48 703.28"/>
    <polyline class="st0" points="95.48 703.22 95.3 703.22 95.48 703.28"/>
    <polyline class="st0" points="94.82 703.04 80.24 694.64 94.82 703.1 94.82 703.04"/>
    <polyline class="st0" points="80.24 694.64 80.3 694.7 94.82 703.1"/>
    <polyline class="st0" points="80.3 694.7 80.3 694.76 94.82 703.1"/>
    <polyline class="st0" points="80.3 694.76 94.82 703.16 94.82 703.1"/>
    <polyline class="st0" points="80.3 694.76 80.36 694.76 94.82 703.16"/>
    <polyline class="st0" points="80.36 694.76 94.88 703.16 94.82 703.16"/>
    <line class="st0" x1="-440.62" y1="-66.7" x2="-440.62" y2="-66.7"/>
    <polyline class="st0" points="80 694.28 80.06 694.46 80 694.28"/>
    <polyline class="st0" points="80 694.28 80.06 694.52 80.06 694.46"/>
    <polyline class="st0" points="80.06 694.52 80.24 694.64 80.06 694.46"/>
    <polyline class="st0" points="80.06 694.52 80.3 694.7 80.24 694.64"/>
    <line class="st0" x1="80.12" y1="694.58" x2="80.06" y2="694.52"/>
    <line class="st0" x1="80.12" y1="694.58" x2="80.3" y2="694.7"/>
    <polyline class="st0" points="80.12 694.58 80.3 694.76 80.3 694.7"/>
    <line class="st0" x1="80.36" y1="694.76" x2="80.3" y2="694.76"/>
    <polyline class="st0" points="96.26 703.04 96.26 701.18 96.2 703.1 96.26 703.04"/>
    <polyline class="st0" points="96.26 701.18 96.02 703.16 96.2 703.1"/>
    <polyline class="st0" points="96.26 701.18 95.9 701.36 96.02 703.16"/>
    <polyline class="st0" points="95.9 701.36 95.84 703.16 96.02 703.16"/>
    <polyline class="st0" points="95.9 701.36 95.66 703.22 95.84 703.16"/>
    <polyline class="st0" points="95.9 701.36 95.54 701.36 95.66 703.22"/>
    <polyline class="st0" points="95.54 701.36 95.48 703.22 95.66 703.22"/>
    <polyline class="st0" points="95.54 701.36 95.3 703.22 95.48 703.22"/>
    <polyline class="st0" points="95.54 701.36 95.12 701.36 95.3 703.22"/>
    <polyline class="st0" points="95.12 701.36 95.12 703.16 95.3 703.22"/>
    <polyline class="st0" points="95.12 701.36 94.94 703.1 95.12 703.16"/>
    <polyline class="st0" points="95.12 701.36 94.82 701.18 94.94 703.1"/>
    <polyline class="st0" points="94.82 701.18 94.82 703.04 94.94 703.1"/>
    <line class="st0" x1="110.78" y1="692.66" x2="110.78" y2="692.78"/>
    <line class="st0" x1="110.78" y1="692.78" x2="110.78" y2="694.64"/>
    <line class="st0" x1="80.24" y1="694.64" x2="80.24" y2="692.78"/>
    <line class="st0" x1="80.24" y1="692.78" x2="80.24" y2="692.66"/>
    <line class="st0" x1="94.82" y1="701.18" x2="80.24" y2="692.78"/>
    <line class="st0" x1="110.78" y1="692.78" x2="96.26" y2="701.18"/>
    <line class="st0" x1="110.78" y1="694.64" x2="96.26" y2="703.04"/>
    <line class="st0" x1="94.82" y1="703.04" x2="80.24" y2="694.64"/>
    <line class="st0" x1="96.26" y1="703.04" x2="96.26" y2="701.18"/>
    <line class="st0" x1="96.26" y1="701.18" x2="95.96" y2="701.18"/>
    <line class="st0" x1="95.12" y1="701.18" x2="94.82" y2="701.18"/>
    <line class="st0" x1="94.82" y1="701.18" x2="94.82" y2="703.04"/>
    <line class="st0" x1="85.52" y1="698.66" x2="85.4" y2="698.54"/>
    <line class="st0" x1="85.4" y1="698.54" x2="85.34" y2="698.42"/>
    <line class="st0" x1="85.34" y1="698.42" x2="85.28" y2="698.3"/>
    <line class="st0" x1="85.28" y1="698.3" x2="85.22" y2="698.12"/>
    <line class="st0" x1="91.4" y1="702.02" x2="85.52" y2="698.66"/>
    <polyline class="st0" points="91.4 702.02 91.34 701.96 85.52 698.66"/>
    <polyline class="st0" points="91.34 701.96 85.4 698.54 85.52 698.66"/>
    <polyline class="st0" points="91.34 701.96 85.34 698.42 85.4 698.54"/>
    <polyline class="st0" points="91.34 701.96 91.28 701.9 85.34 698.42"/>
    <polyline class="st0" points="91.28 701.9 91.28 701.78 85.34 698.42"/>
    <polyline class="st0" points="91.28 701.6 85.22 698.12 91.28 701.78 91.28 701.6"/>
    <polyline class="st0" points="85.22 698.12 85.28 698.3 91.28 701.78"/>
    <line class="st0" x1="85.28" y1="698.3" x2="85.34" y2="698.42"/>
    <line class="st0" x1="99.68" y1="702.02" x2="98.18" y2="702.02"/>
    <line class="st0" x1="92.9" y1="702.02" x2="91.4" y2="702.02"/>
    <polyline class="st0" points="99.68 702.02 99.74 701.96 98.24 701.96"/>
    <line class="st0" x1="92.9" y1="702.02" x2="91.4" y2="702.02"/>
    <line class="st0" x1="99.74" y1="701.96" x2="98.24" y2="701.96"/>
    <polyline class="st0" points="92.78 701.96 91.34 701.96 91.4 702.02"/>
    <line class="st0" x1="99.74" y1="701.96" x2="98.3" y2="701.96"/>
    <polyline class="st0" points="92.66 701.9 91.28 701.9 91.34 701.96"/>
    <polyline class="st0" points="99.74 701.96 99.74 701.9 98.42 701.9"/>
    <line class="st0" x1="92.66" y1="701.9" x2="91.28" y2="701.9"/>
    <polyline class="st0" points="99.74 701.9 99.8 701.78 98.6 701.78"/>
    <line class="st0" x1="92.6" y1="701.84" x2="91.28" y2="701.9"/>
    <line class="st0" x1="99.8" y1="701.6" x2="98.84" y2="701.6"/>
    <polyline class="st0" points="92.18 701.6 91.28 701.6 92.24 701.6"/>
    <polyline class="st0" points="98.66 701.72 99.8 701.78 99.8 701.6"/>
    <polyline class="st0" points="91.28 701.6 91.28 701.78 92.42 701.78"/>
    <line class="st0" x1="98.6" y1="701.78" x2="99.8" y2="701.78"/>
    <line class="st0" x1="91.28" y1="701.78" x2="91.28" y2="701.9"/>
    <line class="st0" x1="105.8" y1="698.12" x2="105.8" y2="698.3"/>
    <line class="st0" x1="105.8" y1="698.3" x2="105.74" y2="698.42"/>
    <line class="st0" x1="105.74" y1="698.42" x2="105.68" y2="698.54"/>
    <line class="st0" x1="105.68" y1="698.54" x2="105.5" y2="698.66"/>
    <polyline class="st0" points="105.8 698.12 99.8 701.6 105.8 698.3 105.8 698.12"/>
    <polyline class="st0" points="99.8 701.6 99.8 701.78 105.8 698.3"/>
    <polyline class="st0" points="99.8 701.78 99.74 701.9 105.8 698.3"/>
    <polyline class="st0" points="99.74 701.96 105.68 698.54 99.74 701.9 99.74 701.96"/>
    <polyline class="st0" points="105.68 698.54 105.74 698.42 99.74 701.9"/>
    <line class="st0" x1="105.74" y1="698.42" x2="105.8" y2="698.3"/>
    <polyline class="st0" points="99.74 701.96 99.68 702.02 105.68 698.54"/>
    <polyline class="st0" points="99.68 702.02 105.5 698.66 105.68 698.54"/>
    <line class="st0" x1="91.28" y1="701.6" x2="91.28" y2="701.06"/>
    <line class="st0" x1="99.8" y1="701.6" x2="99.8" y2="701.06"/>
    <line class="st0" x1="105.8" y1="698.12" x2="105.8" y2="697.58"/>
    <line class="st0" x1="91.28" y1="701.6" x2="85.22" y2="698.12"/>
    <polyline class="st0" points="85.34 698.48 85.4 698.54 85.4 698.54"/>
    <line class="st0" x1="99.8" y1="701.6" x2="98.84" y2="701.6"/>
    <line class="st0" x1="92.18" y1="701.6" x2="91.28" y2="701.6"/>
    <line class="st0" x1="-440.62" y1="-66.7" x2="-440.62" y2="-66.7"/>
    <polyline class="st0" points="99.62 702.02 99.56 702.02 99.56 702.02"/>
    <line class="st0" x1="105.8" y1="698.12" x2="99.8" y2="701.6"/>
    <line class="st0" x1="85.22" y1="698.12" x2="85.22" y2="697.58"/>
    <polyline class="st0" points="722.72 592.16 722.72 590.36 722.6 592.1 722.72 592.16"/>
    <polyline class="st0" points="722.72 590.36 722.48 590.18 722.6 592.1"/>
    <polyline class="st0" points="722.48 590.18 722.42 591.92 722.6 592.1"/>
    <polyline class="st0" points="722.48 590.18 722.42 589.94 722.42 591.92"/>
    <polyline class="st0" points="722.42 589.94 722.42 591.68 722.42 591.92"/>
    <line class="st0" x1="722.42" y1="589.94" x2="722.48" y2="589.7"/>
    <line class="st0" x1="722.48" y1="589.7" x2="722.6" y2="589.58"/>
    <line class="st0" x1="753.32" y1="589.58" x2="753.44" y2="589.7"/>
    <polyline class="st0" points="753.44 589.7 753.5 589.94 753.5 591.74"/>
    <polyline class="st0" points="753.5 589.94 753.44 591.98 753.5 591.74"/>
    <polyline class="st0" points="753.5 589.94 753.44 590.18 753.44 591.98"/>
    <polyline class="st0" points="753.44 590.18 753.26 592.16 753.44 591.98"/>
    <polyline class="st0" points="753.44 590.18 753.2 590.36 753.26 592.16"/>
    <polyline class="st0" points="753.2 590.36 753.2 592.16 753.26 592.16"/>
    <polyline class="st0" points="738.68 600.56 738.68 598.76 738.44 600.68 738.68 600.56"/>
    <polyline class="st0" points="738.68 598.76 738.32 598.88 738.44 600.68"/>
    <polyline class="st0" points="738.32 598.88 738.08 600.74 738.44 600.68"/>
    <polyline class="st0" points="738.32 598.88 737.96 598.94 738.08 600.74"/>
    <polyline class="st0" points="737.96 598.94 737.72 600.74 738.08 600.74"/>
    <polyline class="st0" points="737.96 598.94 737.6 598.88 737.72 600.74"/>
    <polyline class="st0" points="737.6 598.88 737.42 600.68 737.72 600.74"/>
    <polyline class="st0" points="737.6 598.88 737.24 598.76 737.42 600.68"/>
    <polyline class="st0" points="737.24 598.76 737.24 600.56 737.42 600.68"/>
    <line class="st0" x1="722.78" y1="592.28" x2="722.72" y2="592.28"/>
    <line class="st0" x1="722.72" y1="592.28" x2="722.6" y2="592.22"/>
    <line class="st0" x1="722.6" y1="592.22" x2="722.48" y2="592.04"/>
    <polyline class="st0" points="722.72 592.28 722.72 592.22 722.6 592.22"/>
    <polyline class="st0" points="722.72 592.22 722.6 592.16 722.6 592.22"/>
    <line class="st0" x1="722.6" y1="592.16" x2="722.48" y2="592.04"/>
    <polyline class="st0" points="722.6 592.16 722.42 591.92 722.48 592.04"/>
    <polyline class="st0" points="722.72 592.22 722.72 592.16 722.6 592.16"/>
    <polyline class="st0" points="722.72 592.16 722.6 592.1 722.6 592.16"/>
    <line class="st0" x1="722.6" y1="592.1" x2="722.42" y2="591.92"/>
    <polyline class="st0" points="722.6 592.1 722.42 591.92 722.42 591.92"/>
    <line class="st0" x1="722.42" y1="591.92" x2="722.42" y2="591.68"/>
    <polyline class="st0" points="753.2 592.16 753.2 592.22 753.26 592.16 753.2 592.16"/>
    <polyline class="st0" points="753.2 592.22 753.26 592.16 753.26 592.16"/>
    <polyline class="st0" points="753.26 592.16 753.44 591.98 753.26 592.16"/>
    <polyline class="st0" points="753.26 592.16 753.44 591.98 753.44 591.98"/>
    <polyline class="st0" points="753.44 591.98 753.5 591.74 753.44 591.98"/>
    <polyline class="st0" points="753.44 591.98 753.5 591.8 753.5 591.74"/>
    <polyline class="st0" points="753.2 592.22 753.2 592.28 753.26 592.16"/>
    <polyline class="st0" points="753.2 592.28 753.26 592.22 753.26 592.16"/>
    <line class="st0" x1="753.26" y1="592.22" x2="753.44" y2="591.98"/>
    <polyline class="st0" points="753.26 592.22 753.44 592.04 753.44 591.98"/>
    <polyline class="st0" points="753.2 592.28 753.14 592.28 753.26 592.22"/>
    <polyline class="st0" points="753.14 592.28 753.2 592.28 753.26 592.22"/>
    <polyline class="st0" points="753.2 592.16 738.68 600.56 753.2 592.22 753.2 592.16"/>
    <polyline class="st0" points="738.68 600.56 738.68 600.62 753.2 592.22"/>
    <polyline class="st0" points="738.68 600.62 738.62 600.68 753.2 592.22"/>
    <polyline class="st0" points="738.62 600.68 753.2 592.28 753.2 592.22"/>
    <polyline class="st0" points="738.62 600.68 738.62 600.74 753.2 592.28"/>
    <polyline class="st0" points="738.62 600.74 753.14 592.28 753.2 592.28"/>
    <line class="st0" x1="738.62" y1="600.74" x2="738.38" y2="600.8"/>
    <line class="st0" x1="738.38" y1="600.8" x2="738.08" y2="600.86"/>
    <line class="st0" x1="738.08" y1="600.86" x2="737.78" y2="600.86"/>
    <line class="st0" x1="737.78" y1="600.86" x2="737.42" y2="600.8"/>
    <line class="st0" x1="737.42" y1="600.8" x2="737.3" y2="600.74"/>
    <polyline class="st0" points="738.62 600.74 738.62 600.68 738.38 600.8"/>
    <polyline class="st0" points="738.62 600.68 738.44 600.8 738.38 600.8"/>
    <line class="st0" x1="738.44" y1="600.8" x2="738.08" y2="600.86"/>
    <polyline class="st0" points="738.44 600.8 738.08 600.86 738.08 600.86"/>
    <line class="st0" x1="738.08" y1="600.86" x2="737.78" y2="600.86"/>
    <polyline class="st0" points="738.08 600.86 737.72 600.8 737.78 600.86"/>
    <line class="st0" x1="737.72" y1="600.8" x2="737.42" y2="600.8"/>
    <polyline class="st0" points="737.72 600.8 737.42 600.74 737.42 600.8"/>
    <line class="st0" x1="737.42" y1="600.74" x2="737.3" y2="600.74"/>
    <polyline class="st0" points="737.42 600.74 737.3 600.68 737.3 600.74"/>
    <polyline class="st0" points="738.62 600.68 738.68 600.62 738.44 600.8"/>
    <polyline class="st0" points="738.68 600.62 738.44 600.74 738.44 600.8"/>
    <line class="st0" x1="738.44" y1="600.74" x2="738.08" y2="600.86"/>
    <polyline class="st0" points="738.44 600.74 738.08 600.8 738.08 600.86"/>
    <line class="st0" x1="738.08" y1="600.8" x2="737.72" y2="600.8"/>
    <polyline class="st0" points="738.08 600.8 737.72 600.8 737.72 600.8"/>
    <line class="st0" x1="737.72" y1="600.8" x2="737.42" y2="600.74"/>
    <polyline class="st0" points="737.72 600.8 737.42 600.68 737.42 600.74"/>
    <line class="st0" x1="737.42" y1="600.68" x2="737.3" y2="600.68"/>
    <polyline class="st0" points="737.42 600.68 737.24 600.62 737.3 600.68"/>
    <polyline class="st0" points="738.68 600.62 738.68 600.56 738.44 600.74"/>
    <polyline class="st0" points="738.68 600.56 738.44 600.68 738.44 600.74"/>
    <line class="st0" x1="738.44" y1="600.68" x2="738.08" y2="600.8"/>
    <polyline class="st0" points="738.44 600.68 738.08 600.74 738.08 600.8"/>
    <line class="st0" x1="738.08" y1="600.74" x2="737.72" y2="600.8"/>
    <polyline class="st0" points="738.08 600.74 737.72 600.74 737.72 600.8"/>
    <line class="st0" x1="737.72" y1="600.74" x2="737.42" y2="600.68"/>
    <polyline class="st0" points="737.72 600.74 737.42 600.68 737.42 600.68"/>
    <line class="st0" x1="737.42" y1="600.68" x2="737.24" y2="600.62"/>
    <polyline class="st0" points="737.42 600.68 737.24 600.56 737.24 600.62"/>
    <line class="st0" x1="737.3" y1="600.74" x2="722.78" y2="592.28"/>
    <polyline class="st0" points="737.3 600.74 737.3 600.68 722.78 592.28"/>
    <polyline class="st0" points="737.3 600.68 722.72 592.28 722.78 592.28"/>
    <polyline class="st0" points="737.3 600.68 737.24 600.62 722.72 592.28"/>
    <polyline class="st0" points="737.24 600.62 722.72 592.22 722.72 592.28"/>
    <polyline class="st0" points="737.24 600.62 722.72 592.16 722.72 592.22"/>
    <polyline class="st0" points="737.24 600.62 737.24 600.56 722.72 592.16"/>
    <line class="st0" x1="722.72" y1="592.16" x2="722.72" y2="590.36"/>
    <line class="st0" x1="722.72" y1="590.36" x2="722.72" y2="590.18"/>
    <line class="st0" x1="753.2" y1="590.18" x2="753.2" y2="590.36"/>
    <line class="st0" x1="753.2" y1="590.36" x2="753.2" y2="592.16"/>
    <line class="st0" x1="738.68" y1="600.56" x2="738.68" y2="598.76"/>
    <line class="st0" x1="738.68" y1="598.76" x2="738.38" y2="598.76"/>
    <line class="st0" x1="737.54" y1="598.76" x2="737.24" y2="598.76"/>
    <line class="st0" x1="737.24" y1="598.76" x2="737.24" y2="600.56"/>
    <line class="st0" x1="737.24" y1="598.76" x2="722.72" y2="590.36"/>
    <line class="st0" x1="753.2" y1="590.36" x2="738.68" y2="598.76"/>
    <line class="st0" x1="753.2" y1="592.16" x2="738.68" y2="600.56"/>
    <line class="st0" x1="737.24" y1="600.56" x2="722.72" y2="592.16"/>
    <polyline class="st0" points="748.22 595.7 742.22 599.18 748.22 595.82 748.22 595.7"/>
    <polyline class="st0" points="742.22 599.18 742.22 599.3 748.22 595.82"/>
    <polyline class="st0" points="742.22 599.3 742.16 599.42 748.22 595.82"/>
    <polyline class="st0" points="742.16 599.54 748.1 596.06 742.16 599.42 742.16 599.54"/>
    <polyline class="st0" points="748.1 596.06 748.16 595.94 742.16 599.42"/>
    <line class="st0" x1="748.16" y1="595.94" x2="748.22" y2="595.82"/>
    <polyline class="st0" points="742.16 599.54 742.1 599.54 748.1 596.06"/>
    <polyline class="st0" points="742.1 599.54 747.98 596.18 748.1 596.06"/>
    <line class="st0" x1="-440.62" y1="-66.7" x2="-440.62" y2="-66.7"/>
    <line class="st0" x1="748.1" y1="596.06" x2="747.98" y2="596.18"/>
    <line class="st0" x1="748.16" y1="595.94" x2="748.1" y2="596.06"/>
    <line class="st0" x1="748.22" y1="595.7" x2="748.22" y2="595.82"/>
    <line class="st0" x1="748.22" y1="595.82" x2="748.16" y2="595.94"/>
    <line class="st0" x1="742.22" y1="599.18" x2="741.32" y2="599.18"/>
    <polyline class="st0" points="734.6 599.18 733.7 599.18 734.66 599.18"/>
    <polyline class="st0" points="741.08 599.3 742.22 599.3 742.22 599.18"/>
    <polyline class="st0" points="733.7 599.18 733.7 599.3 734.9 599.3"/>
    <line class="st0" x1="741.02" y1="599.3" x2="742.22" y2="599.3"/>
    <polyline class="st0" points="733.7 599.3 733.7 599.42 735.08 599.42"/>
    <line class="st0" x1="741.02" y1="599.3" x2="742.22" y2="599.3"/>
    <line class="st0" x1="733.76" y1="599.54" x2="735.26" y2="599.54"/>
    <polyline class="st0" points="740.66 599.54 742.16 599.54 740.72 599.48"/>
    <polyline class="st0" points="735.14 599.42 733.7 599.42 733.76 599.54"/>
    <polyline class="st0" points="742.16 599.54 742.16 599.42 740.84 599.42"/>
    <line class="st0" x1="735.08" y1="599.42" x2="733.7" y2="599.42"/>
    <line class="st0" x1="742.16" y1="599.42" x2="742.22" y2="599.3"/>
    <polyline class="st0" points="733.76 599.54 733.82 599.54 735.32 599.54"/>
    <line class="st0" x1="740.66" y1="599.54" x2="742.16" y2="599.54"/>
    <line class="st0" x1="733.82" y1="599.54" x2="735.32" y2="599.54"/>
    <polyline class="st0" points="740.6 599.54 742.1 599.54 742.16 599.54"/>
    <polyline class="st0" points="733.7 599.18 727.64 595.7 733.7 599.3 733.7 599.18"/>
    <polyline class="st0" points="727.64 595.7 727.7 595.82 733.7 599.3"/>
    <polyline class="st0" points="727.7 595.82 727.76 595.94 733.7 599.3"/>
    <polyline class="st0" points="727.82 596.06 733.76 599.54 727.76 595.94 727.82 596.06"/>
    <polyline class="st0" points="733.76 599.54 733.7 599.42 727.76 595.94"/>
    <line class="st0" x1="733.7" y1="599.42" x2="733.7" y2="599.3"/>
    <polyline class="st0" points="727.82 596.06 727.94 596.18 733.76 599.54"/>
    <polyline class="st0" points="727.94 596.18 733.82 599.54 733.76 599.54"/>
    <line class="st0" x1="727.7" y1="595.82" x2="727.64" y2="595.7"/>
    <line class="st0" x1="727.82" y1="596.06" x2="727.76" y2="595.94"/>
    <line class="st0" x1="727.76" y1="595.94" x2="727.7" y2="595.82"/>
    <line class="st0" x1="727.94" y1="596.18" x2="727.82" y2="596.06"/>
    <line class="st0" x1="748.22" y1="595.7" x2="742.22" y2="599.18"/>
    <line class="st0" x1="-440.62" y1="-66.7" x2="-440.62" y2="-66.7"/>
    <line class="st0" x1="742.22" y1="599.18" x2="741.32" y2="599.18"/>
    <line class="st0" x1="734.6" y1="599.18" x2="733.7" y2="599.18"/>
    <line class="st0" x1="733.7" y1="599.18" x2="727.64" y2="595.7"/>
    <line class="st0" x1="727.64" y1="595.7" x2="727.64" y2="595.16"/>
    <line class="st0" x1="733.7" y1="599.18" x2="733.7" y2="598.64"/>
    <line class="st0" x1="742.22" y1="599.18" x2="742.22" y2="598.64"/>
    <line class="st0" x1="748.22" y1="595.7" x2="748.22" y2="595.16"/>
    <polyline class="st0" points="327.32 837.26 327.44 837.32 327.32 835.4 327.32 837.26"/>
    <polyline class="st0" points="327.44 837.32 327.62 835.58 327.32 835.4"/>
    <polyline class="st0" points="327.44 837.32 327.62 837.38 327.62 835.58"/>
    <polyline class="st0" points="327.62 837.38 327.8 837.44 327.62 835.58"/>
    <polyline class="st0" points="327.8 837.44 328.04 835.58 327.62 835.58"/>
    <polyline class="st0" points="327.8 837.44 327.98 837.44 328.04 835.58"/>
    <polyline class="st0" points="327.98 837.44 328.16 837.44 328.04 835.58"/>
    <polyline class="st0" points="328.16 837.44 328.4 835.58 328.04 835.58"/>
    <polyline class="st0" points="328.16 837.44 328.34 837.44 328.4 835.58"/>
    <polyline class="st0" points="328.34 837.44 328.52 837.38 328.4 835.58"/>
    <polyline class="st0" points="328.52 837.38 328.7 835.4 328.4 835.58"/>
    <polyline class="st0" points="328.52 837.38 328.64 837.32 328.7 835.4"/>
    <polyline class="st0" points="328.64 837.32 328.7 837.26 328.7 835.4"/>
    <line class="st0" x1="312.56" y1="826.4" x2="312.68" y2="826.28"/>
    <line class="st0" x1="312.44" y1="826.64" x2="312.56" y2="826.4"/>
    <line class="st0" x1="312.44" y1="828.5" x2="312.44" y2="826.64"/>
    <polyline class="st0" points="312.44 828.5 312.56 826.82 312.44 826.64"/>
    <polyline class="st0" points="312.44 828.5 312.56 828.68 312.56 826.82"/>
    <polyline class="st0" points="312.56 828.68 312.74 828.86 312.56 826.82"/>
    <polyline class="st0" points="312.74 828.86 312.74 827 312.56 826.82"/>
    <polyline class="st0" points="343.28 828.86 343.46 828.74 343.28 827 343.28 828.86"/>
    <polyline class="st0" points="343.46 828.74 343.52 826.82 343.28 827"/>
    <polyline class="st0" points="343.46 828.74 343.58 828.56 343.52 826.82"/>
    <polyline class="st0" points="343.58 828.56 343.58 826.64 343.52 826.82"/>
    <line class="st0" x1="343.52" y1="826.4" x2="343.58" y2="826.64"/>
    <line class="st0" x1="343.34" y1="826.28" x2="343.52" y2="826.4"/>
    <line class="st0" x1="327.38" y1="837.38" x2="312.8" y2="828.98"/>
    <polyline class="st0" points="327.38 837.38 327.32 837.38 312.8 828.98"/>
    <polyline class="st0" points="327.32 837.38 312.8 828.98 312.8 828.98"/>
    <polyline class="st0" points="327.32 837.38 327.32 837.32 312.8 828.98"/>
    <polyline class="st0" points="327.32 837.32 312.74 828.92 312.8 828.98"/>
    <polyline class="st0" points="327.32 837.32 312.74 828.86 312.74 828.92"/>
    <polyline class="st0" points="327.32 837.32 327.32 837.26 312.74 828.86"/>
    <polyline class="st0" points="343.28 828.86 343.28 828.92 343.46 828.74 343.28 828.86"/>
    <polyline class="st0" points="343.28 828.92 343.46 828.8 343.46 828.74"/>
    <polyline class="st0" points="343.46 828.8 343.58 828.56 343.46 828.74"/>
    <polyline class="st0" points="343.46 828.8 343.58 828.56 343.58 828.56"/>
    <polyline class="st0" points="343.28 828.92 343.22 828.98 343.46 828.8"/>
    <polyline class="st0" points="343.22 828.98 343.4 828.86 343.46 828.8"/>
    <line class="st0" x1="343.4" y1="828.86" x2="343.58" y2="828.56"/>
    <polyline class="st0" points="343.4 828.86 343.52 828.62 343.58 828.56"/>
    <line class="st0" x1="-440.62" y1="-66.7" x2="-440.62" y2="-66.7"/>
    <line class="st0" x1="328.64" y1="837.38" x2="328.58" y2="837.44"/>
    <line class="st0" x1="328.58" y1="837.44" x2="328.28" y2="837.5"/>
    <line class="st0" x1="328.28" y1="837.5" x2="327.98" y2="837.56"/>
    <line class="st0" x1="327.98" y1="837.56" x2="327.62" y2="837.5"/>
    <line class="st0" x1="327.62" y1="837.5" x2="327.38" y2="837.38"/>
    <polyline class="st0" points="328.64 837.38 328.7 837.38 328.58 837.44"/>
    <polyline class="st0" points="328.7 837.38 328.64 837.38 328.58 837.44"/>
    <line class="st0" x1="328.64" y1="837.38" x2="328.28" y2="837.5"/>
    <polyline class="st0" points="328.64 837.38 328.34 837.5 328.28 837.5"/>
    <line class="st0" x1="328.34" y1="837.5" x2="327.98" y2="837.56"/>
    <polyline class="st0" points="328.34 837.5 327.98 837.5 327.98 837.56"/>
    <line class="st0" x1="327.98" y1="837.5" x2="327.62" y2="837.5"/>
    <polyline class="st0" points="327.98 837.5 327.62 837.5 327.62 837.5"/>
    <line class="st0" x1="327.62" y1="837.5" x2="327.38" y2="837.38"/>
    <polyline class="st0" points="327.62 837.5 327.32 837.38 327.38 837.38"/>
    <polyline class="st0" points="328.7 837.38 328.7 837.32 328.64 837.38"/>
    <polyline class="st0" points="328.7 837.32 328.64 837.32 328.64 837.38"/>
    <line class="st0" x1="328.64" y1="837.32" x2="328.34" y2="837.5"/>
    <polyline class="st0" points="328.64 837.32 328.34 837.44 328.34 837.5"/>
    <line class="st0" x1="328.34" y1="837.44" x2="327.98" y2="837.5"/>
    <polyline class="st0" points="328.34 837.44 327.98 837.5 327.98 837.5"/>
    <line class="st0" x1="327.98" y1="837.5" x2="327.62" y2="837.5"/>
    <polyline class="st0" points="327.98 837.5 327.62 837.44 327.62 837.5"/>
    <line class="st0" x1="327.62" y1="837.44" x2="327.32" y2="837.38"/>
    <polyline class="st0" points="327.62 837.44 327.32 837.32 327.32 837.38"/>
    <polyline class="st0" points="328.7 837.32 328.7 837.26 328.64 837.32"/>
    <polyline class="st0" points="328.7 837.26 328.64 837.32 328.64 837.32"/>
    <polyline class="st0" points="328.64 837.32 328.52 837.38 328.64 837.32"/>
    <line class="st0" x1="328.52" y1="837.38" x2="328.34" y2="837.44"/>
    <polyline class="st0" points="328.52 837.38 328.34 837.44 328.34 837.44"/>
    <polyline class="st0" points="328.34 837.44 328.16 837.44 328.34 837.44"/>
    <line class="st0" x1="328.16" y1="837.44" x2="327.98" y2="837.5"/>
    <polyline class="st0" points="328.16 837.44 327.98 837.44 327.98 837.5"/>
    <polyline class="st0" points="327.98 837.44 327.8 837.44 327.98 837.5"/>
    <line class="st0" x1="327.8" y1="837.44" x2="327.62" y2="837.44"/>
    <polyline class="st0" points="327.8 837.44 327.62 837.38 327.62 837.44"/>
    <polyline class="st0" points="327.62 837.38 327.44 837.32 327.62 837.44"/>
    <polyline class="st0" points="327.32 837.26 327.32 837.32 327.44 837.32 327.32 837.26"/>
    <line class="st0" x1="343.22" y1="828.98" x2="328.64" y2="837.38"/>
    <line class="st0" x1="343.22" y1="828.98" x2="328.64" y2="837.38"/>
    <polyline class="st0" points="343.22 828.98 328.7 837.38 328.64 837.38"/>
    <polyline class="st0" points="343.22 828.98 343.28 828.92 328.7 837.38"/>
    <polyline class="st0" points="343.28 828.92 328.7 837.32 328.7 837.38"/>
    <polyline class="st0" points="343.28 828.92 328.7 837.26 328.7 837.32"/>
    <polyline class="st0" points="343.28 828.92 343.28 828.86 328.7 837.26"/>
    <line class="st0" x1="-440.62" y1="-66.7" x2="-440.62" y2="-66.7"/>
    <line class="st0" x1="312.8" y1="828.98" x2="312.56" y2="828.8"/>
    <polyline class="st0" points="312.8 828.98 312.74 828.92 312.56 828.8"/>
    <polyline class="st0" points="312.74 828.92 312.56 828.74 312.56 828.8"/>
    <line class="st0" x1="312.56" y1="828.74" x2="312.44" y2="828.5"/>
    <polyline class="st0" points="312.74 828.92 312.74 828.86 312.56 828.74"/>
    <polyline class="st0" points="312.74 828.86 312.56 828.68 312.56 828.74"/>
    <line class="st0" x1="312.56" y1="828.68" x2="312.44" y2="828.5"/>
    <polyline class="st0" points="312.56 828.68 312.44 828.5 312.44 828.5"/>
    <line class="st0" x1="328.7" y1="835.4" x2="328.7" y2="837.26"/>
    <line class="st0" x1="328.7" y1="837.26" x2="343.28" y2="828.86"/>
    <line class="st0" x1="343.28" y1="828.86" x2="343.28" y2="827"/>
    <line class="st0" x1="328.7" y1="835.4" x2="343.28" y2="827"/>
    <line class="st0" x1="343.28" y1="827" x2="343.28" y2="826.88"/>
    <line class="st0" x1="312.74" y1="826.88" x2="312.74" y2="827"/>
    <line class="st0" x1="312.74" y1="827" x2="327.32" y2="835.4"/>
    <line class="st0" x1="327.32" y1="835.4" x2="327.56" y2="835.4"/>
    <line class="st0" x1="328.46" y1="835.4" x2="328.7" y2="835.4"/>
    <line class="st0" x1="312.74" y1="827" x2="312.74" y2="828.86"/>
    <line class="st0" x1="312.74" y1="828.86" x2="327.32" y2="837.26"/>
    <line class="st0" x1="327.32" y1="837.26" x2="327.32" y2="835.4"/>
    <line class="st0" x1="338" y1="832.88" x2="332.18" y2="836.24"/>
    <polyline class="st0" points="338 832.88 338.12 832.76 332.18 836.24"/>
    <polyline class="st0" points="338.12 832.76 332.18 836.18 332.18 836.24"/>
    <polyline class="st0" points="338.12 832.76 332.24 836.12 332.18 836.18"/>
    <polyline class="st0" points="338.12 832.76 338.24 832.64 332.24 836.12"/>
    <polyline class="st0" points="338.24 832.64 338.3 832.52 332.24 836.12"/>
    <polyline class="st0" points="338.3 832.34 332.3 835.82 338.3 832.52 338.3 832.34"/>
    <polyline class="st0" points="332.3 835.82 332.24 836 338.3 832.52"/>
    <line class="st0" x1="332.24" y1="836" x2="332.24" y2="836.12"/>
    <line class="st0" x1="332.3" y1="835.82" x2="331.34" y2="835.82"/>
    <polyline class="st0" points="324.68 835.82 323.72 835.82 324.68 835.88"/>
    <polyline class="st0" points="331.1 835.94 332.24 836 332.3 835.82"/>
    <polyline class="st0" points="323.72 835.82 323.78 836 324.92 836"/>
    <line class="st0" x1="331.1" y1="836" x2="332.24" y2="836"/>
    <polyline class="st0" points="323.78 836 323.78 836.12 325.1 836.06"/>
    <line class="st0" x1="331.04" y1="836" x2="332.24" y2="836"/>
    <line class="st0" x1="323.84" y1="836.18" x2="325.28" y2="836.18"/>
    <polyline class="st0" points="330.74 836.18 332.18 836.18 330.74 836.18"/>
    <polyline class="st0" points="325.16 836.12 323.78 836.12 323.84 836.18"/>
    <polyline class="st0" points="332.18 836.18 332.24 836.12 330.86 836.12"/>
    <line class="st0" x1="325.16" y1="836.12" x2="323.78" y2="836.12"/>
    <line class="st0" x1="332.24" y1="836.12" x2="332.24" y2="836"/>
    <polyline class="st0" points="323.84 836.18 323.9 836.24 325.34 836.24"/>
    <line class="st0" x1="330.74" y1="836.18" x2="332.18" y2="836.18"/>
    <line class="st0" x1="323.9" y1="836.24" x2="325.4" y2="836.24"/>
    <polyline class="st0" points="330.62 836.24 332.18 836.24 332.18 836.18"/>
    <line class="st0" x1="338.12" y1="832.76" x2="338" y2="832.88"/>
    <line class="st0" x1="338.24" y1="832.64" x2="338.12" y2="832.76"/>
    <line class="st0" x1="338.3" y1="832.34" x2="338.3" y2="832.52"/>
    <line class="st0" x1="338.3" y1="832.52" x2="338.24" y2="832.64"/>
    <polyline class="st0" points="323.72 835.82 317.72 832.34 323.78 836 323.72 835.82"/>
    <polyline class="st0" points="317.72 832.34 317.72 832.52 323.78 836"/>
    <polyline class="st0" points="317.72 832.52 317.78 832.64 323.78 836"/>
    <polyline class="st0" points="317.9 832.76 323.84 836.18 317.78 832.64 317.9 832.76"/>
    <polyline class="st0" points="323.84 836.18 323.78 836.12 317.78 832.64"/>
    <line class="st0" x1="323.78" y1="836.12" x2="323.78" y2="836"/>
    <polyline class="st0" points="317.9 832.76 318.02 832.88 323.84 836.18"/>
    <polyline class="st0" points="318.02 832.88 323.9 836.24 323.84 836.18"/>
    <line class="st0" x1="317.72" y1="832.52" x2="317.72" y2="832.34"/>
    <line class="st0" x1="317.9" y1="832.76" x2="317.78" y2="832.64"/>
    <line class="st0" x1="317.78" y1="832.64" x2="317.72" y2="832.52"/>
    <line class="st0" x1="318.02" y1="832.88" x2="317.9" y2="832.76"/>
    <line class="st0" x1="317.72" y1="832.34" x2="317.72" y2="831.8"/>
    <line class="st0" x1="-440.62" y1="-66.7" x2="-440.62" y2="-66.7"/>
    <line class="st0" x1="-440.62" y1="-66.7" x2="-440.62" y2="-66.7"/>
    <line class="st0" x1="-440.62" y1="-66.7" x2="-440.62" y2="-66.7"/>
    <line class="st0" x1="-440.62" y1="-66.7" x2="-440.62" y2="-66.7"/>
    <line class="st0" x1="332.3" y1="835.82" x2="332.3" y2="835.28"/>
    <line class="st0" x1="323.72" y1="835.82" x2="324.68" y2="835.82"/>
    <line class="st0" x1="331.34" y1="835.82" x2="332.3" y2="835.82"/>
    <line class="st0" x1="323.72" y1="835.82" x2="323.72" y2="835.28"/>
    <line class="st0" x1="317.72" y1="832.34" x2="323.72" y2="835.82"/>
    <line class="st0" x1="338.3" y1="832.34" x2="338.3" y2="831.8"/>
    <line class="st0" x1="332.3" y1="835.82" x2="338.3" y2="832.34"/>
  </g>
  <g id="Layer_2">
    <line class="st1" x1="505.46" y1="147.32" x2="753.92" y2="290.72"/>
    <line class="st1" x1="79.58" y1="393.2" x2="505.46" y2="147.32"/>
    <line class="st1" x1="753.92" y1="290.72" x2="328.04" y2="536.66"/>
    <line class="st1" x1="328.04" y1="546.92" x2="753.92" y2="300.98"/>
    <line class="st1" x1="328.04" y1="536.66" x2="328.04" y2="546.92"/>
    <line class="st1" x1="328.04" y1="536.66" x2="79.58" y2="393.2"/>
    <line class="st1" x1="79.58" y1="403.46" x2="328.04" y2="546.92"/>
    <line class="st1" x1="79.58" y1="403.46" x2="79.58" y2="393.2"/>
    <line class="st1" x1="753.92" y1="300.98" x2="753.92" y2="290.72"/>
  </g>
</svg>