<?xml version="1.0" encoding="UTF-8"?>
<svg xmlns="http://www.w3.org/2000/svg" version="1.1" viewBox="0 0 841.89 841.89">
  <!-- Generator: Adobe Illustrator 30.3.0, SVG Export Plug-In . SVG Version: 2.1.3 Build 182)  -->
  <defs>
    <style>
      .st0, .st1, .st2, .st3, .st4 {
        fill: none;
        stroke: #000;
      }

      .st0, .st2, .st3, .st4 {
        stroke-width: .5px;
      }

      .st0, .st2, .st5 {
        opacity: .5;
      }

      .st0, .st4 {
        stroke-linecap: square;
        stroke-miterlimit: 10;
      }

      .st1, .st2, .st3 {
        stroke-linecap: round;
        stroke-linejoin: round;
      }

      .st6 {
        fill: #1d1d1b;
      }
    </style>
  </defs>
  <g id="Layer_1">
    <line class="st1" x1="830.71" y1="486.41" x2="406.73" y2="731.26"/>
    <line class="st1" x1="406.73" y1="731.26" x2="126.42" y2="569.41"/>
    <line class="st1" x1="126.42" y1="533.51" x2="126.42" y2="233.15"/>
    <circle class="st6" cx="126.42" cy="533.51" r="3.98" transform="translate(-29.31 7.81) rotate(-3.17)"/>
    <circle class="st6" cx="126.42" cy="237.13" r="3.98"/>
    <circle class="st6" cx="126.42" cy="569.41" r="3.98" transform="translate(-31.3 7.86) rotate(-3.17)"/>
    <circle class="st6" cx="406.73" cy="731.26" r="3.98"/>
    <circle class="st6" cx="830.71" cy="486.41" r="3.98"/>
    <path d="M111.48,394.03c0-8.37-4.14-12.96-11.97-12.96s-12.24,4.68-12.24,12.96v26.91h-4.59v-64.08h4.59v25.83c3.24-3.78,7.47-5.67,12.78-5.67,9.99,0,16.02,6.12,16.02,16.2v27.72h-4.59v-26.91h0Z"/>
    <path d="M243.16,710.27c-3.87,5.04-7.92,6.12-12.87,6.12-4.59,0-8.37-1.53-10.62-3.78-4.41-4.41-5.58-11.61-5.58-18.45s1.17-14.04,5.58-18.45c2.25-2.25,6.03-3.78,10.62-3.78,4.95,0,9,1.08,12.87,6.12v-26.28h4.59v64.08h-4.59v-5.58h0ZM230.92,675.98c-10.62,0-12.24,9.18-12.24,18.18s1.62,18.18,12.24,18.18,12.24-9.18,12.24-18.18-1.62-18.18-12.24-18.18Z"/>
    <path d="M655.22,665.9l-12.24-36.18-12.24,36.18h-4.68l-13.86-43.38h5.04l11.07,37.98,12.42-37.98h4.5l12.42,37.98,11.07-37.98h5.04l-13.86,43.38h-4.68Z"/>
  </g>
  <g id="Layer_4" class="st5">
    <line class="st0" x1="179.47" y1="288.95" x2="179.53" y2="289.37"/>
    <line class="st0" x1="179.53" y1="289.37" x2="179.77" y2="289.61"/>
    <line class="st0" x1="179.77" y1="289.61" x2="179.95" y2="289.67"/>
    <line class="st0" x1="179.77" y1="289.55" x2="179.65" y2="289.49"/>
    <line class="st0" x1="179.53" y1="288.95" x2="179.47" y2="288.95"/>
    <line class="st0" x1="179.47" y1="288.95" x2="179.47" y2="274.73"/>
    <line class="st3" x1="192.19" y1="296.69" x2="192.19" y2="550.85"/>
    <line class="st3" x1="192.07" y1="296.63" x2="192.19" y2="550.85"/>
    <line class="st3" x1="192.07" y1="296.63" x2="192.07" y2="551.21"/>
    <line class="st3" x1="192.07" y1="551.21" x2="192.19" y2="550.85"/>
    <line class="st3" x1="191.77" y1="296.45" x2="192.07" y2="551.21"/>
    <polyline class="st3" points="191.71 296.45 191.71 551.45 192.07 551.21"/>
    <polyline class="st3" points="177.43 273.53 177.91 559.49 177.91 273.83"/>
    <line class="st3" x1="177.43" y1="273.53" x2="177.43" y2="559.67"/>
    <line class="st3" x1="177.43" y1="559.67" x2="177.91" y2="559.49"/>
    <line class="st3" x1="176.83" y1="273.17" x2="177.43" y2="559.67"/>
    <line class="st3" x1="176.83" y1="273.17" x2="176.83" y2="559.73"/>
    <line class="st3" x1="176.83" y1="559.73" x2="177.43" y2="559.67"/>
    <line class="st3" x1="176.23" y1="272.87" x2="176.83" y2="559.73"/>
    <line class="st3" x1="176.23" y1="272.87" x2="176.23" y2="559.67"/>
    <line class="st3" x1="176.23" y1="559.67" x2="176.83" y2="559.73"/>
    <line class="st3" x1="175.75" y1="272.57" x2="176.23" y2="559.67"/>
    <polyline class="st3" points="175.75 272.57 175.75 559.49 176.23 559.67"/>
    <polyline class="st3" points="161.59 264.41 161.89 551.45 161.89 264.59"/>
    <polyline class="st3" points="161.59 264.41 161.59 551.21 161.89 551.45"/>
    <line class="st3" x1="161.47" y1="264.35" x2="161.59" y2="551.21"/>
    <polyline class="st3" points="161.47 264.35 161.47 550.85 161.59 551.21"/>
    <line class="st3" x1="177.91" y1="559.49" x2="177.91" y2="273.83"/>
    <line class="st3" x1="161.89" y1="551.45" x2="175.75" y2="559.49"/>
    <line class="st3" x1="175.75" y1="559.49" x2="175.75" y2="272.57"/>
    <line class="st3" x1="161.89" y1="551.45" x2="161.89" y2="264.59"/>
    <line class="st3" x1="177.91" y1="559.49" x2="191.71" y2="551.45"/>
    <line class="st3" x1="191.71" y1="551.45" x2="191.71" y2="296.45"/>
    <line class="st3" x1="421.09" y1="396.53" x2="421.09" y2="683.03"/>
    <line class="st3" x1="420.97" y1="396.59" x2="421.09" y2="683.03"/>
    <polyline class="st3" points="420.97 396.59 420.97 683.39 421.09 683.03"/>
    <line class="st3" x1="420.67" y1="396.77" x2="420.97" y2="683.39"/>
    <polyline class="st3" points="420.67 396.77 420.67 683.63 420.97 683.39"/>
    <polyline class="st3" points="406.33 405.05 406.81 691.67 406.81 404.75"/>
    <polyline class="st3" points="406.33 405.05 406.33 691.85 406.81 691.67"/>
    <line class="st3" x1="405.79" y1="405.35" x2="406.33" y2="691.85"/>
    <polyline class="st3" points="405.73 405.35 405.73 691.91 406.33 691.85"/>
    <line class="st3" x1="405.19" y1="405.05" x2="405.73" y2="691.91"/>
    <polyline class="st3" points="405.19 405.05 405.19 691.85 405.73 691.91"/>
    <line class="st3" x1="404.71" y1="404.75" x2="405.19" y2="691.85"/>
    <polyline class="st3" points="404.71 404.75 404.71 691.67 405.19 691.85"/>
    <polyline class="st3" points="390.55 396.59 390.85 683.63 390.85 396.77"/>
    <line class="st3" x1="390.55" y1="396.59" x2="390.55" y2="683.39"/>
    <line class="st3" x1="390.55" y1="683.39" x2="390.85" y2="683.63"/>
    <line class="st3" x1="390.43" y1="396.53" x2="390.55" y2="683.39"/>
    <line class="st3" x1="390.43" y1="396.53" x2="390.43" y2="683.03"/>
    <line class="st3" x1="390.43" y1="683.03" x2="390.55" y2="683.39"/>
    <line class="st3" x1="406.81" y1="691.67" x2="420.67" y2="683.63"/>
    <line class="st3" x1="420.67" y1="683.63" x2="420.67" y2="396.77"/>
    <line class="st3" x1="406.81" y1="691.67" x2="406.81" y2="404.75"/>
    <line class="st3" x1="390.85" y1="683.63" x2="404.71" y2="691.67"/>
    <line class="st3" x1="404.71" y1="691.67" x2="404.71" y2="404.75"/>
    <line class="st3" x1="390.85" y1="683.63" x2="390.85" y2="396.77"/>
    <line class="st4" x1="390.43" y1="411.17" x2="179.65" y2="289.43"/>
    <line class="st4" x1="390.43" y1="411.05" x2="179.59" y2="289.43"/>
    <line class="st4" x1="390.43" y1="411.05" x2="179.53" y2="289.25"/>
    <line class="st4" x1="390.43" y1="410.69" x2="179.53" y2="289.25"/>
    <line class="st4" x1="390.43" y1="410.63" x2="179.47" y2="288.83"/>
    <line class="st4" x1="179.47" y1="288.83" x2="390.43" y2="410.63"/>
    <polyline class="st3" points="406.45 691.85 406.15 691.97 406.45 693.71 406.45 691.85"/>
    <polyline class="st3" points="406.15 691.97 406.15 693.83 406.45 693.71"/>
    <polyline class="st3" points="406.15 691.97 405.79 693.83 406.15 693.83"/>
    <polyline class="st3" points="406.15 691.97 405.73 692.03 405.79 693.83"/>
    <polyline class="st3" points="405.73 692.03 405.43 693.83 405.79 693.83"/>
    <polyline class="st3" points="405.73 692.03 405.37 691.97 405.43 693.83"/>
    <polyline class="st3" points="405.37 691.97 405.13 693.71 405.43 693.83"/>
    <polyline class="st3" points="405.37 691.97 405.07 691.85 405.13 693.71"/>
    <polyline class="st3" points="405.07 691.85 405.07 693.71 405.13 693.71"/>
    <polyline class="st3" points="390.49 685.31 390.49 683.45 390.31 685.13 390.49 685.31"/>
    <polyline class="st3" points="390.49 683.45 390.25 683.27 390.31 685.13"/>
    <polyline class="st3" points="390.25 683.27 390.19 684.95 390.31 685.13"/>
    <polyline class="st3" points="390.25 683.27 390.19 683.03 390.19 684.95"/>
    <line class="st3" x1="390.19" y1="683.03" x2="390.25" y2="682.79"/>
    <line class="st3" x1="390.25" y1="682.79" x2="390.43" y2="682.67"/>
    <polyline class="st3" points="421.03 685.31 421.15 685.19 421.03 685.31"/>
    <polyline class="st3" points="421.03 685.31 421.21 685.13 421.15 685.19"/>
    <line class="st3" x1="421.21" y1="685.13" x2="421.15" y2="685.19"/>
    <polyline class="st3" points="421.21 685.13 421.27 685.01 421.21 685.13"/>
    <polyline class="st3" points="421.03 685.31 420.97 685.37 421.21 685.13"/>
    <polyline class="st3" points="420.97 685.37 421.21 685.19 421.21 685.13"/>
    <line class="st3" x1="420.97" y1="685.37" x2="420.97" y2="685.43"/>
    <line class="st3" x1="421.33" y1="684.89" x2="421.33" y2="684.95"/>
    <polyline class="st3" points="421.33 684.89 421.27 685.01 421.33 684.95"/>
    <polyline class="st3" points="421.03 685.31 406.45 693.71 421.03 685.31 421.03 685.31"/>
    <line class="st3" x1="406.45" y1="693.71" x2="421.03" y2="685.31"/>
    <polyline class="st3" points="406.45 693.71 406.45 693.77 421.03 685.31"/>
    <polyline class="st3" points="406.45 693.77 420.97 685.37 421.03 685.31"/>
    <polyline class="st3" points="406.45 693.77 406.39 693.83 420.97 685.37"/>
    <polyline class="st3" points="406.39 693.83 420.97 685.43 420.97 685.37"/>
    <polyline class="st3" points="405.07 693.71 405.13 693.71 405.07 693.71"/>
    <polyline class="st3" points="405.07 693.71 405.13 693.77 405.13 693.71"/>
    <polyline class="st3" points="405.13 693.77 405.43 693.83 405.13 693.71"/>
    <polyline class="st3" points="405.13 693.77 405.43 693.89 405.43 693.83"/>
    <polyline class="st3" points="405.43 693.89 405.79 693.83 405.43 693.83"/>
    <polyline class="st3" points="405.43 693.89 405.79 693.89 405.79 693.83"/>
    <polyline class="st3" points="405.79 693.89 406.15 693.83 405.79 693.83"/>
    <polyline class="st3" points="405.79 693.89 406.15 693.83 406.15 693.83"/>
    <polyline class="st3" points="406.15 693.83 406.45 693.71 406.15 693.83"/>
    <polyline class="st3" points="406.15 693.83 406.45 693.71 406.45 693.71"/>
    <polyline class="st3" points="405.07 693.71 405.07 693.77 405.13 693.77"/>
    <polyline class="st3" points="405.07 693.77 405.13 693.83 405.13 693.77"/>
    <line class="st3" x1="405.13" y1="693.83" x2="405.43" y2="693.89"/>
    <polyline class="st3" points="405.13 693.83 405.43 693.89 405.43 693.89"/>
    <line class="st3" x1="405.43" y1="693.89" x2="405.79" y2="693.89"/>
    <polyline class="st3" points="405.43 693.89 405.79 693.95 405.79 693.89"/>
    <line class="st3" x1="405.79" y1="693.95" x2="406.15" y2="693.83"/>
    <polyline class="st3" points="405.79 693.95 406.15 693.89 406.15 693.83"/>
    <line class="st3" x1="406.15" y1="693.89" x2="406.45" y2="693.71"/>
    <polyline class="st3" points="406.15 693.89 406.45 693.77 406.45 693.71"/>
    <polyline class="st3" points="405.07 693.77 405.13 693.83 405.13 693.83"/>
    <polyline class="st3" points="405.13 693.83 405.19 693.83 405.13 693.83"/>
    <line class="st3" x1="405.19" y1="693.83" x2="405.43" y2="693.89"/>
    <polyline class="st3" points="405.19 693.83 405.49 693.95 405.43 693.89"/>
    <line class="st3" x1="405.49" y1="693.95" x2="405.79" y2="693.95"/>
    <polyline class="st3" points="405.49 693.95 405.79 693.95 405.79 693.95"/>
    <line class="st3" x1="405.79" y1="693.95" x2="406.15" y2="693.89"/>
    <polyline class="st3" points="405.79 693.95 406.15 693.95 406.15 693.89"/>
    <line class="st3" x1="406.15" y1="693.95" x2="406.45" y2="693.77"/>
    <polyline class="st3" points="406.15 693.95 406.39 693.83 406.45 693.77"/>
    <polyline class="st3" points="405.07 693.71 390.49 685.31 405.07 693.71 405.07 693.71"/>
    <line class="st3" x1="390.49" y1="685.31" x2="405.07" y2="693.71"/>
    <polyline class="st3" points="390.49 685.31 390.55 685.37 405.07 693.71"/>
    <polyline class="st3" points="390.55 685.37 405.07 693.77 405.07 693.71"/>
    <polyline class="st3" points="390.55 685.37 390.55 685.43 405.07 693.77"/>
    <polyline class="st3" points="390.55 685.43 405.13 693.83 405.07 693.77"/>
    <line class="st3" x1="390.55" y1="685.43" x2="390.55" y2="685.37"/>
    <line class="st3" x1="390.55" y1="685.37" x2="390.37" y2="685.25"/>
    <line class="st3" x1="390.37" y1="685.25" x2="390.25" y2="685.07"/>
    <polyline class="st3" points="390.55 685.37 390.49 685.31 390.37 685.25"/>
    <polyline class="st3" points="390.49 685.31 390.31 685.19 390.37 685.25"/>
    <line class="st3" x1="390.31" y1="685.19" x2="390.25" y2="685.07"/>
    <polyline class="st3" points="390.31 685.19 390.19 685.01 390.25 685.07"/>
    <line class="st3" x1="390.49" y1="685.31" x2="390.31" y2="685.19"/>
    <polyline class="st3" points="390.49 685.31 390.31 685.13 390.31 685.19"/>
    <line class="st3" x1="390.31" y1="685.13" x2="390.19" y2="685.01"/>
    <polyline class="st3" points="390.31 685.13 390.19 684.95 390.19 685.01"/>
    <line class="st3" x1="421.09" y1="682.67" x2="421.21" y2="682.79"/>
    <line class="st3" x1="421.21" y1="682.79" x2="421.33" y2="683.03"/>
    <line class="st3" x1="421.33" y1="683.03" x2="421.33" y2="684.89"/>
    <polyline class="st3" points="421.33 683.03 421.27 685.01 421.33 684.89"/>
    <polyline class="st3" points="421.33 683.03 421.21 683.27 421.27 685.01"/>
    <polyline class="st3" points="421.21 683.27 421.21 685.13 421.27 685.01"/>
    <polyline class="st3" points="421.21 683.27 421.15 685.19 421.21 685.13"/>
    <polyline class="st3" points="421.21 683.27 421.03 683.45 421.15 685.19"/>
    <polyline class="st3" points="421.03 683.45 421.03 685.31 421.15 685.19"/>
    <line class="st3" x1="406.45" y1="693.71" x2="406.45" y2="691.85"/>
    <line class="st3" x1="406.45" y1="691.85" x2="406.21" y2="691.85"/>
    <line class="st3" x1="405.31" y1="691.85" x2="405.07" y2="691.85"/>
    <line class="st3" x1="405.07" y1="691.85" x2="405.07" y2="693.71"/>
    <line class="st3" x1="390.49" y1="685.31" x2="390.49" y2="683.45"/>
    <line class="st3" x1="390.49" y1="683.45" x2="390.49" y2="683.27"/>
    <line class="st3" x1="405.07" y1="691.85" x2="390.49" y2="683.45"/>
    <line class="st3" x1="421.03" y1="683.45" x2="406.45" y2="691.85"/>
    <line class="st3" x1="421.03" y1="685.31" x2="406.45" y2="693.71"/>
    <line class="st3" x1="405.07" y1="693.71" x2="390.49" y2="685.31"/>
    <line class="st3" x1="421.03" y1="683.27" x2="421.03" y2="683.45"/>
    <line class="st3" x1="421.03" y1="683.45" x2="421.03" y2="685.31"/>
    <polyline class="st3" points="401.47 692.27 395.47 688.79 401.53 692.39 401.47 692.27"/>
    <polyline class="st3" points="395.47 688.79 395.47 688.91 401.53 692.39"/>
    <polyline class="st3" points="395.47 688.91 395.53 689.09 401.53 692.39"/>
    <polyline class="st3" points="395.65 689.21 401.59 692.63 395.53 689.09 395.65 689.21"/>
    <polyline class="st3" points="401.59 692.63 401.53 692.51 395.53 689.09"/>
    <line class="st3" x1="401.53" y1="692.51" x2="401.53" y2="692.39"/>
    <polyline class="st3" points="395.65 689.21 395.77 689.27 401.59 692.63"/>
    <polyline class="st3" points="395.77 689.27 401.59 692.69 401.59 692.63"/>
    <line class="st3" x1="409.87" y1="692.69" x2="408.37" y2="692.69"/>
    <line class="st3" x1="403.15" y1="692.69" x2="401.59" y2="692.69"/>
    <polyline class="st3" points="409.87 692.69 409.93 692.63 408.49 692.63"/>
    <line class="st3" x1="403.09" y1="692.63" x2="401.59" y2="692.69"/>
    <line class="st3" x1="409.93" y1="692.63" x2="408.49" y2="692.63"/>
    <polyline class="st3" points="403.03 692.63 401.59 692.63 401.59 692.69"/>
    <line class="st3" x1="409.93" y1="692.63" x2="408.49" y2="692.57"/>
    <polyline class="st3" points="402.91 692.51 401.53 692.51 401.59 692.63"/>
    <polyline class="st3" points="409.93 692.63 409.99 692.51 408.61 692.51"/>
    <line class="st3" x1="402.91" y1="692.51" x2="401.53" y2="692.51"/>
    <polyline class="st3" points="409.99 692.51 409.99 692.39 408.79 692.39"/>
    <line class="st3" x1="402.85" y1="692.51" x2="401.53" y2="692.51"/>
    <line class="st3" x1="410.05" y1="692.27" x2="409.09" y2="692.27"/>
    <polyline class="st3" points="402.43 692.27 401.47 692.27 402.43 692.27"/>
    <polyline class="st3" points="408.85 692.39 409.99 692.39 410.05 692.27"/>
    <polyline class="st3" points="401.47 692.27 401.53 692.39 402.67 692.39"/>
    <line class="st3" x1="408.85" y1="692.39" x2="409.99" y2="692.39"/>
    <line class="st3" x1="401.53" y1="692.39" x2="401.53" y2="692.51"/>
    <line class="st3" x1="395.47" y1="688.91" x2="395.47" y2="688.79"/>
    <line class="st3" x1="395.65" y1="689.21" x2="395.53" y2="689.09"/>
    <line class="st3" x1="395.53" y1="689.09" x2="395.47" y2="688.91"/>
    <line class="st3" x1="395.77" y1="689.27" x2="395.65" y2="689.21"/>
    <line class="st3" x1="415.75" y1="689.27" x2="409.87" y2="692.69"/>
    <polyline class="st3" points="415.75 689.27 415.87 689.21 409.87 692.69"/>
    <polyline class="st3" points="415.87 689.21 409.93 692.63 409.87 692.69"/>
    <polyline class="st3" points="415.87 689.21 409.99 692.51 409.93 692.63"/>
    <polyline class="st3" points="415.87 689.21 415.99 689.09 409.99 692.51"/>
    <polyline class="st3" points="415.99 689.09 416.05 688.91 409.99 692.51"/>
    <polyline class="st3" points="416.05 688.79 410.05 692.27 416.05 688.91 416.05 688.79"/>
    <polyline class="st3" points="410.05 692.27 409.99 692.39 416.05 688.91"/>
    <line class="st3" x1="409.99" y1="692.39" x2="409.99" y2="692.51"/>
    <line class="st3" x1="415.87" y1="689.21" x2="415.75" y2="689.27"/>
    <line class="st3" x1="415.99" y1="689.09" x2="415.87" y2="689.21"/>
    <line class="st3" x1="416.05" y1="688.79" x2="416.05" y2="688.91"/>
    <line class="st3" x1="416.05" y1="688.91" x2="415.99" y2="689.09"/>
    <line class="st3" x1="416.05" y1="688.79" x2="416.05" y2="688.25"/>
    <line class="st3" x1="401.47" y1="692.27" x2="395.47" y2="688.79"/>
    <line class="st3" x1="410.05" y1="692.27" x2="409.09" y2="692.27"/>
    <line class="st3" x1="402.43" y1="692.27" x2="401.47" y2="692.27"/>
    <line class="st3" x1="416.05" y1="688.79" x2="410.05" y2="692.27"/>
    <line class="st3" x1="395.47" y1="688.79" x2="395.47" y2="688.25"/>
    <line class="st3" x1="401.47" y1="692.27" x2="401.47" y2="691.73"/>
    <line class="st3" x1="410.05" y1="692.27" x2="410.05" y2="691.73"/>
    <line class="st3" x1="161.35" y1="550.61" x2="161.47" y2="550.55"/>
    <line class="st3" x1="161.29" y1="550.85" x2="161.35" y2="550.61"/>
    <line class="st3" x1="161.29" y1="552.65" x2="161.29" y2="550.85"/>
    <polyline class="st3" points="161.29 552.65 161.29 552.77 161.29 550.85"/>
    <polyline class="st3" points="161.29 552.77 161.35 551.09 161.29 550.85"/>
    <polyline class="st3" points="161.29 552.77 161.35 552.89 161.35 551.09"/>
    <polyline class="st3" points="161.35 552.89 161.41 553.01 161.35 551.09"/>
    <polyline class="st3" points="161.41 553.01 161.59 551.27 161.35 551.09"/>
    <polyline class="st3" points="161.41 553.01 161.53 553.07 161.59 551.27"/>
    <polyline class="st3" points="161.53 553.07 161.59 553.13 161.59 551.27"/>
    <polyline class="st3" points="192.07 553.13 192.19 553.01 192.07 551.27 192.07 553.13"/>
    <polyline class="st3" points="192.19 553.01 192.31 551.09 192.07 551.27"/>
    <polyline class="st3" points="192.19 553.01 192.37 552.83 192.31 551.09"/>
    <polyline class="st3" points="192.37 552.83 192.37 550.85 192.31 551.09"/>
    <polyline class="st3" points="192.37 552.83 192.37 552.65 192.37 550.85"/>
    <line class="st3" x1="192.31" y1="550.61" x2="192.37" y2="550.85"/>
    <line class="st3" x1="192.19" y1="550.55" x2="192.31" y2="550.61"/>
    <polyline class="st3" points="176.11 561.53 176.35 561.59 176.11 559.67 176.11 561.53"/>
    <polyline class="st3" points="176.35 561.59 176.47 559.79 176.11 559.67"/>
    <polyline class="st3" points="176.35 561.59 176.71 561.65 176.47 559.79"/>
    <polyline class="st3" points="176.71 561.65 176.83 559.85 176.47 559.79"/>
    <polyline class="st3" points="176.71 561.65 177.07 561.65 176.83 559.85"/>
    <polyline class="st3" points="177.07 561.65 177.19 559.79 176.83 559.85"/>
    <polyline class="st3" points="177.07 561.65 177.37 561.59 177.19 559.79"/>
    <polyline class="st3" points="177.37 561.59 177.55 559.67 177.19 559.79"/>
    <polyline class="st3" points="177.37 561.59 177.55 561.53 177.55 559.67"/>
    <polyline class="st3" points="192.07 553.13 177.55 561.53 192.07 553.13 192.07 553.13"/>
    <line class="st3" x1="177.55" y1="561.53" x2="192.07" y2="553.13"/>
    <polyline class="st3" points="177.55 561.53 177.49 561.59 192.07 553.13"/>
    <polyline class="st3" points="177.49 561.59 192.07 553.19 192.07 553.13"/>
    <polyline class="st3" points="177.49 561.59 177.49 561.65 192.07 553.19"/>
    <polyline class="st3" points="177.49 561.65 192.01 553.25 192.07 553.19"/>
    <polyline class="st3" points="176.11 561.53 176.35 561.59 176.11 561.53"/>
    <polyline class="st3" points="176.11 561.53 176.35 561.65 176.35 561.59"/>
    <polyline class="st3" points="176.35 561.65 176.71 561.65 176.35 561.59"/>
    <polyline class="st3" points="176.35 561.65 176.71 561.71 176.71 561.65"/>
    <polyline class="st3" points="176.71 561.71 177.07 561.65 176.71 561.65"/>
    <polyline class="st3" points="176.71 561.71 177.07 561.71 177.07 561.65"/>
    <polyline class="st3" points="177.07 561.71 177.37 561.59 177.07 561.65"/>
    <polyline class="st3" points="177.07 561.71 177.37 561.59 177.37 561.59"/>
    <polyline class="st3" points="177.37 561.59 177.55 561.53 177.37 561.59"/>
    <polyline class="st3" points="177.37 561.59 177.55 561.53 177.55 561.53"/>
    <polyline class="st3" points="176.11 561.53 176.17 561.59 176.35 561.65"/>
    <polyline class="st3" points="176.17 561.59 176.35 561.71 176.35 561.65"/>
    <line class="st3" x1="176.35" y1="561.71" x2="176.71" y2="561.71"/>
    <polyline class="st3" points="176.35 561.71 176.71 561.77 176.71 561.71"/>
    <line class="st3" x1="176.71" y1="561.77" x2="177.07" y2="561.71"/>
    <polyline class="st3" points="176.71 561.77 177.07 561.77 177.07 561.71"/>
    <line class="st3" x1="177.07" y1="561.77" x2="177.37" y2="561.59"/>
    <polyline class="st3" points="177.07 561.77 177.37 561.65 177.37 561.59"/>
    <line class="st3" x1="177.37" y1="561.65" x2="177.55" y2="561.53"/>
    <polyline class="st3" points="177.37 561.65 177.49 561.59 177.55 561.53"/>
    <polyline class="st3" points="176.17 561.59 176.17 561.65 176.35 561.71"/>
    <polyline class="st3" points="176.17 561.65 176.41 561.71 176.35 561.71"/>
    <line class="st3" x1="176.41" y1="561.71" x2="176.71" y2="561.77"/>
    <polyline class="st3" points="176.41 561.71 176.71 561.77 176.71 561.77"/>
    <line class="st3" x1="176.71" y1="561.77" x2="177.07" y2="561.77"/>
    <polyline class="st3" points="176.71 561.77 177.01 561.77 177.07 561.77"/>
    <line class="st3" x1="177.01" y1="561.77" x2="177.37" y2="561.65"/>
    <polyline class="st3" points="177.01 561.77 177.31 561.71 177.37 561.65"/>
    <line class="st3" x1="177.31" y1="561.71" x2="177.49" y2="561.59"/>
    <polyline class="st3" points="177.31 561.71 177.49 561.65 177.49 561.59"/>
    <line class="st3" x1="161.65" y1="553.25" x2="161.59" y2="553.19"/>
    <polyline class="st3" points="161.65 553.25 161.59 553.19 161.59 553.19"/>
    <polyline class="st3" points="161.59 553.19 161.53 553.19 161.59 553.19"/>
    <line class="st3" x1="161.53" y1="553.19" x2="161.35" y2="553.01"/>
    <polyline class="st3" points="161.59 553.19 161.59 553.13 161.53 553.19"/>
    <polyline class="st3" points="161.59 553.13 161.53 553.13 161.53 553.19"/>
    <line class="st3" x1="161.53" y1="553.13" x2="161.35" y2="553.01"/>
    <polyline class="st3" points="161.53 553.13 161.35 552.95 161.35 553.01"/>
    <line class="st3" x1="161.59" y1="553.13" x2="161.53" y2="553.13"/>
    <polyline class="st3" points="161.59 553.13 161.53 553.07 161.53 553.13"/>
    <polyline class="st3" points="161.53 553.07 161.41 553.01 161.53 553.13"/>
    <line class="st3" x1="161.41" y1="553.01" x2="161.35" y2="552.95"/>
    <polyline class="st3" points="161.41 553.01 161.35 552.89 161.35 552.95"/>
    <polyline class="st3" points="161.35 552.89 161.29 552.77 161.35 552.95"/>
    <line class="st3" x1="161.29" y1="552.77" x2="161.29" y2="552.65"/>
    <line class="st3" x1="176.17" y1="561.65" x2="161.65" y2="553.25"/>
    <polyline class="st3" points="176.17 561.65 176.17 561.59 161.65 553.25"/>
    <polyline class="st3" points="176.17 561.59 161.59 553.19 161.65 553.25"/>
    <polyline class="st3" points="176.17 561.59 176.11 561.53 161.59 553.19"/>
    <polyline class="st3" points="176.11 561.53 161.59 553.13 161.59 553.19"/>
    <polyline class="st3" points="176.11 561.53 161.59 553.13 161.59 553.13"/>
    <line class="st3" x1="176.11" y1="561.53" x2="161.59" y2="553.13"/>
    <polyline class="st3" points="192.07 553.13 192.19 553.01 192.07 553.13"/>
    <polyline class="st3" points="192.07 553.13 192.19 553.07 192.19 553.01"/>
    <polyline class="st3" points="192.19 553.07 192.37 552.83 192.19 553.01"/>
    <polyline class="st3" points="192.19 553.07 192.37 552.89 192.37 552.83"/>
    <line class="st3" x1="192.37" y1="552.65" x2="192.37" y2="552.83"/>
    <polyline class="st3" points="192.07 553.13 192.07 553.19 192.19 553.07"/>
    <polyline class="st3" points="192.07 553.19 192.19 553.13 192.19 553.07"/>
    <line class="st3" x1="192.19" y1="553.13" x2="192.37" y2="552.89"/>
    <polyline class="st3" points="192.19 553.13 192.31 552.95 192.37 552.89"/>
    <line class="st3" x1="192.07" y1="553.19" x2="192.01" y2="553.25"/>
    <line class="st3" x1="177.55" y1="559.67" x2="177.55" y2="561.53"/>
    <line class="st3" x1="177.55" y1="561.53" x2="192.07" y2="553.13"/>
    <line class="st3" x1="192.07" y1="553.13" x2="192.07" y2="551.27"/>
    <line class="st3" x1="161.59" y1="551.27" x2="161.59" y2="553.13"/>
    <line class="st3" x1="161.59" y1="553.13" x2="176.11" y2="561.53"/>
    <line class="st3" x1="176.11" y1="561.53" x2="176.11" y2="559.67"/>
    <line class="st3" x1="161.59" y1="551.27" x2="176.11" y2="559.67"/>
    <line class="st3" x1="176.11" y1="559.67" x2="176.41" y2="559.67"/>
    <line class="st3" x1="177.25" y1="559.67" x2="177.55" y2="559.67"/>
    <line class="st3" x1="177.55" y1="559.67" x2="192.07" y2="551.27"/>
    <line class="st3" x1="192.07" y1="551.27" x2="192.07" y2="551.09"/>
    <line class="st3" x1="161.59" y1="551.09" x2="161.59" y2="551.27"/>
    <line class="st3" x1="172.69" y1="560.51" x2="166.81" y2="557.09"/>
    <polyline class="st3" points="172.69 560.51 172.63 560.45 166.81 557.09"/>
    <polyline class="st3" points="172.63 560.45 166.69 557.03 166.81 557.09"/>
    <polyline class="st3" points="172.63 560.45 166.63 556.91 166.69 557.03"/>
    <polyline class="st3" points="172.63 560.45 172.57 560.33 166.63 556.91"/>
    <polyline class="st3" points="172.57 560.33 172.57 560.21 166.63 556.91"/>
    <polyline class="st3" points="172.57 560.09 166.51 556.61 172.57 560.21 172.57 560.09"/>
    <polyline class="st3" points="166.51 556.61 166.57 556.73 172.57 560.21"/>
    <line class="st3" x1="166.57" y1="556.73" x2="166.63" y2="556.91"/>
    <line class="st3" x1="166.57" y1="556.73" x2="166.51" y2="556.61"/>
    <line class="st3" x1="166.69" y1="557.03" x2="166.63" y2="556.91"/>
    <line class="st3" x1="166.63" y1="556.91" x2="166.57" y2="556.73"/>
    <line class="st3" x1="166.81" y1="557.09" x2="166.69" y2="557.03"/>
    <line class="st3" x1="180.97" y1="560.51" x2="179.47" y2="560.51"/>
    <line class="st3" x1="174.19" y1="560.51" x2="172.69" y2="560.51"/>
    <polyline class="st3" points="180.97 560.51 181.03 560.45 179.53 560.45"/>
    <line class="st3" x1="174.19" y1="560.45" x2="172.69" y2="560.51"/>
    <line class="st3" x1="181.03" y1="560.45" x2="179.53" y2="560.45"/>
    <polyline class="st3" points="174.13 560.45 172.63 560.45 172.69 560.51"/>
    <line class="st3" x1="181.03" y1="560.45" x2="179.59" y2="560.45"/>
    <polyline class="st3" points="173.95 560.39 172.57 560.33 172.63 560.45"/>
    <polyline class="st3" points="181.03 560.45 181.03 560.33 179.71 560.33"/>
    <line class="st3" x1="173.95" y1="560.33" x2="172.57" y2="560.33"/>
    <polyline class="st3" points="181.03 560.33 181.09 560.21 179.89 560.27"/>
    <line class="st3" x1="173.95" y1="560.33" x2="172.57" y2="560.33"/>
    <line class="st3" x1="181.09" y1="560.09" x2="180.19" y2="560.09"/>
    <polyline class="st3" points="173.47 560.09 172.57 560.09 173.53 560.09"/>
    <polyline class="st3" points="179.95 560.21 181.09 560.21 181.09 560.09"/>
    <polyline class="st3" points="172.57 560.09 172.57 560.21 173.77 560.21"/>
    <line class="st3" x1="179.89" y1="560.21" x2="181.09" y2="560.21"/>
    <line class="st3" x1="172.57" y1="560.21" x2="172.57" y2="560.33"/>
    <line class="st3" x1="186.85" y1="557.09" x2="180.97" y2="560.51"/>
    <polyline class="st3" points="186.85 557.09 186.97 557.03 180.97 560.51"/>
    <polyline class="st3" points="186.97 557.03 181.03 560.45 180.97 560.51"/>
    <polyline class="st3" points="186.97 557.03 181.03 560.33 181.03 560.45"/>
    <polyline class="st3" points="186.97 557.03 187.03 556.91 181.03 560.33"/>
    <polyline class="st3" points="187.03 556.91 187.09 556.73 181.03 560.33"/>
    <polyline class="st3" points="187.09 556.61 181.09 560.09 187.09 556.73 187.09 556.61"/>
    <polyline class="st3" points="181.09 560.09 181.09 560.21 187.09 556.73"/>
    <line class="st3" x1="181.09" y1="560.21" x2="181.03" y2="560.33"/>
    <line class="st3" x1="186.97" y1="557.03" x2="186.85" y2="557.09"/>
    <line class="st3" x1="187.03" y1="556.91" x2="186.97" y2="557.03"/>
    <line class="st3" x1="187.09" y1="556.61" x2="187.09" y2="556.73"/>
    <line class="st3" x1="187.09" y1="556.73" x2="187.03" y2="556.91"/>
    <line class="st3" x1="166.51" y1="556.61" x2="166.51" y2="556.07"/>
    <line class="st3" x1="172.57" y1="560.09" x2="172.57" y2="559.55"/>
    <line class="st3" x1="166.51" y1="556.61" x2="172.57" y2="560.09"/>
    <line class="st3" x1="181.09" y1="560.09" x2="181.09" y2="559.55"/>
    <line class="st3" x1="172.57" y1="560.09" x2="173.47" y2="560.09"/>
    <line class="st3" x1="180.19" y1="560.09" x2="181.09" y2="560.09"/>
    <line class="st3" x1="187.09" y1="556.61" x2="187.09" y2="556.07"/>
    <line class="st3" x1="181.09" y1="560.09" x2="187.09" y2="556.61"/>
    <line class="st2" x1="827.53" y1="161.87" x2="827.53" y2="448.37"/>
    <line class="st2" x1="827.41" y1="161.93" x2="827.53" y2="448.37"/>
    <polyline class="st2" points="827.41 161.93 827.41 448.73 827.53 448.37"/>
    <line class="st2" x1="827.05" y1="162.11" x2="827.41" y2="448.73"/>
    <polyline class="st2" points="827.05 162.11 827.05 449.03 827.41 448.73"/>
    <polyline class="st2" points="796.93 179.51 797.23 449.03 797.23 179.33"/>
    <line class="st2" x1="796.93" y1="179.51" x2="796.93" y2="448.73"/>
    <line class="st2" x1="796.93" y1="448.73" x2="797.23" y2="449.03"/>
    <line class="st2" x1="796.81" y1="179.57" x2="796.93" y2="448.73"/>
    <line class="st2" x1="796.81" y1="179.57" x2="796.81" y2="448.37"/>
    <line class="st2" x1="796.81" y1="448.37" x2="796.93" y2="448.73"/>
    <polyline class="st2" points="812.71 170.39 813.25 457.01 813.25 170.09"/>
    <polyline class="st2" points="812.71 170.39 812.71 457.19 813.25 457.01"/>
    <line class="st2" x1="812.17" y1="170.75" x2="812.71" y2="457.19"/>
    <polyline class="st2" points="812.17 170.75 812.17 457.25 812.71 457.19"/>
    <line class="st2" x1="811.57" y1="171.05" x2="812.17" y2="457.25"/>
    <polyline class="st2" points="811.57 171.05 811.57 457.19 812.17 457.25"/>
    <line class="st2" x1="811.09" y1="171.35" x2="811.57" y2="457.19"/>
    <polyline class="st2" points="811.09 171.35 811.09 457.01 811.57 457.19"/>
    <line class="st2" x1="813.25" y1="457.01" x2="827.05" y2="449.03"/>
    <line class="st2" x1="827.05" y1="449.03" x2="827.05" y2="162.11"/>
    <line class="st2" x1="797.23" y1="449.03" x2="797.23" y2="179.33"/>
    <line class="st2" x1="797.23" y1="449.03" x2="811.09" y2="457.01"/>
    <line class="st2" x1="811.09" y1="457.01" x2="811.09" y2="171.35"/>
    <line class="st2" x1="813.25" y1="457.01" x2="813.25" y2="170.09"/>
    <polyline class="st2" points="827.41 450.65 827.53 450.59 827.41 448.79 827.41 450.65"/>
    <polyline class="st2" points="827.53 450.59 827.65 448.61 827.41 448.79"/>
    <polyline class="st2" points="827.53 450.59 827.65 450.47 827.65 448.61"/>
    <polyline class="st2" points="827.65 450.47 827.71 450.35 827.65 448.61"/>
    <polyline class="st2" points="827.71 450.35 827.71 448.37 827.65 448.61"/>
    <polyline class="st2" points="827.71 450.35 827.71 450.29 827.71 448.37"/>
    <line class="st2" x1="827.65" y1="448.19" x2="827.71" y2="448.37"/>
    <line class="st2" x1="827.53" y1="448.07" x2="827.65" y2="448.19"/>
    <polyline class="st2" points="811.45 459.05 811.51 459.11 811.45 457.19 811.45 459.05"/>
    <polyline class="st2" points="811.51 459.11 811.75 457.31 811.45 457.19"/>
    <polyline class="st2" points="811.51 459.11 811.81 459.17 811.75 457.31"/>
    <polyline class="st2" points="811.81 459.17 812.17 457.37 811.75 457.31"/>
    <polyline class="st2" points="811.81 459.17 812.23 459.23 812.17 457.37"/>
    <polyline class="st2" points="812.23 459.23 812.53 457.31 812.17 457.37"/>
    <polyline class="st2" points="812.23 459.23 812.59 459.17 812.53 457.31"/>
    <polyline class="st2" points="812.59 459.17 812.89 459.05 812.53 457.31"/>
    <polyline class="st2" points="812.89 459.05 812.89 457.19 812.53 457.31"/>
    <line class="st2" x1="796.69" y1="448.19" x2="796.81" y2="448.07"/>
    <line class="st2" x1="796.63" y1="448.37" x2="796.69" y2="448.19"/>
    <line class="st2" x1="796.63" y1="450.35" x2="796.63" y2="448.37"/>
    <polyline class="st2" points="796.63 450.35 796.69 448.61 796.63 448.37"/>
    <polyline class="st2" points="796.63 450.35 796.75 450.53 796.69 448.61"/>
    <polyline class="st2" points="796.75 450.53 796.87 448.79 796.69 448.61"/>
    <polyline class="st2" points="796.75 450.53 796.87 450.65 796.87 448.79"/>
    <line class="st2" x1="827.35" y1="450.77" x2="812.77" y2="459.17"/>
    <polyline class="st2" points="827.35 450.77 827.41 450.77 812.77 459.17"/>
    <polyline class="st2" points="827.41 450.77 812.83 459.17 812.77 459.17"/>
    <polyline class="st2" points="827.41 450.77 827.41 450.71 812.83 459.17"/>
    <polyline class="st2" points="827.41 450.71 812.89 459.11 812.83 459.17"/>
    <polyline class="st2" points="827.41 450.71 812.89 459.05 812.89 459.11"/>
    <polyline class="st2" points="827.41 450.71 827.41 450.65 812.89 459.05"/>
    <polyline class="st2" points="827.59 450.59 827.41 450.77 827.35 450.77"/>
    <line class="st2" x1="827.65" y1="450.53" x2="827.59" y2="450.59"/>
    <line class="st2" x1="827.65" y1="450.53" x2="827.41" y2="450.77"/>
    <polyline class="st2" points="827.65 450.53 827.41 450.71 827.41 450.77"/>
    <polyline class="st2" points="827.71 450.29 827.71 450.35 827.71 450.29"/>
    <line class="st2" x1="827.71" y1="450.35" x2="827.65" y2="450.53"/>
    <polyline class="st2" points="827.71 450.35 827.65 450.47 827.65 450.53"/>
    <polyline class="st2" points="827.65 450.47 827.53 450.59 827.65 450.53"/>
    <polyline class="st2" points="827.41 450.65 827.41 450.71 827.53 450.59 827.41 450.65"/>
    <polyline class="st2" points="796.63 450.35 796.75 450.53 796.63 450.35"/>
    <polyline class="st2" points="796.63 450.35 796.75 450.59 796.75 450.53"/>
    <polyline class="st2" points="796.75 450.59 796.87 450.65 796.75 450.53"/>
    <polyline class="st2" points="796.75 450.59 796.87 450.71 796.87 450.65"/>
    <line class="st2" x1="796.63" y1="450.41" x2="796.63" y2="450.35"/>
    <line class="st2" x1="796.63" y1="450.41" x2="796.75" y2="450.59"/>
    <polyline class="st2" points="796.63 450.41 796.75 450.65 796.75 450.59"/>
    <line class="st2" x1="796.75" y1="450.65" x2="796.87" y2="450.71"/>
    <polyline class="st2" points="796.75 450.65 796.93 450.77 796.87 450.71"/>
    <line class="st2" x1="796.99" y1="450.77" x2="796.93" y2="450.77"/>
    <line class="st2" x1="811.51" y1="459.17" x2="796.99" y2="450.77"/>
    <polyline class="st2" points="811.51 459.17 811.45 459.17 796.99 450.77"/>
    <polyline class="st2" points="811.45 459.17 796.93 450.77 796.99 450.77"/>
    <polyline class="st2" points="811.45 459.17 811.45 459.11 796.93 450.77"/>
    <polyline class="st2" points="811.45 459.11 796.87 450.71 796.93 450.77"/>
    <polyline class="st2" points="811.45 459.11 796.87 450.65 796.87 450.71"/>
    <polyline class="st2" points="811.45 459.11 811.45 459.05 796.87 450.65"/>
    <line class="st2" x1="812.77" y1="459.17" x2="812.53" y2="459.29"/>
    <line class="st2" x1="812.53" y1="459.29" x2="812.17" y2="459.35"/>
    <line class="st2" x1="812.17" y1="459.35" x2="811.87" y2="459.29"/>
    <line class="st2" x1="811.87" y1="459.29" x2="811.57" y2="459.23"/>
    <line class="st2" x1="811.57" y1="459.23" x2="811.51" y2="459.17"/>
    <polyline class="st2" points="812.77 459.17 812.83 459.17 812.53 459.29"/>
    <polyline class="st2" points="812.83 459.17 812.53 459.29 812.53 459.29"/>
    <line class="st2" x1="812.53" y1="459.29" x2="812.17" y2="459.35"/>
    <polyline class="st2" points="812.53 459.29 812.23 459.29 812.17 459.35"/>
    <line class="st2" x1="812.23" y1="459.29" x2="811.87" y2="459.29"/>
    <polyline class="st2" points="812.23 459.29 811.87 459.29 811.87 459.29"/>
    <line class="st2" x1="811.87" y1="459.29" x2="811.57" y2="459.23"/>
    <polyline class="st2" points="811.87 459.29 811.51 459.17 811.57 459.23"/>
    <polyline class="st2" points="811.51 459.17 811.45 459.17 811.51 459.17"/>
    <polyline class="st2" points="812.83 459.17 812.89 459.11 812.53 459.29"/>
    <polyline class="st2" points="812.89 459.11 812.59 459.23 812.53 459.29"/>
    <line class="st2" x1="812.59" y1="459.23" x2="812.23" y2="459.29"/>
    <polyline class="st2" points="812.59 459.23 812.23 459.23 812.23 459.29"/>
    <line class="st2" x1="812.23" y1="459.23" x2="811.87" y2="459.29"/>
    <polyline class="st2" points="812.23 459.23 811.81 459.23 811.87 459.29"/>
    <line class="st2" x1="811.81" y1="459.23" x2="811.51" y2="459.17"/>
    <polyline class="st2" points="811.81 459.23 811.51 459.11 811.51 459.17"/>
    <line class="st2" x1="811.51" y1="459.11" x2="811.45" y2="459.17"/>
    <polyline class="st2" points="811.51 459.11 811.45 459.11 811.45 459.17"/>
    <polyline class="st2" points="812.89 459.11 812.89 459.05 812.59 459.23"/>
    <polyline class="st2" points="812.89 459.05 812.59 459.17 812.59 459.23"/>
    <line class="st2" x1="812.59" y1="459.17" x2="812.23" y2="459.23"/>
    <polyline class="st2" points="812.59 459.17 812.23 459.23 812.23 459.23"/>
    <line class="st2" x1="812.23" y1="459.23" x2="811.81" y2="459.23"/>
    <polyline class="st2" points="812.23 459.23 811.81 459.17 811.81 459.23"/>
    <line class="st2" x1="811.81" y1="459.17" x2="811.51" y2="459.11"/>
    <polyline class="st2" points="811.81 459.17 811.51 459.11 811.51 459.11"/>
    <line class="st2" x1="811.51" y1="459.11" x2="811.45" y2="459.11"/>
    <polyline class="st2" points="811.51 459.11 811.45 459.05 811.45 459.11"/>
    <line class="st2" x1="796.87" y1="448.67" x2="796.87" y2="448.79"/>
    <line class="st2" x1="796.87" y1="448.79" x2="811.45" y2="457.19"/>
    <line class="st2" x1="811.45" y1="457.19" x2="811.75" y2="457.19"/>
    <line class="st2" x1="812.59" y1="457.19" x2="812.89" y2="457.19"/>
    <line class="st2" x1="812.89" y1="457.19" x2="827.41" y2="448.79"/>
    <line class="st2" x1="827.41" y1="448.79" x2="827.41" y2="448.67"/>
    <line class="st2" x1="796.87" y1="448.79" x2="796.87" y2="450.65"/>
    <line class="st2" x1="796.87" y1="450.65" x2="811.45" y2="459.05"/>
    <line class="st2" x1="811.45" y1="459.05" x2="811.45" y2="457.19"/>
    <line class="st2" x1="812.89" y1="457.19" x2="812.89" y2="459.05"/>
    <line class="st2" x1="812.89" y1="459.05" x2="827.41" y2="450.65"/>
    <line class="st2" x1="827.41" y1="450.65" x2="827.41" y2="448.79"/>
    <line class="st2" x1="822.43" y1="454.13" x2="822.43" y2="454.31"/>
    <line class="st2" x1="822.43" y1="454.31" x2="822.37" y2="454.43"/>
    <line class="st2" x1="822.37" y1="454.43" x2="822.25" y2="454.55"/>
    <line class="st2" x1="822.25" y1="454.55" x2="822.13" y2="454.67"/>
    <polyline class="st2" points="822.43 454.13 816.43 457.61 822.43 454.31 822.43 454.13"/>
    <polyline class="st2" points="816.43 457.61 816.43 457.79 822.43 454.31"/>
    <polyline class="st2" points="816.43 457.79 816.37 457.91 822.43 454.31"/>
    <polyline class="st2" points="816.37 457.97 822.25 454.55 816.37 457.91 816.37 457.97"/>
    <polyline class="st2" points="822.25 454.55 822.37 454.43 816.37 457.91"/>
    <line class="st2" x1="822.37" y1="454.43" x2="822.43" y2="454.31"/>
    <polyline class="st2" points="816.37 457.97 816.31 458.03 822.25 454.55"/>
    <polyline class="st2" points="816.31 458.03 822.13 454.67 822.25 454.55"/>
    <line class="st2" x1="816.43" y1="457.61" x2="815.47" y2="457.61"/>
    <polyline class="st2" points="808.81 457.61 807.91 457.61 808.87 457.61"/>
    <polyline class="st2" points="815.29 457.73 816.43 457.79 816.43 457.61"/>
    <polyline class="st2" points="807.91 457.61 807.91 457.79 809.05 457.79"/>
    <line class="st2" x1="815.23" y1="457.79" x2="816.43" y2="457.79"/>
    <polyline class="st2" points="807.91 457.79 807.91 457.91 809.23 457.85"/>
    <line class="st2" x1="815.23" y1="457.79" x2="816.43" y2="457.79"/>
    <line class="st2" x1="807.97" y1="457.97" x2="809.41" y2="457.97"/>
    <polyline class="st2" points="814.87 457.97 816.37 457.97 814.93 457.97"/>
    <polyline class="st2" points="809.29 457.91 807.91 457.91 807.97 457.97"/>
    <polyline class="st2" points="816.37 457.97 816.37 457.91 815.05 457.91"/>
    <line class="st2" x1="809.29" y1="457.91" x2="807.91" y2="457.91"/>
    <line class="st2" x1="816.37" y1="457.91" x2="816.43" y2="457.79"/>
    <polyline class="st2" points="807.97 457.97 808.03 458.03 809.53 458.03"/>
    <line class="st2" x1="814.87" y1="457.97" x2="816.37" y2="457.97"/>
    <line class="st2" x1="808.03" y1="458.03" x2="809.53" y2="458.03"/>
    <polyline class="st2" points="814.81 458.03 816.31 458.03 816.37 457.97"/>
    <line class="st2" x1="802.15" y1="454.67" x2="802.03" y2="454.55"/>
    <line class="st2" x1="802.03" y1="454.55" x2="801.97" y2="454.43"/>
    <line class="st2" x1="801.97" y1="454.43" x2="801.91" y2="454.31"/>
    <line class="st2" x1="801.91" y1="454.31" x2="801.85" y2="454.13"/>
    <line class="st2" x1="808.03" y1="458.03" x2="802.15" y2="454.67"/>
    <polyline class="st2" points="808.03 458.03 807.97 457.97 802.15 454.67"/>
    <polyline class="st2" points="807.97 457.97 802.03 454.55 802.15 454.67"/>
    <polyline class="st2" points="807.97 457.97 801.97 454.43 802.03 454.55"/>
    <polyline class="st2" points="807.97 457.97 807.91 457.91 801.97 454.43"/>
    <polyline class="st2" points="807.91 457.91 807.91 457.79 801.97 454.43"/>
    <polyline class="st2" points="807.91 457.61 801.85 454.13 807.91 457.79 807.91 457.61"/>
    <polyline class="st2" points="801.85 454.13 801.91 454.31 807.91 457.79"/>
    <line class="st2" x1="801.91" y1="454.31" x2="801.97" y2="454.43"/>
    <line class="st2" x1="816.43" y1="457.61" x2="816.43" y2="457.07"/>
    <line class="st2" x1="807.91" y1="457.61" x2="808.81" y2="457.61"/>
    <line class="st2" x1="815.47" y1="457.61" x2="816.43" y2="457.61"/>
    <line class="st2" x1="807.91" y1="457.61" x2="807.91" y2="457.07"/>
    <line class="st2" x1="801.85" y1="454.13" x2="807.91" y2="457.61"/>
    <line class="st2" x1="822.31" y1="454.49" x2="822.31" y2="454.55"/>
    <polyline class="st2" points="816.37 457.91 816.37 457.97 816.37 457.97"/>
    <polyline class="st2" points="816.25 458.03 816.19 458.03 816.19 458.03"/>
    <polyline class="st2" points="807.97 457.91 807.97 457.97 807.97 457.97"/>
    <line class="st2" x1="822.43" y1="454.13" x2="822.43" y2="453.59"/>
    <line class="st2" x1="816.43" y1="457.61" x2="822.43" y2="454.13"/>
    <line class="st2" x1="801.85" y1="454.13" x2="801.85" y2="453.59"/>
    <line class="st2" x1="598.57" y1="294.05" x2="598.57" y2="316.25"/>
    <line class="st2" x1="598.57" y1="294.05" x2="598.57" y2="316.25"/>
    <line class="st2" x1="598.45" y1="294.11" x2="598.45" y2="316.55"/>
    <line class="st2" x1="598.45" y1="316.55" x2="598.57" y2="316.25"/>
    <line class="st2" x1="598.45" y1="294.11" x2="598.45" y2="316.55"/>
    <polyline class="st2" points="598.15 294.29 598.15 316.85 598.45 316.55"/>
    <polyline class="st2" points="568.33 311.51 568.33 316.85 568.33 311.51"/>
    <polyline class="st2" points="567.97 311.69 567.97 316.55 568.33 316.85"/>
    <line class="st2" x1="567.97" y1="311.69" x2="567.97" y2="316.55"/>
    <polyline class="st2" points="567.85 311.75 567.85 316.25 567.97 316.55"/>
    <polyline class="st2" points="584.23 302.33 584.29 324.83 584.29 302.27"/>
    <line class="st2" x1="583.81" y1="302.57" x2="583.81" y2="325.01"/>
    <line class="st2" x1="583.81" y1="325.01" x2="584.29" y2="324.83"/>
    <line class="st2" x1="583.75" y1="302.57" x2="583.81" y2="325.01"/>
    <line class="st2" x1="583.21" y1="302.93" x2="583.21" y2="325.07"/>
    <line class="st2" x1="583.21" y1="325.07" x2="583.81" y2="325.01"/>
    <line class="st2" x1="583.21" y1="302.93" x2="583.21" y2="325.07"/>
    <line class="st2" x1="582.67" y1="303.23" x2="582.67" y2="325.01"/>
    <line class="st2" x1="582.67" y1="325.01" x2="583.21" y2="325.07"/>
    <line class="st2" x1="582.61" y1="303.23" x2="582.67" y2="325.01"/>
    <polyline class="st2" points="582.13 303.53 582.13 324.83 582.67 325.01"/>
    <line class="st2" x1="584.29" y1="324.83" x2="598.15" y2="316.85"/>
    <line class="st2" x1="598.15" y1="316.85" x2="598.15" y2="294.29"/>
    <line class="st2" x1="568.33" y1="316.85" x2="568.33" y2="311.51"/>
    <line class="st2" x1="568.33" y1="316.85" x2="582.13" y2="324.83"/>
    <line class="st2" x1="582.13" y1="324.83" x2="582.13" y2="303.53"/>
    <line class="st2" x1="584.29" y1="324.83" x2="584.29" y2="302.27"/>
    <polyline class="st2" points="583.93 326.87 583.93 325.01 583.81 326.93 583.93 326.87"/>
    <polyline class="st2" points="583.93 325.01 583.63 325.19 583.81 326.93"/>
    <polyline class="st2" points="583.63 325.19 583.45 327.05 583.81 326.93"/>
    <polyline class="st2" points="583.63 325.19 583.21 325.19 583.45 327.05"/>
    <polyline class="st2" points="583.21 325.19 583.09 327.05 583.45 327.05"/>
    <polyline class="st2" points="583.21 325.19 582.85 325.19 583.09 327.05"/>
    <polyline class="st2" points="582.85 325.19 582.73 326.99 583.09 327.05"/>
    <polyline class="st2" points="582.85 325.19 582.49 325.01 582.73 326.99"/>
    <polyline class="st2" points="582.49 325.01 582.49 326.87 582.73 326.99"/>
    <line class="st2" x1="598.57" y1="315.89" x2="598.69" y2="316.01"/>
    <polyline class="st2" points="598.69 316.01 598.81 316.25 598.75 317.99"/>
    <polyline class="st2" points="598.81 316.25 598.75 318.23 598.75 317.99"/>
    <polyline class="st2" points="598.81 316.25 598.69 316.43 598.75 318.23"/>
    <polyline class="st2" points="598.69 316.43 598.63 318.41 598.75 318.23"/>
    <polyline class="st2" points="598.69 316.43 598.51 316.61 598.63 318.41"/>
    <polyline class="st2" points="598.51 316.61 598.51 318.47 598.63 318.41"/>
    <line class="st2" x1="583.87" y1="326.99" x2="583.75" y2="327.05"/>
    <line class="st2" x1="583.75" y1="327.05" x2="583.45" y2="327.17"/>
    <line class="st2" x1="583.45" y1="327.17" x2="583.09" y2="327.17"/>
    <line class="st2" x1="583.09" y1="327.17" x2="582.79" y2="327.11"/>
    <line class="st2" x1="582.79" y1="327.11" x2="582.61" y2="326.99"/>
    <polyline class="st2" points="583.87 326.99 583.93 326.99 583.75 327.05"/>
    <polyline class="st2" points="583.93 326.99 583.75 327.05 583.75 327.05"/>
    <line class="st2" x1="583.75" y1="327.05" x2="583.45" y2="327.17"/>
    <polyline class="st2" points="583.75 327.05 583.45 327.11 583.45 327.17"/>
    <line class="st2" x1="583.45" y1="327.11" x2="583.09" y2="327.17"/>
    <polyline class="st2" points="583.45 327.11 583.09 327.11 583.09 327.17"/>
    <line class="st2" x1="583.09" y1="327.11" x2="582.79" y2="327.11"/>
    <polyline class="st2" points="583.09 327.11 582.73 327.05 582.79 327.11"/>
    <line class="st2" x1="582.73" y1="327.05" x2="582.61" y2="326.99"/>
    <polyline class="st2" points="582.73 327.05 582.55 326.99 582.61 326.99"/>
    <polyline class="st2" points="583.93 326.99 583.93 326.93 583.75 327.05"/>
    <polyline class="st2" points="583.93 326.93 583.81 326.99 583.75 327.05"/>
    <line class="st2" x1="583.81" y1="326.99" x2="583.45" y2="327.11"/>
    <polyline class="st2" points="583.81 326.99 583.45 327.05 583.45 327.11"/>
    <line class="st2" x1="583.45" y1="327.05" x2="583.09" y2="327.11"/>
    <polyline class="st2" points="583.45 327.05 583.09 327.11 583.09 327.11"/>
    <line class="st2" x1="583.09" y1="327.11" x2="582.73" y2="327.05"/>
    <polyline class="st2" points="583.09 327.11 582.73 326.99 582.73 327.05"/>
    <line class="st2" x1="582.73" y1="326.99" x2="582.55" y2="326.99"/>
    <polyline class="st2" points="582.73 326.99 582.49 326.93 582.55 326.99"/>
    <polyline class="st2" points="583.93 326.93 583.93 326.87 583.81 326.99"/>
    <polyline class="st2" points="583.93 326.87 583.81 326.93 583.81 326.99"/>
    <line class="st2" x1="583.81" y1="326.93" x2="583.45" y2="327.05"/>
    <polyline class="st2" points="583.81 326.93 583.45 327.05 583.45 327.05"/>
    <line class="st2" x1="583.45" y1="327.05" x2="583.09" y2="327.11"/>
    <polyline class="st2" points="583.45 327.05 583.09 327.05 583.09 327.11"/>
    <line class="st2" x1="583.09" y1="327.05" x2="582.73" y2="326.99"/>
    <polyline class="st2" points="583.09 327.05 582.73 326.99 582.73 326.99"/>
    <line class="st2" x1="582.73" y1="326.99" x2="582.49" y2="326.93"/>
    <polyline class="st2" points="582.73 326.99 582.49 326.87 582.49 326.93"/>
    <polyline class="st2" points="582.49 326.87 567.97 318.47 582.49 326.93 582.49 326.87"/>
    <polyline class="st2" points="567.97 318.47 567.97 318.53 582.49 326.93"/>
    <polyline class="st2" points="567.97 318.53 567.97 318.59 582.49 326.93"/>
    <polyline class="st2" points="567.97 318.59 582.55 326.99 582.49 326.93"/>
    <polyline class="st2" points="567.97 318.59 568.03 318.59 582.55 326.99"/>
    <polyline class="st2" points="568.03 318.59 582.61 326.99 582.55 326.99"/>
    <line class="st2" x1="567.73" y1="318.35" x2="567.73" y2="318.29"/>
    <polyline class="st2" points="567.73 318.35 567.91 318.47 567.73 318.29"/>
    <polyline class="st2" points="567.73 318.35 567.91 318.53 567.91 318.47"/>
    <polyline class="st2" points="567.91 318.53 567.97 318.53 567.91 318.47"/>
    <polyline class="st2" points="567.91 318.53 567.97 318.59 567.97 318.53"/>
    <line class="st2" x1="567.97" y1="318.59" x2="567.91" y2="318.53"/>
    <polyline class="st2" points="567.97 318.59 568.03 318.59 567.97 318.59"/>
    <polyline class="st2" points="567.97 318.53 567.97 318.47 567.91 318.47"/>
    <polyline class="st2" points="567.97 318.47 567.91 318.41 567.91 318.47"/>
    <polyline class="st2" points="567.91 318.41 567.79 318.35 567.91 318.47"/>
    <line class="st2" x1="567.79" y1="318.35" x2="567.73" y2="318.29"/>
    <polyline class="st2" points="567.79 318.35 567.73 318.23 567.73 318.29"/>
    <polyline class="st2" points="567.73 318.23 567.67 318.17 567.73 318.29"/>
    <line class="st2" x1="567.67" y1="318.17" x2="567.67" y2="318.05"/>
    <line class="st2" x1="598.69" y1="318.29" x2="598.57" y2="318.47"/>
    <polyline class="st2" points="598.57 318.47 598.45 318.59 598.39 318.59"/>
    <line class="st2" x1="598.75" y1="318.23" x2="598.69" y2="318.29"/>
    <line class="st2" x1="598.75" y1="318.23" x2="598.57" y2="318.47"/>
    <polyline class="st2" points="598.75 318.23 598.63 318.41 598.57 318.47"/>
    <line class="st2" x1="598.63" y1="318.41" x2="598.45" y2="318.59"/>
    <polyline class="st2" points="598.63 318.41 598.51 318.53 598.45 318.59"/>
    <polyline class="st2" points="598.75 317.99 598.75 318.23 598.75 318.23"/>
    <line class="st2" x1="598.75" y1="318.23" x2="598.63" y2="318.41"/>
    <polyline class="st2" points="598.75 318.23 598.63 318.41 598.63 318.41"/>
    <line class="st2" x1="598.63" y1="318.41" x2="598.51" y2="318.53"/>
    <polyline class="st2" points="598.63 318.41 598.51 318.47 598.51 318.53"/>
    <line class="st2" x1="598.39" y1="318.59" x2="583.87" y2="326.99"/>
    <polyline class="st2" points="598.39 318.59 598.45 318.59 583.87 326.99"/>
    <polyline class="st2" points="598.45 318.59 583.93 326.99 583.87 326.99"/>
    <polyline class="st2" points="598.45 318.59 598.51 318.53 583.93 326.99"/>
    <polyline class="st2" points="598.51 318.53 583.93 326.93 583.93 326.99"/>
    <polyline class="st2" points="598.51 318.53 583.93 326.87 583.93 326.93"/>
    <polyline class="st2" points="598.51 318.53 598.51 318.47 583.93 326.87"/>
    <polyline class="st2" points="567.97 318.47 567.97 316.61 567.91 318.41 567.97 318.47"/>
    <polyline class="st2" points="567.97 316.61 567.79 318.35 567.91 318.41"/>
    <polyline class="st2" points="567.97 316.61 567.73 316.43 567.79 318.35"/>
    <polyline class="st2" points="567.73 316.43 567.73 318.23 567.79 318.35"/>
    <polyline class="st2" points="567.73 316.43 567.67 318.17 567.73 318.23"/>
    <polyline class="st2" points="567.73 316.43 567.67 316.25 567.67 318.17"/>
    <polyline class="st2" points="567.67 316.25 567.67 318.05 567.67 318.17"/>
    <line class="st2" x1="567.67" y1="316.25" x2="567.73" y2="316.01"/>
    <line class="st2" x1="567.73" y1="316.01" x2="567.85" y2="315.89"/>
    <line class="st2" x1="583.93" y1="326.87" x2="583.93" y2="325.01"/>
    <line class="st2" x1="583.93" y1="325.01" x2="583.63" y2="325.01"/>
    <line class="st2" x1="582.79" y1="325.01" x2="582.49" y2="325.01"/>
    <line class="st2" x1="582.49" y1="325.01" x2="582.49" y2="326.87"/>
    <line class="st2" x1="598.51" y1="316.49" x2="598.51" y2="316.61"/>
    <line class="st2" x1="598.51" y1="316.61" x2="598.51" y2="318.47"/>
    <line class="st2" x1="598.51" y1="316.61" x2="583.93" y2="325.01"/>
    <line class="st2" x1="582.49" y1="325.01" x2="567.97" y2="316.61"/>
    <line class="st2" x1="582.49" y1="326.87" x2="567.97" y2="318.47"/>
    <line class="st2" x1="598.51" y1="318.47" x2="583.93" y2="326.87"/>
    <line class="st2" x1="567.97" y1="318.47" x2="567.97" y2="316.61"/>
    <line class="st2" x1="567.97" y1="316.61" x2="567.97" y2="316.49"/>
    <line class="st2" x1="593.53" y1="321.95" x2="593.47" y2="322.13"/>
    <line class="st2" x1="593.47" y1="322.13" x2="593.41" y2="322.25"/>
    <line class="st2" x1="593.41" y1="322.25" x2="593.35" y2="322.37"/>
    <line class="st2" x1="593.35" y1="322.37" x2="593.23" y2="322.49"/>
    <polyline class="st2" points="593.53 321.95 587.47 325.43 593.47 322.13 593.53 321.95"/>
    <polyline class="st2" points="587.47 325.43 587.47 325.61 593.47 322.13"/>
    <polyline class="st2" points="587.47 325.61 587.47 325.73 593.47 322.13"/>
    <polyline class="st2" points="587.41 325.79 593.35 322.37 587.47 325.73 587.41 325.79"/>
    <polyline class="st2" points="593.35 322.37 593.41 322.25 587.47 325.73"/>
    <line class="st2" x1="593.41" y1="322.25" x2="593.47" y2="322.13"/>
    <polyline class="st2" points="587.41 325.79 587.35 325.85 593.35 322.37"/>
    <polyline class="st2" points="587.35 325.85 593.23 322.49 593.35 322.37"/>
    <line class="st2" x1="573.25" y1="322.49" x2="573.13" y2="322.37"/>
    <line class="st2" x1="573.13" y1="322.37" x2="573.01" y2="322.25"/>
    <line class="st2" x1="573.01" y1="322.25" x2="572.95" y2="322.13"/>
    <line class="st2" x1="572.95" y1="322.13" x2="572.95" y2="321.95"/>
    <line class="st2" x1="587.47" y1="325.43" x2="586.57" y2="325.43"/>
    <polyline class="st2" points="579.91 325.43 578.95 325.43 579.91 325.49"/>
    <polyline class="st2" points="586.33 325.55 587.47 325.61 587.47 325.43"/>
    <polyline class="st2" points="578.95 325.43 578.95 325.61 580.15 325.61"/>
    <line class="st2" x1="586.33" y1="325.61" x2="587.47" y2="325.61"/>
    <polyline class="st2" points="578.95 325.61 579.01 325.73 580.33 325.67"/>
    <line class="st2" x1="586.27" y1="325.61" x2="587.47" y2="325.61"/>
    <line class="st2" x1="579.01" y1="325.79" x2="580.51" y2="325.79"/>
    <polyline class="st2" points="585.97 325.79 587.41 325.79 585.97 325.79"/>
    <polyline class="st2" points="580.39 325.73 579.01 325.73 579.01 325.79"/>
    <polyline class="st2" points="587.41 325.79 587.47 325.73 586.09 325.73"/>
    <line class="st2" x1="580.33" y1="325.73" x2="579.01" y2="325.73"/>
    <line class="st2" x1="587.47" y1="325.73" x2="587.47" y2="325.61"/>
    <polyline class="st2" points="579.01 325.79 579.07 325.85 580.57 325.85"/>
    <line class="st2" x1="585.91" y1="325.79" x2="587.41" y2="325.79"/>
    <line class="st2" x1="579.07" y1="325.85" x2="580.57" y2="325.85"/>
    <polyline class="st2" points="585.85 325.85 587.35 325.85 587.41 325.79"/>
    <polyline class="st2" points="578.95 325.43 572.95 321.95 578.95 325.61 578.95 325.43"/>
    <polyline class="st2" points="572.95 321.95 572.95 322.13 578.95 325.61"/>
    <polyline class="st2" points="572.95 322.13 573.01 322.25 578.95 325.61"/>
    <polyline class="st2" points="573.13 322.37 579.01 325.79 573.01 322.25 573.13 322.37"/>
    <polyline class="st2" points="579.01 325.79 579.01 325.73 573.01 322.25"/>
    <line class="st2" x1="579.01" y1="325.73" x2="578.95" y2="325.61"/>
    <polyline class="st2" points="573.13 322.37 573.25 322.49 579.01 325.79"/>
    <polyline class="st2" points="573.25 322.49 579.07 325.85 579.01 325.79"/>
    <line class="st2" x1="572.95" y1="321.95" x2="572.95" y2="321.41"/>
    <line class="st2" x1="578.95" y1="325.43" x2="578.95" y2="324.89"/>
    <line class="st2" x1="593.53" y1="321.95" x2="587.47" y2="325.43"/>
    <line class="st2" x1="587.47" y1="325.43" x2="586.57" y2="325.43"/>
    <line class="st2" x1="579.91" y1="325.43" x2="578.95" y2="325.43"/>
    <polyline class="st2" points="573.07 322.31 573.07 322.37 573.07 322.37"/>
    <line class="st2" x1="578.95" y1="325.43" x2="572.95" y2="321.95"/>
    <line class="st2" x1="587.47" y1="325.43" x2="587.47" y2="324.89"/>
    <line class="st2" x1="593.53" y1="321.95" x2="593.53" y2="321.41"/>
  </g>
  <g id="Layer_3">
    <g>
      <line class="st4" x1="583.21" y1="5.75" x2="831.67" y2="149.21"/>
      <line class="st4" x1="157.33" y1="261.95" x2="157.33" y2="251.69"/>
      <line class="st4" x1="157.33" y1="251.69" x2="583.21" y2="5.75"/>
      <line class="st4" x1="831.67" y1="149.21" x2="405.73" y2="395.09"/>
      <line class="st4" x1="405.73" y1="395.09" x2="405.73" y2="405.35"/>
      <line class="st4" x1="405.73" y1="405.35" x2="831.67" y2="159.47"/>
      <line class="st4" x1="405.73" y1="395.09" x2="157.33" y2="251.69"/>
      <line class="st4" x1="157.33" y1="261.95" x2="405.73" y2="405.35"/>
    </g>
    <line class="st4" x1="831.67" y1="159.47" x2="831.67" y2="149.21"/>
  </g>
</svg>