<?xml version="1.0" encoding="UTF-8"?>
<svg id="Layer_1" xmlns="http://www.w3.org/2000/svg" version="1.1" viewBox="0 0 841.89 841.89">
  <!-- Generator: Adobe Illustrator 30.3.0, SVG Export Plug-In . SVG Version: 2.1.3 Build 182)  -->
  <defs>
    <style>
      .st0, .st1, .st2 {
        fill: none;
        stroke: #000;
        stroke-linecap: round;
        stroke-linejoin: round;
      }

      .st1 {
        stroke-width: .5px;
      }

      .st3 {
        fill: #1d1d1b;
      }

      .st2 {
        stroke-width: .2px;
      }

      .st4 {
        opacity: .5;
      }
    </style>
  </defs>
  <g id="Layer_11" data-name="Layer_1" class="st4">
    <polyline class="st2" points="157.33 550.91 157.33 266.03 405.79 409.49 405.79 694.3"/>
    <polyline class="st2" points="828.13 161.51 831.67 163.6 831.67 448.43"/>
    <line class="st2" x1="-421.93" y1="-89.33" x2="-421.93" y2="-89.33"/>
    <line class="st2" x1="-421.93" y1="-89.33" x2="-421.93" y2="-89.33"/>
    <line class="st2" x1="-421.93" y1="-89.33" x2="-421.93" y2="-89.33"/>
    <line class="st2" x1="-421.93" y1="-89.33" x2="-421.93" y2="-89.33"/>
    <line class="st2" x1="188.65" y1="301.85" x2="188.65" y2="550.91"/>
    <line class="st2" x1="188.59" y1="301.85" x2="188.65" y2="550.91"/>
    <polyline class="st2" points="188.59 301.85 188.53 551.21 188.65 550.91"/>
    <line class="st2" x1="188.53" y1="301.79" x2="188.53" y2="551.21"/>
    <line class="st2" x1="188.41" y1="301.73" x2="188.53" y2="551.21"/>
    <polyline class="st2" points="188.35 301.67 188.17 551.51 188.53 551.21"/>
    <line class="st2" x1="188.17" y1="301.6" x2="188.17" y2="551.51"/>
    <polyline class="st2" points="158.35 551.51 158.35 267.89 158.05 551.21"/>
    <line class="st2" x1="158.05" y1="551.21" x2="158.35" y2="551.51"/>
    <polyline class="st2" points="158.35 267.89 157.99 266.86 158.05 551.21"/>
    <line class="st2" x1="157.99" y1="266.86" x2="157.93" y2="550.91"/>
    <line class="st2" x1="157.93" y1="550.91" x2="158.05" y2="551.21"/>
    <polyline class="st2" points="157.99 266.86 157.93 266.39 157.93 550.91"/>
    <line class="st2" x1="157.93" y1="266.39" x2="157.99" y2="265.97"/>
    <line class="st2" x1="157.99" y1="265.97" x2="158.11" y2="265.67"/>
    <line class="st2" x1="158.11" y1="265.67" x2="158.35" y2="265.43"/>
    <polyline class="st2" points="174.01 293.45 174.37 559.49 174.37 293.63"/>
    <line class="st2" x1="174.01" y1="293.45" x2="173.83" y2="559.67"/>
    <line class="st2" x1="173.83" y1="559.67" x2="174.37" y2="559.49"/>
    <line class="st2" x1="173.65" y1="293.21" x2="173.83" y2="559.67"/>
    <line class="st2" x1="173.65" y1="293.21" x2="173.29" y2="559.73"/>
    <line class="st2" x1="173.29" y1="559.73" x2="173.83" y2="559.67"/>
    <line class="st2" x1="173.29" y1="292.97" x2="173.29" y2="559.73"/>
    <polyline class="st2" points="173.29 292.97 172.87 292.73 173.29 559.73"/>
    <line class="st2" x1="172.87" y1="292.73" x2="172.69" y2="559.67"/>
    <line class="st2" x1="172.69" y1="559.67" x2="173.29" y2="559.73"/>
    <polyline class="st2" points="172.87 292.73 172.21 291.89 172.69 559.67"/>
    <polyline class="st2" points="172.21 291.89 172.21 559.49 172.69 559.67"/>
    <line class="st2" x1="188.17" y1="301.6" x2="188.17" y2="551.51"/>
    <line class="st2" x1="158.35" y1="265.43" x2="160.87" y2="263.98"/>
    <line class="st2" x1="172.21" y1="291.89" x2="158.35" y2="267.89"/>
    <line class="st2" x1="158.35" y1="267.89" x2="158.35" y2="551.51"/>
    <line class="st2" x1="172.21" y1="291.89" x2="172.21" y2="559.49"/>
    <line class="st2" x1="172.21" y1="559.49" x2="158.35" y2="551.51"/>
    <line class="st2" x1="188.17" y1="551.51" x2="174.37" y2="559.49"/>
    <line class="st2" x1="174.37" y1="293.63" x2="174.37" y2="559.49"/>
    <line class="st2" x1="417.55" y1="398.57" x2="421.09" y2="400.61"/>
    <polyline class="st2" points="417.55 398.57 421.09 400.67 421.09 400.61"/>
    <line class="st2" x1="417.55" y1="398.57" x2="421.09" y2="400.67"/>
    <line class="st2" x1="417.55" y1="398.57" x2="421.09" y2="400.67"/>
    <polyline class="st2" points="417.31 398.75 420.85 400.79 417.31 398.75"/>
    <polyline class="st2" points="420.85 400.79 420.97 400.67 417.43 398.63"/>
    <line class="st2" x1="420.97" y1="400.67" x2="421.09" y2="400.67"/>
    <line class="st2" x1="417.31" y1="398.75" x2="420.85" y2="400.79"/>
    <polyline class="st2" points="417.13 398.8 420.67 400.91 420.85 400.79"/>
    <polyline class="st2" points="172.21 291.89 172.87 292.73 390.85 418.07 172.21 291.89"/>
    <polyline class="st2" points="172.87 292.73 390.49 418.3 390.85 418.07"/>
    <polyline class="st2" points="172.87 292.73 173.29 292.97 390.49 418.3"/>
    <polyline class="st2" points="173.29 292.97 390.43 418.36 390.49 418.3"/>
    <polyline class="st2" points="406.81 408.89 158.35 265.43 406.51 409.07 406.81 408.89"/>
    <polyline class="st2" points="158.35 265.43 158.11 265.67 406.51 409.07"/>
    <polyline class="st2" points="158.11 265.67 157.99 265.97 406.51 409.07"/>
    <polyline class="st2" points="157.99 265.97 406.15 409.25 406.51 409.07"/>
    <polyline class="st2" points="157.99 265.97 157.93 266.39 406.15 409.25"/>
    <polyline class="st2" points="157.93 266.39 405.79 409.49 406.15 409.25"/>
    <polyline class="st2" points="157.93 266.39 157.99 266.86 405.79 409.49"/>
    <polyline class="st2" points="157.99 266.86 405.37 409.73 405.79 409.49"/>
    <polyline class="st2" points="157.99 266.86 158.35 267.89 405.37 409.73"/>
    <polyline class="st2" points="158.35 267.89 404.71 410.09 405.37 409.73"/>
    <line class="st2" x1="390.85" y1="418.07" x2="172.21" y2="291.89"/>
    <line class="st2" x1="404.71" y1="410.09" x2="158.35" y2="267.89"/>
    <line class="st2" x1="158.35" y1="267.89" x2="172.21" y2="291.89"/>
    <line class="st2" x1="390.85" y1="418.07" x2="404.71" y2="410.09"/>
    <line class="st2" x1="406.81" y1="408.89" x2="158.35" y2="265.43"/>
    <line class="st2" x1="420.67" y1="400.91" x2="417.13" y2="398.8"/>
    <line class="st2" x1="160.87" y1="263.98" x2="158.35" y2="265.43"/>
    <line class="st2" x1="406.81" y1="408.89" x2="420.67" y2="400.91"/>
    <polyline class="st2" points="390.85 685.73 390.85 418.07 390.55 685.42"/>
    <line class="st2" x1="390.55" y1="685.42" x2="390.85" y2="685.73"/>
    <polyline class="st2" points="390.85 418.07 390.49 418.3 390.55 685.42"/>
    <line class="st2" x1="390.49" y1="418.3" x2="390.43" y2="685.13"/>
    <line class="st2" x1="390.43" y1="685.13" x2="390.55" y2="685.42"/>
    <polyline class="st2" points="390.49 418.3 390.43 418.36 390.43 685.13"/>
    <polyline class="st2" points="406.81 408.89 406.51 409.07 406.81 693.71 406.81 408.89"/>
    <line class="st2" x1="406.51" y1="409.07" x2="406.33" y2="693.89"/>
    <line class="st2" x1="406.33" y1="693.89" x2="406.81" y2="693.71"/>
    <polyline class="st2" points="406.51 409.07 406.15 409.25 406.33 693.89"/>
    <line class="st2" x1="406.15" y1="409.25" x2="405.79" y2="693.95"/>
    <line class="st2" x1="405.79" y1="693.95" x2="406.33" y2="693.89"/>
    <polyline class="st2" points="406.15 409.25 405.79 409.49 405.79 693.95"/>
    <polyline class="st2" points="405.79 409.49 405.37 409.73 405.79 693.95"/>
    <line class="st2" x1="405.37" y1="409.73" x2="405.19" y2="693.89"/>
    <line class="st2" x1="405.19" y1="693.89" x2="405.79" y2="693.95"/>
    <polyline class="st2" points="405.37 409.73 404.71 410.09 405.19 693.89"/>
    <polyline class="st2" points="404.71 410.09 404.71 693.71 405.19 693.89"/>
    <line class="st2" x1="421.09" y1="400.61" x2="421.09" y2="685.13"/>
    <polyline class="st2" points="421.09 400.61 421.09 400.67 421.09 685.13"/>
    <polyline class="st2" points="421.09 400.67 420.97 685.42 421.09 685.13"/>
    <polyline class="st2" points="421.09 400.67 420.97 400.67 420.97 685.42"/>
    <polyline class="st2" points="420.97 400.67 420.85 400.79 420.97 685.42"/>
    <polyline class="st2" points="420.85 400.79 420.67 685.73 420.97 685.42"/>
    <polyline class="st2" points="420.85 400.79 420.67 400.91 420.67 685.73"/>
    <line class="st2" x1="390.85" y1="685.73" x2="390.85" y2="418.07"/>
    <line class="st2" x1="404.71" y1="693.71" x2="404.71" y2="410.09"/>
    <line class="st2" x1="404.71" y1="410.09" x2="390.85" y2="418.07"/>
    <line class="st2" x1="390.85" y1="685.73" x2="404.71" y2="693.71"/>
    <line class="st2" x1="406.81" y1="693.71" x2="406.81" y2="408.89"/>
    <line class="st2" x1="420.67" y1="685.73" x2="420.67" y2="400.91"/>
    <line class="st2" x1="420.67" y1="400.91" x2="406.81" y2="408.89"/>
    <line class="st2" x1="406.81" y1="693.71" x2="420.67" y2="685.73"/>
    <polyline class="st2" points="568.33 311.51 568.33 314.8 568.33 311.51"/>
    <polyline class="st2" points="567.97 311.75 567.97 314.51 568.33 314.8"/>
    <line class="st2" x1="567.97" y1="311.75" x2="567.97" y2="314.51"/>
    <polyline class="st2" points="567.85 311.8 567.85 314.21 567.97 314.51"/>
    <polyline class="st2" points="584.29 302.33 584.29 322.79 584.29 302.33"/>
    <polyline class="st2" points="583.81 302.57 583.81 322.97 584.29 322.79"/>
    <line class="st2" x1="583.81" y1="302.57" x2="583.81" y2="322.97"/>
    <line class="st2" x1="583.81" y1="302.63" x2="583.81" y2="322.97"/>
    <polyline class="st2" points="583.27 302.93 583.21 323.09 583.81 322.97"/>
    <line class="st2" x1="583.21" y1="302.93" x2="583.21" y2="323.09"/>
    <line class="st2" x1="583.21" y1="302.93" x2="583.21" y2="323.09"/>
    <polyline class="st2" points="582.67 303.29 582.67 322.97 583.21 323.09"/>
    <line class="st2" x1="582.61" y1="303.29" x2="582.67" y2="322.97"/>
    <polyline class="st2" points="582.19 303.53 582.19 322.79 582.67 322.97"/>
    <line class="st2" x1="598.57" y1="294.05" x2="598.57" y2="314.21"/>
    <line class="st2" x1="598.57" y1="294.05" x2="598.57" y2="314.21"/>
    <line class="st2" x1="598.45" y1="294.1" x2="598.45" y2="314.51"/>
    <line class="st2" x1="598.45" y1="314.51" x2="598.57" y2="314.21"/>
    <line class="st2" x1="598.45" y1="294.1" x2="598.45" y2="314.51"/>
    <polyline class="st2" points="598.15 294.29 598.15 314.8 598.45 314.51"/>
    <line class="st2" x1="598.15" y1="294.35" x2="598.15" y2="314.8"/>
    <line class="st2" x1="568.33" y1="311.51" x2="568.33" y2="314.8"/>
    <line class="st2" x1="582.19" y1="303.53" x2="582.19" y2="322.79"/>
    <line class="st2" x1="584.29" y1="302.33" x2="584.29" y2="322.79"/>
    <line class="st2" x1="598.15" y1="294.35" x2="598.15" y2="314.8"/>
    <line class="st2" x1="598.15" y1="314.8" x2="584.29" y2="322.79"/>
    <line class="st2" x1="582.19" y1="322.79" x2="568.33" y2="314.8"/>
    <polyline class="st2" points="813.25 170.15 816.79 172.19 813.25 170.15"/>
    <polyline class="st2" points="813.01 170.27 816.55 172.31 816.79 172.19"/>
    <polyline class="st2" points="812.71 170.45 816.31 172.48 816.55 172.31"/>
    <line class="st2" x1="812.71" y1="170.45" x2="816.31" y2="172.48"/>
    <line class="st2" x1="812.71" y1="170.45" x2="816.31" y2="172.48"/>
    <polyline class="st2" points="812.17 170.75 815.71 172.79 812.17 170.75"/>
    <polyline class="st2" points="815.71 172.79 816.01 172.6 812.47 170.57"/>
    <line class="st2" x1="816.01" y1="172.6" x2="816.31" y2="172.48"/>
    <line class="st2" x1="812.17" y1="170.75" x2="815.71" y2="172.79"/>
    <polyline class="st2" points="811.57 171.1 815.11 173.15 815.71 172.79"/>
    <line class="st2" x1="811.57" y1="171.1" x2="815.11" y2="173.15"/>
    <polyline class="st2" points="811.09 171.35 814.63 173.39 815.11 173.15"/>
    <polyline class="st2" points="797.23 179.39 800.83 181.43 797.23 179.39"/>
    <polyline class="st2" points="796.93 179.57 800.47 181.6 800.83 181.43"/>
    <line class="st2" x1="796.93" y1="179.57" x2="800.47" y2="181.6"/>
    <polyline class="st2" points="796.81 179.63 800.35 181.67 800.47 181.6"/>
    <line class="st2" x1="827.53" y1="161.86" x2="831.07" y2="163.97"/>
    <line class="st2" x1="827.53" y1="161.86" x2="831.07" y2="163.97"/>
    <polyline class="st2" points="827.47 161.93 831.01 163.97 831.07 163.97"/>
    <line class="st2" x1="827.47" y1="161.93" x2="831.01" y2="163.97"/>
    <polyline class="st2" points="827.29 161.98 830.83 164.03 831.01 163.97"/>
    <polyline class="st2" points="827.05 162.17 830.59 164.21 827.05 162.17"/>
    <line class="st2" x1="830.59" y1="164.21" x2="830.83" y2="164.03"/>
    <line class="st2" x1="830.59" y1="164.21" x2="827.05" y2="162.17"/>
    <line class="st2" x1="816.79" y1="172.19" x2="830.59" y2="164.21"/>
    <line class="st2" x1="814.63" y1="173.39" x2="811.09" y2="171.35"/>
    <line class="st2" x1="800.83" y1="181.43" x2="814.63" y2="173.39"/>
    <line class="st2" x1="816.79" y1="172.19" x2="813.25" y2="170.15"/>
    <line class="st2" x1="800.83" y1="181.43" x2="797.23" y2="179.39"/>
    <line class="st2" x1="831.07" y1="163.97" x2="831.07" y2="448.43"/>
    <polyline class="st2" points="831.07 163.97 831.01 163.97 831.07 448.43"/>
    <line class="st2" x1="831.01" y1="163.97" x2="830.95" y2="448.73"/>
    <line class="st2" x1="830.95" y1="448.73" x2="831.07" y2="448.43"/>
    <polyline class="st2" points="831.01 163.97 830.83 164.03 830.95 448.73"/>
    <polyline class="st2" points="830.83 164.03 830.59 449.03 830.95 448.73"/>
    <polyline class="st2" points="830.83 164.03 830.59 164.21 830.59 449.03"/>
    <polyline class="st2" points="800.83 181.43 800.47 181.6 800.83 449.03 800.83 181.43"/>
    <polyline class="st2" points="800.47 181.6 800.47 448.73 800.83 449.03"/>
    <polyline class="st2" points="800.47 181.6 800.35 181.67 800.47 448.73"/>
    <polyline class="st2" points="800.35 181.67 800.35 448.43 800.47 448.73"/>
    <polyline class="st2" points="816.79 172.19 816.55 172.31 816.79 457.01 816.79 172.19"/>
    <polyline class="st2" points="816.55 172.31 816.31 457.19 816.79 457.01"/>
    <polyline class="st2" points="816.55 172.31 816.31 172.48 816.31 457.19"/>
    <polyline class="st2" points="816.31 172.48 816.01 172.6 816.31 457.19"/>
    <polyline class="st2" points="816.01 172.6 815.71 457.3 816.31 457.19"/>
    <polyline class="st2" points="816.01 172.6 815.71 172.79 815.71 457.3"/>
    <polyline class="st2" points="815.71 172.79 815.11 173.15 815.71 457.3"/>
    <polyline class="st2" points="815.11 173.15 815.11 457.19 815.71 457.3"/>
    <polyline class="st2" points="815.11 173.15 814.63 173.39 815.11 457.19"/>
    <polyline class="st2" points="814.63 173.39 814.63 457.01 815.11 457.19"/>
    <line class="st2" x1="830.59" y1="449.03" x2="830.59" y2="164.21"/>
    <line class="st2" x1="830.59" y1="164.21" x2="816.79" y2="172.19"/>
    <line class="st2" x1="816.79" y1="457.01" x2="830.59" y2="449.03"/>
    <line class="st2" x1="800.83" y1="449.03" x2="800.83" y2="181.43"/>
    <line class="st2" x1="814.63" y1="457.01" x2="814.63" y2="173.39"/>
    <line class="st2" x1="814.63" y1="173.39" x2="800.83" y2="181.43"/>
    <line class="st2" x1="800.83" y1="449.03" x2="814.63" y2="457.01"/>
    <line class="st2" x1="816.79" y1="457.01" x2="816.79" y2="172.19"/>
    <polyline class="st2" points="598.51 316.43 598.57 316.43 598.51 314.63 598.51 316.43"/>
    <polyline class="st2" points="598.57 316.43 598.69 314.45 598.51 314.63"/>
    <polyline class="st2" points="598.57 316.43 598.75 316.25 598.69 314.45"/>
    <polyline class="st2" points="598.75 316.25 598.81 314.21 598.69 314.45"/>
    <polyline class="st2" points="598.75 316.25 598.81 316.01 598.81 314.21"/>
    <line class="st2" x1="598.69" y1="313.97" x2="598.81" y2="314.21"/>
    <line class="st2" x1="598.57" y1="313.85" x2="598.69" y2="313.97"/>
    <polyline class="st2" points="582.49 324.83 582.67 324.95 582.49 323.03 582.49 324.83"/>
    <polyline class="st2" points="582.67 324.95 582.85 323.15 582.49 323.03"/>
    <polyline class="st2" points="582.67 324.95 582.97 325.01 582.85 323.15"/>
    <polyline class="st2" points="582.97 325.01 583.21 323.21 582.85 323.15"/>
    <polyline class="st2" points="582.97 325.01 583.39 325.01 583.21 323.21"/>
    <polyline class="st2" points="583.39 325.01 583.63 323.15 583.21 323.21"/>
    <polyline class="st2" points="583.39 325.01 583.69 324.95 583.63 323.15"/>
    <polyline class="st2" points="583.69 324.95 583.93 323.03 583.63 323.15"/>
    <polyline class="st2" points="583.69 324.95 583.93 324.83 583.93 323.03"/>
    <line class="st2" x1="567.73" y1="313.97" x2="567.85" y2="313.85"/>
    <polyline class="st2" points="567.67 315.95 567.67 314.21 567.73 313.97"/>
    <polyline class="st2" points="567.67 315.95 567.67 316.19 567.67 314.21"/>
    <polyline class="st2" points="567.67 316.19 567.73 314.45 567.67 314.21"/>
    <polyline class="st2" points="567.67 316.19 567.85 316.37 567.73 314.45"/>
    <polyline class="st2" points="567.85 316.37 567.97 314.63 567.73 314.45"/>
    <polyline class="st2" points="567.85 316.37 567.97 316.43 567.97 314.63"/>
    <polyline class="st2" points="582.49 324.83 567.97 316.43 582.55 324.89 582.49 324.83"/>
    <polyline class="st2" points="567.97 316.43 567.97 316.49 582.55 324.89"/>
    <polyline class="st2" points="567.97 316.49 567.97 316.55 582.55 324.89"/>
    <polyline class="st2" points="567.97 316.55 582.55 324.95 582.55 324.89"/>
    <polyline class="st2" points="567.97 316.55 568.03 316.55 582.55 324.95"/>
    <polyline class="st2" points="568.03 316.55 582.61 324.95 582.55 324.95"/>
    <line class="st2" x1="567.67" y1="316.19" x2="567.67" y2="315.95"/>
    <line class="st2" x1="567.73" y1="316.19" x2="567.67" y2="316.19"/>
    <polyline class="st2" points="567.73 316.19 567.85 316.37 567.67 316.19"/>
    <polyline class="st2" points="567.73 316.19 567.85 316.43 567.85 316.37"/>
    <polyline class="st2" points="567.85 316.43 567.97 316.43 567.85 316.37"/>
    <polyline class="st2" points="567.85 316.43 567.97 316.49 567.97 316.43"/>
    <line class="st2" x1="567.73" y1="316.25" x2="567.73" y2="316.19"/>
    <line class="st2" x1="567.73" y1="316.25" x2="567.85" y2="316.43"/>
    <polyline class="st2" points="567.73 316.25 567.85 316.49 567.85 316.43"/>
    <line class="st2" x1="567.85" y1="316.49" x2="567.97" y2="316.49"/>
    <polyline class="st2" points="567.85 316.49 567.97 316.55 567.97 316.49"/>
    <line class="st2" x1="568.03" y1="316.55" x2="567.97" y2="316.55"/>
    <polyline class="st2" points="582.49 324.83 582.55 324.89 582.67 324.95 582.49 324.83"/>
    <polyline class="st2" points="582.55 324.89 582.67 324.95 582.67 324.95"/>
    <polyline class="st2" points="582.67 324.95 582.97 325.01 582.67 324.95"/>
    <polyline class="st2" points="582.67 324.95 582.97 325.07 582.97 325.01"/>
    <polyline class="st2" points="582.97 325.07 583.39 325.01 582.97 325.01"/>
    <polyline class="st2" points="582.97 325.07 583.39 325.07 583.39 325.01"/>
    <polyline class="st2" points="583.39 325.07 583.69 324.95 583.39 325.01"/>
    <polyline class="st2" points="583.39 325.07 583.69 325.01 583.69 324.95"/>
    <polyline class="st2" points="583.69 325.01 583.93 324.83 583.69 324.95"/>
    <polyline class="st2" points="583.69 325.01 583.93 324.89 583.93 324.83"/>
    <polyline class="st2" points="582.55 324.89 582.55 324.95 582.67 324.95"/>
    <polyline class="st2" points="582.55 324.95 582.67 325.01 582.67 324.95"/>
    <line class="st2" x1="582.67" y1="325.01" x2="582.97" y2="325.07"/>
    <polyline class="st2" points="582.67 325.01 583.03 325.07 582.97 325.07"/>
    <line class="st2" x1="583.03" y1="325.07" x2="583.39" y2="325.07"/>
    <polyline class="st2" points="583.03 325.07 583.39 325.13 583.39 325.07"/>
    <line class="st2" x1="583.39" y1="325.13" x2="583.69" y2="325.01"/>
    <polyline class="st2" points="583.39 325.13 583.69 325.07 583.69 325.01"/>
    <line class="st2" x1="583.69" y1="325.07" x2="583.93" y2="324.89"/>
    <polyline class="st2" points="583.69 325.07 583.93 324.95 583.93 324.89"/>
    <polyline class="st2" points="582.55 324.95 582.61 324.95 582.67 325.01"/>
    <polyline class="st2" points="582.61 324.95 582.73 325.01 582.67 325.01"/>
    <line class="st2" x1="582.73" y1="325.01" x2="583.03" y2="325.07"/>
    <polyline class="st2" points="582.73 325.01 583.03 325.13 583.03 325.07"/>
    <line class="st2" x1="583.03" y1="325.13" x2="583.39" y2="325.13"/>
    <polyline class="st2" points="583.03 325.13 583.33 325.13 583.39 325.13"/>
    <line class="st2" x1="583.33" y1="325.13" x2="583.69" y2="325.07"/>
    <polyline class="st2" points="583.33 325.13 583.69 325.07 583.69 325.07"/>
    <line class="st2" x1="583.69" y1="325.07" x2="583.93" y2="324.95"/>
    <polyline class="st2" points="583.69 325.07 583.87 324.95 583.93 324.95"/>
    <line class="st2" x1="598.39" y1="316.55" x2="583.87" y2="324.95"/>
    <polyline class="st2" points="598.39 316.55 598.45 316.55 583.87 324.95"/>
    <polyline class="st2" points="598.45 316.55 583.93 324.95 583.87 324.95"/>
    <polyline class="st2" points="598.45 316.55 598.51 316.49 583.93 324.95"/>
    <polyline class="st2" points="598.51 316.49 583.93 324.89 583.93 324.95"/>
    <polyline class="st2" points="598.51 316.49 583.93 324.83 583.93 324.89"/>
    <polyline class="st2" points="598.51 316.49 598.51 316.43 583.93 324.83"/>
    <line class="st2" x1="598.45" y1="316.55" x2="598.39" y2="316.55"/>
    <polyline class="st2" points="598.69 316.3 598.51 316.49 598.45 316.55"/>
    <line class="st2" x1="598.51" y1="316.49" x2="598.39" y2="316.55"/>
    <polyline class="st2" points="598.51 316.49 598.45 316.55 598.39 316.55"/>
    <polyline class="st2" points="598.75 316.07 598.75 316.25 598.69 316.3"/>
    <line class="st2" x1="598.75" y1="316.25" x2="598.51" y2="316.49"/>
    <polyline class="st2" points="598.75 316.25 598.57 316.43 598.51 316.49"/>
    <line class="st2" x1="598.57" y1="316.43" x2="598.45" y2="316.55"/>
    <polyline class="st2" points="598.57 316.43 598.51 316.49 598.45 316.55"/>
    <line class="st2" x1="598.81" y1="316.01" x2="598.75" y2="316.07"/>
    <line class="st2" x1="598.81" y1="316.01" x2="598.75" y2="316.25"/>
    <polyline class="st2" points="598.81 316.01 598.75 316.25 598.75 316.25"/>
    <line class="st2" x1="598.75" y1="316.25" x2="598.57" y2="316.43"/>
    <polyline class="st2" points="598.75 316.25 598.57 316.43 598.57 316.43"/>
    <line class="st2" x1="598.57" y1="316.43" x2="598.51" y2="316.49"/>
    <polyline class="st2" points="598.57 316.43 598.51 316.43 598.51 316.49"/>
    <line class="st2" x1="567.97" y1="314.63" x2="567.97" y2="316.43"/>
    <line class="st2" x1="567.97" y1="316.43" x2="582.49" y2="324.83"/>
    <line class="st2" x1="582.49" y1="324.83" x2="582.49" y2="323.03"/>
    <line class="st2" x1="567.97" y1="314.45" x2="567.97" y2="314.63"/>
    <line class="st2" x1="567.97" y1="314.63" x2="582.49" y2="323.03"/>
    <line class="st2" x1="582.49" y1="323.03" x2="582.79" y2="323.03"/>
    <line class="st2" x1="583.69" y1="323.03" x2="583.93" y2="323.03"/>
    <line class="st2" x1="583.93" y1="323.03" x2="598.51" y2="314.63"/>
    <line class="st2" x1="598.51" y1="314.63" x2="598.51" y2="314.45"/>
    <line class="st2" x1="583.93" y1="323.03" x2="583.93" y2="324.83"/>
    <line class="st2" x1="583.93" y1="324.83" x2="598.51" y2="316.43"/>
    <line class="st2" x1="598.51" y1="316.43" x2="598.51" y2="314.63"/>
    <line class="st2" x1="573.25" y1="320.45" x2="573.13" y2="320.33"/>
    <line class="st2" x1="573.13" y1="320.33" x2="573.01" y2="320.21"/>
    <line class="st2" x1="573.01" y1="320.21" x2="572.95" y2="320.09"/>
    <line class="st2" x1="572.95" y1="320.09" x2="572.95" y2="319.91"/>
    <line class="st2" x1="579.07" y1="323.8" x2="573.25" y2="320.45"/>
    <polyline class="st2" points="579.07 323.8 579.01 323.75 573.25 320.45"/>
    <polyline class="st2" points="579.01 323.75 573.13 320.33 573.25 320.45"/>
    <polyline class="st2" points="579.01 323.75 573.01 320.21 573.13 320.33"/>
    <polyline class="st2" points="579.01 323.75 579.01 323.69 573.01 320.21"/>
    <polyline class="st2" points="579.01 323.69 578.95 323.57 573.01 320.21"/>
    <polyline class="st2" points="578.95 323.39 572.95 319.91 578.95 323.57 578.95 323.39"/>
    <polyline class="st2" points="572.95 319.91 572.95 320.09 578.95 323.57"/>
    <line class="st2" x1="572.95" y1="320.09" x2="573.01" y2="320.21"/>
    <line class="st2" x1="593.53" y1="319.91" x2="593.47" y2="320.09"/>
    <line class="st2" x1="593.47" y1="320.09" x2="593.47" y2="320.21"/>
    <line class="st2" x1="593.47" y1="320.21" x2="593.35" y2="320.33"/>
    <line class="st2" x1="593.35" y1="320.33" x2="593.23" y2="320.45"/>
    <line class="st2" x1="587.35" y1="323.8" x2="585.85" y2="323.8"/>
    <line class="st2" x1="580.57" y1="323.8" x2="579.07" y2="323.8"/>
    <polyline class="st2" points="587.35 323.8 587.41 323.75 585.91 323.8"/>
    <line class="st2" x1="580.57" y1="323.8" x2="579.07" y2="323.8"/>
    <line class="st2" x1="587.41" y1="323.75" x2="585.97" y2="323.75"/>
    <polyline class="st2" points="580.51 323.75 579.01 323.75 579.07 323.8"/>
    <line class="st2" x1="587.41" y1="323.75" x2="585.97" y2="323.75"/>
    <polyline class="st2" points="580.39 323.69 579.01 323.69 579.01 323.75"/>
    <polyline class="st2" points="587.41 323.75 587.47 323.69 586.09 323.69"/>
    <line class="st2" x1="580.33" y1="323.69" x2="579.01" y2="323.69"/>
    <polyline class="st2" points="587.47 323.69 587.47 323.57 586.27 323.57"/>
    <line class="st2" x1="580.33" y1="323.69" x2="579.01" y2="323.69"/>
    <line class="st2" x1="587.47" y1="323.39" x2="586.57" y2="323.39"/>
    <polyline class="st2" points="579.91 323.39 578.95 323.39 579.91 323.45"/>
    <polyline class="st2" points="586.33 323.57 587.47 323.57 587.47 323.39"/>
    <polyline class="st2" points="578.95 323.39 578.95 323.57 580.15 323.57"/>
    <line class="st2" x1="586.33" y1="323.57" x2="587.47" y2="323.57"/>
    <line class="st2" x1="578.95" y1="323.57" x2="579.01" y2="323.69"/>
    <line class="st2" x1="-421.93" y1="-89.33" x2="-421.93" y2="-89.33"/>
    <line class="st2" x1="593.23" y1="320.45" x2="587.35" y2="323.8"/>
    <polyline class="st2" points="593.23 320.45 593.35 320.33 587.35 323.8"/>
    <polyline class="st2" points="593.35 320.33 587.41 323.75 587.35 323.8"/>
    <polyline class="st2" points="593.35 320.33 587.47 323.69 587.41 323.75"/>
    <polyline class="st2" points="593.35 320.33 593.47 320.21 587.47 323.69"/>
    <polyline class="st2" points="593.47 320.21 593.47 320.09 587.47 323.69"/>
    <polyline class="st2" points="593.53 319.91 587.47 323.39 593.47 320.09 593.53 319.91"/>
    <polyline class="st2" points="587.47 323.39 587.47 323.57 593.47 320.09"/>
    <line class="st2" x1="587.47" y1="323.57" x2="587.47" y2="323.69"/>
    <line class="st2" x1="593.53" y1="319.91" x2="593.53" y2="319.43"/>
    <line class="st2" x1="587.47" y1="323.39" x2="593.53" y2="319.91"/>
    <line class="st2" x1="593.41" y1="320.33" x2="593.35" y2="320.33"/>
    <line class="st2" x1="572.95" y1="319.91" x2="572.95" y2="319.43"/>
    <line class="st2" x1="578.95" y1="323.39" x2="578.95" y2="322.91"/>
    <line class="st2" x1="572.95" y1="319.91" x2="578.95" y2="323.39"/>
    <line class="st2" x1="587.47" y1="323.39" x2="587.47" y2="322.91"/>
    <line class="st2" x1="578.95" y1="323.39" x2="579.91" y2="323.39"/>
    <line class="st2" x1="586.57" y1="323.39" x2="587.47" y2="323.39"/>
    <line class="st2" x1="188.65" y1="550.55" x2="188.77" y2="550.67"/>
    <line class="st2" x1="188.77" y1="550.67" x2="188.83" y2="550.91"/>
    <line class="st2" x1="188.83" y1="550.91" x2="188.83" y2="552.83"/>
    <polyline class="st2" points="188.83 550.91 188.77 551.09 188.83 552.83"/>
    <polyline class="st2" points="188.77 551.09 188.71 553.01 188.83 552.83"/>
    <polyline class="st2" points="188.77 551.09 188.53 551.27 188.71 553.01"/>
    <polyline class="st2" points="188.53 551.27 188.53 553.13 188.71 553.01"/>
    <polyline class="st2" points="157.99 551.27 157.81 551.09 157.99 553.13 157.99 551.27"/>
    <polyline class="st2" points="157.81 551.09 157.81 552.95 157.99 553.13"/>
    <polyline class="st2" points="157.81 551.09 157.75 552.77 157.81 552.95"/>
    <polyline class="st2" points="157.81 551.09 157.75 550.91 157.75 552.77"/>
    <line class="st2" x1="157.75" y1="550.91" x2="157.81" y2="550.67"/>
    <line class="st2" x1="157.81" y1="550.67" x2="157.93" y2="550.55"/>
    <line class="st2" x1="188.77" y1="552.89" x2="188.65" y2="553.13"/>
    <polyline class="st2" points="188.65 553.13 188.53 553.25 188.47 553.25"/>
    <line class="st2" x1="188.83" y1="552.83" x2="188.77" y2="552.89"/>
    <line class="st2" x1="188.83" y1="552.83" x2="188.65" y2="553.13"/>
    <polyline class="st2" points="188.83 552.83 188.71 553.07 188.65 553.13"/>
    <line class="st2" x1="188.71" y1="553.07" x2="188.53" y2="553.25"/>
    <polyline class="st2" points="188.71 553.07 188.53 553.19 188.53 553.25"/>
    <line class="st2" x1="-421.93" y1="-89.33" x2="-421.93" y2="-89.33"/>
    <line class="st2" x1="188.83" y1="552.83" x2="188.71" y2="553.07"/>
    <polyline class="st2" points="188.83 552.83 188.71 553.01 188.71 553.07"/>
    <line class="st2" x1="188.71" y1="553.01" x2="188.53" y2="553.19"/>
    <polyline class="st2" points="188.71 553.01 188.53 553.13 188.53 553.19"/>
    <polyline class="st2" points="188.53 553.13 174.01 561.53 188.53 553.19 188.53 553.13"/>
    <polyline class="st2" points="174.01 561.53 174.01 561.59 188.53 553.19"/>
    <polyline class="st2" points="174.01 561.59 173.95 561.65 188.53 553.19"/>
    <polyline class="st2" points="173.95 561.65 188.53 553.25 188.53 553.19"/>
    <polyline class="st2" points="173.95 561.65 173.89 561.65 188.53 553.25"/>
    <polyline class="st2" points="173.89 561.65 188.47 553.25 188.53 553.25"/>
    <polyline class="st2" points="172.57 561.53 172.57 561.59 172.69 561.59 172.57 561.53"/>
    <polyline class="st2" points="172.57 561.59 172.87 561.71 172.69 561.59"/>
    <polyline class="st2" points="172.87 561.71 172.87 561.65 172.69 561.59"/>
    <polyline class="st2" points="172.87 561.71 173.05 561.71 172.87 561.65"/>
    <polyline class="st2" points="172.57 561.59 172.57 561.65 172.87 561.71"/>
    <polyline class="st2" points="172.57 561.65 172.87 561.77 172.87 561.71"/>
    <polyline class="st2" points="172.87 561.77 173.23 561.77 172.87 561.71"/>
    <polyline class="st2" points="172.87 561.77 173.23 561.77 173.23 561.77"/>
    <polyline class="st2" points="173.23 561.77 173.59 561.71 173.23 561.77"/>
    <polyline class="st2" points="173.23 561.77 173.59 561.77 173.59 561.71"/>
    <polyline class="st2" points="173.59 561.77 173.89 561.59 173.59 561.71"/>
    <polyline class="st2" points="173.59 561.77 173.89 561.65 173.89 561.59"/>
    <polyline class="st2" points="173.89 561.65 174.01 561.59 173.89 561.59"/>
    <polyline class="st2" points="173.89 561.65 173.95 561.65 174.01 561.59"/>
    <polyline class="st2" points="172.57 561.65 172.63 561.65 172.87 561.77"/>
    <polyline class="st2" points="172.63 561.65 172.93 561.77 172.87 561.77"/>
    <line class="st2" x1="172.93" y1="561.77" x2="173.23" y2="561.77"/>
    <polyline class="st2" points="172.93 561.77 173.23 561.83 173.23 561.77"/>
    <line class="st2" x1="173.23" y1="561.83" x2="173.59" y2="561.77"/>
    <polyline class="st2" points="173.23 561.83 173.59 561.77 173.59 561.77"/>
    <line class="st2" x1="173.59" y1="561.77" x2="173.89" y2="561.65"/>
    <polyline class="st2" points="173.59 561.77 173.83 561.71 173.89 561.65"/>
    <line class="st2" x1="173.83" y1="561.71" x2="173.95" y2="561.65"/>
    <polyline class="st2" points="173.83 561.71 173.89 561.65 173.95 561.65"/>
    <polyline class="st2" points="174.01 561.59 174.01 561.53 173.89 561.59"/>
    <polyline class="st2" points="174.01 561.53 173.95 561.59 173.89 561.59"/>
    <polyline class="st2" points="173.95 561.59 173.77 561.65 173.89 561.59"/>
    <line class="st2" x1="173.77" y1="561.65" x2="173.59" y2="561.71"/>
    <polyline class="st2" points="173.77 561.65 173.59 561.65 173.59 561.71"/>
    <polyline class="st2" points="173.59 561.65 173.41 561.71 173.59 561.71"/>
    <line class="st2" x1="173.41" y1="561.71" x2="173.23" y2="561.77"/>
    <polyline class="st2" points="173.41 561.71 173.23 561.71 173.23 561.77"/>
    <polyline class="st2" points="173.23 561.71 173.05 561.71 173.23 561.77"/>
    <polyline class="st2" points="172.57 561.53 157.99 553.13 172.57 561.59 172.57 561.53"/>
    <polyline class="st2" points="157.99 553.13 158.05 553.19 172.57 561.59"/>
    <polyline class="st2" points="158.05 553.19 158.05 553.25 172.57 561.59"/>
    <polyline class="st2" points="158.05 553.25 172.57 561.65 172.57 561.59"/>
    <polyline class="st2" points="158.05 553.25 158.11 553.25 172.57 561.65"/>
    <polyline class="st2" points="158.11 553.25 172.63 561.65 172.57 561.65"/>
    <line class="st2" x1="-421.93" y1="-89.33" x2="-421.93" y2="-89.33"/>
    <polyline class="st2" points="157.75 552.77 157.81 552.95 157.75 552.77"/>
    <polyline class="st2" points="157.75 552.77 157.81 553.01 157.81 552.95"/>
    <polyline class="st2" points="157.81 553.01 157.99 553.13 157.81 552.95"/>
    <polyline class="st2" points="157.81 553.01 158.05 553.19 157.99 553.13"/>
    <line class="st2" x1="157.87" y1="553.07" x2="157.81" y2="553.01"/>
    <line class="st2" x1="157.87" y1="553.07" x2="158.05" y2="553.19"/>
    <polyline class="st2" points="157.87 553.07 158.05 553.25 158.05 553.19"/>
    <line class="st2" x1="158.11" y1="553.25" x2="158.05" y2="553.25"/>
    <polyline class="st2" points="174.01 561.53 174.01 559.67 173.95 561.59 174.01 561.53"/>
    <polyline class="st2" points="174.01 559.67 173.77 561.65 173.95 561.59"/>
    <polyline class="st2" points="174.01 559.67 173.65 559.85 173.77 561.65"/>
    <polyline class="st2" points="173.65 559.85 173.59 561.65 173.77 561.65"/>
    <polyline class="st2" points="173.65 559.85 173.41 561.71 173.59 561.65"/>
    <polyline class="st2" points="173.65 559.85 173.29 559.85 173.41 561.71"/>
    <polyline class="st2" points="173.29 559.85 173.23 561.71 173.41 561.71"/>
    <polyline class="st2" points="173.29 559.85 173.05 561.71 173.23 561.71"/>
    <polyline class="st2" points="173.29 559.85 172.87 559.85 173.05 561.71"/>
    <polyline class="st2" points="172.87 559.85 172.87 561.65 173.05 561.71"/>
    <polyline class="st2" points="172.87 559.85 172.69 561.59 172.87 561.65"/>
    <polyline class="st2" points="172.87 559.85 172.57 559.67 172.69 561.59"/>
    <polyline class="st2" points="172.57 559.67 172.57 561.53 172.69 561.59"/>
    <line class="st2" x1="188.53" y1="551.15" x2="188.53" y2="551.27"/>
    <line class="st2" x1="188.53" y1="551.27" x2="188.53" y2="553.13"/>
    <line class="st2" x1="157.99" y1="553.13" x2="157.99" y2="551.27"/>
    <line class="st2" x1="157.99" y1="551.27" x2="157.99" y2="551.15"/>
    <line class="st2" x1="172.57" y1="559.67" x2="157.99" y2="551.27"/>
    <line class="st2" x1="188.53" y1="551.27" x2="174.01" y2="559.67"/>
    <line class="st2" x1="188.53" y1="553.13" x2="174.01" y2="561.53"/>
    <line class="st2" x1="172.57" y1="561.53" x2="157.99" y2="553.13"/>
    <line class="st2" x1="174.01" y1="561.53" x2="174.01" y2="559.67"/>
    <line class="st2" x1="174.01" y1="559.67" x2="173.71" y2="559.67"/>
    <line class="st2" x1="172.87" y1="559.67" x2="172.57" y2="559.67"/>
    <line class="st2" x1="172.57" y1="559.67" x2="172.57" y2="561.53"/>
    <line class="st2" x1="163.27" y1="557.15" x2="163.15" y2="557.03"/>
    <line class="st2" x1="163.15" y1="557.03" x2="163.09" y2="556.91"/>
    <line class="st2" x1="163.09" y1="556.91" x2="163.03" y2="556.79"/>
    <line class="st2" x1="163.03" y1="556.79" x2="162.97" y2="556.61"/>
    <line class="st2" x1="169.15" y1="560.51" x2="163.27" y2="557.15"/>
    <polyline class="st2" points="169.15 560.51 169.09 560.45 163.27 557.15"/>
    <polyline class="st2" points="169.09 560.45 163.15 557.03 163.27 557.15"/>
    <polyline class="st2" points="169.09 560.45 163.09 556.91 163.15 557.03"/>
    <polyline class="st2" points="169.09 560.45 169.03 560.39 163.09 556.91"/>
    <polyline class="st2" points="169.03 560.39 169.03 560.27 163.09 556.91"/>
    <polyline class="st2" points="169.03 560.09 162.97 556.61 169.03 560.27 169.03 560.09"/>
    <polyline class="st2" points="162.97 556.61 163.03 556.79 169.03 560.27"/>
    <line class="st2" x1="163.03" y1="556.79" x2="163.09" y2="556.91"/>
    <line class="st2" x1="177.43" y1="560.51" x2="175.93" y2="560.51"/>
    <line class="st2" x1="170.65" y1="560.51" x2="169.15" y2="560.51"/>
    <polyline class="st2" points="177.43 560.51 177.49 560.45 175.99 560.45"/>
    <line class="st2" x1="170.65" y1="560.51" x2="169.15" y2="560.51"/>
    <line class="st2" x1="177.49" y1="560.45" x2="175.99" y2="560.45"/>
    <polyline class="st2" points="170.53 560.45 169.09 560.45 169.15 560.51"/>
    <line class="st2" x1="177.49" y1="560.45" x2="176.05" y2="560.45"/>
    <polyline class="st2" points="170.41 560.39 169.03 560.39 169.09 560.45"/>
    <polyline class="st2" points="177.49 560.45 177.49 560.39 176.17 560.39"/>
    <line class="st2" x1="170.41" y1="560.39" x2="169.03" y2="560.39"/>
    <polyline class="st2" points="177.49 560.39 177.55 560.27 176.35 560.27"/>
    <line class="st2" x1="170.35" y1="560.33" x2="169.03" y2="560.39"/>
    <line class="st2" x1="177.55" y1="560.09" x2="176.59" y2="560.09"/>
    <polyline class="st2" points="169.93 560.09 169.03 560.09 169.99 560.09"/>
    <polyline class="st2" points="176.41 560.21 177.55 560.27 177.55 560.09"/>
    <polyline class="st2" points="169.03 560.09 169.03 560.27 170.17 560.27"/>
    <line class="st2" x1="176.35" y1="560.27" x2="177.55" y2="560.27"/>
    <line class="st2" x1="169.03" y1="560.27" x2="169.03" y2="560.39"/>
    <line class="st2" x1="183.55" y1="556.61" x2="183.55" y2="556.79"/>
    <line class="st2" x1="183.55" y1="556.79" x2="183.49" y2="556.91"/>
    <line class="st2" x1="183.49" y1="556.91" x2="183.43" y2="557.03"/>
    <line class="st2" x1="183.43" y1="557.03" x2="183.25" y2="557.15"/>
    <polyline class="st2" points="183.55 556.61 177.55 560.09 183.55 556.79 183.55 556.61"/>
    <polyline class="st2" points="177.55 560.09 177.55 560.27 183.55 556.79"/>
    <polyline class="st2" points="177.55 560.27 177.49 560.39 183.55 556.79"/>
    <polyline class="st2" points="177.49 560.45 183.43 557.03 177.49 560.39 177.49 560.45"/>
    <polyline class="st2" points="183.43 557.03 183.49 556.91 177.49 560.39"/>
    <line class="st2" x1="183.49" y1="556.91" x2="183.55" y2="556.79"/>
    <polyline class="st2" points="177.49 560.45 177.43 560.51 183.43 557.03"/>
    <polyline class="st2" points="177.43 560.51 183.25 557.15 183.43 557.03"/>
    <line class="st2" x1="169.03" y1="560.09" x2="169.03" y2="559.55"/>
    <line class="st2" x1="177.55" y1="560.09" x2="177.55" y2="559.55"/>
    <line class="st2" x1="183.55" y1="556.61" x2="183.55" y2="556.07"/>
    <line class="st2" x1="169.03" y1="560.09" x2="162.97" y2="556.61"/>
    <polyline class="st2" points="163.09 556.97 163.15 557.03 163.15 557.03"/>
    <line class="st2" x1="177.55" y1="560.09" x2="176.59" y2="560.09"/>
    <line class="st2" x1="169.93" y1="560.09" x2="169.03" y2="560.09"/>
    <line class="st2" x1="-421.93" y1="-89.33" x2="-421.93" y2="-89.33"/>
    <polyline class="st2" points="177.37 560.51 177.31 560.51 177.31 560.51"/>
    <line class="st2" x1="183.55" y1="556.61" x2="177.55" y2="560.09"/>
    <line class="st2" x1="162.97" y1="556.61" x2="162.97" y2="556.07"/>
    <polyline class="st2" points="800.47 450.65 800.47 448.85 800.35 450.59 800.47 450.65"/>
    <polyline class="st2" points="800.47 448.85 800.23 448.67 800.35 450.59"/>
    <polyline class="st2" points="800.23 448.67 800.17 450.41 800.35 450.59"/>
    <polyline class="st2" points="800.23 448.67 800.17 448.43 800.17 450.41"/>
    <polyline class="st2" points="800.17 448.43 800.17 450.17 800.17 450.41"/>
    <line class="st2" x1="800.17" y1="448.43" x2="800.23" y2="448.19"/>
    <line class="st2" x1="800.23" y1="448.19" x2="800.35" y2="448.07"/>
    <line class="st2" x1="831.07" y1="448.07" x2="831.19" y2="448.19"/>
    <polyline class="st2" points="831.19 448.19 831.25 448.43 831.25 450.23"/>
    <polyline class="st2" points="831.25 448.43 831.19 450.47 831.25 450.23"/>
    <polyline class="st2" points="831.25 448.43 831.19 448.67 831.19 450.47"/>
    <polyline class="st2" points="831.19 448.67 831.01 450.65 831.19 450.47"/>
    <polyline class="st2" points="831.19 448.67 830.95 448.85 831.01 450.65"/>
    <polyline class="st2" points="830.95 448.85 830.95 450.65 831.01 450.65"/>
    <polyline class="st2" points="816.43 459.05 816.43 457.25 816.19 459.17 816.43 459.05"/>
    <polyline class="st2" points="816.43 457.25 816.07 457.36 816.19 459.17"/>
    <polyline class="st2" points="816.07 457.36 815.83 459.23 816.19 459.17"/>
    <polyline class="st2" points="816.07 457.36 815.71 457.43 815.83 459.23"/>
    <polyline class="st2" points="815.71 457.43 815.47 459.23 815.83 459.23"/>
    <polyline class="st2" points="815.71 457.43 815.35 457.36 815.47 459.23"/>
    <polyline class="st2" points="815.35 457.36 815.17 459.17 815.47 459.23"/>
    <polyline class="st2" points="815.35 457.36 814.99 457.25 815.17 459.17"/>
    <polyline class="st2" points="814.99 457.25 814.99 459.05 815.17 459.17"/>
    <line class="st2" x1="800.53" y1="450.77" x2="800.47" y2="450.77"/>
    <line class="st2" x1="800.47" y1="450.77" x2="800.35" y2="450.71"/>
    <line class="st2" x1="800.35" y1="450.71" x2="800.23" y2="450.53"/>
    <polyline class="st2" points="800.47 450.77 800.47 450.71 800.35 450.71"/>
    <polyline class="st2" points="800.47 450.71 800.35 450.65 800.35 450.71"/>
    <line class="st2" x1="800.35" y1="450.65" x2="800.23" y2="450.53"/>
    <polyline class="st2" points="800.35 450.65 800.17 450.41 800.23 450.53"/>
    <polyline class="st2" points="800.47 450.71 800.47 450.65 800.35 450.65"/>
    <polyline class="st2" points="800.47 450.65 800.35 450.59 800.35 450.65"/>
    <line class="st2" x1="800.35" y1="450.59" x2="800.17" y2="450.41"/>
    <polyline class="st2" points="800.35 450.59 800.17 450.41 800.17 450.41"/>
    <line class="st2" x1="800.17" y1="450.41" x2="800.17" y2="450.17"/>
    <polyline class="st2" points="830.95 450.65 830.95 450.71 831.01 450.65 830.95 450.65"/>
    <polyline class="st2" points="830.95 450.71 831.01 450.65 831.01 450.65"/>
    <polyline class="st2" points="831.01 450.65 831.19 450.47 831.01 450.65"/>
    <polyline class="st2" points="831.01 450.65 831.19 450.47 831.19 450.47"/>
    <polyline class="st2" points="831.19 450.47 831.25 450.23 831.19 450.47"/>
    <polyline class="st2" points="831.19 450.47 831.25 450.29 831.25 450.23"/>
    <polyline class="st2" points="830.95 450.71 830.95 450.77 831.01 450.65"/>
    <polyline class="st2" points="830.95 450.77 831.01 450.71 831.01 450.65"/>
    <line class="st2" x1="831.01" y1="450.71" x2="831.19" y2="450.47"/>
    <polyline class="st2" points="831.01 450.71 831.19 450.53 831.19 450.47"/>
    <polyline class="st2" points="830.95 450.77 830.89 450.77 831.01 450.71"/>
    <polyline class="st2" points="830.89 450.77 830.95 450.77 831.01 450.71"/>
    <polyline class="st2" points="830.95 450.65 816.43 459.05 830.95 450.71 830.95 450.65"/>
    <polyline class="st2" points="816.43 459.05 816.43 459.11 830.95 450.71"/>
    <polyline class="st2" points="816.43 459.11 816.37 459.17 830.95 450.71"/>
    <polyline class="st2" points="816.37 459.17 830.95 450.77 830.95 450.71"/>
    <polyline class="st2" points="816.37 459.17 816.37 459.23 830.95 450.77"/>
    <polyline class="st2" points="816.37 459.23 830.89 450.77 830.95 450.77"/>
    <line class="st2" x1="816.37" y1="459.23" x2="816.13" y2="459.29"/>
    <line class="st2" x1="816.13" y1="459.29" x2="815.83" y2="459.35"/>
    <line class="st2" x1="815.83" y1="459.35" x2="815.53" y2="459.35"/>
    <line class="st2" x1="815.53" y1="459.35" x2="815.17" y2="459.29"/>
    <line class="st2" x1="815.17" y1="459.29" x2="815.05" y2="459.23"/>
    <polyline class="st2" points="816.37 459.23 816.37 459.17 816.13 459.29"/>
    <polyline class="st2" points="816.37 459.17 816.19 459.29 816.13 459.29"/>
    <line class="st2" x1="816.19" y1="459.29" x2="815.83" y2="459.35"/>
    <polyline class="st2" points="816.19 459.29 815.83 459.35 815.83 459.35"/>
    <line class="st2" x1="815.83" y1="459.35" x2="815.53" y2="459.35"/>
    <polyline class="st2" points="815.83 459.35 815.47 459.29 815.53 459.35"/>
    <line class="st2" x1="815.47" y1="459.29" x2="815.17" y2="459.29"/>
    <polyline class="st2" points="815.47 459.29 815.17 459.23 815.17 459.29"/>
    <line class="st2" x1="815.17" y1="459.23" x2="815.05" y2="459.23"/>
    <polyline class="st2" points="815.17 459.23 815.05 459.17 815.05 459.23"/>
    <polyline class="st2" points="816.37 459.17 816.43 459.11 816.19 459.29"/>
    <polyline class="st2" points="816.43 459.11 816.19 459.23 816.19 459.29"/>
    <line class="st2" x1="816.19" y1="459.23" x2="815.83" y2="459.35"/>
    <polyline class="st2" points="816.19 459.23 815.83 459.29 815.83 459.35"/>
    <line class="st2" x1="815.83" y1="459.29" x2="815.47" y2="459.29"/>
    <polyline class="st2" points="815.83 459.29 815.47 459.29 815.47 459.29"/>
    <line class="st2" x1="815.47" y1="459.29" x2="815.17" y2="459.23"/>
    <polyline class="st2" points="815.47 459.29 815.17 459.17 815.17 459.23"/>
    <line class="st2" x1="815.17" y1="459.17" x2="815.05" y2="459.17"/>
    <polyline class="st2" points="815.17 459.17 814.99 459.11 815.05 459.17"/>
    <polyline class="st2" points="816.43 459.11 816.43 459.05 816.19 459.23"/>
    <polyline class="st2" points="816.43 459.05 816.19 459.17 816.19 459.23"/>
    <line class="st2" x1="816.19" y1="459.17" x2="815.83" y2="459.29"/>
    <polyline class="st2" points="816.19 459.17 815.83 459.23 815.83 459.29"/>
    <line class="st2" x1="815.83" y1="459.23" x2="815.47" y2="459.29"/>
    <polyline class="st2" points="815.83 459.23 815.47 459.23 815.47 459.29"/>
    <line class="st2" x1="815.47" y1="459.23" x2="815.17" y2="459.17"/>
    <polyline class="st2" points="815.47 459.23 815.17 459.17 815.17 459.17"/>
    <line class="st2" x1="815.17" y1="459.17" x2="814.99" y2="459.11"/>
    <polyline class="st2" points="815.17 459.17 814.99 459.05 814.99 459.11"/>
    <line class="st2" x1="815.05" y1="459.23" x2="800.53" y2="450.77"/>
    <polyline class="st2" points="815.05 459.23 815.05 459.17 800.53 450.77"/>
    <polyline class="st2" points="815.05 459.17 800.47 450.77 800.53 450.77"/>
    <polyline class="st2" points="815.05 459.17 814.99 459.11 800.47 450.77"/>
    <polyline class="st2" points="814.99 459.11 800.47 450.71 800.47 450.77"/>
    <polyline class="st2" points="814.99 459.11 800.47 450.65 800.47 450.71"/>
    <polyline class="st2" points="814.99 459.11 814.99 459.05 800.47 450.65"/>
    <line class="st2" x1="800.47" y1="450.65" x2="800.47" y2="448.85"/>
    <line class="st2" x1="800.47" y1="448.85" x2="800.47" y2="448.67"/>
    <line class="st2" x1="830.95" y1="448.67" x2="830.95" y2="448.85"/>
    <line class="st2" x1="830.95" y1="448.85" x2="830.95" y2="450.65"/>
    <line class="st2" x1="816.43" y1="459.05" x2="816.43" y2="457.25"/>
    <line class="st2" x1="816.43" y1="457.25" x2="816.13" y2="457.25"/>
    <line class="st2" x1="815.29" y1="457.25" x2="814.99" y2="457.25"/>
    <line class="st2" x1="814.99" y1="457.25" x2="814.99" y2="459.05"/>
    <line class="st2" x1="814.99" y1="457.25" x2="800.47" y2="448.85"/>
    <line class="st2" x1="830.95" y1="448.85" x2="816.43" y2="457.25"/>
    <line class="st2" x1="830.95" y1="450.65" x2="816.43" y2="459.05"/>
    <line class="st2" x1="814.99" y1="459.05" x2="800.47" y2="450.65"/>
    <polyline class="st2" points="825.97 454.19 819.97 457.67 825.97 454.3 825.97 454.19"/>
    <polyline class="st2" points="819.97 457.67 819.97 457.79 825.97 454.3"/>
    <polyline class="st2" points="819.97 457.79 819.91 457.91 825.97 454.3"/>
    <polyline class="st2" points="819.91 458.03 825.85 454.55 819.91 457.91 819.91 458.03"/>
    <polyline class="st2" points="825.85 454.55 825.91 454.43 819.91 457.91"/>
    <line class="st2" x1="825.91" y1="454.43" x2="825.97" y2="454.3"/>
    <polyline class="st2" points="819.91 458.03 819.85 458.03 825.85 454.55"/>
    <polyline class="st2" points="819.85 458.03 825.73 454.67 825.85 454.55"/>
    <line class="st2" x1="-421.93" y1="-89.33" x2="-421.93" y2="-89.33"/>
    <line class="st2" x1="825.85" y1="454.55" x2="825.73" y2="454.67"/>
    <line class="st2" x1="825.91" y1="454.43" x2="825.85" y2="454.55"/>
    <line class="st2" x1="825.97" y1="454.19" x2="825.97" y2="454.3"/>
    <line class="st2" x1="825.97" y1="454.3" x2="825.91" y2="454.43"/>
    <line class="st2" x1="819.97" y1="457.67" x2="819.07" y2="457.67"/>
    <polyline class="st2" points="812.35 457.67 811.45 457.67 812.41 457.67"/>
    <polyline class="st2" points="818.83 457.79 819.97 457.79 819.97 457.67"/>
    <polyline class="st2" points="811.45 457.67 811.45 457.79 812.65 457.79"/>
    <line class="st2" x1="818.77" y1="457.79" x2="819.97" y2="457.79"/>
    <polyline class="st2" points="811.45 457.79 811.45 457.91 812.83 457.91"/>
    <line class="st2" x1="818.77" y1="457.79" x2="819.97" y2="457.79"/>
    <line class="st2" x1="811.51" y1="458.03" x2="813.01" y2="458.03"/>
    <polyline class="st2" points="818.41 458.03 819.91 458.03 818.47 457.97"/>
    <polyline class="st2" points="812.89 457.91 811.45 457.91 811.51 458.03"/>
    <polyline class="st2" points="819.91 458.03 819.91 457.91 818.59 457.91"/>
    <line class="st2" x1="812.83" y1="457.91" x2="811.45" y2="457.91"/>
    <line class="st2" x1="819.91" y1="457.91" x2="819.97" y2="457.79"/>
    <polyline class="st2" points="811.51 458.03 811.57 458.03 813.07 458.03"/>
    <line class="st2" x1="818.41" y1="458.03" x2="819.91" y2="458.03"/>
    <line class="st2" x1="811.57" y1="458.03" x2="813.07" y2="458.03"/>
    <polyline class="st2" points="818.35 458.03 819.85 458.03 819.91 458.03"/>
    <polyline class="st2" points="811.45 457.67 805.39 454.19 811.45 457.79 811.45 457.67"/>
    <polyline class="st2" points="805.39 454.19 805.45 454.3 811.45 457.79"/>
    <polyline class="st2" points="805.45 454.3 805.51 454.43 811.45 457.79"/>
    <polyline class="st2" points="805.57 454.55 811.51 458.03 805.51 454.43 805.57 454.55"/>
    <polyline class="st2" points="811.51 458.03 811.45 457.91 805.51 454.43"/>
    <line class="st2" x1="811.45" y1="457.91" x2="811.45" y2="457.79"/>
    <polyline class="st2" points="805.57 454.55 805.69 454.67 811.51 458.03"/>
    <polyline class="st2" points="805.69 454.67 811.57 458.03 811.51 458.03"/>
    <line class="st2" x1="805.45" y1="454.3" x2="805.39" y2="454.19"/>
    <line class="st2" x1="805.57" y1="454.55" x2="805.51" y2="454.43"/>
    <line class="st2" x1="805.51" y1="454.43" x2="805.45" y2="454.3"/>
    <line class="st2" x1="805.69" y1="454.67" x2="805.57" y2="454.55"/>
    <line class="st2" x1="825.97" y1="454.19" x2="819.97" y2="457.67"/>
    <line class="st2" x1="-421.93" y1="-89.33" x2="-421.93" y2="-89.33"/>
    <line class="st2" x1="819.97" y1="457.67" x2="819.07" y2="457.67"/>
    <line class="st2" x1="812.35" y1="457.67" x2="811.45" y2="457.67"/>
    <line class="st2" x1="811.45" y1="457.67" x2="805.39" y2="454.19"/>
    <line class="st2" x1="805.39" y1="454.19" x2="805.39" y2="453.65"/>
    <line class="st2" x1="811.45" y1="457.67" x2="811.45" y2="457.13"/>
    <line class="st2" x1="819.97" y1="457.67" x2="819.97" y2="457.13"/>
    <line class="st2" x1="825.97" y1="454.19" x2="825.97" y2="453.65"/>
    <polyline class="st2" points="405.07 695.75 405.19 695.8 405.07 693.89 405.07 695.75"/>
    <polyline class="st2" points="405.19 695.8 405.37 694.07 405.07 693.89"/>
    <polyline class="st2" points="405.19 695.8 405.37 695.86 405.37 694.07"/>
    <polyline class="st2" points="405.37 695.86 405.55 695.92 405.37 694.07"/>
    <polyline class="st2" points="405.55 695.92 405.79 694.07 405.37 694.07"/>
    <polyline class="st2" points="405.55 695.92 405.73 695.92 405.79 694.07"/>
    <polyline class="st2" points="405.73 695.92 405.91 695.92 405.79 694.07"/>
    <polyline class="st2" points="405.91 695.92 406.15 694.07 405.79 694.07"/>
    <polyline class="st2" points="405.91 695.92 406.09 695.92 406.15 694.07"/>
    <polyline class="st2" points="406.09 695.92 406.27 695.86 406.15 694.07"/>
    <polyline class="st2" points="406.27 695.86 406.45 693.89 406.15 694.07"/>
    <polyline class="st2" points="406.27 695.86 406.39 695.8 406.45 693.89"/>
    <polyline class="st2" points="406.39 695.8 406.45 695.75 406.45 693.89"/>
    <line class="st2" x1="390.31" y1="684.89" x2="390.43" y2="684.77"/>
    <line class="st2" x1="390.19" y1="685.13" x2="390.31" y2="684.89"/>
    <line class="st2" x1="390.19" y1="686.98" x2="390.19" y2="685.13"/>
    <polyline class="st2" points="390.19 686.98 390.31 685.3 390.19 685.13"/>
    <polyline class="st2" points="390.19 686.98 390.31 687.17 390.31 685.3"/>
    <polyline class="st2" points="390.31 687.17 390.49 687.35 390.31 685.3"/>
    <polyline class="st2" points="390.49 687.35 390.49 685.48 390.31 685.3"/>
    <polyline class="st2" points="421.03 687.35 421.21 687.23 421.03 685.48 421.03 687.35"/>
    <polyline class="st2" points="421.21 687.23 421.27 685.3 421.03 685.48"/>
    <polyline class="st2" points="421.21 687.23 421.33 687.05 421.27 685.3"/>
    <polyline class="st2" points="421.33 687.05 421.33 685.13 421.27 685.3"/>
    <line class="st2" x1="421.27" y1="684.89" x2="421.33" y2="685.13"/>
    <line class="st2" x1="421.09" y1="684.77" x2="421.27" y2="684.89"/>
    <line class="st2" x1="405.13" y1="695.86" x2="390.55" y2="687.47"/>
    <polyline class="st2" points="405.13 695.86 405.07 695.86 390.55 687.47"/>
    <polyline class="st2" points="405.07 695.86 390.55 687.47 390.55 687.47"/>
    <polyline class="st2" points="405.07 695.86 405.07 695.8 390.55 687.47"/>
    <polyline class="st2" points="405.07 695.8 390.49 687.41 390.55 687.47"/>
    <polyline class="st2" points="405.07 695.8 390.49 687.35 390.49 687.41"/>
    <polyline class="st2" points="405.07 695.8 405.07 695.75 390.49 687.35"/>
    <polyline class="st2" points="421.03 687.35 421.03 687.41 421.21 687.23 421.03 687.35"/>
    <polyline class="st2" points="421.03 687.41 421.21 687.29 421.21 687.23"/>
    <polyline class="st2" points="421.21 687.29 421.33 687.05 421.21 687.23"/>
    <polyline class="st2" points="421.21 687.29 421.33 687.05 421.33 687.05"/>
    <polyline class="st2" points="421.03 687.41 420.97 687.47 421.21 687.29"/>
    <polyline class="st2" points="420.97 687.47 421.15 687.35 421.21 687.29"/>
    <line class="st2" x1="421.15" y1="687.35" x2="421.33" y2="687.05"/>
    <polyline class="st2" points="421.15 687.35 421.27 687.11 421.33 687.05"/>
    <line class="st2" x1="-421.93" y1="-89.33" x2="-421.93" y2="-89.33"/>
    <line class="st2" x1="406.39" y1="695.86" x2="406.33" y2="695.92"/>
    <line class="st2" x1="406.33" y1="695.92" x2="406.03" y2="695.98"/>
    <line class="st2" x1="406.03" y1="695.98" x2="405.73" y2="696.05"/>
    <line class="st2" x1="405.73" y1="696.05" x2="405.37" y2="695.98"/>
    <line class="st2" x1="405.37" y1="695.98" x2="405.13" y2="695.86"/>
    <polyline class="st2" points="406.39 695.86 406.45 695.86 406.33 695.92"/>
    <polyline class="st2" points="406.45 695.86 406.39 695.86 406.33 695.92"/>
    <line class="st2" x1="406.39" y1="695.86" x2="406.03" y2="695.98"/>
    <polyline class="st2" points="406.39 695.86 406.09 695.98 406.03 695.98"/>
    <line class="st2" x1="406.09" y1="695.98" x2="405.73" y2="696.05"/>
    <polyline class="st2" points="406.09 695.98 405.73 695.98 405.73 696.05"/>
    <line class="st2" x1="405.73" y1="695.98" x2="405.37" y2="695.98"/>
    <polyline class="st2" points="405.73 695.98 405.37 695.98 405.37 695.98"/>
    <line class="st2" x1="405.37" y1="695.98" x2="405.13" y2="695.86"/>
    <polyline class="st2" points="405.37 695.98 405.07 695.86 405.13 695.86"/>
    <polyline class="st2" points="406.45 695.86 406.45 695.8 406.39 695.86"/>
    <polyline class="st2" points="406.45 695.8 406.39 695.8 406.39 695.86"/>
    <line class="st2" x1="406.39" y1="695.8" x2="406.09" y2="695.98"/>
    <polyline class="st2" points="406.39 695.8 406.09 695.92 406.09 695.98"/>
    <line class="st2" x1="406.09" y1="695.92" x2="405.73" y2="695.98"/>
    <polyline class="st2" points="406.09 695.92 405.73 695.98 405.73 695.98"/>
    <line class="st2" x1="405.73" y1="695.98" x2="405.37" y2="695.98"/>
    <polyline class="st2" points="405.73 695.98 405.37 695.92 405.37 695.98"/>
    <line class="st2" x1="405.37" y1="695.92" x2="405.07" y2="695.86"/>
    <polyline class="st2" points="405.37 695.92 405.07 695.8 405.07 695.86"/>
    <polyline class="st2" points="406.45 695.8 406.45 695.75 406.39 695.8"/>
    <polyline class="st2" points="406.45 695.75 406.39 695.8 406.39 695.8"/>
    <polyline class="st2" points="406.39 695.8 406.27 695.86 406.39 695.8"/>
    <line class="st2" x1="406.27" y1="695.86" x2="406.09" y2="695.92"/>
    <polyline class="st2" points="406.27 695.86 406.09 695.92 406.09 695.92"/>
    <polyline class="st2" points="406.09 695.92 405.91 695.92 406.09 695.92"/>
    <line class="st2" x1="405.91" y1="695.92" x2="405.73" y2="695.98"/>
    <polyline class="st2" points="405.91 695.92 405.73 695.92 405.73 695.98"/>
    <polyline class="st2" points="405.73 695.92 405.55 695.92 405.73 695.98"/>
    <line class="st2" x1="405.55" y1="695.92" x2="405.37" y2="695.92"/>
    <polyline class="st2" points="405.55 695.92 405.37 695.86 405.37 695.92"/>
    <polyline class="st2" points="405.37 695.86 405.19 695.8 405.37 695.92"/>
    <polyline class="st2" points="405.07 695.75 405.07 695.8 405.19 695.8 405.07 695.75"/>
    <line class="st2" x1="420.97" y1="687.47" x2="406.39" y2="695.86"/>
    <line class="st2" x1="420.97" y1="687.47" x2="406.39" y2="695.86"/>
    <polyline class="st2" points="420.97 687.47 406.45 695.86 406.39 695.86"/>
    <polyline class="st2" points="420.97 687.47 421.03 687.41 406.45 695.86"/>
    <polyline class="st2" points="421.03 687.41 406.45 695.8 406.45 695.86"/>
    <polyline class="st2" points="421.03 687.41 406.45 695.75 406.45 695.8"/>
    <polyline class="st2" points="421.03 687.41 421.03 687.35 406.45 695.75"/>
    <line class="st2" x1="-421.93" y1="-89.33" x2="-421.93" y2="-89.33"/>
    <line class="st2" x1="390.55" y1="687.47" x2="390.31" y2="687.29"/>
    <polyline class="st2" points="390.55 687.47 390.49 687.41 390.31 687.29"/>
    <polyline class="st2" points="390.49 687.41 390.31 687.23 390.31 687.29"/>
    <line class="st2" x1="390.31" y1="687.23" x2="390.19" y2="686.98"/>
    <polyline class="st2" points="390.49 687.41 390.49 687.35 390.31 687.23"/>
    <polyline class="st2" points="390.49 687.35 390.31 687.17 390.31 687.23"/>
    <line class="st2" x1="390.31" y1="687.17" x2="390.19" y2="686.98"/>
    <polyline class="st2" points="390.31 687.17 390.19 686.98 390.19 686.98"/>
    <line class="st2" x1="406.45" y1="693.89" x2="406.45" y2="695.75"/>
    <line class="st2" x1="406.45" y1="695.75" x2="421.03" y2="687.35"/>
    <line class="st2" x1="421.03" y1="687.35" x2="421.03" y2="685.48"/>
    <line class="st2" x1="406.45" y1="693.89" x2="421.03" y2="685.48"/>
    <line class="st2" x1="421.03" y1="685.48" x2="421.03" y2="685.36"/>
    <line class="st2" x1="390.49" y1="685.36" x2="390.49" y2="685.48"/>
    <line class="st2" x1="390.49" y1="685.48" x2="405.07" y2="693.89"/>
    <line class="st2" x1="405.07" y1="693.89" x2="405.31" y2="693.89"/>
    <line class="st2" x1="406.21" y1="693.89" x2="406.45" y2="693.89"/>
    <line class="st2" x1="390.49" y1="685.48" x2="390.49" y2="687.35"/>
    <line class="st2" x1="390.49" y1="687.35" x2="405.07" y2="695.75"/>
    <line class="st2" x1="405.07" y1="695.75" x2="405.07" y2="693.89"/>
    <line class="st2" x1="415.75" y1="691.36" x2="409.93" y2="694.73"/>
    <polyline class="st2" points="415.75 691.36 415.87 691.25 409.93 694.73"/>
    <polyline class="st2" points="415.87 691.25 409.93 694.67 409.93 694.73"/>
    <polyline class="st2" points="415.87 691.25 409.99 694.61 409.93 694.67"/>
    <polyline class="st2" points="415.87 691.25 415.99 691.13 409.99 694.61"/>
    <polyline class="st2" points="415.99 691.13 416.05 691.01 409.99 694.61"/>
    <polyline class="st2" points="416.05 690.83 410.05 694.3 416.05 691.01 416.05 690.83"/>
    <polyline class="st2" points="410.05 694.3 409.99 694.48 416.05 691.01"/>
    <line class="st2" x1="409.99" y1="694.48" x2="409.99" y2="694.61"/>
    <line class="st2" x1="410.05" y1="694.3" x2="409.09" y2="694.3"/>
    <polyline class="st2" points="402.43 694.3 401.47 694.3 402.43 694.36"/>
    <polyline class="st2" points="408.85 694.42 409.99 694.48 410.05 694.3"/>
    <polyline class="st2" points="401.47 694.3 401.53 694.48 402.67 694.48"/>
    <line class="st2" x1="408.85" y1="694.48" x2="409.99" y2="694.48"/>
    <polyline class="st2" points="401.53 694.48 401.53 694.61 402.85 694.55"/>
    <line class="st2" x1="408.79" y1="694.48" x2="409.99" y2="694.48"/>
    <line class="st2" x1="401.59" y1="694.67" x2="403.03" y2="694.67"/>
    <polyline class="st2" points="408.49 694.67 409.93 694.67 408.49 694.67"/>
    <polyline class="st2" points="402.91 694.61 401.53 694.61 401.59 694.67"/>
    <polyline class="st2" points="409.93 694.67 409.99 694.61 408.61 694.61"/>
    <line class="st2" x1="402.91" y1="694.61" x2="401.53" y2="694.61"/>
    <line class="st2" x1="409.99" y1="694.61" x2="409.99" y2="694.48"/>
    <polyline class="st2" points="401.59 694.67 401.65 694.73 403.09 694.73"/>
    <line class="st2" x1="408.49" y1="694.67" x2="409.93" y2="694.67"/>
    <line class="st2" x1="401.65" y1="694.73" x2="403.15" y2="694.73"/>
    <polyline class="st2" points="408.37 694.73 409.93 694.73 409.93 694.67"/>
    <line class="st2" x1="415.87" y1="691.25" x2="415.75" y2="691.36"/>
    <line class="st2" x1="415.99" y1="691.13" x2="415.87" y2="691.25"/>
    <line class="st2" x1="416.05" y1="690.83" x2="416.05" y2="691.01"/>
    <line class="st2" x1="416.05" y1="691.01" x2="415.99" y2="691.13"/>
    <polyline class="st2" points="401.47 694.3 395.47 690.83 401.53 694.48 401.47 694.3"/>
    <polyline class="st2" points="395.47 690.83 395.47 691.01 401.53 694.48"/>
    <polyline class="st2" points="395.47 691.01 395.53 691.13 401.53 694.48"/>
    <polyline class="st2" points="395.65 691.25 401.59 694.67 395.53 691.13 395.65 691.25"/>
    <polyline class="st2" points="401.59 694.67 401.53 694.61 395.53 691.13"/>
    <line class="st2" x1="401.53" y1="694.61" x2="401.53" y2="694.48"/>
    <polyline class="st2" points="395.65 691.25 395.77 691.36 401.59 694.67"/>
    <polyline class="st2" points="395.77 691.36 401.65 694.73 401.59 694.67"/>
    <line class="st2" x1="395.47" y1="691.01" x2="395.47" y2="690.83"/>
    <line class="st2" x1="395.65" y1="691.25" x2="395.53" y2="691.13"/>
    <line class="st2" x1="395.53" y1="691.13" x2="395.47" y2="691.01"/>
    <line class="st2" x1="395.77" y1="691.36" x2="395.65" y2="691.25"/>
    <line class="st2" x1="395.47" y1="690.83" x2="395.47" y2="690.29"/>
    <line class="st2" x1="-421.93" y1="-89.33" x2="-421.93" y2="-89.33"/>
    <line class="st2" x1="-421.93" y1="-89.33" x2="-421.93" y2="-89.33"/>
    <line class="st2" x1="-421.93" y1="-89.33" x2="-421.93" y2="-89.33"/>
    <line class="st2" x1="-421.93" y1="-89.33" x2="-421.93" y2="-89.33"/>
    <line class="st2" x1="410.05" y1="694.3" x2="410.05" y2="693.77"/>
    <line class="st2" x1="401.47" y1="694.3" x2="402.43" y2="694.3"/>
    <line class="st2" x1="409.09" y1="694.3" x2="410.05" y2="694.3"/>
    <line class="st2" x1="401.47" y1="694.3" x2="401.47" y2="693.77"/>
    <line class="st2" x1="395.47" y1="690.83" x2="401.47" y2="694.3"/>
    <line class="st2" x1="416.05" y1="690.83" x2="416.05" y2="690.29"/>
    <line class="st2" x1="410.05" y1="694.3" x2="416.05" y2="690.83"/>
  </g>
  <g id="Layer_2">
    <line class="st1" x1="583.21" y1="5.81" x2="831.67" y2="149.21"/>
    <polyline class="st1" points="583.21 5.81 157.33 251.69 157.33 261.95 405.79 405.41"/>
    <line class="st1" x1="831.67" y1="149.21" x2="405.79" y2="395.15"/>
    <line class="st1" x1="405.79" y1="405.41" x2="831.67" y2="159.47"/>
    <polyline class="st1" points="405.79 405.41 405.79 395.15 157.33 251.69"/>
    <line class="st1" x1="831.67" y1="159.47" x2="831.67" y2="149.21"/>
  </g>
  <line class="st0" x1="830.71" y1="486.41" x2="406.73" y2="731.26"/>
  <line class="st0" x1="406.73" y1="731.26" x2="126.42" y2="569.41"/>
  <line class="st0" x1="126.42" y1="533.51" x2="126.42" y2="233.15"/>
  <circle class="st3" cx="126.42" cy="533.51" r="3.98"/>
  <circle class="st3" cx="126.42" cy="237.13" r="3.98"/>
  <circle class="st3" cx="126.42" cy="569.41" r="3.98"/>
  <circle class="st3" cx="406.73" cy="731.26" r="3.98"/>
  <circle class="st3" cx="830.71" cy="486.41" r="3.98"/>
  <path d="M111.48,394.03c0-8.37-4.14-12.96-11.97-12.96s-12.24,4.68-12.24,12.96v26.91h-4.59v-64.08h4.59v25.83c3.24-3.78,7.47-5.67,12.78-5.67,9.99,0,16.02,6.12,16.02,16.2v27.72h-4.59v-26.91Z"/>
  <path d="M243.16,710.27c-3.87,5.04-7.92,6.12-12.87,6.12-4.59,0-8.37-1.53-10.62-3.78-4.41-4.41-5.58-11.61-5.58-18.45s1.17-14.04,5.58-18.45c2.25-2.25,6.03-3.78,10.62-3.78,4.95,0,9,1.08,12.87,6.12v-26.28h4.59v64.08h-4.59v-5.58ZM230.92,675.98c-10.62,0-12.24,9.18-12.24,18.18s1.62,18.18,12.24,18.18,12.24-9.18,12.24-18.18-1.62-18.18-12.24-18.18Z"/>
  <path d="M655.22,665.9l-12.24-36.18-12.24,36.18h-4.68l-13.86-43.38h5.04l11.07,37.98,12.42-37.98h4.5l12.42,37.98,11.07-37.98h5.04l-13.86,43.38h-4.68Z"/>
</svg>