<?xml version="1.0" encoding="UTF-8"?>
<svg xmlns="http://www.w3.org/2000/svg" version="1.1" viewBox="0 0 2685.21 1672.54">
  <!-- Generator: Adobe Illustrator 30.3.0, SVG Export Plug-In . SVG Version: 2.1.3 Build 182)  -->
  <defs>
    <style>
      .st0 {
        fill: #fff;
      }

      .st1 {
        font-family: Lato-Regular, Lato;
        font-size: 50.28px;
      }

      .st2, .st3 {
        fill: none;
        stroke: #000;
        stroke-linecap: round;
        stroke-linejoin: round;
      }

      .st3 {
        fill-rule: evenodd;
      }
    </style>
  </defs>
  <g id="Layer_6">
    <g>
      <line class="st2" x1="573.29" y1="1232.33" x2="1072.9" y2="1232.33"/>
      <g>
        <path class="st0" d="M1072.69,1236.09c2.08,0,3.76-1.68,3.76-3.76s-1.68-3.76-3.76-3.76-3.76,1.68-3.76,3.76,1.68,3.76,3.76,3.76Z"/>
        <path d="M1072.69,1236.59c-2.35,0-4.26-1.91-4.26-4.26s1.91-4.26,4.26-4.26,4.26,1.91,4.26,4.26-1.91,4.26-4.26,4.26,2.35,0,0,0ZM1072.69,1229.07c-1.8,0-3.26,1.46-3.26,3.26s1.46,3.26,3.26,3.26,3.26-1.46,3.26-3.26-1.46-3.26-3.26-3.26,1.8,0,0,0Z"/>
      </g>
    </g>
    <g>
      <line class="st2" x1="1029.8" y1="1495.48" x2="1529.42" y2="1495.48"/>
      <g>
        <path class="st0" d="M1529.21,1499.24c2.08,0,3.76-1.68,3.76-3.76s-1.68-3.76-3.76-3.76-3.76,1.68-3.76,3.76,1.68,3.76,3.76,3.76Z"/>
        <path d="M1529.21,1499.74c-2.35,0-4.26-1.91-4.26-4.26s1.91-4.26,4.26-4.26,4.26,1.91,4.26,4.26-1.91,4.26-4.26,4.26,2.35,0,0,0ZM1529.21,1492.22c-1.8,0-3.26,1.46-3.26,3.26s1.46,3.26,3.26,3.26,3.26-1.46,3.26-3.26-1.46-3.26-3.26-3.26,1.8,0,0,0Z"/>
      </g>
    </g>
    <g>
      <line class="st2" x1="102.47" y1="963.96" x2="602.09" y2="963.96"/>
      <g>
        <path class="st0" d="M601.88,967.72c2.08,0,3.76-1.68,3.76-3.76s-1.68-3.76-3.76-3.76-3.76,1.68-3.76,3.76,1.68,3.76,3.76,3.76Z"/>
        <path d="M601.88,968.22c-2.35,0-4.26-1.91-4.26-4.26s1.91-4.26,4.26-4.26,4.26,1.91,4.26,4.26-1.91,4.26-4.26,4.26,2.35,0,0,0ZM601.88,960.7c-1.8,0-3.26,1.46-3.26,3.26s1.46,3.26,3.26,3.26,3.26-1.46,3.26-3.26-1.46-3.26-3.26-3.26,1.8,0,0,0Z"/>
      </g>
    </g>
    <g>
      <line class="st2" x1="2422.94" y1="561.36" x2="2115.54" y2="561.36"/>
      <g>
        <path class="st0" d="M2115.75,557.6c-2.08,0-3.76,1.68-3.76,3.76s1.68,3.76,3.76,3.76,3.76-1.68,3.76-3.76-1.68-3.76-3.76-3.76Z"/>
        <path d="M2115.75,557.1c2.35,0,4.26,1.91,4.26,4.26s-1.91,4.26-4.26,4.26-4.26-1.91-4.26-4.26,1.91-4.26,4.26-4.26-2.35,0,0,0ZM2115.75,564.62c1.8,0,3.26-1.46,3.26-3.26s-1.46-3.26-3.26-3.26-3.26,1.46-3.26,3.26,1.46,3.26,3.26,3.26-1.8,0,0,0Z"/>
      </g>
    </g>
    <g>
      <g>
        <polyline class="st3" points="765.98 481.85 765.5 482.13 1343.39 815.77 1343.87 815.5 765.98 481.85"/>
        <polyline class="st3" points="765.5 645.93 1343.39 979.57 1345.29 978.47 1344.34 977.92 1343.39 978.47 766.45 645.38 765.5 645.93"/>
        <polyline class="st3" points="766.45 809.18 765.5 809.73 1343.39 1143.37 1345.29 1142.27 1344.34 1141.72 1343.39 1142.27 766.45 809.18"/>
        <line class="st2" x1="765.98" y1="481.85" x2="765.5" y2="482.13"/>
        <line class="st2" x1="765.5" y1="482.13" x2="765.5" y2="644.83"/>
        <line class="st2" x1="765.5" y1="482.13" x2="1343.39" y2="815.77"/>
        <line class="st2" x1="1343.39" y1="815.77" x2="1343.39" y2="978.47"/>
        <line class="st2" x1="1343.39" y1="978.47" x2="765.5" y2="644.83"/>
        <line class="st2" x1="1345.29" y1="978.47" x2="1344.34" y2="977.92"/>
        <line class="st2" x1="766.45" y1="645.38" x2="765.5" y2="645.93"/>
        <line class="st2" x1="765.5" y1="645.93" x2="765.5" y2="808.63"/>
        <line class="st2" x1="765.5" y1="645.93" x2="1343.39" y2="979.57"/>
        <line class="st2" x1="1343.39" y1="979.57" x2="1343.39" y2="1142.27"/>
        <line class="st2" x1="1343.39" y1="1142.27" x2="765.5" y2="808.63"/>
        <line class="st2" x1="766.45" y1="809.18" x2="765.5" y2="809.73"/>
        <line class="st2" x1="765.5" y1="809.73" x2="765.5" y2="972.43"/>
        <line class="st2" x1="765.5" y1="809.73" x2="1343.39" y2="1143.37"/>
        <line class="st2" x1="1343.39" y1="1143.37" x2="1343.39" y2="1306.07"/>
        <line class="st2" x1="1343.39" y1="1306.07" x2="765.5" y2="972.43"/>
        <line class="st2" x1="1056.82" y1="502.47" x2="1155.83" y2="445.31"/>
        <line class="st2" x1="1155.83" y1="445.31" x2="1735.63" y2="780.04"/>
        <line class="st2" x1="1735.63" y1="780.04" x2="1636.92" y2="837.04"/>
        <line class="st2" x1="883.08" y1="402.16" x2="764.07" y2="470.86"/>
        <line class="st2" x1="764.07" y1="470.86" x2="764.07" y2="480.75"/>
        <line class="st2" x1="764.07" y1="470.86" x2="1343.87" y2="805.6"/>
        <line class="st2" x1="1343.87" y1="805.6" x2="1343.87" y2="815.5"/>
        <line class="st2" x1="1343.87" y1="815.5" x2="764.07" y2="480.75"/>
        <line class="st2" x1="1343.87" y1="805.6" x2="1462.87" y2="736.9"/>
        <line class="st2" x1="1462.87" y1="736.9" x2="883.08" y2="402.16"/>
        <line class="st2" x1="775.02" y1="977.93" x2="775.02" y2="1068.07"/>
        <path class="st2" d="M1354.81,1311.88"/>
        <line class="st2" x1="1354.88" y1="1401.33" x2="775.02" y2="1068.07"/>
      </g>
      <g>
        <line class="st2" x1="1344.43" y1="816.34" x2="1345.38" y2="815.79"/>
        <line class="st2" x1="1344.43" y1="978.77" x2="1344.43" y2="816.34"/>
        <line class="st2" x1="1732.24" y1="1040.24" x2="1733.19" y2="1039.69"/>
        <line class="st2" x1="1344.43" y1="816.34" x2="1732.24" y2="1040.24"/>
        <line class="st2" x1="1732.24" y1="1202.67" x2="1734.13" y2="1201.58"/>
        <line class="st2" x1="1734.13" y1="1201.58" x2="1734.13" y2="1040.24"/>
        <line class="st2" x1="1732.24" y1="1040.24" x2="1732.24" y2="1202.67"/>
        <line class="st2" x1="1732.24" y1="1202.67" x2="1344.43" y2="978.77"/>
        <line class="st2" x1="1344.43" y1="979.87" x2="1345.38" y2="979.32"/>
        <line class="st2" x1="1344.43" y1="1142.31" x2="1344.43" y2="979.87"/>
        <line class="st2" x1="1732.24" y1="1203.77" x2="1734.13" y2="1202.67"/>
        <line class="st2" x1="1734.13" y1="1202.67" x2="1733.18" y2="1202.12"/>
        <line class="st2" x1="1344.43" y1="979.87" x2="1732.24" y2="1203.77"/>
        <line class="st2" x1="1732.24" y1="1366.21" x2="1734.13" y2="1365.11"/>
        <line class="st2" x1="1734.13" y1="1365.11" x2="1734.13" y2="1202.67"/>
        <line class="st2" x1="1732.24" y1="1203.77" x2="1732.24" y2="1366.21"/>
        <line class="st2" x1="1732.24" y1="1366.21" x2="1344.43" y2="1142.31"/>
        <line class="st2" x1="1344.43" y1="1143.41" x2="1345.38" y2="1142.86"/>
        <line class="st2" x1="1344.43" y1="1305.84" x2="1344.43" y2="1143.41"/>
        <line class="st2" x1="1732.24" y1="1367.3" x2="1734.13" y2="1366.21"/>
        <line class="st2" x1="1734.13" y1="1366.21" x2="1733.18" y2="1365.66"/>
        <line class="st2" x1="1344.43" y1="1143.41" x2="1732.24" y2="1367.3"/>
        <line class="st2" x1="1732.24" y1="1529.74" x2="1734.13" y2="1528.64"/>
        <line class="st2" x1="1734.13" y1="1528.64" x2="1734.13" y2="1366.21"/>
        <line class="st2" x1="1732.24" y1="1367.3" x2="1732.24" y2="1529.74"/>
        <line class="st2" x1="1732.24" y1="1529.74" x2="1344.43" y2="1305.84"/>
        <line class="st2" x1="1737.94" y1="1529.74" x2="1736.04" y2="1528.64"/>
        <line class="st2" x1="2125.75" y1="1305.84" x2="1737.94" y2="1529.74"/>
        <line class="st2" x1="1737.94" y1="1367.3" x2="1736.04" y2="1366.21"/>
        <line class="st2" x1="1736.04" y1="1366.21" x2="1736.04" y2="1528.64"/>
        <line class="st2" x1="1737.94" y1="1529.74" x2="1737.94" y2="1367.3"/>
        <line class="st2" x1="2125.75" y1="1143.41" x2="2124.8" y2="1142.86"/>
        <line class="st2" x1="1736.99" y1="1365.66" x2="1736.04" y2="1366.21"/>
        <line class="st2" x1="1737.94" y1="1367.3" x2="2125.75" y2="1143.41"/>
        <line class="st2" x1="2125.75" y1="1143.41" x2="2125.75" y2="1305.84"/>
        <line class="st2" x1="1737.94" y1="1366.21" x2="1736.04" y2="1365.11"/>
        <line class="st2" x1="2125.75" y1="1142.31" x2="1737.94" y2="1366.21"/>
        <line class="st2" x1="1737.94" y1="1203.77" x2="1736.04" y2="1202.67"/>
        <line class="st2" x1="1736.04" y1="1202.67" x2="1736.04" y2="1365.11"/>
        <line class="st2" x1="1737.94" y1="1366.21" x2="1737.94" y2="1203.77"/>
        <line class="st2" x1="2125.75" y1="979.87" x2="2124.8" y2="979.32"/>
        <line class="st2" x1="1736.99" y1="1202.12" x2="1736.04" y2="1202.67"/>
        <line class="st2" x1="1737.94" y1="1203.77" x2="2125.75" y2="979.87"/>
        <line class="st2" x1="2125.75" y1="979.87" x2="2125.75" y2="1142.31"/>
        <line class="st2" x1="1737.94" y1="1202.67" x2="1736.04" y2="1201.58"/>
        <line class="st2" x1="2125.75" y1="978.77" x2="1737.94" y2="1202.67"/>
        <line class="st2" x1="1737.94" y1="1040.24" x2="1736.99" y2="1039.69"/>
        <line class="st2" x1="1736.04" y1="1040.24" x2="1736.04" y2="1201.58"/>
        <line class="st2" x1="1737.94" y1="1202.67" x2="1737.94" y2="1040.24"/>
        <line class="st2" x1="2125.75" y1="816.34" x2="2124.8" y2="815.79"/>
        <line class="st2" x1="1737.94" y1="1040.24" x2="2125.75" y2="816.34"/>
        <line class="st2" x1="2125.75" y1="816.34" x2="2125.75" y2="978.77"/>
        <path class="st2" d="M2115.29,1401.33"/>
        <path class="st2" d="M2126.22,1400.08"/>
        <path class="st2" d="M2126.22,1270.03"/>
        <line class="st2" x1="2126.22" y1="1270.03" x2="2126.22" y2="1197.32"/>
        <line class="st2" x1="2126.22" y1="1197.32" x2="2126.22" y2="1046.14"/>
        <line class="st2" x1="2126.22" y1="1046.14" x2="2126.22" y2="1033.17"/>
        <line class="st2" x1="2126.22" y1="1033.17" x2="2126.22" y2="957.57"/>
        <line class="st2" x1="2126.22" y1="957.57" x2="2126.22" y2="878.21"/>
        <line class="st2" x1="2126.22" y1="878.21" x2="2126.22" y2="840.35"/>
        <line class="st2" x1="2126.22" y1="840.35" x2="2126.22" y2="814.96"/>
        <line class="st2" x1="2007.4" y1="736.49" x2="2015.97" y2="731.55"/>
        <line class="st2" x1="2015.97" y1="731.55" x2="2134.77" y2="800.15"/>
        <path class="st2" d="M2134.77,800.15"/>
        <path class="st2" d="M2111.16,1421.15"/>
        <path class="st2" d="M2122.1,1427.46"/>
        <line class="st2" x1="2134.77" y1="800.15" x2="2126.22" y2="805.09"/>
        <path class="st2" d="M2148.23,1403.71"/>
        <path class="st2" d="M2139.68,1376.82"/>
        <path class="st2" d="M2134.77,1402.69"/>
        <line class="st2" x1="1343.96" y1="805.09" x2="1343.96" y2="805.09"/>
        <line class="st2" x1="1343.96" y1="840.35" x2="1343.96" y2="878.21"/>
        <line class="st2" x1="1343.96" y1="878.21" x2="1343.96" y2="957.57"/>
        <line class="st2" x1="1343.96" y1="957.57" x2="1343.96" y2="1033.17"/>
        <line class="st2" x1="1343.96" y1="1033.17" x2="1343.96" y2="1046.14"/>
        <line class="st2" x1="1343.96" y1="1046.14" x2="1343.96" y2="1197.32"/>
        <line class="st2" x1="1343.96" y1="1197.32" x2="1343.96" y2="1270.03"/>
        <line class="st2" x1="2007.4" y1="736.49" x2="2126.22" y2="805.09"/>
        <line class="st2" x1="1735.08" y1="893.71" x2="2007.4" y2="736.49"/>
        <line class="st2" x1="2126.22" y1="805.09" x2="1735.08" y2="1030.91"/>
        <line class="st2" x1="1735.08" y1="1030.91" x2="1735.08" y2="1040.78"/>
        <line class="st2" x1="1735.08" y1="1040.78" x2="1893.1" y2="949.55"/>
        <line class="st2" x1="1893.1" y1="949.55" x2="1978.18" y2="900.44"/>
        <line class="st2" x1="1978.18" y1="900.44" x2="2052.56" y2="857.49"/>
        <line class="st2" x1="1735.08" y1="893.71" x2="1735.08" y2="1030.91"/>
        <line class="st2" x1="1343.96" y1="814.96" x2="1343.96" y2="805.09"/>
        <line class="st2" x1="1343.96" y1="805.09" x2="1462.76" y2="736.49"/>
        <line class="st2" x1="1735.08" y1="893.71" x2="1462.76" y2="736.49"/>
        <line class="st2" x1="1343.96" y1="805.09" x2="1735.08" y2="1030.91"/>
        <line class="st2" x1="1608.44" y1="967.66" x2="1694.93" y2="1017.6"/>
        <line class="st2" x1="1694.93" y1="1017.6" x2="1735.08" y2="1040.78"/>
        <line class="st2" x1="1343.96" y1="814.96" x2="1388.51" y2="840.68"/>
        <line class="st2" x1="1388.51" y1="840.68" x2="1417.62" y2="857.49"/>
        <line class="st2" x1="1417.62" y1="857.49" x2="1492" y2="900.44"/>
        <line class="st2" x1="1492" y1="900.44" x2="1608.44" y2="967.66"/>
        <line class="st2" x1="1735.08" y1="779.57" x2="1833.94" y2="836.64"/>
        <line class="st2" x1="1735.08" y1="779.57" x2="1636.23" y2="836.64"/>
        <line class="st2" x1="1734.13" y1="1524.24" x2="1735.08" y2="1524.79"/>
        <line class="st2" x1="1735.08" y1="1524.79" x2="1735.08" y2="1040.78"/>
        <line class="st2" x1="1735.08" y1="1524.79" x2="1736.04" y2="1524.25"/>
        <line class="st2" x1="2115.28" y1="1311.88" x2="2115.28" y2="1401.33"/>
        <line class="st2" x1="1726.53" y1="1526.45" x2="1726.53" y2="1551.28"/>
        <line class="st2" x1="1726.53" y1="1551.28" x2="1726.53" y2="1566.24"/>
        <path class="st2" d="M1735.08,1620.83"/>
        <path class="st2" d="M1726.53,1584.06"/>
        <line class="st2" x1="1735.08" y1="1620.83" x2="1735.08" y2="1524.79"/>
        <line class="st2" x1="1726.53" y1="1608.34" x2="1726.53" y2="1584.06"/>
        <line class="st2" x1="1735.08" y1="1620.83" x2="1726.53" y2="1615.89"/>
        <line class="st2" x1="1726.53" y1="1615.89" x2="1726.53" y2="1608.34"/>
        <line class="st2" x1="1741.5" y1="1617.12" x2="1735.08" y2="1620.83"/>
        <path class="st2" d="M1735.08,1610.95"/>
        <path class="st2" d="M1852.7,1543.05"/>
        <path class="st2" d="M1852.7,1543.05"/>
        <path class="st2" d="M2070.84,1417.11"/>
        <path class="st2" d="M2115.28,1401.33"/>
        <path class="st2" d="M2070.84,1417.11"/>
        <line class="st2" x1="2115.28" y1="1401.33" x2="2013.11" y2="1460.32"/>
        <line class="st2" x1="2013.11" y1="1460.32" x2="1837.27" y2="1561.85"/>
        <line class="st2" x1="1837.27" y1="1561.85" x2="1741.5" y2="1617.12"/>
        <line class="st2" x1="1354.88" y1="1401.33" x2="1354.88" y2="1311.88"/>
        <line class="st2" x1="1726.53" y1="1615.89" x2="1720.12" y2="1612.19"/>
        <path class="st2" d="M1698.85,1590.03"/>
        <path class="st2" d="M1615.68,1542.02"/>
        <line class="st2" x1="1720.12" y1="1612.19" x2="1626.49" y2="1558.14"/>
        <line class="st2" x1="1626.49" y1="1558.14" x2="1454.93" y2="1459.09"/>
        <line class="st2" x1="1454.93" y1="1459.09" x2="1354.88" y2="1401.33"/>
        <path class="st2" d="M1698.85,1590.03"/>
        <path class="st2" d="M1726.53,1606.01"/>
        <line class="st2" x1="1726.53" y1="1566.24" x2="1726.53" y2="1584.06"/>
        <path class="st2" d="M1726.53,1541.62"/>
        <path class="st2" d="M1726.53,1535.41"/>
        <path class="st2" d="M1726.53,1552.97"/>
        <path class="st2" d="M1726.53,1559.18"/>
        <line class="st2" x1="2126.22" y1="805.09" x2="2126.22" y2="805.09"/>
        <line class="st2" x1="1343.96" y1="814.96" x2="1343.96" y2="840.35"/>
        <line class="st2" x1="2126.22" y1="805.09" x2="2126.22" y2="814.96"/>
        <line class="st2" x1="2081.66" y1="840.68" x2="2052.56" y2="857.49"/>
        <line class="st2" x1="2126.22" y1="814.96" x2="2081.66" y2="840.68"/>
        <path class="st2" d="M2070.84,1417.11"/>
        <line class="st2" x1="2126.22" y1="1029.03" x2="2134.77" y2="1024.09"/>
      </g>
      <g>
        <polyline class="st3" points="375.53 257 375.53 258.1 376.48 257.55 375.53 257"/>
        <polyline class="st3" points="375.53 421.75 376.48 421.2 375.53 420.65 375.53 421.75"/>
        <polyline class="st3" points="375.53 585.4 376.48 584.85 375.53 584.3 375.53 585.4"/>
        <line class="st2" x1="375.53" y1="257" x2="375.53" y2="258.1"/>
        <line class="st2" x1="375.53" y1="420.65" x2="375.53" y2="421.75"/>
        <line class="st2" x1="375.53" y1="584.3" x2="375.53" y2="585.4"/>
        <line class="st2" x1="764.07" y1="971.72" x2="763.6" y2="972"/>
        <line class="st2" x1="763.6" y1="972" x2="375.53" y2="747.94"/>
        <line class="st2" x1="375.53" y1="585.4" x2="376.48" y2="584.85"/>
        <line class="st2" x1="375.53" y1="747.94" x2="375.53" y2="585.4"/>
        <line class="st2" x1="763.6" y1="809.45" x2="764.07" y2="809.17"/>
        <line class="st2" x1="375.53" y1="585.4" x2="763.6" y2="809.45"/>
        <line class="st2" x1="763.6" y1="809.45" x2="763.6" y2="972"/>
        <line class="st2" x1="764.07" y1="808.08" x2="763.6" y2="808.35"/>
        <line class="st2" x1="763.6" y1="808.35" x2="375.53" y2="584.3"/>
        <line class="st2" x1="375.53" y1="421.75" x2="376.48" y2="421.2"/>
        <line class="st2" x1="375.53" y1="584.3" x2="375.53" y2="421.75"/>
        <line class="st2" x1="763.6" y1="645.8" x2="764.07" y2="645.53"/>
        <line class="st2" x1="375.53" y1="421.75" x2="763.6" y2="645.8"/>
        <line class="st2" x1="763.6" y1="645.8" x2="763.6" y2="808.35"/>
        <line class="st2" x1="764.07" y1="644.43" x2="763.6" y2="644.7"/>
        <line class="st2" x1="763.6" y1="644.7" x2="375.53" y2="420.65"/>
        <line class="st2" x1="375.53" y1="258.1" x2="376.48" y2="257.55"/>
        <line class="st2" x1="375.53" y1="420.65" x2="375.53" y2="258.1"/>
        <line class="st2" x1="763.6" y1="482.15" x2="764.07" y2="481.88"/>
        <line class="st2" x1="375.53" y1="258.1" x2="763.6" y2="482.15"/>
        <line class="st2" x1="763.6" y1="482.15" x2="763.6" y2="644.7"/>
        <line class="st2" x1="764.07" y1="481.33" x2="764.07" y2="481.33"/>
        <line class="st2" x1="882.97" y1="288.58" x2="882.97" y2="98.02"/>
        <line class="st2" x1="772.64" y1="14.55" x2="891.53" y2="83.2"/>
        <line class="st2" x1="891.53" y1="83.2" x2="891.53" y2="293.52"/>
        <line class="st2" x1="891.53" y1="83.2" x2="882.97" y2="88.14"/>
        <line class="st2" x1="772.64" y1="14.55" x2="764.07" y2="19.5"/>
        <line class="st2" x1="764.07" y1="481.33" x2="372.67" y2="255.36"/>
        <line class="st2" x1="610.46" y1="245.47" x2="882.97" y2="402.8"/>
        <line class="st2" x1="764.07" y1="471.45" x2="372.67" y2="245.47"/>
        <line class="st2" x1="372.67" y1="245.47" x2="372.67" y2="255.36"/>
        <line class="st2" x1="610.46" y1="245.47" x2="372.67" y2="245.47"/>
        <line class="st2" x1="610.46" y1="245.47" x2="882.97" y2="88.14"/>
        <line class="st2" x1="882.97" y1="88.14" x2="764.07" y2="19.5"/>
        <line class="st2" x1="764.07" y1="19.5" x2="372.67" y2="245.47"/>
        <line class="st2" x1="619.02" y1="250.41" x2="882.97" y2="98.02"/>
        <line class="st2" x1="882.97" y1="98.02" x2="882.97" y2="88.14"/>
        <line class="st2" x1="775.01" y1="226.25" x2="676.1" y2="283.36"/>
        <line class="st2" x1="1057.51" y1="502.47" x2="1155.48" y2="445.91"/>
        <line class="st2" x1="1155.48" y1="445.91" x2="882.97" y2="288.58"/>
        <line class="st2" x1="882.97" y1="288.58" x2="775.01" y2="226.25"/>
        <line class="st2" x1="775.01" y1="160.35" x2="775.01" y2="226.25"/>
        <line class="st2" x1="394.55" y1="758.93" x2="394.55" y2="848.44"/>
        <line class="st2" x1="384.67" y1="844.63" x2="775.02" y2="1068.07"/>
        <line class="st2" x1="384.67" y1="755.12" x2="384.67" y2="844.63"/>
      </g>
      <g>
        <line class="st2" x1="2503.24" y1="1087.81" x2="2126.09" y2="1305.55"/>
        <line class="st2" x1="2503.57" y1="965.85" x2="2503.57" y2="1087.28"/>
        <line class="st2" x1="2503.57" y1="1087.28" x2="2503.44" y2="1087.62"/>
        <line class="st2" x1="2503.44" y1="1087.62" x2="2503.37" y2="1087.7"/>
        <line class="st2" x1="2503.37" y1="1087.7" x2="2503.54" y2="1087.42"/>
        <line class="st2" x1="2503.54" y1="1087.42" x2="2503.5" y2="1087.51"/>
        <line class="st2" x1="2503.5" y1="1087.51" x2="2503.24" y2="1087.81"/>
        <line class="st2" x1="2503.24" y1="1087.81" x2="2503.28" y2="1087.78"/>
        <line class="st2" x1="2225.76" y1="1085.58" x2="2126.09" y2="1143.12"/>
        <polyline class="st2" points="2213.07 1080.14 2126.09 1029.93 2125.54 1029.61"/>
        <line class="st2" x1="2213.07" y1="1080.15" x2="2221.47" y2="1084.24"/>
        <line class="st2" x1="2221.47" y1="1084.24" x2="2235.65" y2="1088.65"/>
        <line class="st2" x1="2235.65" y1="1088.65" x2="2251.27" y2="1090.92"/>
        <line class="st2" x1="2251.27" y1="1090.92" x2="2267.38" y2="1090.92"/>
        <line class="st2" x1="2267.38" y1="1090.92" x2="2283" y2="1088.65"/>
        <line class="st2" x1="2283" y1="1088.65" x2="2297.18" y2="1084.24"/>
        <line class="st2" x1="2297.18" y1="1084.24" x2="2305.59" y2="1080.15"/>
        <line class="st2" x1="2305.59" y1="1080.15" x2="2312.79" y2="1076"/>
        <line class="st2" x1="2312.79" y1="1076" x2="2386.42" y2="1033.48"/>
        <line class="st2" x1="2386.42" y1="1033.48" x2="2516.47" y2="958.4"/>
        <line class="st2" x1="2516.47" y1="958.4" x2="2590.11" y2="915.88"/>
        <line class="st2" x1="2590.11" y1="915.88" x2="2605.81" y2="906.81"/>
        <line class="st2" x1="2605.81" y1="906.81" x2="2612.91" y2="901.96"/>
        <line class="st2" x1="2612.91" y1="901.96" x2="2620.54" y2="893.78"/>
        <line class="st2" x1="2620.54" y1="893.78" x2="2624.47" y2="884.76"/>
        <line class="st2" x1="2305.59" y1="1070.34" x2="2605.81" y2="897"/>
        <line class="st2" x1="2221.47" y1="1074.43" x2="2213.07" y2="1070.34"/>
        <path class="st2" d="M1731.58,792.35"/>
        <line class="st2" x1="2213.07" y1="1070.34" x2="2134.44" y2="1023.76"/>
        <line class="st2" x1="1726.39" y1="786.97" x2="2116.99" y2="561.36"/>
        <line class="st2" x1="2116.99" y1="561.36" x2="2605.81" y2="843.59"/>
        <line class="st2" x1="2605.81" y1="843.59" x2="2612.91" y2="848.44"/>
        <line class="st2" x1="2612.91" y1="848.44" x2="2620.54" y2="856.62"/>
        <line class="st2" x1="2620.54" y1="856.62" x2="2624.47" y2="865.64"/>
        <line class="st2" x1="2624.47" y1="865.64" x2="2624.47" y2="874.95"/>
        <line class="st2" x1="2624.47" y1="874.95" x2="2620.54" y2="883.97"/>
        <line class="st2" x1="2620.54" y1="883.97" x2="2612.91" y2="892.15"/>
        <line class="st2" x1="2612.91" y1="892.15" x2="2605.81" y2="897"/>
        <line class="st2" x1="2305.59" y1="1070.34" x2="2297.18" y2="1074.43"/>
        <line class="st2" x1="2297.18" y1="1074.43" x2="2283" y2="1078.84"/>
        <line class="st2" x1="2283" y1="1078.84" x2="2267.38" y2="1081.11"/>
        <line class="st2" x1="2267.38" y1="1081.11" x2="2251.27" y2="1081.11"/>
        <line class="st2" x1="2251.27" y1="1081.11" x2="2235.65" y2="1078.84"/>
        <line class="st2" x1="2235.65" y1="1078.84" x2="2221.47" y2="1074.43"/>
        <line class="st2" x1="2624.47" y1="884.76" x2="2624.47" y2="874.95"/>
        <polyline class="st2" points="2493.46 1183.36 2135.29 1391.18 2126.8 1396.08 2115.29 1401.33"/>
        <line class="st2" x1="2493.46" y1="1093.46" x2="2493.46" y2="1183.36"/>
        <path class="st2" d="M2125.12,1029.38"/>
      </g>
      <line class="st2" x1="2134.77" y1="1024.09" x2="2134.77" y2="800.15"/>
      <line class="st2" x1="2493.46" y1="1182.59" x2="2503.57" y2="1187.52"/>
      <line class="st2" x1="2503.57" y1="1187.52" x2="2503.57" y2="1179.97"/>
      <line class="st2" x1="2503.57" y1="1179.97" x2="2503.57" y2="1090.01"/>
      <line class="st2" x1="2512.12" y1="961.02" x2="2512.12" y2="1182.59"/>
      <line class="st2" x1="2512.12" y1="1182.59" x2="2503.57" y2="1187.52"/>
    </g>
  </g>
  <g id="Layer_2">
    <text class="st1" transform="translate(569.07 1222.14)"><tspan x="0" y="0">RC802</tspan></text>
    <text class="st1" transform="translate(1025.59 1485.29)"><tspan x="0" y="0">RC803</tspan></text>
    <text class="st1" transform="translate(98.26 953.77)"><tspan x="0" y="0">RC803</tspan></text>
    <text class="st1" transform="translate(2243.11 551.17)"><tspan x="0" y="0">RC804L</tspan></text>
  </g>
</svg>