<?xml version="1.0" encoding="UTF-8"?>
<svg xmlns="http://www.w3.org/2000/svg" version="1.1" viewBox="0 0 2685.21 1672.54">
  <!-- Generator: Adobe Illustrator 30.3.0, SVG Export Plug-In . SVG Version: 2.1.3 Build 182)  -->
  <defs>
    <style>
      .st0 {
        font-family: Lato-Regular, Lato;
        font-size: 50.28px;
      }

      .st0, .st1 {
        isolation: isolate;
      }

      .st1, .st2 {
        display: none;
      }

      .st3 {
        fill: #fff;
      }

      .st4, .st5 {
        fill: none;
        stroke: #000;
        stroke-linecap: round;
        stroke-linejoin: round;
      }

      .st5 {
        stroke-width: .2px;
      }
    </style>
  </defs>
  <g id="Layer_1">
    <g id="Layer_5" class="st2">
      <g>
        <line class="st4" x1="999.12" y1="1352.96" x2="1498.74" y2="1352.96"/>
        <g>
          <path class="st3" d="M1498.52,1356.72c2.08,0,3.76-1.68,3.76-3.76s-1.68-3.76-3.76-3.76-3.76,1.68-3.76,3.76,1.68,3.76,3.76,3.76Z"/>
          <path d="M1498.52,1357.22c-2.35,0-4.26-1.91-4.26-4.26s1.91-4.26,4.26-4.26,4.26,1.91,4.26,4.26-1.91,4.26-4.26,4.26,2.35,0,0,0ZM1498.52,1349.7c-1.8,0-3.26,1.46-3.26,3.26s1.46,3.26,3.26,3.26,3.26-1.46,3.26-3.26-1.46-3.26-3.26-3.26,1.8,0,0,0Z"/>
        </g>
      </g>
      <g>
        <line class="st4" x1="525.06" y1="1085.91" x2="1024.68" y2="1085.91"/>
        <g>
          <path class="st3" d="M1024.47,1089.67c2.08,0,3.76-1.68,3.76-3.76s-1.68-3.76-3.76-3.76-3.76,1.68-3.76,3.76,1.68,3.76,3.76,3.76Z"/>
          <path d="M1024.47,1090.17c-2.35,0-4.26-1.91-4.26-4.26s1.91-4.26,4.26-4.26,4.26,1.91,4.26,4.26-1.91,4.26-4.26,4.26,2.35,0,0,0ZM1024.47,1082.65c-1.8,0-3.26,1.46-3.26,3.26s1.46,3.26,3.26,3.26,3.26-1.46,3.26-3.26-1.46-3.26-3.26-3.26,1.8,0,0,0Z"/>
        </g>
      </g>
      <g class="st1">
        <text class="st0" transform="translate(994.91 1342.77)"><tspan x="0" y="0">RC802FS</tspan></text>
      </g>
      <g class="st1">
        <text class="st0" transform="translate(520.85 1075.72)"><tspan x="0" y="0">RC804R</tspan></text>
      </g>
      <g>
        <line class="st5" x1="1793.11" y1="947.15" x2="1792.64" y2="947.43"/>
        <line class="st5" x1="1792.64" y1="947.43" x2="1792.64" y2="1108.77"/>
        <line class="st5" x1="1792.64" y1="1108.77" x2="1793.11" y2="1108.5"/>
        <line class="st5" x1="1792.64" y1="947.43" x2="1219.57" y2="616.57"/>
        <line class="st5" x1="1219.57" y1="616.57" x2="1219.57" y2="777.91"/>
        <line class="st5" x1="1219.57" y1="777.91" x2="1792.64" y2="1108.77"/>
        <line class="st5" x1="1220.04" y1="616.3" x2="1219.57" y2="616.57"/>
        <line class="st5" x1="1793.11" y1="1109.59" x2="1792.64" y2="1109.86"/>
        <line class="st5" x1="1792.64" y1="1109.86" x2="1792.64" y2="1271.2"/>
        <line class="st5" x1="1792.64" y1="1271.2" x2="1793.11" y2="1270.93"/>
        <line class="st5" x1="1792.64" y1="1109.86" x2="1219.57" y2="779"/>
        <line class="st5" x1="1219.57" y1="779" x2="1219.57" y2="940.34"/>
        <line class="st5" x1="1219.57" y1="940.34" x2="1792.64" y2="1271.2"/>
        <line class="st5" x1="1220.52" y1="778.46" x2="1219.57" y2="779"/>
        <line class="st5" x1="1793.11" y1="1272.02" x2="1792.64" y2="1272.29"/>
        <line class="st5" x1="1792.64" y1="1272.29" x2="1792.64" y2="1433.63"/>
        <line class="st5" x1="1792.64" y1="1433.63" x2="1793.11" y2="1433.36"/>
        <line class="st5" x1="1792.64" y1="1272.29" x2="1219.57" y2="941.43"/>
        <line class="st5" x1="1219.57" y1="941.43" x2="1219.57" y2="1102.77"/>
        <line class="st5" x1="1219.57" y1="1102.77" x2="1792.64" y2="1433.63"/>
        <line class="st5" x1="1220.52" y1="940.89" x2="1219.57" y2="941.43"/>
        <line class="st5" x1="1731.75" y1="911.72" x2="1505.63" y2="781.18"/>
        <line class="st5" x1="1505.63" y1="781.18" x2="1279.53" y2="650.64"/>
        <line class="st5" x1="1279.53" y1="650.64" x2="1218.16" y2="615.21"/>
        <line class="st5" x1="1793.11" y1="937.34" x2="1218.16" y2="605.4"/>
        <line class="st5" x1="1218.16" y1="605.4" x2="1218.16" y2="615.21"/>
        <line class="st5" x1="1218.16" y1="605.4" x2="1218.16" y2="605.41"/>
        <line class="st5" x1="1793.11" y1="937.34" x2="1793.11" y2="947.15"/>
        <line class="st5" x1="1336.17" y1="537.26" x2="1911.12" y2="869.21"/>
        <line class="st5" x1="1336.17" y1="537.26" x2="1218.16" y2="605.4"/>
        <line class="st5" x1="1864.18" y1="896.31" x2="1911.12" y2="869.21"/>
        <line class="st5" x1="1911.12" y1="869.21" x2="1911.07" y2="869.25"/>
        <line class="st5" x1="1911.07" y1="869.25" x2="1911.07" y2="869.25"/>
        <line class="st5" x1="1229.02" y1="1197.61" x2="1229.02" y2="1108.81"/>
        <path class="st5" d="M1229.02,1108.22"/>
        <line class="st5" x1="1235.39" y1="1201.29" x2="1229.02" y2="1197.61"/>
        <line class="st5" x1="1793.11" y1="1523.29" x2="1653.15" y2="1442.49"/>
        <line class="st5" x1="1653.15" y1="1442.49" x2="1379.83" y2="1284.69"/>
        <line class="st5" x1="1379.83" y1="1284.69" x2="1235.39" y2="1201.29"/>
        <path class="st5" d="M1603.31,1324.32"/>
        <line class="st5" x1="1793.11" y1="1252.94" x2="1793.11" y2="1178.95"/>
        <line class="st5" x1="1793.11" y1="1178.95" x2="1793.11" y2="1088.81"/>
        <line class="st5" x1="1793.11" y1="1088.81" x2="1793.11" y2="1009.97"/>
        <line class="st5" x1="1793.11" y1="1009.97" x2="1793.11" y2="972.36"/>
        <line class="st5" x1="1793.11" y1="972.36" x2="1793.11" y2="947.15"/>
        <line class="st5" x1="1801.35" y1="932.58" x2="1806.68" y2="929.51"/>
        <line class="st5" x1="1806.68" y1="929.51" x2="1864.18" y2="896.32"/>
        <line class="st5" x1="1793.11" y1="1390.84" x2="1793.11" y2="1252.94"/>
        <line class="st5" x1="1911.12" y1="869.21" x2="1911.12" y2="869.21"/>
        <line class="st5" x1="1985.08" y1="943.38" x2="2019.63" y2="954.5"/>
        <line class="st5" x1="2019.63" y1="954.5" x2="2042.86" y2="956.45"/>
        <line class="st5" x1="2042.86" y1="956.45" x2="2067.25" y2="955.12"/>
        <line class="st5" x1="2067.25" y1="955.12" x2="2089.51" y2="951.26"/>
        <line class="st5" x1="2089.51" y1="951.26" x2="2092.57" y2="950.54"/>
        <line class="st5" x1="2092.57" y1="950.54" x2="2118.61" y2="942.75"/>
        <line class="st5" x1="2118.61" y1="942.75" x2="2145.12" y2="931.81"/>
        <line class="st5" x1="2145.12" y1="931.81" x2="2168.23" y2="919.72"/>
        <line class="st5" x1="2168.23" y1="919.72" x2="2171.86" y2="917.82"/>
        <line class="st5" x1="2171.86" y1="917.82" x2="2181.6" y2="912"/>
        <line class="st5" x1="1793.11" y1="1535.83" x2="1793.11" y2="1504.22"/>
        <line class="st5" x1="1793.11" y1="1504.22" x2="1793.11" y2="1485.16"/>
        <line class="st5" x1="1793.11" y1="1485.16" x2="1793.11" y2="1473.01"/>
        <line class="st5" x1="1793.11" y1="1473.01" x2="1793.11" y2="1390.84"/>
        <line class="st5" x1="2180.36" y1="922.73" x2="2190.1" y2="916.9"/>
        <line class="st5" x1="2190.1" y1="916.9" x2="2181.6" y2="912"/>
        <line class="st5" x1="1919.61" y1="874.12" x2="1923.57" y2="882.1"/>
        <line class="st5" x1="1911.12" y1="869.21" x2="1919.61" y2="874.12"/>
        <line class="st5" x1="1923.57" y1="882.1" x2="1936.03" y2="902.3"/>
        <line class="st5" x1="1936.03" y1="902.3" x2="1950.66" y2="919.74"/>
        <line class="st5" x1="1950.66" y1="919.74" x2="1967.33" y2="934.29"/>
        <line class="st5" x1="1967.33" y1="934.29" x2="1985.92" y2="945.82"/>
        <line class="st5" x1="1985.92" y1="945.82" x2="2006.24" y2="954.21"/>
        <line class="st5" x1="2006.24" y1="954.21" x2="2028.12" y2="959.41"/>
        <line class="st5" x1="2028.12" y1="959.41" x2="2051.36" y2="961.35"/>
        <line class="st5" x1="2051.36" y1="961.35" x2="2075.75" y2="960.03"/>
        <line class="st5" x1="2075.75" y1="960.03" x2="2101.08" y2="955.45"/>
        <line class="st5" x1="2101.08" y1="955.45" x2="2127.1" y2="947.65"/>
        <line class="st5" x1="2127.1" y1="947.65" x2="2153.61" y2="936.72"/>
        <line class="st5" x1="2153.61" y1="936.72" x2="2180.36" y2="922.73"/>
        <line class="st5" x1="1967.33" y1="934.29" x2="1985.08" y2="943.38"/>
        <line class="st5" x1="2190.1" y1="1316.44" x2="2190.1" y2="916.9"/>
        <line class="st5" x1="1919.61" y1="874.12" x2="1936.03" y2="902.3"/>
        <line class="st5" x1="1919.61" y1="874.12" x2="1801.61" y2="942.25"/>
        <line class="st5" x1="1801.61" y1="942.25" x2="1801.61" y2="1540.74"/>
        <line class="st5" x1="1801.61" y1="1540.74" x2="2190.1" y2="1316.44"/>
        <line class="st5" x1="2181.6" y1="912" x2="2168.23" y2="919.72"/>
        <line class="st5" x1="2181.6" y1="912" x2="1606.65" y2="580.05"/>
        <line class="st5" x1="1606.65" y1="580.05" x2="1593.3" y2="587.76"/>
        <line class="st5" x1="1593.3" y1="587.76" x2="1508.47" y2="636.74"/>
        <path class="st5" d="M1219.57,939.65"/>
        <path class="st5" d="M1218.16,920.99"/>
        <line class="st5" x1="1219.63" y1="940.38" x2="1219.71" y2="941.36"/>
        <line class="st5" x1="1218.16" y1="678.03" x2="1218.16" y2="756.86"/>
        <line class="st5" x1="1218.16" y1="756.86" x2="1218.16" y2="845.91"/>
        <line class="st5" x1="1218.16" y1="845.91" x2="1218.16" y2="920.99"/>
        <line class="st5" x1="1218.16" y1="920.99" x2="1218.16" y2="1058.89"/>
        <line class="st5" x1="1218.16" y1="1058.89" x2="1218.16" y2="1101.95"/>
        <path class="st5" d="M1196.08,1145.98"/>
        <path class="st5" d="M1223.23,1200.96"/>
        <line class="st5" x1="1218.16" y1="605.4" x2="1218.16" y2="605.4"/>
        <line class="st5" x1="1218.16" y1="640.42" x2="1218.16" y2="678.03"/>
        <path class="st5" d="M1570.17,599.86"/>
        <path class="st5" d="M1593.3,587.76"/>
        <path class="st5" d="M1570.17,599.86"/>
        <path class="st5" d="M1485.6,623.54"/>
        <path class="st5" d="M1229.02,1187.8"/>
        <path class="st5" d="M1218.16,1194.07"/>
        <line class="st5" x1="1209.66" y1="600.49" x2="1327.68" y2="532.36"/>
        <path class="st5" d="M1483.8,618.27"/>
        <path class="st5" d="M1477.11,618.63"/>
        <path class="st5" d="M1483.8,618.27"/>
        <path class="st5" d="M1561.67,594.96"/>
        <path class="st5" d="M1561.67,594.96"/>
        <path class="st5" d="M1598.16,575.14"/>
        <line class="st5" x1="1209.66" y1="807.06" x2="1209.66" y2="600.49"/>
        <path class="st5" d="M1561.67,594.96"/>
        <path class="st5" d="M1598.16,575.14"/>
        <line class="st5" x1="1209.66" y1="600.49" x2="1218.16" y2="605.4"/>
        <line class="st5" x1="1327.68" y1="532.36" x2="1336.17" y2="537.26"/>
        <line class="st5" x1="1606.65" y1="580.05" x2="1598.16" y2="575.14"/>
        <path class="st5" d="M1219.57,831.62"/>
        <path class="st5" d="M1219.54,828.35"/>
        <line class="st5" x1="1219.54" y1="828.35" x2="1219.57" y2="828.33"/>
        <line class="st5" x1="1218.71" y1="664.33" x2="1219.57" y2="664.83"/>
        <line class="st5" x1="1218.71" y1="664.33" x2="1218.64" y2="664.27"/>
        <line class="st5" x1="1218.64" y1="664.27" x2="1218.57" y2="664.2"/>
        <line class="st5" x1="1218.57" y1="664.2" x2="1218.51" y2="664.11"/>
        <line class="st5" x1="1218.51" y1="664.11" x2="1218.46" y2="664.01"/>
        <line class="st5" x1="1218.46" y1="664.01" x2="1218.44" y2="663.9"/>
        <line class="st5" x1="1218.44" y1="663.9" x2="1218.41" y2="663.78"/>
        <line class="st5" x1="1218.41" y1="663.78" x2="1218.4" y2="663.65"/>
        <line class="st5" x1="1218.4" y1="663.65" x2="1218.4" y2="663.52"/>
        <line class="st5" x1="1218.4" y1="663.52" x2="1218.41" y2="663.37"/>
        <line class="st5" x1="1218.41" y1="663.37" x2="1218.44" y2="663.23"/>
        <line class="st5" x1="1218.44" y1="663.23" x2="1218.46" y2="663.07"/>
        <line class="st5" x1="1218.46" y1="663.07" x2="1218.51" y2="662.93"/>
        <line class="st5" x1="1218.51" y1="662.93" x2="1218.57" y2="662.77"/>
        <line class="st5" x1="1218.57" y1="662.77" x2="1218.64" y2="662.63"/>
        <line class="st5" x1="1218.64" y1="662.63" x2="1218.71" y2="662.47"/>
        <line class="st5" x1="1218.71" y1="662.47" x2="1218.79" y2="662.33"/>
        <line class="st5" x1="1218.79" y1="662.33" x2="1218.89" y2="662.19"/>
        <line class="st5" x1="1218.89" y1="662.19" x2="1218.98" y2="662.06"/>
        <line class="st5" x1="1218.98" y1="662.06" x2="1219.09" y2="661.94"/>
        <line class="st5" x1="1219.09" y1="661.94" x2="1219.2" y2="661.83"/>
        <line class="st5" x1="1219.2" y1="661.83" x2="1219.31" y2="661.73"/>
        <line class="st5" x1="1219.31" y1="661.73" x2="1219.43" y2="661.64"/>
        <line class="st5" x1="1219.43" y1="661.64" x2="1219.5" y2="661.58"/>
        <line class="st5" x1="1218.16" y1="682.6" x2="1219.57" y2="683.42"/>
        <line class="st5" x1="1218.16" y1="678.73" x2="1218.33" y2="678.53"/>
        <line class="st5" x1="1218.33" y1="678.53" x2="1218.5" y2="678.35"/>
        <line class="st5" x1="1218.5" y1="678.35" x2="1218.68" y2="678.19"/>
        <line class="st5" x1="1218.68" y1="678.19" x2="1218.87" y2="678.04"/>
        <line class="st5" x1="1218.87" y1="678.04" x2="1219.05" y2="677.92"/>
        <line class="st5" x1="1219.05" y1="677.92" x2="1219.24" y2="677.82"/>
        <line class="st5" x1="1219.24" y1="677.82" x2="1219.43" y2="677.74"/>
        <line class="st5" x1="1219.43" y1="677.74" x2="1219.57" y2="677.69"/>
        <path class="st5" d="M1219.57,982.12"/>
        <path class="st5" d="M1218.16,981.3"/>
        <line class="st5" x1="1218.16" y1="977.42" x2="1218.33" y2="977.23"/>
        <path class="st5" d="M1218.33,977.23"/>
        <path class="st5" d="M1219.43,976.43"/>
        <line class="st5" x1="1219.43" y1="976.43" x2="1219.57" y2="976.39"/>
        <line class="st5" x1="1218.16" y1="851.58" x2="1219.57" y2="852.39"/>
        <line class="st5" x1="1218.16" y1="847.7" x2="1218.33" y2="847.51"/>
        <line class="st5" x1="1218.33" y1="847.51" x2="1218.5" y2="847.32"/>
        <line class="st5" x1="1218.5" y1="847.32" x2="1218.68" y2="847.16"/>
        <line class="st5" x1="1218.68" y1="847.16" x2="1218.87" y2="847.02"/>
        <line class="st5" x1="1218.87" y1="847.02" x2="1219.05" y2="846.89"/>
        <line class="st5" x1="1219.05" y1="846.89" x2="1219.24" y2="846.79"/>
        <line class="st5" x1="1219.24" y1="846.79" x2="1219.43" y2="846.71"/>
        <line class="st5" x1="1219.43" y1="846.71" x2="1219.57" y2="846.66"/>
        <line class="st5" x1="1793.11" y1="947.15" x2="1770.46" y2="934.07"/>
        <line class="st5" x1="1770.46" y1="934.07" x2="1731.75" y2="911.72"/>
        <line class="st5" x1="1793.11" y1="937.34" x2="1798.08" y2="934.47"/>
        <line class="st5" x1="1798.08" y1="934.47" x2="1801.35" y2="932.58"/>
        <line class="st5" x1="1801.61" y1="1540.74" x2="1793.11" y2="1535.83"/>
        <line class="st5" x1="1801.61" y1="942.25" x2="1793.11" y2="937.34"/>
        <line class="st5" x1="1218.16" y1="615.21" x2="1218.16" y2="640.42"/>
        <path class="st5" d="M1220.24,1186.79"/>
        <path class="st5" d="M1228.37,1186.89"/>
        <path class="st5" d="M1209.66,1198.98"/>
        <g>
          <line class="st5" x1="1218.16" y1="1101.95" x2="830.46" y2="883.53"/>
          <line class="st5" x1="830.14" y1="761.19" x2="830.14" y2="883"/>
          <line class="st5" x1="830.14" y1="883" x2="830.26" y2="883.34"/>
          <line class="st5" x1="830.26" y1="883.34" x2="830.33" y2="883.41"/>
          <line class="st5" x1="830.33" y1="883.41" x2="830.16" y2="883.14"/>
          <line class="st5" x1="830.16" y1="883.14" x2="830.2" y2="883.22"/>
          <line class="st5" x1="830.2" y1="883.22" x2="830.46" y2="883.53"/>
          <line class="st5" x1="830.46" y1="883.53" x2="830.42" y2="883.5"/>
          <line class="st5" x1="1218.16" y1="941.73" x2="1108.8" y2="881.3"/>
          <path class="st5" d="M1240.56,840.19"/>
          <line class="st5" x1="1218.16" y1="821.43" x2="1121.53" y2="875.84"/>
          <line class="st5" x1="1121.53" y1="875.84" x2="1113.1" y2="879.95"/>
          <line class="st5" x1="1113.1" y1="879.95" x2="1098.87" y2="884.37"/>
          <line class="st5" x1="1098.87" y1="884.37" x2="1083.21" y2="886.65"/>
          <line class="st5" x1="1083.21" y1="886.65" x2="1067.05" y2="886.65"/>
          <line class="st5" x1="1067.05" y1="886.65" x2="1051.38" y2="884.37"/>
          <line class="st5" x1="1051.38" y1="884.37" x2="1037.16" y2="879.95"/>
          <line class="st5" x1="1037.16" y1="879.95" x2="1028.73" y2="875.84"/>
          <line class="st5" x1="1028.73" y1="875.84" x2="1021.5" y2="871.68"/>
          <line class="st5" x1="1021.5" y1="871.68" x2="947.64" y2="829.03"/>
          <line class="st5" x1="947.64" y1="829.03" x2="817.19" y2="753.71"/>
          <line class="st5" x1="817.19" y1="753.71" x2="743.32" y2="711.07"/>
          <line class="st5" x1="743.32" y1="711.07" x2="727.57" y2="701.97"/>
          <line class="st5" x1="727.57" y1="701.97" x2="720.46" y2="697.11"/>
          <line class="st5" x1="720.46" y1="697.11" x2="712.8" y2="688.9"/>
          <line class="st5" x1="712.8" y1="688.9" x2="708.86" y2="679.85"/>
          <line class="st5" x1="1028.73" y1="866" x2="727.57" y2="692.13"/>
          <line class="st5" x1="1113.1" y1="870.11" x2="1121.53" y2="866"/>
          <line class="st5" x1="1121.53" y1="866" x2="1217.78" y2="811.97"/>
          <line class="st5" x1="1598.16" y1="575.14" x2="1217.78" y2="355.53"/>
          <line class="st5" x1="1217.78" y1="355.53" x2="727.57" y2="638.55"/>
          <line class="st5" x1="727.57" y1="638.55" x2="720.46" y2="643.42"/>
          <line class="st5" x1="720.46" y1="643.42" x2="712.8" y2="651.63"/>
          <line class="st5" x1="712.8" y1="651.63" x2="708.86" y2="660.67"/>
          <line class="st5" x1="708.86" y1="660.67" x2="708.86" y2="670.01"/>
          <line class="st5" x1="708.86" y1="670.01" x2="712.8" y2="679.06"/>
          <line class="st5" x1="712.8" y1="679.06" x2="720.46" y2="687.27"/>
          <line class="st5" x1="720.46" y1="687.27" x2="727.57" y2="692.13"/>
          <line class="st5" x1="1028.73" y1="866" x2="1037.16" y2="870.11"/>
          <line class="st5" x1="1037.16" y1="870.11" x2="1051.38" y2="874.53"/>
          <line class="st5" x1="1051.38" y1="874.53" x2="1067.05" y2="876.81"/>
          <line class="st5" x1="1067.05" y1="876.81" x2="1083.21" y2="876.81"/>
          <line class="st5" x1="1083.21" y1="876.81" x2="1098.87" y2="874.53"/>
          <line class="st5" x1="1098.87" y1="874.53" x2="1113.1" y2="870.11"/>
          <line class="st5" x1="708.86" y1="679.85" x2="708.86" y2="670.01"/>
          <line class="st5" x1="1229.02" y1="1197.61" x2="840.27" y2="979.18"/>
          <line class="st5" x1="840.27" y1="889.19" x2="840.27" y2="979.18"/>
          <line class="st5" x1="1218.16" y1="940.38" x2="1110.36" y2="880.8"/>
        </g>
        <path class="st5" d="M830.14,986.1"/>
        <line class="st5" x1="829.41" y1="761.19" x2="829.41" y2="977.94"/>
        <line class="st5" x1="829.41" y1="977.94" x2="829.41" y2="985.45"/>
        <line class="st5" x1="829.41" y1="985.45" x2="834.49" y2="982.52"/>
        <line class="st5" x1="834.49" y1="982.52" x2="837.55" y2="980.75"/>
        <line class="st5" x1="837.55" y1="980.75" x2="840.27" y2="979.18"/>
        <line class="st5" x1="820.92" y1="980.54" x2="820.92" y2="755.87"/>
        <line class="st5" x1="820.92" y1="980.54" x2="829.41" y2="985.45"/>
        <line class="st5" x1="1209.66" y1="807.06" x2="1218.16" y2="811.97"/>
      </g>
    </g>
    <g id="Layer_4" class="st2">
      <g>
        <line class="st4" x1="619.08" y1="1143.91" x2="1118.7" y2="1143.91"/>
        <g>
          <path class="st3" d="M1118.48,1147.67c2.08,0,3.76-1.68,3.76-3.76s-1.68-3.76-3.76-3.76-3.76,1.68-3.76,3.76,1.68,3.76,3.76,3.76Z"/>
          <path d="M1118.48,1148.17c-2.35,0-4.26-1.91-4.26-4.26s1.91-4.26,4.26-4.26,4.26,1.91,4.26,4.26-1.91,4.26-4.26,4.26,2.35,0,0,0ZM1118.48,1140.65c-1.8,0-3.26,1.46-3.26,3.26s1.46,3.26,3.26,3.26,3.26-1.46,3.26-3.26-1.46-3.26-3.26-3.26,1.8,0,0,0Z"/>
        </g>
      </g>
      <g>
        <line class="st4" x1="1111.9" y1="1430.3" x2="1611.52" y2="1430.3"/>
        <g>
          <path class="st3" d="M1611.31,1434.06c2.08,0,3.76-1.68,3.76-3.76s-1.68-3.76-3.76-3.76-3.76,1.68-3.76,3.76,1.68,3.76,3.76,3.76Z"/>
          <path d="M1611.31,1434.56c-2.35,0-4.26-1.91-4.26-4.26s1.91-4.26,4.26-4.26,4.26,1.91,4.26,4.26-1.91,4.26-4.26,4.26,2.35,0,0,0ZM1611.31,1427.04c-1.8,0-3.26,1.46-3.26,3.26s1.46,3.26,3.26,3.26,3.26-1.46,3.26-3.26-1.46-3.26-3.26-3.26,1.8,0,0,0Z"/>
        </g>
      </g>
      <g>
        <line class="st4" x1="144.2" y1="866.86" x2="643.82" y2="866.86"/>
        <g>
          <path class="st3" d="M643.6,870.62c2.08,0,3.76-1.68,3.76-3.76s-1.68-3.76-3.76-3.76-3.76,1.68-3.76,3.76,1.68,3.76,3.76,3.76Z"/>
          <path d="M643.6,871.12c-2.35,0-4.26-1.91-4.26-4.26s1.91-4.26,4.26-4.26,4.26,1.91,4.26,4.26-1.91,4.26-4.26,4.26,2.35,0,0,0ZM643.6,863.6c-1.8,0-3.26,1.46-3.26,3.26s1.46,3.26,3.26,3.26,3.26-1.46,3.26-3.26-1.46-3.26-3.26-3.26,1.8,0,0,0Z"/>
        </g>
      </g>
      <g class="st1">
        <text class="st0" transform="translate(614.86 1133.73)"><tspan x="0" y="0">RC802</tspan></text>
      </g>
      <g class="st1">
        <text class="st0" transform="translate(1107.69 1420.12)"><tspan x="0" y="0">RC803</tspan></text>
      </g>
      <g class="st1">
        <text class="st0" transform="translate(139.99 856.67)"><tspan x="0" y="0">RC804R</tspan></text>
      </g>
      <g>
        <polyline class="st5" points="834.44 402.18 833.96 402.45 1411.85 736.1 1412.33 735.82 834.44 402.18"/>
        <polyline class="st5" points="833.96 566.25 1411.85 899.9 1413.75 898.8 1412.8 898.25 1411.85 898.8 834.92 565.7 833.96 566.25"/>
        <polyline class="st5" points="834.92 729.5 833.96 730.05 1411.85 1063.69 1413.75 1062.6 1412.8 1062.05 1411.85 1062.6 834.92 729.5"/>
        <line class="st5" x1="834.44" y1="402.18" x2="833.96" y2="402.45"/>
        <line class="st5" x1="833.96" y1="391.2" x2="833.96" y2="565.15"/>
        <line class="st5" x1="833.96" y1="402.45" x2="1411.85" y2="736.1"/>
        <line class="st5" x1="1411.85" y1="736.1" x2="1411.85" y2="898.8"/>
        <line class="st5" x1="1411.85" y1="898.8" x2="833.96" y2="565.15"/>
        <line class="st5" x1="1413.75" y1="898.8" x2="1412.8" y2="898.25"/>
        <line class="st5" x1="834.92" y1="565.7" x2="833.96" y2="566.25"/>
        <line class="st5" x1="833.96" y1="566.25" x2="833.96" y2="728.95"/>
        <line class="st5" x1="833.96" y1="566.25" x2="1411.85" y2="899.9"/>
        <line class="st5" x1="1411.85" y1="899.9" x2="1411.85" y2="1062.6"/>
        <line class="st5" x1="1411.85" y1="1062.6" x2="833.96" y2="728.95"/>
        <line class="st5" x1="834.92" y1="729.5" x2="833.96" y2="730.05"/>
        <line class="st5" x1="833.96" y1="730.05" x2="833.96" y2="892.75"/>
        <line class="st5" x1="833.96" y1="730.05" x2="1411.85" y2="1063.69"/>
        <line class="st5" x1="1411.85" y1="1063.69" x2="1411.85" y2="1226.39"/>
        <line class="st5" x1="1411.85" y1="1226.39" x2="833.96" y2="892.75"/>
        <line class="st5" x1="1125.28" y1="422.8" x2="1224.29" y2="365.63"/>
        <line class="st5" x1="1224.29" y1="365.63" x2="1804.09" y2="700.37"/>
        <line class="st5" x1="1804.09" y1="700.37" x2="1705.38" y2="757.36"/>
        <line class="st5" x1="951.54" y1="322.48" x2="832.54" y2="391.19"/>
        <path class="st5" d="M832.54,401.08"/>
        <path class="st5" d="M832.54,391.19"/>
        <line class="st5" x1="832.54" y1="391.19" x2="1412.33" y2="725.93"/>
        <line class="st5" x1="1412.33" y1="725.93" x2="1412.33" y2="735.82"/>
        <line class="st5" x1="1412.33" y1="725.93" x2="1531.33" y2="657.22"/>
        <line class="st5" x1="1531.33" y1="657.22" x2="943.17" y2="317.65"/>
        <line class="st5" x1="843.48" y1="898.25" x2="843.48" y2="988.39"/>
        <path class="st5" d="M1423.27,1232.2"/>
        <line class="st5" x1="1423.35" y1="1321.65" x2="843.48" y2="988.39"/>
      </g>
      <g>
        <line class="st5" x1="834.92" y1="892.43" x2="456.6" y2="674.02"/>
        <line class="st5" x1="456.27" y1="551.67" x2="456.27" y2="673.48"/>
        <line class="st5" x1="456.27" y1="673.48" x2="456.4" y2="673.83"/>
        <line class="st5" x1="456.4" y1="673.83" x2="456.46" y2="673.9"/>
        <line class="st5" x1="456.46" y1="673.9" x2="456.3" y2="673.63"/>
        <line class="st5" x1="456.3" y1="673.63" x2="456.34" y2="673.71"/>
        <line class="st5" x1="456.34" y1="673.71" x2="456.6" y2="674.02"/>
        <line class="st5" x1="456.6" y1="674.02" x2="456.55" y2="673.98"/>
        <line class="st5" x1="834.92" y1="729.5" x2="734.94" y2="671.78"/>
        <path class="st5" d="M866.7,630.68"/>
        <line class="st5" x1="833.96" y1="616.51" x2="747.67" y2="666.33"/>
        <line class="st5" x1="747.67" y1="666.33" x2="739.24" y2="670.44"/>
        <line class="st5" x1="739.24" y1="670.44" x2="725.01" y2="674.86"/>
        <line class="st5" x1="725.01" y1="674.86" x2="709.35" y2="677.14"/>
        <line class="st5" x1="709.35" y1="677.14" x2="693.19" y2="677.14"/>
        <line class="st5" x1="693.19" y1="677.14" x2="677.52" y2="674.86"/>
        <line class="st5" x1="677.52" y1="674.86" x2="663.29" y2="670.44"/>
        <line class="st5" x1="663.29" y1="670.44" x2="654.86" y2="666.33"/>
        <line class="st5" x1="654.86" y1="666.33" x2="647.64" y2="662.16"/>
        <line class="st5" x1="647.64" y1="662.16" x2="573.78" y2="619.52"/>
        <line class="st5" x1="573.78" y1="619.52" x2="443.32" y2="544.2"/>
        <line class="st5" x1="443.32" y1="544.2" x2="369.46" y2="501.56"/>
        <line class="st5" x1="369.46" y1="501.56" x2="353.71" y2="492.46"/>
        <line class="st5" x1="353.71" y1="492.46" x2="346.59" y2="487.59"/>
        <line class="st5" x1="346.59" y1="487.59" x2="338.94" y2="479.38"/>
        <line class="st5" x1="338.94" y1="479.38" x2="334.99" y2="470.34"/>
        <line class="st5" x1="654.86" y1="656.49" x2="353.71" y2="482.62"/>
        <line class="st5" x1="739.24" y1="660.6" x2="747.67" y2="656.49"/>
        <line class="st5" x1="747.67" y1="656.49" x2="833.96" y2="606.43"/>
        <line class="st5" x1="1224.29" y1="365.63" x2="843.91" y2="146.02"/>
        <line class="st5" x1="843.91" y1="146.02" x2="353.71" y2="429.04"/>
        <line class="st5" x1="353.71" y1="429.04" x2="346.59" y2="433.9"/>
        <line class="st5" x1="346.59" y1="433.9" x2="338.94" y2="442.11"/>
        <line class="st5" x1="338.94" y1="442.11" x2="334.99" y2="451.16"/>
        <line class="st5" x1="334.99" y1="451.16" x2="334.99" y2="460.49"/>
        <line class="st5" x1="334.99" y1="460.49" x2="338.94" y2="469.54"/>
        <line class="st5" x1="338.94" y1="469.54" x2="346.59" y2="477.75"/>
        <line class="st5" x1="346.59" y1="477.75" x2="353.71" y2="482.62"/>
        <line class="st5" x1="654.86" y1="656.49" x2="663.29" y2="660.6"/>
        <line class="st5" x1="663.29" y1="660.6" x2="677.52" y2="665.02"/>
        <line class="st5" x1="677.52" y1="665.02" x2="693.19" y2="667.29"/>
        <line class="st5" x1="693.19" y1="667.29" x2="709.35" y2="667.29"/>
        <line class="st5" x1="709.35" y1="667.29" x2="725.01" y2="665.02"/>
        <line class="st5" x1="725.01" y1="665.02" x2="739.24" y2="660.6"/>
        <line class="st5" x1="334.99" y1="470.34" x2="334.99" y2="460.49"/>
        <polyline class="st5" points="843.48 988.39 834.36 983.13 825.84 978.21 466.4 769.66"/>
        <line class="st5" x1="466.4" y1="679.68" x2="466.4" y2="769.66"/>
      </g>
      <g>
        <line class="st5" x1="1412.89" y1="736.66" x2="1413.84" y2="736.11"/>
        <line class="st5" x1="1412.89" y1="899.1" x2="1412.89" y2="736.66"/>
        <line class="st5" x1="1800.7" y1="960.56" x2="1801.65" y2="960.01"/>
        <line class="st5" x1="1412.89" y1="736.66" x2="1800.7" y2="960.56"/>
        <line class="st5" x1="1800.7" y1="1123" x2="1802.59" y2="1121.9"/>
        <line class="st5" x1="1802.59" y1="1121.9" x2="1802.59" y2="960.56"/>
        <line class="st5" x1="1800.7" y1="960.56" x2="1800.7" y2="1123"/>
        <line class="st5" x1="1800.7" y1="1123" x2="1412.89" y2="899.1"/>
        <line class="st5" x1="1412.89" y1="900.2" x2="1413.84" y2="899.65"/>
        <line class="st5" x1="1412.89" y1="1062.63" x2="1412.89" y2="900.2"/>
        <line class="st5" x1="1800.7" y1="1124.1" x2="1802.59" y2="1123"/>
        <line class="st5" x1="1802.59" y1="1123" x2="1801.64" y2="1122.45"/>
        <line class="st5" x1="1412.89" y1="900.2" x2="1800.7" y2="1124.1"/>
        <line class="st5" x1="1800.7" y1="1286.53" x2="1802.59" y2="1285.43"/>
        <line class="st5" x1="1802.59" y1="1285.43" x2="1802.59" y2="1123"/>
        <line class="st5" x1="1800.7" y1="1124.1" x2="1800.7" y2="1286.53"/>
        <line class="st5" x1="1800.7" y1="1286.53" x2="1412.89" y2="1062.63"/>
        <line class="st5" x1="1412.89" y1="1063.73" x2="1413.84" y2="1063.18"/>
        <line class="st5" x1="1412.89" y1="1226.17" x2="1412.89" y2="1063.73"/>
        <line class="st5" x1="1800.7" y1="1287.63" x2="1802.59" y2="1286.53"/>
        <line class="st5" x1="1802.59" y1="1286.53" x2="1801.64" y2="1285.98"/>
        <line class="st5" x1="1412.89" y1="1063.73" x2="1800.7" y2="1287.63"/>
        <line class="st5" x1="1800.7" y1="1450.07" x2="1802.59" y2="1448.97"/>
        <line class="st5" x1="1802.59" y1="1448.97" x2="1802.59" y2="1286.53"/>
        <line class="st5" x1="1800.7" y1="1287.63" x2="1800.7" y2="1450.07"/>
        <line class="st5" x1="1800.7" y1="1450.07" x2="1412.89" y2="1226.17"/>
        <line class="st5" x1="1806.4" y1="1450.07" x2="1804.5" y2="1448.97"/>
        <line class="st5" x1="2194.21" y1="1226.17" x2="1806.4" y2="1450.07"/>
        <line class="st5" x1="1806.4" y1="1287.63" x2="1804.5" y2="1286.53"/>
        <line class="st5" x1="1804.5" y1="1286.53" x2="1804.5" y2="1448.97"/>
        <line class="st5" x1="1806.4" y1="1450.07" x2="1806.4" y2="1287.63"/>
        <line class="st5" x1="2194.21" y1="1063.73" x2="2193.26" y2="1063.18"/>
        <line class="st5" x1="1805.45" y1="1285.98" x2="1804.5" y2="1286.53"/>
        <line class="st5" x1="1806.4" y1="1287.63" x2="2194.21" y2="1063.73"/>
        <line class="st5" x1="2194.21" y1="1063.73" x2="2194.21" y2="1226.17"/>
        <line class="st5" x1="1806.4" y1="1286.53" x2="1804.5" y2="1285.43"/>
        <line class="st5" x1="2194.21" y1="1062.63" x2="1806.4" y2="1286.53"/>
        <line class="st5" x1="1806.4" y1="1124.1" x2="1804.5" y2="1123"/>
        <line class="st5" x1="1804.5" y1="1123" x2="1804.5" y2="1285.43"/>
        <line class="st5" x1="1806.4" y1="1286.53" x2="1806.4" y2="1124.1"/>
        <line class="st5" x1="2194.21" y1="900.2" x2="2193.26" y2="899.65"/>
        <line class="st5" x1="1805.45" y1="1122.45" x2="1804.5" y2="1123"/>
        <line class="st5" x1="1806.4" y1="1124.1" x2="2194.21" y2="900.2"/>
        <line class="st5" x1="2194.21" y1="900.2" x2="2194.21" y2="1062.63"/>
        <line class="st5" x1="1806.4" y1="1123" x2="1804.5" y2="1121.9"/>
        <line class="st5" x1="2194.21" y1="899.1" x2="1806.4" y2="1123"/>
        <line class="st5" x1="1806.4" y1="960.56" x2="1805.45" y2="960.01"/>
        <line class="st5" x1="1804.5" y1="960.56" x2="1804.5" y2="1121.9"/>
        <line class="st5" x1="1806.4" y1="1123" x2="1806.4" y2="960.56"/>
        <line class="st5" x1="2194.21" y1="736.66" x2="2193.26" y2="736.11"/>
        <line class="st5" x1="1806.4" y1="960.56" x2="2194.21" y2="736.66"/>
        <line class="st5" x1="2194.21" y1="736.66" x2="2194.21" y2="899.1"/>
        <line class="st5" x1="2183.75" y1="1321.65" x2="2186.48" y2="1323.23"/>
        <line class="st5" x1="2186.48" y1="1323.23" x2="2189.57" y2="1325.01"/>
        <line class="st5" x1="2189.57" y1="1325.01" x2="2194.68" y2="1327.96"/>
        <line class="st5" x1="2194.68" y1="1327.96" x2="2194.68" y2="1320.4"/>
        <line class="st5" x1="2194.68" y1="1320.4" x2="2194.68" y2="1296.13"/>
        <line class="st5" x1="2194.68" y1="1296.13" x2="2194.68" y2="1276.94"/>
        <line class="st5" x1="2194.68" y1="1276.94" x2="2194.68" y2="1264.72"/>
        <line class="st5" x1="2194.68" y1="1264.72" x2="2194.68" y2="1190.36"/>
        <line class="st5" x1="2194.68" y1="1190.36" x2="2194.68" y2="1117.65"/>
        <line class="st5" x1="2194.68" y1="1117.65" x2="2194.68" y2="966.46"/>
        <line class="st5" x1="2194.68" y1="966.46" x2="2194.68" y2="953.49"/>
        <line class="st5" x1="2194.68" y1="953.49" x2="2194.68" y2="877.9"/>
        <line class="st5" x1="2194.68" y1="877.9" x2="2194.68" y2="798.54"/>
        <line class="st5" x1="2194.68" y1="798.54" x2="2194.68" y2="760.67"/>
        <line class="st5" x1="2194.68" y1="760.67" x2="2194.68" y2="735.29"/>
        <line class="st5" x1="2075.86" y1="656.81" x2="2084.43" y2="651.88"/>
        <line class="st5" x1="2084.43" y1="651.88" x2="2203.23" y2="720.47"/>
        <line class="st5" x1="2203.23" y1="720.47" x2="2203.23" y2="1323.02"/>
        <path class="st5" d="M2179.62,1341.47"/>
        <path class="st5" d="M2190.56,1347.78"/>
        <line class="st5" x1="2203.23" y1="720.47" x2="2194.68" y2="725.41"/>
        <path class="st5" d="M2216.69,1324.03"/>
        <path class="st5" d="M2208.14,1297.14"/>
        <line class="st5" x1="2203.23" y1="1323.02" x2="2194.68" y2="1327.96"/>
        <line class="st5" x1="1412.42" y1="725.41" x2="1412.42" y2="725.41"/>
        <line class="st5" x1="1412.42" y1="760.67" x2="1412.42" y2="798.54"/>
        <line class="st5" x1="1412.42" y1="798.54" x2="1412.42" y2="877.9"/>
        <line class="st5" x1="1412.42" y1="877.9" x2="1412.42" y2="953.49"/>
        <line class="st5" x1="1412.42" y1="953.49" x2="1412.42" y2="966.46"/>
        <line class="st5" x1="1412.42" y1="966.46" x2="1412.42" y2="1117.65"/>
        <line class="st5" x1="1412.42" y1="1117.65" x2="1412.42" y2="1190.36"/>
        <line class="st5" x1="2075.86" y1="656.81" x2="2194.68" y2="725.41"/>
        <line class="st5" x1="1803.54" y1="814.04" x2="2075.86" y2="656.81"/>
        <line class="st5" x1="2194.68" y1="725.41" x2="1803.54" y2="951.23"/>
        <line class="st5" x1="1803.54" y1="951.23" x2="1803.54" y2="961.11"/>
        <line class="st5" x1="1803.54" y1="961.11" x2="1961.56" y2="869.88"/>
        <line class="st5" x1="1961.56" y1="869.88" x2="2046.64" y2="820.76"/>
        <line class="st5" x1="2046.64" y1="820.76" x2="2121.02" y2="777.82"/>
        <line class="st5" x1="1803.54" y1="814.04" x2="1803.54" y2="951.23"/>
        <line class="st5" x1="1412.42" y1="735.29" x2="1412.42" y2="725.41"/>
        <line class="st5" x1="1412.42" y1="725.41" x2="1531.23" y2="656.81"/>
        <line class="st5" x1="1803.54" y1="814.04" x2="1531.23" y2="656.81"/>
        <line class="st5" x1="1412.42" y1="725.41" x2="1803.54" y2="951.23"/>
        <line class="st5" x1="1676.9" y1="887.99" x2="1763.39" y2="937.92"/>
        <line class="st5" x1="1763.39" y1="937.92" x2="1803.54" y2="961.11"/>
        <line class="st5" x1="1412.42" y1="735.29" x2="1456.97" y2="761.01"/>
        <line class="st5" x1="1456.97" y1="761.01" x2="1486.08" y2="777.82"/>
        <line class="st5" x1="1486.08" y1="777.82" x2="1560.46" y2="820.76"/>
        <line class="st5" x1="1560.46" y1="820.76" x2="1676.9" y2="887.99"/>
        <line class="st5" x1="1803.54" y1="699.89" x2="1902.4" y2="756.97"/>
        <line class="st5" x1="1803.54" y1="699.89" x2="1704.69" y2="756.97"/>
        <line class="st5" x1="1802.59" y1="1444.57" x2="1803.54" y2="1445.12"/>
        <line class="st5" x1="1803.54" y1="1445.12" x2="1803.54" y2="961.1"/>
        <line class="st5" x1="1803.54" y1="1445.12" x2="1804.5" y2="1444.58"/>
        <line class="st5" x1="2183.74" y1="1232.2" x2="2183.74" y2="1321.65"/>
        <line class="st5" x1="1794.99" y1="1446.77" x2="1794.99" y2="1471.61"/>
        <line class="st5" x1="1794.99" y1="1471.61" x2="1794.99" y2="1486.57"/>
        <path class="st5" d="M1803.54,1541.15"/>
        <path class="st5" d="M1794.99,1504.39"/>
        <line class="st5" x1="1803.54" y1="1541.15" x2="1803.54" y2="1445.12"/>
        <line class="st5" x1="1794.99" y1="1528.66" x2="1794.99" y2="1504.39"/>
        <line class="st5" x1="1803.54" y1="1541.15" x2="1794.99" y2="1536.21"/>
        <line class="st5" x1="1794.99" y1="1536.21" x2="1794.99" y2="1528.66"/>
        <line class="st5" x1="1809.97" y1="1537.45" x2="1803.54" y2="1541.15"/>
        <path class="st5" d="M1803.54,1531.28"/>
        <path class="st5" d="M1921.16,1463.37"/>
        <path class="st5" d="M1921.16,1463.37"/>
        <path class="st5" d="M2139.3,1337.43"/>
        <path class="st5" d="M2183.74,1321.65"/>
        <path class="st5" d="M2139.3,1337.43"/>
        <line class="st5" x1="2183.74" y1="1321.65" x2="2081.57" y2="1380.65"/>
        <line class="st5" x1="2081.57" y1="1380.65" x2="1905.73" y2="1482.17"/>
        <line class="st5" x1="1905.73" y1="1482.17" x2="1809.97" y2="1537.45"/>
        <line class="st5" x1="1423.35" y1="1321.65" x2="1423.35" y2="1232.2"/>
        <line class="st5" x1="1794.99" y1="1536.21" x2="1788.58" y2="1532.51"/>
        <path class="st5" d="M1767.31,1510.36"/>
        <path class="st5" d="M1684.14,1462.34"/>
        <line class="st5" x1="1788.58" y1="1532.51" x2="1694.95" y2="1478.47"/>
        <line class="st5" x1="1694.95" y1="1478.47" x2="1523.39" y2="1379.41"/>
        <line class="st5" x1="1523.39" y1="1379.41" x2="1423.35" y2="1321.65"/>
        <path class="st5" d="M1767.31,1510.36"/>
        <path class="st5" d="M1794.99,1526.34"/>
        <line class="st5" x1="1794.99" y1="1486.57" x2="1794.99" y2="1504.39"/>
        <path class="st5" d="M1794.99,1461.95"/>
        <path class="st5" d="M1794.99,1455.74"/>
        <path class="st5" d="M1794.99,1473.3"/>
        <path class="st5" d="M1794.99,1479.51"/>
        <line class="st5" x1="2194.68" y1="725.41" x2="2194.68" y2="725.41"/>
        <line class="st5" x1="1412.42" y1="735.29" x2="1412.42" y2="760.67"/>
        <line class="st5" x1="2194.68" y1="725.41" x2="2194.68" y2="735.29"/>
        <line class="st5" x1="2150.12" y1="761.01" x2="2121.02" y2="777.82"/>
        <line class="st5" x1="2194.68" y1="735.29" x2="2150.12" y2="761.01"/>
        <path class="st5" d="M2139.3,1337.43"/>
      </g>
      <path class="st5" d="M833.96,606.43"/>
      <path class="st5" d="M456.27,776.59"/>
      <line class="st5" x1="832.54" y1="391.18" x2="832.54" y2="391.2"/>
      <line class="st5" x1="832.54" y1="391.18" x2="832.54" y2="391.19"/>
      <line class="st5" x1="824.03" y1="386.28" x2="942.05" y2="318.15"/>
      <line class="st5" x1="824.03" y1="601.52" x2="824.03" y2="386.28"/>
      <line class="st5" x1="824.03" y1="386.28" x2="832.54" y2="391.19"/>
      <line class="st5" x1="824.03" y1="601.52" x2="832.54" y2="606.43"/>
      <line class="st5" x1="455.55" y1="551.67" x2="455.55" y2="768.43"/>
      <line class="st5" x1="455.55" y1="768.43" x2="455.55" y2="775.93"/>
      <line class="st5" x1="455.55" y1="775.93" x2="460.63" y2="773.01"/>
      <line class="st5" x1="460.63" y1="773.01" x2="463.69" y2="771.24"/>
      <line class="st5" x1="463.69" y1="771.24" x2="466.4" y2="769.66"/>
      <line class="st5" x1="447.05" y1="771.03" x2="447.05" y2="546.36"/>
      <line class="st5" x1="447.05" y1="771.03" x2="455.55" y2="775.93"/>
    </g>
    <line class="st4" x1="703.48" y1="1231.73" x2="1203.1" y2="1231.73"/>
    <circle class="st3" cx="1202.89" cy="1231.73" r="3.76"/>
    <path d="M1202.89,1235.99c-2.35,0-4.26-1.91-4.26-4.26s1.91-4.26,4.26-4.26,4.26,1.91,4.26,4.26-1.91,4.26-4.26,4.26,2.35,0,0,0ZM1202.89,1228.47c-1.8,0-3.26,1.46-3.26,3.26s1.46,3.26,3.26,3.26,3.26-1.46,3.26-3.26-1.46-3.26-3.26-3.26,1.8,0,0,0Z"/>
    <line class="st4" x1="1160" y1="1494.88" x2="1659.62" y2="1494.88"/>
    <circle class="st3" cx="1659.41" cy="1494.88" r="3.76"/>
    <path d="M1659.41,1499.14c-2.35,0-4.26-1.91-4.26-4.26s1.91-4.26,4.26-4.26,4.26,1.91,4.26,4.26-1.91,4.26-4.26,4.26,2.35,0,0,0ZM1659.41,1491.62c-1.8,0-3.26,1.46-3.26,3.26s1.46,3.26,3.26,3.26,3.26-1.46,3.26-3.26-1.46-3.26-3.26-3.26,1.8,0,0,0Z"/>
    <line class="st4" x1="232.67" y1="963.36" x2="732.29" y2="963.36"/>
    <circle class="st3" cx="732.08" cy="963.36" r="3.76"/>
    <path d="M732.08,967.62c-2.35,0-4.26-1.91-4.26-4.26s1.91-4.26,4.26-4.26,4.26,1.91,4.26,4.26-1.91,4.26-4.26,4.26,2.35,0,0,0ZM732.08,960.1c-1.8,0-3.26,1.46-3.26,3.26s1.46,3.26,3.26,3.26,3.26-1.46,3.26-3.26-1.46-3.26-3.26-3.26,1.8,0,0,0Z"/>
    <line class="st4" x1="703.48" y1="1231.73" x2="1203.1" y2="1231.73"/>
    <circle class="st3" cx="1202.89" cy="1231.73" r="3.76"/>
    <path d="M1202.89,1235.99c-2.35,0-4.26-1.91-4.26-4.26s1.91-4.26,4.26-4.26,4.26,1.91,4.26,4.26-1.91,4.26-4.26,4.26,2.35,0,0,0ZM1202.89,1228.47c-1.8,0-3.26,1.46-3.26,3.26s1.46,3.26,3.26,3.26,3.26-1.46,3.26-3.26-1.46-3.26-3.26-3.26,1.8,0,0,0Z"/>
    <line class="st4" x1="1160" y1="1494.88" x2="1659.62" y2="1494.88"/>
    <circle class="st3" cx="1659.41" cy="1494.88" r="3.76"/>
    <path d="M1659.41,1499.14c-2.35,0-4.26-1.91-4.26-4.26s1.91-4.26,4.26-4.26,4.26,1.91,4.26,4.26-1.91,4.26-4.26,4.26,2.35,0,0,0ZM1659.41,1491.62c-1.8,0-3.26,1.46-3.26,3.26s1.46,3.26,3.26,3.26,3.26-1.46,3.26-3.26-1.46-3.26-3.26-3.26,1.8,0,0,0Z"/>
    <line class="st4" x1="232.67" y1="963.36" x2="732.29" y2="963.36"/>
    <circle class="st3" cx="732.08" cy="963.36" r="3.76"/>
    <path d="M732.08,967.62c-2.35,0-4.26-1.91-4.26-4.26s1.91-4.26,4.26-4.26,4.26,1.91,4.26,4.26-1.91,4.26-4.26,4.26,2.35,0,0,0ZM732.08,960.1c-1.8,0-3.26,1.46-3.26,3.26s1.46,3.26,3.26,3.26,3.26-1.46,3.26-3.26-1.46-3.26-3.26-3.26,1.8,0,0,0Z"/>
    <text class="st0" transform="translate(699.27 1221.53)"><tspan x="0" y="0">RC802</tspan></text>
    <text class="st0" transform="translate(1155.79 1484.68)"><tspan x="0" y="0">RC803</tspan></text>
    <text class="st0" transform="translate(228.46 953.16)"><tspan x="0" y="0">RC803</tspan></text>
    <polyline class="st4" points="908.17 483.77 907.69 484.05 1485.59 817.69 1486.06 817.42 908.17 483.77"/>
    <polyline class="st4" points="907.69 647.85 1485.59 981.49 1487.49 980.39 1486.54 979.84 1485.59 980.39 908.65 647.3 907.69 647.85"/>
    <polyline class="st4" points="908.65 811.09 907.69 811.64 1485.59 1145.29 1487.49 1144.19 1486.54 1143.64 1485.59 1144.19 908.65 811.09"/>
    <line class="st4" x1="908.17" y1="483.77" x2="907.69" y2="484.05"/>
    <line class="st4" x1="907.69" y1="484.05" x2="907.69" y2="646.75"/>
    <line class="st4" x1="907.69" y1="484.05" x2="1485.59" y2="817.69"/>
    <line class="st4" x1="1485.59" y1="817.69" x2="1485.59" y2="980.39"/>
    <line class="st4" x1="1485.59" y1="980.39" x2="907.69" y2="646.75"/>
    <line class="st4" x1="1487.49" y1="980.39" x2="1486.54" y2="979.84"/>
    <line class="st4" x1="908.65" y1="647.3" x2="907.69" y2="647.85"/>
    <line class="st4" x1="907.69" y1="647.85" x2="907.69" y2="810.55"/>
    <line class="st4" x1="907.69" y1="647.85" x2="1485.59" y2="981.49"/>
    <line class="st4" x1="1485.59" y1="981.49" x2="1485.59" y2="1144.19"/>
    <line class="st4" x1="1485.59" y1="1144.19" x2="907.69" y2="810.55"/>
    <line class="st4" x1="908.65" y1="811.09" x2="907.69" y2="811.64"/>
    <line class="st4" x1="907.69" y1="811.64" x2="907.69" y2="974.34"/>
    <line class="st4" x1="907.69" y1="811.64" x2="1485.59" y2="1145.29"/>
    <line class="st4" x1="1485.59" y1="1145.29" x2="1485.59" y2="1307.99"/>
    <line class="st4" x1="1485.59" y1="1307.99" x2="907.69" y2="974.34"/>
    <line class="st4" x1="1199.02" y1="504.39" x2="1298.03" y2="447.23"/>
    <line class="st4" x1="1298.03" y1="447.23" x2="1877.82" y2="781.96"/>
    <line class="st4" x1="1877.82" y1="781.96" x2="1779.11" y2="838.95"/>
    <line class="st4" x1="1025.27" y1="404.08" x2="906.27" y2="472.78"/>
    <line class="st4" x1="906.27" y1="472.78" x2="906.27" y2="482.67"/>
    <line class="st4" x1="906.27" y1="472.78" x2="1486.06" y2="807.52"/>
    <line class="st4" x1="1486.06" y1="807.52" x2="1486.06" y2="817.42"/>
    <line class="st4" x1="1486.06" y1="817.42" x2="906.27" y2="482.67"/>
    <line class="st4" x1="1486.06" y1="807.52" x2="1605.07" y2="738.81"/>
    <line class="st4" x1="1605.07" y1="738.81" x2="1025.27" y2="404.08"/>
    <line class="st4" x1="917.22" y1="979.85" x2="917.22" y2="1069.99"/>
    <path class="st4" d="M1497.01,1313.8"/>
    <line class="st4" x1="1497.08" y1="1403.25" x2="917.22" y2="1069.99"/>
    <line class="st4" x1="1486.63" y1="818.25" x2="1487.58" y2="817.71"/>
    <line class="st4" x1="1486.63" y1="980.69" x2="1486.63" y2="818.25"/>
    <line class="st4" x1="1874.44" y1="1042.15" x2="1875.39" y2="1041.61"/>
    <line class="st4" x1="1486.63" y1="818.25" x2="1874.44" y2="1042.15"/>
    <line class="st4" x1="1874.44" y1="1204.59" x2="1876.33" y2="1203.49"/>
    <line class="st4" x1="1876.33" y1="1203.49" x2="1876.33" y2="1042.15"/>
    <line class="st4" x1="1874.44" y1="1042.15" x2="1874.44" y2="1204.59"/>
    <line class="st4" x1="1874.44" y1="1204.59" x2="1486.63" y2="980.69"/>
    <line class="st4" x1="1486.63" y1="981.79" x2="1487.58" y2="981.24"/>
    <line class="st4" x1="1486.63" y1="1144.23" x2="1486.63" y2="981.79"/>
    <line class="st4" x1="1874.44" y1="1205.69" x2="1876.33" y2="1204.59"/>
    <line class="st4" x1="1876.33" y1="1204.59" x2="1875.38" y2="1204.04"/>
    <line class="st4" x1="1486.63" y1="981.79" x2="1874.44" y2="1205.69"/>
    <line class="st4" x1="1874.44" y1="1368.13" x2="1876.33" y2="1367.03"/>
    <line class="st4" x1="1876.33" y1="1367.03" x2="1876.33" y2="1204.59"/>
    <line class="st4" x1="1874.44" y1="1205.69" x2="1874.44" y2="1368.13"/>
    <line class="st4" x1="1874.44" y1="1368.13" x2="1486.63" y2="1144.23"/>
    <line class="st4" x1="1486.63" y1="1145.32" x2="1487.58" y2="1144.77"/>
    <line class="st4" x1="1486.63" y1="1307.76" x2="1486.63" y2="1145.32"/>
    <line class="st4" x1="1874.44" y1="1369.22" x2="1876.33" y2="1368.13"/>
    <line class="st4" x1="1876.33" y1="1368.13" x2="1875.38" y2="1367.58"/>
    <line class="st4" x1="1486.63" y1="1145.32" x2="1874.44" y2="1369.22"/>
    <line class="st4" x1="1874.44" y1="1531.66" x2="1876.33" y2="1530.56"/>
    <line class="st4" x1="1876.33" y1="1530.56" x2="1876.33" y2="1368.13"/>
    <line class="st4" x1="1874.44" y1="1369.22" x2="1874.44" y2="1531.66"/>
    <line class="st4" x1="1874.44" y1="1531.66" x2="1486.63" y2="1307.76"/>
    <line class="st4" x1="1880.13" y1="1531.66" x2="1878.23" y2="1530.56"/>
    <line class="st4" x1="2267.94" y1="1307.76" x2="1880.13" y2="1531.66"/>
    <line class="st4" x1="1880.13" y1="1369.22" x2="1878.23" y2="1368.13"/>
    <line class="st4" x1="1878.23" y1="1368.13" x2="1878.23" y2="1530.56"/>
    <line class="st4" x1="1880.13" y1="1531.66" x2="1880.13" y2="1369.22"/>
    <line class="st4" x1="2267.94" y1="1145.32" x2="2266.99" y2="1144.77"/>
    <line class="st4" x1="1879.18" y1="1367.58" x2="1878.23" y2="1368.13"/>
    <line class="st4" x1="1880.13" y1="1369.22" x2="2267.94" y2="1145.32"/>
    <line class="st4" x1="2267.94" y1="1145.32" x2="2267.94" y2="1307.76"/>
    <line class="st4" x1="1880.13" y1="1368.13" x2="1878.23" y2="1367.03"/>
    <line class="st4" x1="2267.94" y1="1144.23" x2="1880.13" y2="1368.13"/>
    <line class="st4" x1="1880.13" y1="1205.69" x2="1878.23" y2="1204.59"/>
    <line class="st4" x1="1878.23" y1="1204.59" x2="1878.23" y2="1367.03"/>
    <line class="st4" x1="1880.13" y1="1368.13" x2="1880.13" y2="1205.69"/>
    <line class="st4" x1="2267.94" y1="981.79" x2="2266.99" y2="981.24"/>
    <line class="st4" x1="1879.18" y1="1204.04" x2="1878.23" y2="1204.59"/>
    <line class="st4" x1="1880.13" y1="1205.69" x2="2267.94" y2="981.79"/>
    <line class="st4" x1="2267.94" y1="981.79" x2="2267.94" y2="1144.23"/>
    <line class="st4" x1="1880.13" y1="1204.59" x2="1878.23" y2="1203.49"/>
    <line class="st4" x1="2267.94" y1="980.69" x2="1880.13" y2="1204.59"/>
    <line class="st4" x1="1880.13" y1="1042.15" x2="1879.18" y2="1041.61"/>
    <line class="st4" x1="1878.23" y1="1042.15" x2="1878.23" y2="1203.49"/>
    <line class="st4" x1="1880.13" y1="1204.59" x2="1880.13" y2="1042.15"/>
    <line class="st4" x1="2267.94" y1="818.25" x2="2266.99" y2="817.71"/>
    <line class="st4" x1="1880.13" y1="1042.15" x2="2267.94" y2="818.25"/>
    <line class="st4" x1="2267.94" y1="818.25" x2="2267.94" y2="980.69"/>
    <line class="st4" x1="2257.49" y1="1403.25" x2="2260.21" y2="1404.82"/>
    <line class="st4" x1="2260.21" y1="1404.82" x2="2263.31" y2="1406.6"/>
    <line class="st4" x1="2263.31" y1="1406.6" x2="2268.42" y2="1409.55"/>
    <line class="st4" x1="2268.42" y1="1409.55" x2="2268.42" y2="1401.99"/>
    <line class="st4" x1="2268.42" y1="1401.99" x2="2268.42" y2="1377.72"/>
    <line class="st4" x1="2268.42" y1="1377.72" x2="2268.42" y2="1358.53"/>
    <line class="st4" x1="2268.42" y1="1358.53" x2="2268.42" y2="1346.31"/>
    <line class="st4" x1="2268.42" y1="1346.31" x2="2268.42" y2="1271.95"/>
    <line class="st4" x1="2268.42" y1="1271.95" x2="2268.42" y2="1199.24"/>
    <line class="st4" x1="2268.42" y1="1199.24" x2="2268.42" y2="1048.05"/>
    <line class="st4" x1="2268.42" y1="1048.05" x2="2268.42" y2="1035.08"/>
    <line class="st4" x1="2268.42" y1="1035.08" x2="2268.42" y2="959.49"/>
    <line class="st4" x1="2268.42" y1="959.49" x2="2268.42" y2="880.13"/>
    <line class="st4" x1="2268.42" y1="880.13" x2="2268.42" y2="842.26"/>
    <line class="st4" x1="2268.42" y1="842.26" x2="2268.42" y2="816.88"/>
    <line class="st4" x1="2149.6" y1="738.41" x2="2158.16" y2="733.47"/>
    <line class="st4" x1="2158.16" y1="733.47" x2="2276.97" y2="802.07"/>
    <line class="st4" x1="2276.97" y1="802.07" x2="2276.97" y2="1404.61"/>
    <path class="st4" d="M2253.36,1423.06"/>
    <path class="st4" d="M2264.29,1429.37"/>
    <line class="st4" x1="2276.97" y1="802.07" x2="2268.42" y2="807"/>
    <path class="st4" d="M2290.43,1405.63"/>
    <path class="st4" d="M2281.88,1378.74"/>
    <line class="st4" x1="2276.97" y1="1404.61" x2="2268.42" y2="1409.55"/>
    <line class="st4" x1="1486.15" y1="807" x2="1486.15" y2="807"/>
    <line class="st4" x1="1486.15" y1="842.26" x2="1486.15" y2="880.13"/>
    <line class="st4" x1="1486.15" y1="880.13" x2="1486.15" y2="959.49"/>
    <line class="st4" x1="1486.15" y1="959.49" x2="1486.15" y2="1035.08"/>
    <line class="st4" x1="1486.15" y1="1035.08" x2="1486.15" y2="1048.05"/>
    <line class="st4" x1="1486.15" y1="1048.05" x2="1486.15" y2="1199.24"/>
    <line class="st4" x1="1486.15" y1="1199.24" x2="1486.15" y2="1271.95"/>
    <line class="st4" x1="2149.6" y1="738.41" x2="2268.42" y2="807"/>
    <line class="st4" x1="1877.28" y1="895.63" x2="2149.6" y2="738.41"/>
    <line class="st4" x1="2268.42" y1="807" x2="1877.28" y2="1032.83"/>
    <line class="st4" x1="1877.28" y1="1032.83" x2="1877.28" y2="1042.7"/>
    <line class="st4" x1="1877.28" y1="1042.7" x2="2035.3" y2="951.47"/>
    <line class="st4" x1="2035.3" y1="951.47" x2="2120.38" y2="902.35"/>
    <line class="st4" x1="2120.38" y1="902.35" x2="2194.75" y2="859.41"/>
    <line class="st4" x1="1877.28" y1="895.63" x2="1877.28" y2="1032.83"/>
    <line class="st4" x1="1486.15" y1="816.88" x2="1486.15" y2="807"/>
    <line class="st4" x1="1486.15" y1="807" x2="1604.96" y2="738.41"/>
    <line class="st4" x1="1877.28" y1="895.63" x2="1604.96" y2="738.41"/>
    <line class="st4" x1="1486.15" y1="807" x2="1877.28" y2="1032.83"/>
    <line class="st4" x1="1750.63" y1="969.58" x2="1837.13" y2="1019.52"/>
    <line class="st4" x1="1837.13" y1="1019.52" x2="1877.28" y2="1042.7"/>
    <line class="st4" x1="1486.15" y1="816.88" x2="1530.7" y2="842.6"/>
    <line class="st4" x1="1530.7" y1="842.6" x2="1559.81" y2="859.41"/>
    <line class="st4" x1="1559.81" y1="859.41" x2="1634.19" y2="902.35"/>
    <line class="st4" x1="1634.19" y1="902.35" x2="1750.63" y2="969.58"/>
    <line class="st4" x1="1877.28" y1="781.49" x2="1976.13" y2="838.56"/>
    <line class="st4" x1="1877.28" y1="781.49" x2="1778.43" y2="838.56"/>
    <line class="st4" x1="1876.33" y1="1526.16" x2="1877.28" y2="1526.71"/>
    <line class="st4" x1="1877.28" y1="1526.71" x2="1877.28" y2="1042.69"/>
    <line class="st4" x1="1877.28" y1="1526.71" x2="1878.23" y2="1526.17"/>
    <line class="st4" x1="2257.48" y1="1313.8" x2="2257.48" y2="1403.25"/>
    <line class="st4" x1="1868.73" y1="1528.37" x2="1868.73" y2="1553.2"/>
    <line class="st4" x1="1868.73" y1="1553.2" x2="1868.73" y2="1568.16"/>
    <path class="st4" d="M1877.28,1622.75"/>
    <path class="st4" d="M1868.73,1585.98"/>
    <line class="st4" x1="1877.28" y1="1622.75" x2="1877.28" y2="1526.71"/>
    <line class="st4" x1="1868.73" y1="1610.25" x2="1868.73" y2="1585.98"/>
    <line class="st4" x1="1877.28" y1="1622.75" x2="1868.73" y2="1617.81"/>
    <line class="st4" x1="1868.73" y1="1617.81" x2="1868.73" y2="1610.25"/>
    <line class="st4" x1="1883.7" y1="1619.04" x2="1877.28" y2="1622.75"/>
    <path class="st4" d="M1877.28,1612.87"/>
    <path class="st4" d="M1994.89,1544.97"/>
    <path class="st4" d="M1994.89,1544.97"/>
    <path class="st4" d="M2213.04,1419.02"/>
    <path class="st4" d="M2257.48,1403.25"/>
    <path class="st4" d="M2213.04,1419.02"/>
    <line class="st4" x1="2257.48" y1="1403.25" x2="2155.31" y2="1462.24"/>
    <line class="st4" x1="2155.31" y1="1462.24" x2="1979.46" y2="1563.76"/>
    <line class="st4" x1="1979.46" y1="1563.76" x2="1883.7" y2="1619.04"/>
    <line class="st4" x1="1497.08" y1="1403.25" x2="1497.08" y2="1313.8"/>
    <line class="st4" x1="1868.73" y1="1617.81" x2="1862.32" y2="1614.1"/>
    <path class="st4" d="M1841.04,1591.95"/>
    <path class="st4" d="M1757.88,1543.93"/>
    <line class="st4" x1="1862.32" y1="1614.1" x2="1768.69" y2="1560.06"/>
    <line class="st4" x1="1768.69" y1="1560.06" x2="1597.12" y2="1461.01"/>
    <line class="st4" x1="1597.12" y1="1461.01" x2="1497.08" y2="1403.25"/>
    <path class="st4" d="M1841.04,1591.95"/>
    <path class="st4" d="M1868.73,1607.93"/>
    <line class="st4" x1="1868.73" y1="1568.16" x2="1868.73" y2="1585.98"/>
    <path class="st4" d="M1868.73,1543.54"/>
    <path class="st4" d="M1868.73,1537.33"/>
    <path class="st4" d="M1868.73,1554.89"/>
    <path class="st4" d="M1868.73,1561.1"/>
    <line class="st4" x1="2268.42" y1="807" x2="2268.42" y2="807"/>
    <line class="st4" x1="1486.15" y1="816.88" x2="1486.15" y2="842.26"/>
    <line class="st4" x1="2268.42" y1="807" x2="2268.42" y2="816.88"/>
    <line class="st4" x1="2223.86" y1="842.6" x2="2194.75" y2="859.41"/>
    <line class="st4" x1="2268.42" y1="816.88" x2="2223.86" y2="842.6"/>
    <path class="st4" d="M2213.04,1419.02"/>
    <polyline class="st4" points="517.72 258.92 517.72 260.02 518.67 259.47 517.72 258.92"/>
    <polyline class="st4" points="517.72 423.67 518.67 423.12 517.72 422.57 517.72 423.67"/>
    <polyline class="st4" points="517.72 587.31 518.67 586.76 517.72 586.22 517.72 587.31"/>
    <line class="st4" x1="517.72" y1="258.92" x2="517.72" y2="260.02"/>
    <line class="st4" x1="517.72" y1="422.57" x2="517.72" y2="423.67"/>
    <line class="st4" x1="517.72" y1="586.22" x2="517.72" y2="587.31"/>
    <line class="st4" x1="906.27" y1="973.64" x2="905.8" y2="973.92"/>
    <line class="st4" x1="905.8" y1="973.92" x2="517.72" y2="749.86"/>
    <line class="st4" x1="517.72" y1="587.31" x2="518.67" y2="586.76"/>
    <line class="st4" x1="517.72" y1="749.86" x2="517.72" y2="587.31"/>
    <line class="st4" x1="905.8" y1="811.37" x2="906.27" y2="811.09"/>
    <line class="st4" x1="517.72" y1="587.31" x2="905.8" y2="811.37"/>
    <line class="st4" x1="905.8" y1="811.37" x2="905.8" y2="973.92"/>
    <line class="st4" x1="906.27" y1="809.99" x2="905.8" y2="810.27"/>
    <line class="st4" x1="905.8" y1="810.27" x2="517.72" y2="586.22"/>
    <line class="st4" x1="517.72" y1="423.67" x2="518.67" y2="423.12"/>
    <line class="st4" x1="517.72" y1="586.22" x2="517.72" y2="423.67"/>
    <line class="st4" x1="905.8" y1="647.72" x2="906.27" y2="647.45"/>
    <line class="st4" x1="517.72" y1="423.67" x2="905.8" y2="647.72"/>
    <line class="st4" x1="905.8" y1="647.72" x2="905.8" y2="810.27"/>
    <line class="st4" x1="906.27" y1="646.35" x2="905.8" y2="646.62"/>
    <line class="st4" x1="905.8" y1="646.62" x2="517.72" y2="422.57"/>
    <line class="st4" x1="517.72" y1="260.02" x2="518.67" y2="259.47"/>
    <line class="st4" x1="517.72" y1="422.57" x2="517.72" y2="260.02"/>
    <line class="st4" x1="905.8" y1="484.07" x2="906.27" y2="483.8"/>
    <line class="st4" x1="517.72" y1="260.02" x2="905.8" y2="484.07"/>
    <line class="st4" x1="905.8" y1="484.07" x2="905.8" y2="646.62"/>
    <line class="st4" x1="906.27" y1="483.25" x2="906.27" y2="483.25"/>
    <line class="st4" x1="1025.17" y1="290.5" x2="1025.17" y2="99.94"/>
    <line class="st4" x1="914.83" y1="16.47" x2="1033.73" y2="85.12"/>
    <line class="st4" x1="1033.73" y1="85.12" x2="1033.73" y2="295.44"/>
    <line class="st4" x1="1033.73" y1="85.12" x2="1025.17" y2="90.06"/>
    <line class="st4" x1="914.83" y1="16.47" x2="906.27" y2="21.41"/>
    <line class="st4" x1="906.27" y1="483.25" x2="514.87" y2="257.27"/>
    <line class="st4" x1="752.66" y1="247.39" x2="1025.17" y2="404.72"/>
    <line class="st4" x1="906.27" y1="473.36" x2="514.87" y2="247.39"/>
    <line class="st4" x1="514.87" y1="247.39" x2="514.87" y2="257.27"/>
    <line class="st4" x1="752.66" y1="247.39" x2="514.87" y2="247.39"/>
    <line class="st4" x1="752.66" y1="247.39" x2="1025.17" y2="90.06"/>
    <line class="st4" x1="1025.17" y1="90.06" x2="906.27" y2="21.41"/>
    <line class="st4" x1="906.27" y1="21.41" x2="514.87" y2="247.39"/>
    <line class="st4" x1="761.22" y1="252.33" x2="1025.17" y2="99.94"/>
    <line class="st4" x1="1025.17" y1="99.94" x2="1025.17" y2="90.06"/>
    <line class="st4" x1="917.21" y1="228.17" x2="818.29" y2="285.28"/>
    <line class="st4" x1="1199.71" y1="504.39" x2="1297.67" y2="447.83"/>
    <line class="st4" x1="1297.67" y1="447.83" x2="1025.17" y2="290.5"/>
    <line class="st4" x1="1025.17" y1="290.5" x2="917.21" y2="228.17"/>
    <line class="st4" x1="917.21" y1="162.27" x2="917.21" y2="228.17"/>
    <line class="st4" x1="536.75" y1="760.85" x2="536.75" y2="850.36"/>
    <line class="st4" x1="526.87" y1="846.55" x2="917.22" y2="1069.99"/>
    <line class="st4" x1="526.87" y1="757.04" x2="526.87" y2="846.55"/>
    <g id="Layer_6" class="st2">
      <g>
        <line class="st4" x1="573.29" y1="1232.33" x2="1072.9" y2="1232.33"/>
        <g>
          <path class="st3" d="M1072.69,1236.09c2.08,0,3.76-1.68,3.76-3.76s-1.68-3.76-3.76-3.76-3.76,1.68-3.76,3.76,1.68,3.76,3.76,3.76Z"/>
          <path d="M1072.69,1236.59c-2.35,0-4.26-1.91-4.26-4.26s1.91-4.26,4.26-4.26,4.26,1.91,4.26,4.26-1.91,4.26-4.26,4.26,2.35,0,0,0ZM1072.69,1229.07c-1.8,0-3.26,1.46-3.26,3.26s1.46,3.26,3.26,3.26,3.26-1.46,3.26-3.26-1.46-3.26-3.26-3.26,1.8,0,0,0Z"/>
        </g>
      </g>
      <g>
        <line class="st4" x1="1029.8" y1="1495.48" x2="1529.42" y2="1495.48"/>
        <g>
          <circle class="st3" cx="1529.21" cy="1495.48" r="3.76"/>
          <path d="M1529.21,1499.74c-2.35,0-4.26-1.91-4.26-4.26s1.91-4.26,4.26-4.26,4.26,1.91,4.26,4.26-1.91,4.26-4.26,4.26,2.35,0,0,0ZM1529.21,1492.22c-1.8,0-3.26,1.46-3.26,3.26s1.46,3.26,3.26,3.26,3.26-1.46,3.26-3.26-1.46-3.26-3.26-3.26,1.8,0,0,0Z"/>
        </g>
      </g>
      <g>
        <line class="st4" x1="102.47" y1="963.96" x2="602.09" y2="963.96"/>
        <g>
          <circle class="st3" cx="601.88" cy="963.96" r="3.76"/>
          <path d="M601.88,968.22c-2.35,0-4.26-1.91-4.26-4.26s1.91-4.26,4.26-4.26,4.26,1.91,4.26,4.26-1.91,4.26-4.26,4.26,2.35,0,0,0ZM601.88,960.7c-1.8,0-3.26,1.46-3.26,3.26s1.46,3.26,3.26,3.26,3.26-1.46,3.26-3.26-1.46-3.26-3.26-3.26,1.8,0,0,0Z"/>
        </g>
      </g>
      <g>
        <line class="st4" x1="2422.94" y1="561.36" x2="2115.54" y2="561.36"/>
        <g>
          <circle class="st3" cx="2115.75" cy="561.36" r="3.76"/>
          <path d="M2115.75,557.1c2.35,0,4.26,1.91,4.26,4.26s-1.91,4.26-4.26,4.26-4.26-1.91-4.26-4.26,1.91-4.26,4.26-4.26-2.35,0,0,0ZM2115.75,564.62c1.8,0,3.26-1.46,3.26-3.26s-1.46-3.26-3.26-3.26-3.26,1.46-3.26,3.26,1.46,3.26,3.26,3.26-1.8,0,0,0Z"/>
        </g>
      </g>
      <g class="st1">
        <text class="st0" transform="translate(569.07 1222.14)"><tspan x="0" y="0">RC802</tspan></text>
      </g>
      <g class="st1">
        <text class="st0" transform="translate(1025.59 1485.29)"><tspan x="0" y="0">RC803</tspan></text>
      </g>
      <g class="st1">
        <text class="st0" transform="translate(98.26 953.77)"><tspan x="0" y="0">RC803</tspan></text>
      </g>
      <g class="st1">
        <text class="st0" transform="translate(2243.11 551.17)"><tspan x="0" y="0">RC804L</tspan></text>
      </g>
      <g>
        <g>
          <polyline class="st5" points="765.98 481.85 765.5 482.13 1343.39 815.77 1343.87 815.5 765.98 481.85"/>
          <polyline class="st5" points="765.5 645.93 1343.39 979.57 1345.29 978.47 1344.34 977.92 1343.39 978.47 766.45 645.38 765.5 645.93"/>
          <polyline class="st5" points="766.45 809.18 765.5 809.73 1343.39 1143.37 1345.29 1142.27 1344.34 1141.72 1343.39 1142.27 766.45 809.18"/>
          <line class="st5" x1="765.98" y1="481.85" x2="765.5" y2="482.13"/>
          <line class="st5" x1="765.5" y1="482.13" x2="765.5" y2="644.83"/>
          <line class="st5" x1="765.5" y1="482.13" x2="1343.39" y2="815.77"/>
          <line class="st5" x1="1343.39" y1="815.77" x2="1343.39" y2="978.47"/>
          <line class="st5" x1="1343.39" y1="978.47" x2="765.5" y2="644.83"/>
          <line class="st5" x1="1345.29" y1="978.47" x2="1344.34" y2="977.92"/>
          <line class="st5" x1="766.45" y1="645.38" x2="765.5" y2="645.93"/>
          <line class="st5" x1="765.5" y1="645.93" x2="765.5" y2="808.63"/>
          <line class="st5" x1="765.5" y1="645.93" x2="1343.39" y2="979.57"/>
          <line class="st5" x1="1343.39" y1="979.57" x2="1343.39" y2="1142.27"/>
          <line class="st5" x1="1343.39" y1="1142.27" x2="765.5" y2="808.63"/>
          <line class="st5" x1="766.45" y1="809.18" x2="765.5" y2="809.73"/>
          <line class="st5" x1="765.5" y1="809.73" x2="765.5" y2="972.43"/>
          <line class="st5" x1="765.5" y1="809.73" x2="1343.39" y2="1143.37"/>
          <line class="st5" x1="1343.39" y1="1143.37" x2="1343.39" y2="1306.07"/>
          <line class="st5" x1="1343.39" y1="1306.07" x2="765.5" y2="972.43"/>
          <line class="st5" x1="1056.82" y1="502.47" x2="1155.83" y2="445.31"/>
          <line class="st5" x1="1155.83" y1="445.31" x2="1735.63" y2="780.04"/>
          <line class="st5" x1="1735.63" y1="780.04" x2="1636.92" y2="837.04"/>
          <line class="st5" x1="883.08" y1="402.16" x2="764.07" y2="470.86"/>
          <line class="st5" x1="764.07" y1="470.86" x2="764.07" y2="480.75"/>
          <line class="st5" x1="764.07" y1="470.86" x2="1343.87" y2="805.6"/>
          <line class="st5" x1="1343.87" y1="805.6" x2="1343.87" y2="815.5"/>
          <line class="st5" x1="1343.87" y1="815.5" x2="764.07" y2="480.75"/>
          <line class="st5" x1="1343.87" y1="805.6" x2="1462.87" y2="736.9"/>
          <line class="st5" x1="1462.87" y1="736.9" x2="883.08" y2="402.16"/>
          <line class="st5" x1="775.02" y1="977.93" x2="775.02" y2="1068.07"/>
          <path class="st5" d="M1354.81,1311.88"/>
          <line class="st5" x1="1354.88" y1="1401.33" x2="775.02" y2="1068.07"/>
        </g>
        <g>
          <line class="st5" x1="1344.43" y1="816.34" x2="1345.38" y2="815.79"/>
          <line class="st5" x1="1344.43" y1="978.77" x2="1344.43" y2="816.34"/>
          <line class="st5" x1="1732.24" y1="1040.24" x2="1733.19" y2="1039.69"/>
          <line class="st5" x1="1344.43" y1="816.34" x2="1732.24" y2="1040.24"/>
          <line class="st5" x1="1732.24" y1="1202.67" x2="1734.13" y2="1201.58"/>
          <line class="st5" x1="1734.13" y1="1201.58" x2="1734.13" y2="1040.24"/>
          <line class="st5" x1="1732.24" y1="1040.24" x2="1732.24" y2="1202.67"/>
          <line class="st5" x1="1732.24" y1="1202.67" x2="1344.43" y2="978.77"/>
          <line class="st5" x1="1344.43" y1="979.87" x2="1345.38" y2="979.32"/>
          <line class="st5" x1="1344.43" y1="1142.31" x2="1344.43" y2="979.87"/>
          <line class="st5" x1="1732.24" y1="1203.77" x2="1734.13" y2="1202.67"/>
          <line class="st5" x1="1734.13" y1="1202.67" x2="1733.18" y2="1202.12"/>
          <line class="st5" x1="1344.43" y1="979.87" x2="1732.24" y2="1203.77"/>
          <line class="st5" x1="1732.24" y1="1366.21" x2="1734.13" y2="1365.11"/>
          <line class="st5" x1="1734.13" y1="1365.11" x2="1734.13" y2="1202.67"/>
          <line class="st5" x1="1732.24" y1="1203.77" x2="1732.24" y2="1366.21"/>
          <line class="st5" x1="1732.24" y1="1366.21" x2="1344.43" y2="1142.31"/>
          <line class="st5" x1="1344.43" y1="1143.41" x2="1345.38" y2="1142.86"/>
          <line class="st5" x1="1344.43" y1="1305.84" x2="1344.43" y2="1143.41"/>
          <line class="st5" x1="1732.24" y1="1367.3" x2="1734.13" y2="1366.21"/>
          <line class="st5" x1="1734.13" y1="1366.21" x2="1733.18" y2="1365.66"/>
          <line class="st5" x1="1344.43" y1="1143.41" x2="1732.24" y2="1367.3"/>
          <line class="st5" x1="1732.24" y1="1529.74" x2="1734.13" y2="1528.64"/>
          <line class="st5" x1="1734.13" y1="1528.64" x2="1734.13" y2="1366.21"/>
          <line class="st5" x1="1732.24" y1="1367.3" x2="1732.24" y2="1529.74"/>
          <line class="st5" x1="1732.24" y1="1529.74" x2="1344.43" y2="1305.84"/>
          <line class="st5" x1="1737.94" y1="1529.74" x2="1736.04" y2="1528.64"/>
          <line class="st5" x1="2125.75" y1="1305.84" x2="1737.94" y2="1529.74"/>
          <line class="st5" x1="1737.94" y1="1367.3" x2="1736.04" y2="1366.21"/>
          <line class="st5" x1="1736.04" y1="1366.21" x2="1736.04" y2="1528.64"/>
          <line class="st5" x1="1737.94" y1="1529.74" x2="1737.94" y2="1367.3"/>
          <line class="st5" x1="2125.75" y1="1143.41" x2="2124.8" y2="1142.86"/>
          <line class="st5" x1="1736.99" y1="1365.66" x2="1736.04" y2="1366.21"/>
          <line class="st5" x1="1737.94" y1="1367.3" x2="2125.75" y2="1143.41"/>
          <line class="st5" x1="2125.75" y1="1143.41" x2="2125.75" y2="1305.84"/>
          <line class="st5" x1="1737.94" y1="1366.21" x2="1736.04" y2="1365.11"/>
          <line class="st5" x1="2125.75" y1="1142.31" x2="1737.94" y2="1366.21"/>
          <line class="st5" x1="1737.94" y1="1203.77" x2="1736.04" y2="1202.67"/>
          <line class="st5" x1="1736.04" y1="1202.67" x2="1736.04" y2="1365.11"/>
          <line class="st5" x1="1737.94" y1="1366.21" x2="1737.94" y2="1203.77"/>
          <line class="st5" x1="2125.75" y1="979.87" x2="2124.8" y2="979.32"/>
          <line class="st5" x1="1736.99" y1="1202.12" x2="1736.04" y2="1202.67"/>
          <line class="st5" x1="1737.94" y1="1203.77" x2="2125.75" y2="979.87"/>
          <line class="st5" x1="2125.75" y1="979.87" x2="2125.75" y2="1142.31"/>
          <line class="st5" x1="1737.94" y1="1202.67" x2="1736.04" y2="1201.58"/>
          <line class="st5" x1="2125.75" y1="978.77" x2="1737.94" y2="1202.67"/>
          <line class="st5" x1="1737.94" y1="1040.24" x2="1736.99" y2="1039.69"/>
          <line class="st5" x1="1736.04" y1="1040.24" x2="1736.04" y2="1201.58"/>
          <line class="st5" x1="1737.94" y1="1202.67" x2="1737.94" y2="1040.24"/>
          <line class="st5" x1="2125.75" y1="816.34" x2="2124.8" y2="815.79"/>
          <line class="st5" x1="1737.94" y1="1040.24" x2="2125.75" y2="816.34"/>
          <line class="st5" x1="2125.75" y1="816.34" x2="2125.75" y2="978.77"/>
          <path class="st5" d="M2115.29,1401.33"/>
          <path class="st5" d="M2126.22,1400.08"/>
          <path class="st5" d="M2126.22,1270.03"/>
          <line class="st5" x1="2126.22" y1="1270.03" x2="2126.22" y2="1197.32"/>
          <line class="st5" x1="2126.22" y1="1197.32" x2="2126.22" y2="1046.14"/>
          <line class="st5" x1="2126.22" y1="1046.14" x2="2126.22" y2="1033.17"/>
          <line class="st5" x1="2126.22" y1="1033.17" x2="2126.22" y2="957.57"/>
          <line class="st5" x1="2126.22" y1="957.57" x2="2126.22" y2="878.21"/>
          <line class="st5" x1="2126.22" y1="878.21" x2="2126.22" y2="840.35"/>
          <line class="st5" x1="2126.22" y1="840.35" x2="2126.22" y2="814.96"/>
          <line class="st5" x1="2007.4" y1="736.49" x2="2015.97" y2="731.55"/>
          <line class="st5" x1="2015.97" y1="731.55" x2="2134.77" y2="800.15"/>
          <path class="st5" d="M2134.77,800.15"/>
          <path class="st5" d="M2111.16,1421.15"/>
          <path class="st5" d="M2122.1,1427.46"/>
          <line class="st5" x1="2134.77" y1="800.15" x2="2126.22" y2="805.09"/>
          <path class="st5" d="M2148.23,1403.71"/>
          <path class="st5" d="M2139.68,1376.82"/>
          <path class="st5" d="M2134.77,1402.69"/>
          <line class="st5" x1="1343.96" y1="805.09" x2="1343.96" y2="805.09"/>
          <line class="st5" x1="1343.96" y1="840.35" x2="1343.96" y2="878.21"/>
          <line class="st5" x1="1343.96" y1="878.21" x2="1343.96" y2="957.57"/>
          <line class="st5" x1="1343.96" y1="957.57" x2="1343.96" y2="1033.17"/>
          <line class="st5" x1="1343.96" y1="1033.17" x2="1343.96" y2="1046.14"/>
          <line class="st5" x1="1343.96" y1="1046.14" x2="1343.96" y2="1197.32"/>
          <line class="st5" x1="1343.96" y1="1197.32" x2="1343.96" y2="1270.03"/>
          <line class="st5" x1="2007.4" y1="736.49" x2="2126.22" y2="805.09"/>
          <line class="st5" x1="1735.08" y1="893.71" x2="2007.4" y2="736.49"/>
          <line class="st5" x1="2126.22" y1="805.09" x2="1735.08" y2="1030.91"/>
          <line class="st5" x1="1735.08" y1="1030.91" x2="1735.08" y2="1040.78"/>
          <line class="st5" x1="1735.08" y1="1040.78" x2="1893.1" y2="949.55"/>
          <line class="st5" x1="1893.1" y1="949.55" x2="1978.18" y2="900.44"/>
          <line class="st5" x1="1978.18" y1="900.44" x2="2052.56" y2="857.49"/>
          <line class="st5" x1="1735.08" y1="893.71" x2="1735.08" y2="1030.91"/>
          <line class="st5" x1="1343.96" y1="814.96" x2="1343.96" y2="805.09"/>
          <line class="st5" x1="1343.96" y1="805.09" x2="1462.76" y2="736.49"/>
          <line class="st5" x1="1735.08" y1="893.71" x2="1462.76" y2="736.49"/>
          <line class="st5" x1="1343.96" y1="805.09" x2="1735.08" y2="1030.91"/>
          <line class="st5" x1="1608.44" y1="967.66" x2="1694.93" y2="1017.6"/>
          <line class="st5" x1="1694.93" y1="1017.6" x2="1735.08" y2="1040.78"/>
          <line class="st5" x1="1343.96" y1="814.96" x2="1388.51" y2="840.68"/>
          <line class="st5" x1="1388.51" y1="840.68" x2="1417.62" y2="857.49"/>
          <line class="st5" x1="1417.62" y1="857.49" x2="1492" y2="900.44"/>
          <line class="st5" x1="1492" y1="900.44" x2="1608.44" y2="967.66"/>
          <line class="st5" x1="1735.08" y1="779.57" x2="1833.94" y2="836.64"/>
          <line class="st5" x1="1735.08" y1="779.57" x2="1636.23" y2="836.64"/>
          <line class="st5" x1="1734.13" y1="1524.24" x2="1735.08" y2="1524.79"/>
          <line class="st5" x1="1735.08" y1="1524.79" x2="1735.08" y2="1040.78"/>
          <line class="st5" x1="1735.08" y1="1524.79" x2="1736.04" y2="1524.25"/>
          <line class="st5" x1="2115.28" y1="1311.88" x2="2115.28" y2="1401.33"/>
          <line class="st5" x1="1726.53" y1="1526.45" x2="1726.53" y2="1551.28"/>
          <line class="st5" x1="1726.53" y1="1551.28" x2="1726.53" y2="1566.24"/>
          <path class="st5" d="M1735.08,1620.83"/>
          <path class="st5" d="M1726.53,1584.06"/>
          <line class="st5" x1="1735.08" y1="1620.83" x2="1735.08" y2="1524.79"/>
          <line class="st5" x1="1726.53" y1="1608.34" x2="1726.53" y2="1584.06"/>
          <line class="st5" x1="1735.08" y1="1620.83" x2="1726.53" y2="1615.89"/>
          <line class="st5" x1="1726.53" y1="1615.89" x2="1726.53" y2="1608.34"/>
          <line class="st5" x1="1741.5" y1="1617.12" x2="1735.08" y2="1620.83"/>
          <path class="st5" d="M1735.08,1610.95"/>
          <path class="st5" d="M1852.7,1543.05"/>
          <path class="st5" d="M1852.7,1543.05"/>
          <path class="st5" d="M2070.84,1417.11"/>
          <path class="st5" d="M2115.28,1401.33"/>
          <path class="st5" d="M2070.84,1417.11"/>
          <line class="st5" x1="2115.28" y1="1401.33" x2="2013.11" y2="1460.32"/>
          <line class="st5" x1="2013.11" y1="1460.32" x2="1837.27" y2="1561.85"/>
          <line class="st5" x1="1837.27" y1="1561.85" x2="1741.5" y2="1617.12"/>
          <line class="st5" x1="1354.88" y1="1401.33" x2="1354.88" y2="1311.88"/>
          <line class="st5" x1="1726.53" y1="1615.89" x2="1720.12" y2="1612.19"/>
          <path class="st5" d="M1698.85,1590.03"/>
          <path class="st5" d="M1615.68,1542.02"/>
          <line class="st5" x1="1720.12" y1="1612.19" x2="1626.49" y2="1558.14"/>
          <line class="st5" x1="1626.49" y1="1558.14" x2="1454.93" y2="1459.09"/>
          <line class="st5" x1="1454.93" y1="1459.09" x2="1354.88" y2="1401.33"/>
          <path class="st5" d="M1698.85,1590.03"/>
          <path class="st5" d="M1726.53,1606.01"/>
          <line class="st5" x1="1726.53" y1="1566.24" x2="1726.53" y2="1584.06"/>
          <path class="st5" d="M1726.53,1541.62"/>
          <path class="st5" d="M1726.53,1535.41"/>
          <path class="st5" d="M1726.53,1552.97"/>
          <path class="st5" d="M1726.53,1559.18"/>
          <line class="st5" x1="2126.22" y1="805.09" x2="2126.22" y2="805.09"/>
          <line class="st5" x1="1343.96" y1="814.96" x2="1343.96" y2="840.35"/>
          <line class="st5" x1="2126.22" y1="805.09" x2="2126.22" y2="814.96"/>
          <line class="st5" x1="2081.66" y1="840.68" x2="2052.56" y2="857.49"/>
          <line class="st5" x1="2126.22" y1="814.96" x2="2081.66" y2="840.68"/>
          <path class="st5" d="M2070.84,1417.11"/>
          <line class="st5" x1="2126.22" y1="1029.03" x2="2134.77" y2="1024.09"/>
        </g>
        <g>
          <polyline class="st5" points="375.53 257 375.53 258.1 376.48 257.55 375.53 257"/>
          <polyline class="st5" points="375.53 421.75 376.48 421.2 375.53 420.65 375.53 421.75"/>
          <polyline class="st5" points="375.53 585.4 376.48 584.85 375.53 584.3 375.53 585.4"/>
          <line class="st5" x1="375.53" y1="257" x2="375.53" y2="258.1"/>
          <line class="st5" x1="375.53" y1="420.65" x2="375.53" y2="421.75"/>
          <line class="st5" x1="375.53" y1="584.3" x2="375.53" y2="585.4"/>
          <line class="st5" x1="764.07" y1="971.72" x2="763.6" y2="972"/>
          <line class="st5" x1="763.6" y1="972" x2="375.53" y2="747.94"/>
          <line class="st5" x1="375.53" y1="585.4" x2="376.48" y2="584.85"/>
          <line class="st5" x1="375.53" y1="747.94" x2="375.53" y2="585.4"/>
          <line class="st5" x1="763.6" y1="809.45" x2="764.07" y2="809.17"/>
          <line class="st5" x1="375.53" y1="585.4" x2="763.6" y2="809.45"/>
          <line class="st5" x1="763.6" y1="809.45" x2="763.6" y2="972"/>
          <line class="st5" x1="764.07" y1="808.08" x2="763.6" y2="808.35"/>
          <line class="st5" x1="763.6" y1="808.35" x2="375.53" y2="584.3"/>
          <line class="st5" x1="375.53" y1="421.75" x2="376.48" y2="421.2"/>
          <line class="st5" x1="375.53" y1="584.3" x2="375.53" y2="421.75"/>
          <line class="st5" x1="763.6" y1="645.8" x2="764.07" y2="645.53"/>
          <line class="st5" x1="375.53" y1="421.75" x2="763.6" y2="645.8"/>
          <line class="st5" x1="763.6" y1="645.8" x2="763.6" y2="808.35"/>
          <line class="st5" x1="764.07" y1="644.43" x2="763.6" y2="644.7"/>
          <line class="st5" x1="763.6" y1="644.7" x2="375.53" y2="420.65"/>
          <line class="st5" x1="375.53" y1="258.1" x2="376.48" y2="257.55"/>
          <line class="st5" x1="375.53" y1="420.65" x2="375.53" y2="258.1"/>
          <line class="st5" x1="763.6" y1="482.15" x2="764.07" y2="481.88"/>
          <line class="st5" x1="375.53" y1="258.1" x2="763.6" y2="482.15"/>
          <line class="st5" x1="763.6" y1="482.15" x2="763.6" y2="644.7"/>
          <line class="st5" x1="764.07" y1="481.33" x2="764.07" y2="481.33"/>
          <line class="st5" x1="882.97" y1="288.58" x2="882.97" y2="98.02"/>
          <line class="st5" x1="772.64" y1="14.55" x2="891.53" y2="83.2"/>
          <line class="st5" x1="891.53" y1="83.2" x2="891.53" y2="293.52"/>
          <line class="st5" x1="891.53" y1="83.2" x2="882.97" y2="88.14"/>
          <line class="st5" x1="772.64" y1="14.55" x2="764.07" y2="19.5"/>
          <line class="st5" x1="764.07" y1="481.33" x2="372.67" y2="255.36"/>
          <line class="st5" x1="610.46" y1="245.47" x2="882.97" y2="402.8"/>
          <line class="st5" x1="764.07" y1="471.45" x2="372.67" y2="245.47"/>
          <line class="st5" x1="372.67" y1="245.47" x2="372.67" y2="255.36"/>
          <line class="st5" x1="610.46" y1="245.47" x2="372.67" y2="245.47"/>
          <line class="st5" x1="610.46" y1="245.47" x2="882.97" y2="88.14"/>
          <line class="st5" x1="882.97" y1="88.14" x2="764.07" y2="19.5"/>
          <line class="st5" x1="764.07" y1="19.5" x2="372.67" y2="245.47"/>
          <line class="st5" x1="619.02" y1="250.41" x2="882.97" y2="98.02"/>
          <line class="st5" x1="882.97" y1="98.02" x2="882.97" y2="88.14"/>
          <line class="st5" x1="775.01" y1="226.25" x2="676.1" y2="283.36"/>
          <line class="st5" x1="1057.51" y1="502.47" x2="1155.48" y2="445.91"/>
          <line class="st5" x1="1155.48" y1="445.91" x2="882.97" y2="288.58"/>
          <line class="st5" x1="882.97" y1="288.58" x2="775.01" y2="226.25"/>
          <line class="st5" x1="775.01" y1="160.35" x2="775.01" y2="226.25"/>
          <line class="st5" x1="394.55" y1="758.93" x2="394.55" y2="848.44"/>
          <line class="st5" x1="384.67" y1="844.63" x2="775.02" y2="1068.07"/>
          <line class="st5" x1="384.67" y1="755.12" x2="384.67" y2="844.63"/>
        </g>
        <g>
          <line class="st5" x1="2503.24" y1="1087.81" x2="2126.09" y2="1305.55"/>
          <line class="st5" x1="2503.57" y1="965.85" x2="2503.57" y2="1087.28"/>
          <line class="st5" x1="2503.57" y1="1087.28" x2="2503.44" y2="1087.62"/>
          <line class="st5" x1="2503.44" y1="1087.62" x2="2503.37" y2="1087.7"/>
          <line class="st5" x1="2503.37" y1="1087.7" x2="2503.54" y2="1087.42"/>
          <line class="st5" x1="2503.54" y1="1087.42" x2="2503.5" y2="1087.51"/>
          <line class="st5" x1="2503.5" y1="1087.51" x2="2503.24" y2="1087.81"/>
          <line class="st5" x1="2503.24" y1="1087.81" x2="2503.28" y2="1087.78"/>
          <line class="st5" x1="2225.76" y1="1085.58" x2="2126.09" y2="1143.12"/>
          <polyline class="st5" points="2213.07 1080.14 2126.09 1029.93 2125.54 1029.61"/>
          <line class="st5" x1="2213.07" y1="1080.15" x2="2221.47" y2="1084.24"/>
          <line class="st5" x1="2221.47" y1="1084.24" x2="2235.65" y2="1088.65"/>
          <line class="st5" x1="2235.65" y1="1088.65" x2="2251.27" y2="1090.92"/>
          <line class="st5" x1="2251.27" y1="1090.92" x2="2267.38" y2="1090.92"/>
          <line class="st5" x1="2267.38" y1="1090.92" x2="2283" y2="1088.65"/>
          <line class="st5" x1="2283" y1="1088.65" x2="2297.18" y2="1084.24"/>
          <line class="st5" x1="2297.18" y1="1084.24" x2="2305.59" y2="1080.15"/>
          <line class="st5" x1="2305.59" y1="1080.15" x2="2312.79" y2="1076"/>
          <line class="st5" x1="2312.79" y1="1076" x2="2386.42" y2="1033.48"/>
          <line class="st5" x1="2386.42" y1="1033.48" x2="2516.47" y2="958.4"/>
          <line class="st5" x1="2516.47" y1="958.4" x2="2590.11" y2="915.88"/>
          <line class="st5" x1="2590.11" y1="915.88" x2="2605.81" y2="906.81"/>
          <line class="st5" x1="2605.81" y1="906.81" x2="2612.91" y2="901.96"/>
          <line class="st5" x1="2612.91" y1="901.96" x2="2620.54" y2="893.78"/>
          <line class="st5" x1="2620.54" y1="893.78" x2="2624.47" y2="884.76"/>
          <line class="st5" x1="2305.59" y1="1070.34" x2="2605.81" y2="897"/>
          <line class="st5" x1="2221.47" y1="1074.43" x2="2213.07" y2="1070.34"/>
          <path class="st5" d="M1731.58,792.35"/>
          <line class="st5" x1="2213.07" y1="1070.34" x2="2134.44" y2="1023.76"/>
          <line class="st5" x1="1726.39" y1="786.97" x2="2116.99" y2="561.36"/>
          <line class="st5" x1="2116.99" y1="561.36" x2="2605.81" y2="843.59"/>
          <line class="st5" x1="2605.81" y1="843.59" x2="2612.91" y2="848.44"/>
          <line class="st5" x1="2612.91" y1="848.44" x2="2620.54" y2="856.62"/>
          <line class="st5" x1="2620.54" y1="856.62" x2="2624.47" y2="865.64"/>
          <line class="st5" x1="2624.47" y1="865.64" x2="2624.47" y2="874.95"/>
          <line class="st5" x1="2624.47" y1="874.95" x2="2620.54" y2="883.97"/>
          <line class="st5" x1="2620.54" y1="883.97" x2="2612.91" y2="892.15"/>
          <line class="st5" x1="2612.91" y1="892.15" x2="2605.81" y2="897"/>
          <line class="st5" x1="2305.59" y1="1070.34" x2="2297.18" y2="1074.43"/>
          <line class="st5" x1="2297.18" y1="1074.43" x2="2283" y2="1078.84"/>
          <line class="st5" x1="2283" y1="1078.84" x2="2267.38" y2="1081.11"/>
          <line class="st5" x1="2267.38" y1="1081.11" x2="2251.27" y2="1081.11"/>
          <line class="st5" x1="2251.27" y1="1081.11" x2="2235.65" y2="1078.84"/>
          <line class="st5" x1="2235.65" y1="1078.84" x2="2221.47" y2="1074.43"/>
          <line class="st5" x1="2624.47" y1="884.76" x2="2624.47" y2="874.95"/>
          <polyline class="st5" points="2493.46 1183.36 2135.29 1391.18 2126.8 1396.08 2115.29 1401.33"/>
          <line class="st5" x1="2493.46" y1="1093.46" x2="2493.46" y2="1183.36"/>
          <path class="st5" d="M2125.12,1029.38"/>
        </g>
        <line class="st5" x1="2134.77" y1="1024.09" x2="2134.77" y2="800.15"/>
        <line class="st5" x1="2493.46" y1="1182.59" x2="2503.57" y2="1187.52"/>
        <line class="st5" x1="2503.57" y1="1187.52" x2="2503.57" y2="1179.97"/>
        <line class="st5" x1="2503.57" y1="1179.97" x2="2503.57" y2="1090.01"/>
        <line class="st5" x1="2512.12" y1="961.02" x2="2512.12" y2="1182.59"/>
        <line class="st5" x1="2512.12" y1="1182.59" x2="2503.57" y2="1187.52"/>
      </g>
    </g>
  </g>
  <g id="Layer_2">
    <text class="st0" transform="translate(699.27 1221.53)"><tspan x="0" y="0">RC802</tspan></text>
    <text class="st0" transform="translate(1155.79 1484.68)"><tspan x="0" y="0">RC803</tspan></text>
    <text class="st0" transform="translate(228.46 953.16)"><tspan x="0" y="0">RC803</tspan></text>
  </g>
</svg>