<?xml version="1.0" encoding="UTF-8"?>
<svg xmlns="http://www.w3.org/2000/svg" version="1.1" viewBox="0 0 841.89 841.89">
  <!-- Generator: Adobe Illustrator 30.3.0, SVG Export Plug-In . SVG Version: 2.1.3 Build 182)  -->
  <defs>
    <style>
      .st0, .st1 {
        fill: none;
        stroke: #000;
        stroke-linecap: round;
        stroke-linejoin: round;
      }

      .st1 {
        stroke-width: .5px;
      }

      .st2 {
        fill: #1d1d1b;
      }
    </style>
  </defs>
  <g id="Layer_1">
    <line class="st0" x1="702.14" y1="540.41" x2="454" y2="683.71"/>
    <line class="st0" x1="454" y1="683.71" x2="196.5" y2="535.03"/>
    <line class="st0" x1="179.95" y1="494" x2="179.95" y2="114.17"/>
    <circle class="st2" cx="180.28" cy="112.6" r="3.98"/>
    <circle class="st2" cx="179.95" cy="494" r="3.98"/>
    <circle class="st2" cx="196.5" cy="535.03" r="3.98"/>
    <circle class="st2" cx="454" cy="683.71" r="3.98"/>
    <circle class="st2" cx="702.14" cy="540.41" r="3.98"/>
    <path d="M159.41,309.65c0-8.37-4.14-12.96-11.97-12.96s-12.24,4.68-12.24,12.96v26.91h-4.59v-64.08h4.59v25.83c3.24-3.78,7.47-5.67,12.78-5.67,9.99,0,16.02,6.12,16.02,16.2v27.72h-4.59v-26.91Z"/>
    <path d="M612.92,667.87c-3.87,5.04-7.92,6.12-12.87,6.12-4.59,0-8.37-1.53-10.62-3.78-4.41-4.41-5.58-11.61-5.58-18.45s1.17-14.04,5.58-18.45c2.25-2.25,6.03-3.78,10.62-3.78,4.95,0,9,1.08,12.87,6.12v-26.28h4.59v64.08h-4.59v-5.58h0ZM600.68,633.58c-10.62,0-12.24,9.18-12.24,18.18s1.62,18.18,12.24,18.18,12.24-9.18,12.24-18.18-1.62-18.18-12.24-18.18Z"/>
    <path d="M315.19,685.54l-12.24-36.18-12.24,36.18h-4.68l-13.86-43.38h5.04l11.07,37.98,12.42-37.98h4.5l12.42,37.98,11.07-37.98h5.04l-13.86,43.38h-4.68Z"/>
  </g>
  <g id="Layer_2">
    <g>
      <line class="st1" x1="523.94" y1="214.61" x2="523.95" y2="214.61"/>
      <line class="st1" x1="568.41" y1="261.09" x2="593.25" y2="269.09"/>
      <line class="st1" x1="593.25" y1="269.09" x2="608.1" y2="270.33"/>
      <line class="st1" x1="608.1" y1="270.33" x2="623.67" y2="269.48"/>
      <line class="st1" x1="623.67" y1="269.48" x2="637.89" y2="267.02"/>
      <line class="st1" x1="637.89" y1="267.02" x2="639.85" y2="266.56"/>
      <line class="st1" x1="639.85" y1="266.56" x2="656.48" y2="261.58"/>
      <line class="st1" x1="656.48" y1="261.58" x2="673.4" y2="254.59"/>
      <line class="st1" x1="673.4" y1="254.59" x2="688.17" y2="246.87"/>
      <line class="st1" x1="688.17" y1="246.87" x2="690.49" y2="245.66"/>
      <line class="st1" x1="690.49" y1="245.66" x2="696.71" y2="241.94"/>
      <line class="st1" x1="448.57" y1="640.4" x2="448.57" y2="620.21"/>
      <line class="st1" x1="448.57" y1="620.21" x2="448.57" y2="608.04"/>
      <line class="st1" x1="448.57" y1="608.04" x2="448.57" y2="600.28"/>
      <line class="st1" x1="448.57" y1="600.28" x2="448.57" y2="547.79"/>
      <line class="st1" x1="448.57" y1="547.79" x2="448.57" y2="459.71"/>
      <line class="st1" x1="448.57" y1="459.71" x2="448.57" y2="412.45"/>
      <line class="st1" x1="448.57" y1="412.45" x2="448.57" y2="354.87"/>
      <line class="st1" x1="448.57" y1="354.87" x2="448.57" y2="304.52"/>
      <line class="st1" x1="448.57" y1="304.52" x2="448.57" y2="280.5"/>
      <line class="st1" x1="448.57" y1="280.5" x2="448.57" y2="264.39"/>
      <path class="st1" d="M579.28,265.77"/>
      <path class="st1" d="M568.99,261.52"/>
      <path class="st1" d="M593.25,269.09"/>
      <path class="st1" d="M579.28,265.77"/>
      <line class="st1" x1="695.92" y1="248.79" x2="702.14" y2="245.08"/>
      <line class="st1" x1="702.14" y1="245.08" x2="696.71" y2="241.94"/>
      <line class="st1" x1="529.37" y1="217.75" x2="531.9" y2="222.85"/>
      <line class="st1" x1="523.95" y1="214.61" x2="529.37" y2="217.75"/>
      <line class="st1" x1="531.9" y1="222.85" x2="539.85" y2="235.74"/>
      <line class="st1" x1="539.85" y1="235.74" x2="549.2" y2="246.89"/>
      <line class="st1" x1="549.2" y1="246.89" x2="559.85" y2="256.18"/>
      <line class="st1" x1="559.85" y1="256.18" x2="571.73" y2="263.54"/>
      <line class="st1" x1="571.73" y1="263.54" x2="584.71" y2="268.91"/>
      <line class="st1" x1="584.71" y1="268.91" x2="598.68" y2="272.22"/>
      <line class="st1" x1="598.68" y1="272.22" x2="613.52" y2="273.46"/>
      <line class="st1" x1="613.52" y1="273.46" x2="629.1" y2="272.62"/>
      <line class="st1" x1="629.1" y1="272.62" x2="645.27" y2="269.69"/>
      <line class="st1" x1="645.27" y1="269.69" x2="661.9" y2="264.71"/>
      <line class="st1" x1="661.9" y1="264.71" x2="678.84" y2="257.73"/>
      <line class="st1" x1="678.84" y1="257.73" x2="695.92" y2="248.79"/>
      <path class="st1" d="M613.52,273.46"/>
      <path class="st1" d="M584.71,268.91"/>
      <line class="st1" x1="702.14" y1="500.27" x2="702.14" y2="245.08"/>
      <line class="st1" x1="549.2" y1="246.89" x2="571.73" y2="263.54"/>
      <line class="st1" x1="529.37" y1="217.75" x2="539.85" y2="235.74"/>
      <line class="st1" x1="529.37" y1="217.75" x2="454" y2="261.27"/>
      <line class="st1" x1="454" y1="261.27" x2="454" y2="643.54"/>
      <line class="st1" x1="454" y1="643.54" x2="702.14" y2="500.27"/>
      <line class="st1" x1="409.37" y1="241.76" x2="325.25" y2="193.2"/>
      <line class="st1" x1="325.25" y1="193.2" x2="241.13" y2="144.63"/>
      <line class="st1" x1="241.13" y1="144.63" x2="201.93" y2="122"/>
      <line class="st1" x1="448.57" y1="258.13" x2="201.93" y2="115.73"/>
      <line class="st1" x1="201.93" y1="115.73" x2="201.93" y2="122"/>
      <line class="st1" x1="201.93" y1="115.73" x2="201.93" y2="115.75"/>
      <line class="st1" x1="448.57" y1="258.13" x2="448.57" y2="264.39"/>
      <line class="st1" x1="277.31" y1="72.22" x2="523.94" y2="214.61"/>
      <line class="st1" x1="277.31" y1="72.22" x2="201.93" y2="115.73"/>
      <line class="st1" x1="453.83" y1="255.09" x2="523.94" y2="214.61"/>
      <line class="st1" x1="523.94" y1="214.61" x2="523.92" y2="214.63"/>
      <line class="st1" x1="523.92" y1="214.63" x2="523.92" y2="214.63"/>
      <line class="st1" x1="696.71" y1="241.94" x2="688.17" y2="246.87"/>
      <line class="st1" x1="696.71" y1="241.94" x2="450.07" y2="99.55"/>
      <line class="st1" x1="450.07" y1="99.55" x2="441.55" y2="104.47"/>
      <line class="st1" x1="441.55" y1="104.47" x2="387.36" y2="135.76"/>
      <line class="st1" x1="208.87" y1="494.21" x2="208.87" y2="437.25"/>
      <line class="st1" x1="212.93" y1="496.35" x2="208.87" y2="494"/>
      <line class="st1" x1="448.57" y1="632.39" x2="389.32" y2="598.19"/>
      <line class="st1" x1="389.32" y1="598.19" x2="275.05" y2="532.21"/>
      <line class="st1" x1="275.05" y1="532.21" x2="212.93" y2="496.35"/>
      <line class="st1" x1="201.93" y1="317.31" x2="202.23" y2="321.29"/>
      <line class="st1" x1="201.93" y1="115.73" x2="201.93" y2="115.74"/>
      <line class="st1" x1="201.93" y1="138.1" x2="201.93" y2="162.12"/>
      <line class="st1" x1="201.93" y1="162.12" x2="201.93" y2="212.48"/>
      <line class="st1" x1="201.93" y1="212.48" x2="201.93" y2="269.36"/>
      <line class="st1" x1="201.93" y1="269.36" x2="201.93" y2="317.31"/>
      <line class="st1" x1="201.93" y1="317.31" x2="201.93" y2="405.4"/>
      <line class="st1" x1="201.93" y1="405.4" x2="201.93" y2="457.88"/>
      <line class="st1" x1="201.93" y1="457.88" x2="201.93" y2="465.64"/>
      <line class="st1" x1="201.93" y1="465.64" x2="201.93" y2="477.81"/>
      <line class="st1" x1="201.93" y1="477.81" x2="201.93" y2="498.01"/>
      <line class="st1" x1="201.93" y1="498.01" x2="205.17" y2="496.14"/>
      <line class="st1" x1="205.17" y1="496.14" x2="207.13" y2="495.01"/>
      <line class="st1" x1="207.13" y1="495.01" x2="208.87" y2="494"/>
      <line class="st1" x1="441.55" y1="104.47" x2="426.77" y2="112.2"/>
      <line class="st1" x1="426.77" y1="112.2" x2="409.84" y2="119.18"/>
      <line class="st1" x1="409.84" y1="119.18" x2="393.21" y2="124.16"/>
      <line class="st1" x1="393.21" y1="124.16" x2="391.25" y2="124.62"/>
      <line class="st1" x1="391.25" y1="124.62" x2="377.04" y2="127.09"/>
      <line class="st1" x1="377.04" y1="127.09" x2="372.75" y2="127.33"/>
      <line class="st1" x1="196.5" y1="112.6" x2="271.88" y2="69.08"/>
      <line class="st1" x1="367.33" y1="124.19" x2="371.61" y2="123.95"/>
      <line class="st1" x1="371.61" y1="123.95" x2="387.78" y2="121.03"/>
      <line class="st1" x1="387.78" y1="121.03" x2="404.41" y2="116.05"/>
      <line class="st1" x1="404.41" y1="116.05" x2="421.35" y2="109.06"/>
      <line class="st1" x1="444.65" y1="96.41" x2="421.35" y2="109.06"/>
      <line class="st1" x1="196.5" y1="494.87" x2="196.5" y2="112.6"/>
      <line class="st1" x1="421.35" y1="109.06" x2="438.43" y2="100.13"/>
      <line class="st1" x1="438.43" y1="100.13" x2="444.65" y2="96.41"/>
      <line class="st1" x1="196.5" y1="112.6" x2="201.93" y2="115.74"/>
      <line class="st1" x1="271.88" y1="69.08" x2="277.31" y2="72.22"/>
      <line class="st1" x1="450.07" y1="99.55" x2="444.65" y2="96.41"/>
      <line class="st1" x1="202.23" y1="259.87" x2="202.19" y2="259.83"/>
      <line class="st1" x1="202.19" y1="259.83" x2="202.16" y2="259.77"/>
      <line class="st1" x1="202.16" y1="259.77" x2="202.12" y2="259.71"/>
      <line class="st1" x1="202.12" y1="259.71" x2="202.11" y2="259.64"/>
      <line class="st1" x1="202.11" y1="259.64" x2="202.09" y2="259.56"/>
      <line class="st1" x1="202.09" y1="259.56" x2="202.08" y2="259.48"/>
      <line class="st1" x1="202.08" y1="259.48" x2="202.08" y2="259.39"/>
      <line class="st1" x1="202.08" y1="259.39" x2="202.09" y2="259.3"/>
      <line class="st1" x1="202.09" y1="259.3" x2="202.11" y2="259.21"/>
      <line class="st1" x1="202.11" y1="259.21" x2="202.12" y2="259.11"/>
      <line class="st1" x1="202.12" y1="259.11" x2="202.16" y2="259.02"/>
      <line class="st1" x1="202.16" y1="259.02" x2="202.19" y2="258.92"/>
      <line class="st1" x1="202.19" y1="258.92" x2="202.23" y2="258.83"/>
      <line class="st1" x1="202.23" y1="153.33" x2="202.19" y2="153.29"/>
      <line class="st1" x1="202.19" y1="153.29" x2="202.16" y2="153.23"/>
      <line class="st1" x1="202.16" y1="153.23" x2="202.12" y2="153.17"/>
      <line class="st1" x1="202.12" y1="153.17" x2="202.11" y2="153.1"/>
      <line class="st1" x1="202.11" y1="153.1" x2="202.09" y2="153.02"/>
      <line class="st1" x1="202.09" y1="153.02" x2="202.08" y2="152.94"/>
      <line class="st1" x1="202.08" y1="152.94" x2="202.08" y2="152.86"/>
      <line class="st1" x1="202.08" y1="152.86" x2="202.09" y2="152.76"/>
      <line class="st1" x1="202.09" y1="152.76" x2="202.11" y2="152.67"/>
      <line class="st1" x1="202.11" y1="152.67" x2="202.12" y2="152.58"/>
      <line class="st1" x1="202.12" y1="152.58" x2="202.16" y2="152.48"/>
      <line class="st1" x1="202.16" y1="152.48" x2="202.19" y2="152.38"/>
      <line class="st1" x1="202.19" y1="152.38" x2="202.23" y2="152.29"/>
      <line class="st1" x1="201.93" y1="165.05" x2="202.23" y2="165.23"/>
      <line class="st1" x1="201.93" y1="162.58" x2="202.04" y2="162.45"/>
      <line class="st1" x1="202.04" y1="162.45" x2="202.15" y2="162.33"/>
      <line class="st1" x1="202.15" y1="162.33" x2="202.23" y2="162.26"/>
      <line class="st1" x1="201.93" y1="355.84" x2="202.23" y2="356.02"/>
      <line class="st1" x1="201.93" y1="353.37" x2="202.04" y2="353.24"/>
      <line class="st1" x1="202.04" y1="353.24" x2="202.15" y2="353.12"/>
      <line class="st1" x1="202.15" y1="353.12" x2="202.23" y2="353.05"/>
      <line class="st1" x1="201.93" y1="272.98" x2="202.23" y2="273.16"/>
      <line class="st1" x1="201.93" y1="270.5" x2="202.04" y2="270.38"/>
      <line class="st1" x1="202.04" y1="270.38" x2="202.15" y2="270.26"/>
      <line class="st1" x1="202.15" y1="270.26" x2="202.23" y2="270.18"/>
      <line class="st1" x1="202.84" y1="122.52" x2="202.23" y2="122.87"/>
      <line class="st1" x1="202.23" y1="122.87" x2="448.26" y2="264.92"/>
      <line class="st1" x1="448.26" y1="264.92" x2="448.57" y2="264.74"/>
      <line class="st1" x1="202.23" y1="122.87" x2="202.23" y2="225.92"/>
      <line class="st1" x1="202.23" y1="225.92" x2="448.26" y2="367.97"/>
      <line class="st1" x1="448.26" y1="367.97" x2="448.26" y2="264.92"/>
      <line class="st1" x1="448.57" y1="367.8" x2="448.26" y2="367.97"/>
      <line class="st1" x1="448.57" y1="471.55" x2="448.26" y2="471.72"/>
      <line class="st1" x1="448.26" y1="471.72" x2="202.23" y2="329.67"/>
      <line class="st1" x1="202.23" y1="226.62" x2="202.84" y2="226.27"/>
      <line class="st1" x1="202.23" y1="329.67" x2="202.23" y2="226.62"/>
      <line class="st1" x1="448.26" y1="368.67" x2="448.57" y2="368.49"/>
      <line class="st1" x1="202.23" y1="226.62" x2="448.26" y2="368.67"/>
      <line class="st1" x1="448.26" y1="368.67" x2="448.26" y2="471.72"/>
      <line class="st1" x1="448.57" y1="575.3" x2="448.26" y2="575.47"/>
      <line class="st1" x1="448.26" y1="575.47" x2="202.23" y2="433.42"/>
      <line class="st1" x1="202.23" y1="330.37" x2="202.84" y2="330.02"/>
      <line class="st1" x1="202.23" y1="433.42" x2="202.23" y2="330.37"/>
      <line class="st1" x1="448.26" y1="472.42" x2="448.57" y2="472.24"/>
      <line class="st1" x1="202.23" y1="330.37" x2="448.26" y2="472.42"/>
      <line class="st1" x1="448.26" y1="472.42" x2="448.26" y2="575.47"/>
      <line class="st1" x1="448.57" y1="258.13" x2="451.74" y2="256.3"/>
      <line class="st1" x1="451.74" y1="256.3" x2="453.83" y2="255.09"/>
      <line class="st1" x1="454" y1="643.54" x2="448.57" y2="640.4"/>
      <line class="st1" x1="454" y1="261.27" x2="448.57" y2="258.13"/>
      <path class="st1" d="M454,261.27"/>
      <path class="st1" d="M453.83,255.09"/>
      <line class="st1" x1="448.57" y1="264.39" x2="434.09" y2="256.04"/>
      <line class="st1" x1="434.09" y1="256.04" x2="409.37" y2="241.76"/>
      <path class="st1" d="M448.57,258.13"/>
      <path class="st1" d="M409.37,241.76"/>
      <line class="st1" x1="201.93" y1="122" x2="201.93" y2="138.1"/>
      <line class="st1" x1="196.5" y1="494.87" x2="201.93" y2="498.01"/>
    </g>
  </g>
</svg>