<?xml version="1.0" encoding="UTF-8"?>
<svg xmlns="http://www.w3.org/2000/svg" version="1.1" viewBox="0 0 841.89 841.89">
  <!-- Generator: Adobe Illustrator 30.3.0, SVG Export Plug-In . SVG Version: 2.1.3 Build 182)  -->
  <defs>
    <style>
      .st0, .st1, .st2, .st3 {
        fill: none;
        stroke: #000;
        stroke-width: .5px;
      }

      .st0, .st1, .st4 {
        opacity: .5;
      }

      .st0, .st3 {
        stroke-linecap: square;
        stroke-miterlimit: 10;
      }

      .st1, .st2 {
        stroke-linecap: round;
        stroke-linejoin: round;
      }
    </style>
  </defs>
  <g id="Layer_2">
    <line class="st0" x1="101.72" y1="430.46" x2="101.78" y2="430.88"/>
    <line class="st0" x1="101.78" y1="430.88" x2="102.02" y2="431.12"/>
    <line class="st0" x1="102.02" y1="431.12" x2="102.2" y2="431.18"/>
    <line class="st0" x1="102.02" y1="431.06" x2="101.9" y2="431"/>
    <line class="st0" x1="101.78" y1="430.46" x2="101.72" y2="430.46"/>
    <line class="st0" x1="101.72" y1="430.46" x2="101.72" y2="416.24"/>
    <g>
      <line class="st3" x1="505.46" y1="147.26" x2="753.92" y2="290.72"/>
      <line class="st3" x1="79.58" y1="403.46" x2="79.58" y2="393.2"/>
      <line class="st3" x1="79.58" y1="393.2" x2="505.46" y2="147.26"/>
      <line class="st3" x1="753.92" y1="290.72" x2="327.98" y2="536.6"/>
      <line class="st3" x1="327.98" y1="536.6" x2="327.98" y2="546.86"/>
      <line class="st3" x1="327.98" y1="546.86" x2="753.92" y2="300.98"/>
      <line class="st3" x1="327.98" y1="536.6" x2="79.58" y2="393.2"/>
      <line class="st3" x1="79.58" y1="403.46" x2="327.98" y2="546.86"/>
    </g>
    <line class="st3" x1="753.92" y1="300.98" x2="753.92" y2="290.72"/>
  </g>
  <g id="Layer_3" class="st4">
    <line class="st2" x1="114.44" y1="438.2" x2="114.44" y2="692.36"/>
    <line class="st2" x1="114.32" y1="438.14" x2="114.44" y2="692.36"/>
    <line class="st2" x1="114.32" y1="438.14" x2="114.32" y2="692.72"/>
    <line class="st2" x1="114.32" y1="692.72" x2="114.44" y2="692.36"/>
    <line class="st2" x1="114.02" y1="437.96" x2="114.32" y2="692.72"/>
    <polyline class="st2" points="113.96 437.96 113.96 692.96 114.32 692.72"/>
    <polyline class="st2" points="99.68 415.04 100.16 701 100.16 415.34"/>
    <line class="st2" x1="99.68" y1="415.04" x2="99.68" y2="701.18"/>
    <line class="st2" x1="99.68" y1="701.18" x2="100.16" y2="701"/>
    <line class="st2" x1="99.08" y1="414.68" x2="99.68" y2="701.18"/>
    <line class="st2" x1="99.08" y1="414.68" x2="99.08" y2="701.24"/>
    <line class="st2" x1="99.08" y1="701.24" x2="99.68" y2="701.18"/>
    <line class="st2" x1="98.48" y1="414.38" x2="99.08" y2="701.24"/>
    <line class="st2" x1="98.48" y1="414.38" x2="98.48" y2="701.18"/>
    <line class="st2" x1="98.48" y1="701.18" x2="99.08" y2="701.24"/>
    <line class="st2" x1="98" y1="414.08" x2="98.48" y2="701.18"/>
    <polyline class="st2" points="98 414.08 98 701 98.48 701.18"/>
    <polyline class="st2" points="83.84 405.92 84.14 692.96 84.14 406.1"/>
    <polyline class="st2" points="83.84 405.92 83.84 692.72 84.14 692.96"/>
    <line class="st2" x1="83.72" y1="405.86" x2="83.84" y2="692.72"/>
    <polyline class="st2" points="83.72 405.86 83.72 692.36 83.84 692.72"/>
    <line class="st2" x1="100.16" y1="701" x2="100.16" y2="415.34"/>
    <line class="st2" x1="84.14" y1="692.96" x2="98" y2="701"/>
    <line class="st2" x1="98" y1="701" x2="98" y2="414.08"/>
    <line class="st2" x1="84.14" y1="692.96" x2="84.14" y2="406.1"/>
    <line class="st2" x1="100.16" y1="701" x2="113.96" y2="692.96"/>
    <line class="st2" x1="113.96" y1="692.96" x2="113.96" y2="437.96"/>
    <line class="st2" x1="343.34" y1="538.04" x2="343.34" y2="824.54"/>
    <line class="st2" x1="343.22" y1="538.1" x2="343.34" y2="824.54"/>
    <polyline class="st2" points="343.22 538.1 343.22 824.9 343.34 824.54"/>
    <line class="st2" x1="342.92" y1="538.28" x2="343.22" y2="824.9"/>
    <polyline class="st2" points="342.92 538.28 342.92 825.14 343.22 824.9"/>
    <polyline class="st2" points="328.58 546.56 329.06 833.18 329.06 546.26"/>
    <polyline class="st2" points="328.58 546.56 328.58 833.36 329.06 833.18"/>
    <line class="st2" x1="328.04" y1="546.86" x2="328.58" y2="833.36"/>
    <polyline class="st2" points="327.98 546.86 327.98 833.42 328.58 833.36"/>
    <line class="st2" x1="327.44" y1="546.56" x2="327.98" y2="833.42"/>
    <polyline class="st2" points="327.44 546.56 327.44 833.36 327.98 833.42"/>
    <line class="st2" x1="326.96" y1="546.26" x2="327.44" y2="833.36"/>
    <polyline class="st2" points="326.96 546.26 326.96 833.18 327.44 833.36"/>
    <polyline class="st2" points="312.8 538.1 313.1 825.14 313.1 538.28"/>
    <line class="st2" x1="312.8" y1="538.1" x2="312.8" y2="824.9"/>
    <line class="st2" x1="312.8" y1="824.9" x2="313.1" y2="825.14"/>
    <line class="st2" x1="312.68" y1="538.04" x2="312.8" y2="824.9"/>
    <line class="st2" x1="312.68" y1="538.04" x2="312.68" y2="824.54"/>
    <line class="st2" x1="312.68" y1="824.54" x2="312.8" y2="824.9"/>
    <line class="st2" x1="329.06" y1="833.18" x2="342.92" y2="825.14"/>
    <line class="st2" x1="342.92" y1="825.14" x2="342.92" y2="538.28"/>
    <line class="st2" x1="329.06" y1="833.18" x2="329.06" y2="546.26"/>
    <line class="st2" x1="313.1" y1="825.14" x2="326.96" y2="833.18"/>
    <line class="st2" x1="326.96" y1="833.18" x2="326.96" y2="546.26"/>
    <line class="st2" x1="313.1" y1="825.14" x2="313.1" y2="538.28"/>
    <line class="st3" x1="312.68" y1="552.68" x2="101.9" y2="430.94"/>
    <line class="st3" x1="312.68" y1="552.56" x2="101.84" y2="430.94"/>
    <line class="st3" x1="312.68" y1="552.56" x2="101.78" y2="430.76"/>
    <line class="st3" x1="312.68" y1="552.2" x2="101.78" y2="430.76"/>
    <line class="st3" x1="312.68" y1="552.14" x2="101.72" y2="430.34"/>
    <line class="st3" x1="101.72" y1="430.34" x2="312.68" y2="552.14"/>
    <polyline class="st2" points="328.7 833.36 328.4 833.48 328.7 835.22 328.7 833.36"/>
    <polyline class="st2" points="328.4 833.48 328.4 835.34 328.7 835.22"/>
    <polyline class="st2" points="328.4 833.48 328.04 835.34 328.4 835.34"/>
    <polyline class="st2" points="328.4 833.48 327.98 833.54 328.04 835.34"/>
    <polyline class="st2" points="327.98 833.54 327.68 835.34 328.04 835.34"/>
    <polyline class="st2" points="327.98 833.54 327.62 833.48 327.68 835.34"/>
    <polyline class="st2" points="327.62 833.48 327.38 835.22 327.68 835.34"/>
    <polyline class="st2" points="327.62 833.48 327.32 833.36 327.38 835.22"/>
    <polyline class="st2" points="327.32 833.36 327.32 835.22 327.38 835.22"/>
    <polyline class="st2" points="312.74 826.82 312.74 824.96 312.56 826.64 312.74 826.82"/>
    <polyline class="st2" points="312.74 824.96 312.5 824.78 312.56 826.64"/>
    <polyline class="st2" points="312.5 824.78 312.44 826.46 312.56 826.64"/>
    <polyline class="st2" points="312.5 824.78 312.44 824.54 312.44 826.46"/>
    <line class="st2" x1="312.44" y1="824.54" x2="312.5" y2="824.3"/>
    <line class="st2" x1="312.5" y1="824.3" x2="312.68" y2="824.18"/>
    <polyline class="st2" points="343.28 826.82 343.4 826.7 343.28 826.82"/>
    <polyline class="st2" points="343.28 826.82 343.46 826.64 343.4 826.7"/>
    <line class="st2" x1="343.46" y1="826.64" x2="343.4" y2="826.7"/>
    <polyline class="st2" points="343.46 826.64 343.52 826.52 343.46 826.64"/>
    <polyline class="st2" points="343.28 826.82 343.22 826.88 343.46 826.64"/>
    <polyline class="st2" points="343.22 826.88 343.46 826.7 343.46 826.64"/>
    <line class="st2" x1="343.22" y1="826.88" x2="343.22" y2="826.94"/>
    <line class="st2" x1="343.58" y1="826.4" x2="343.58" y2="826.46"/>
    <polyline class="st2" points="343.58 826.4 343.52 826.52 343.58 826.46"/>
    <polyline class="st2" points="343.28 826.82 328.7 835.22 343.28 826.82 343.28 826.82"/>
    <line class="st2" x1="328.7" y1="835.22" x2="343.28" y2="826.82"/>
    <polyline class="st2" points="328.7 835.22 328.7 835.28 343.28 826.82"/>
    <polyline class="st2" points="328.7 835.28 343.22 826.88 343.28 826.82"/>
    <polyline class="st2" points="328.7 835.28 328.64 835.34 343.22 826.88"/>
    <polyline class="st2" points="328.64 835.34 343.22 826.94 343.22 826.88"/>
    <polyline class="st2" points="327.32 835.22 327.38 835.22 327.32 835.22"/>
    <polyline class="st2" points="327.32 835.22 327.38 835.28 327.38 835.22"/>
    <polyline class="st2" points="327.38 835.28 327.68 835.34 327.38 835.22"/>
    <polyline class="st2" points="327.38 835.28 327.68 835.4 327.68 835.34"/>
    <polyline class="st2" points="327.68 835.4 328.04 835.34 327.68 835.34"/>
    <polyline class="st2" points="327.68 835.4 328.04 835.4 328.04 835.34"/>
    <polyline class="st2" points="328.04 835.4 328.4 835.34 328.04 835.34"/>
    <polyline class="st2" points="328.04 835.4 328.4 835.34 328.4 835.34"/>
    <polyline class="st2" points="328.4 835.34 328.7 835.22 328.4 835.34"/>
    <polyline class="st2" points="328.4 835.34 328.7 835.22 328.7 835.22"/>
    <polyline class="st2" points="327.32 835.22 327.32 835.28 327.38 835.28"/>
    <polyline class="st2" points="327.32 835.28 327.38 835.34 327.38 835.28"/>
    <line class="st2" x1="327.38" y1="835.34" x2="327.68" y2="835.4"/>
    <polyline class="st2" points="327.38 835.34 327.68 835.4 327.68 835.4"/>
    <line class="st2" x1="327.68" y1="835.4" x2="328.04" y2="835.4"/>
    <polyline class="st2" points="327.68 835.4 328.04 835.46 328.04 835.4"/>
    <line class="st2" x1="328.04" y1="835.46" x2="328.4" y2="835.34"/>
    <polyline class="st2" points="328.04 835.46 328.4 835.4 328.4 835.34"/>
    <line class="st2" x1="328.4" y1="835.4" x2="328.7" y2="835.22"/>
    <polyline class="st2" points="328.4 835.4 328.7 835.28 328.7 835.22"/>
    <polyline class="st2" points="327.32 835.28 327.38 835.34 327.38 835.34"/>
    <polyline class="st2" points="327.38 835.34 327.44 835.34 327.38 835.34"/>
    <line class="st2" x1="327.44" y1="835.34" x2="327.68" y2="835.4"/>
    <polyline class="st2" points="327.44 835.34 327.74 835.46 327.68 835.4"/>
    <line class="st2" x1="327.74" y1="835.46" x2="328.04" y2="835.46"/>
    <polyline class="st2" points="327.74 835.46 328.04 835.46 328.04 835.46"/>
    <line class="st2" x1="328.04" y1="835.46" x2="328.4" y2="835.4"/>
    <polyline class="st2" points="328.04 835.46 328.4 835.46 328.4 835.4"/>
    <line class="st2" x1="328.4" y1="835.46" x2="328.7" y2="835.28"/>
    <polyline class="st2" points="328.4 835.46 328.64 835.34 328.7 835.28"/>
    <polyline class="st2" points="327.32 835.22 312.74 826.82 327.32 835.22 327.32 835.22"/>
    <line class="st2" x1="312.74" y1="826.82" x2="327.32" y2="835.22"/>
    <polyline class="st2" points="312.74 826.82 312.8 826.88 327.32 835.22"/>
    <polyline class="st2" points="312.8 826.88 327.32 835.28 327.32 835.22"/>
    <polyline class="st2" points="312.8 826.88 312.8 826.94 327.32 835.28"/>
    <polyline class="st2" points="312.8 826.94 327.38 835.34 327.32 835.28"/>
    <line class="st2" x1="312.8" y1="826.94" x2="312.8" y2="826.88"/>
    <line class="st2" x1="312.8" y1="826.88" x2="312.62" y2="826.76"/>
    <line class="st2" x1="312.62" y1="826.76" x2="312.5" y2="826.58"/>
    <polyline class="st2" points="312.8 826.88 312.74 826.82 312.62 826.76"/>
    <polyline class="st2" points="312.74 826.82 312.56 826.7 312.62 826.76"/>
    <line class="st2" x1="312.56" y1="826.7" x2="312.5" y2="826.58"/>
    <polyline class="st2" points="312.56 826.7 312.44 826.52 312.5 826.58"/>
    <line class="st2" x1="312.74" y1="826.82" x2="312.56" y2="826.7"/>
    <polyline class="st2" points="312.74 826.82 312.56 826.64 312.56 826.7"/>
    <line class="st2" x1="312.56" y1="826.64" x2="312.44" y2="826.52"/>
    <polyline class="st2" points="312.56 826.64 312.44 826.46 312.44 826.52"/>
    <line class="st2" x1="343.34" y1="824.18" x2="343.46" y2="824.3"/>
    <line class="st2" x1="343.46" y1="824.3" x2="343.58" y2="824.54"/>
    <line class="st2" x1="343.58" y1="824.54" x2="343.58" y2="826.4"/>
    <polyline class="st2" points="343.58 824.54 343.52 826.52 343.58 826.4"/>
    <polyline class="st2" points="343.58 824.54 343.46 824.78 343.52 826.52"/>
    <polyline class="st2" points="343.46 824.78 343.46 826.64 343.52 826.52"/>
    <polyline class="st2" points="343.46 824.78 343.4 826.7 343.46 826.64"/>
    <polyline class="st2" points="343.46 824.78 343.28 824.96 343.4 826.7"/>
    <polyline class="st2" points="343.28 824.96 343.28 826.82 343.4 826.7"/>
    <line class="st2" x1="328.7" y1="835.22" x2="328.7" y2="833.36"/>
    <line class="st2" x1="328.7" y1="833.36" x2="328.46" y2="833.36"/>
    <line class="st2" x1="327.56" y1="833.36" x2="327.32" y2="833.36"/>
    <line class="st2" x1="327.32" y1="833.36" x2="327.32" y2="835.22"/>
    <line class="st2" x1="312.74" y1="826.82" x2="312.74" y2="824.96"/>
    <line class="st2" x1="312.74" y1="824.96" x2="312.74" y2="824.78"/>
    <line class="st2" x1="327.32" y1="833.36" x2="312.74" y2="824.96"/>
    <line class="st2" x1="343.28" y1="824.96" x2="328.7" y2="833.36"/>
    <line class="st2" x1="343.28" y1="826.82" x2="328.7" y2="835.22"/>
    <line class="st2" x1="327.32" y1="835.22" x2="312.74" y2="826.82"/>
    <line class="st2" x1="343.28" y1="824.78" x2="343.28" y2="824.96"/>
    <line class="st2" x1="343.28" y1="824.96" x2="343.28" y2="826.82"/>
    <polyline class="st2" points="323.72 833.78 317.72 830.3 323.78 833.9 323.72 833.78"/>
    <polyline class="st2" points="317.72 830.3 317.72 830.42 323.78 833.9"/>
    <polyline class="st2" points="317.72 830.42 317.78 830.6 323.78 833.9"/>
    <polyline class="st2" points="317.9 830.72 323.84 834.14 317.78 830.6 317.9 830.72"/>
    <polyline class="st2" points="323.84 834.14 323.78 834.02 317.78 830.6"/>
    <line class="st2" x1="323.78" y1="834.02" x2="323.78" y2="833.9"/>
    <polyline class="st2" points="317.9 830.72 318.02 830.78 323.84 834.14"/>
    <polyline class="st2" points="318.02 830.78 323.84 834.2 323.84 834.14"/>
    <line class="st2" x1="332.12" y1="834.2" x2="330.62" y2="834.2"/>
    <line class="st2" x1="325.4" y1="834.2" x2="323.84" y2="834.2"/>
    <polyline class="st2" points="332.12 834.2 332.18 834.14 330.74 834.14"/>
    <line class="st2" x1="325.34" y1="834.14" x2="323.84" y2="834.2"/>
    <line class="st2" x1="332.18" y1="834.14" x2="330.74" y2="834.14"/>
    <polyline class="st2" points="325.28 834.14 323.84 834.14 323.84 834.2"/>
    <line class="st2" x1="332.18" y1="834.14" x2="330.74" y2="834.08"/>
    <polyline class="st2" points="325.16 834.02 323.78 834.02 323.84 834.14"/>
    <polyline class="st2" points="332.18 834.14 332.24 834.02 330.86 834.02"/>
    <line class="st2" x1="325.16" y1="834.02" x2="323.78" y2="834.02"/>
    <polyline class="st2" points="332.24 834.02 332.24 833.9 331.04 833.9"/>
    <line class="st2" x1="325.1" y1="834.02" x2="323.78" y2="834.02"/>
    <line class="st2" x1="332.3" y1="833.78" x2="331.34" y2="833.78"/>
    <polyline class="st2" points="324.68 833.78 323.72 833.78 324.68 833.78"/>
    <polyline class="st2" points="331.1 833.9 332.24 833.9 332.3 833.78"/>
    <polyline class="st2" points="323.72 833.78 323.78 833.9 324.92 833.9"/>
    <line class="st2" x1="331.1" y1="833.9" x2="332.24" y2="833.9"/>
    <line class="st2" x1="323.78" y1="833.9" x2="323.78" y2="834.02"/>
    <line class="st2" x1="317.72" y1="830.42" x2="317.72" y2="830.3"/>
    <line class="st2" x1="317.9" y1="830.72" x2="317.78" y2="830.6"/>
    <line class="st2" x1="317.78" y1="830.6" x2="317.72" y2="830.42"/>
    <line class="st2" x1="318.02" y1="830.78" x2="317.9" y2="830.72"/>
    <line class="st2" x1="338" y1="830.78" x2="332.12" y2="834.2"/>
    <polyline class="st2" points="338 830.78 338.12 830.72 332.12 834.2"/>
    <polyline class="st2" points="338.12 830.72 332.18 834.14 332.12 834.2"/>
    <polyline class="st2" points="338.12 830.72 332.24 834.02 332.18 834.14"/>
    <polyline class="st2" points="338.12 830.72 338.24 830.6 332.24 834.02"/>
    <polyline class="st2" points="338.24 830.6 338.3 830.42 332.24 834.02"/>
    <polyline class="st2" points="338.3 830.3 332.3 833.78 338.3 830.42 338.3 830.3"/>
    <polyline class="st2" points="332.3 833.78 332.24 833.9 338.3 830.42"/>
    <line class="st2" x1="332.24" y1="833.9" x2="332.24" y2="834.02"/>
    <line class="st2" x1="338.12" y1="830.72" x2="338" y2="830.78"/>
    <line class="st2" x1="338.24" y1="830.6" x2="338.12" y2="830.72"/>
    <line class="st2" x1="338.3" y1="830.3" x2="338.3" y2="830.42"/>
    <line class="st2" x1="338.3" y1="830.42" x2="338.24" y2="830.6"/>
    <line class="st2" x1="338.3" y1="830.3" x2="338.3" y2="829.76"/>
    <line class="st2" x1="323.72" y1="833.78" x2="317.72" y2="830.3"/>
    <line class="st2" x1="332.3" y1="833.78" x2="331.34" y2="833.78"/>
    <line class="st2" x1="324.68" y1="833.78" x2="323.72" y2="833.78"/>
    <line class="st2" x1="338.3" y1="830.3" x2="332.3" y2="833.78"/>
    <line class="st2" x1="317.72" y1="830.3" x2="317.72" y2="829.76"/>
    <line class="st2" x1="323.72" y1="833.78" x2="323.72" y2="833.24"/>
    <line class="st2" x1="332.3" y1="833.78" x2="332.3" y2="833.24"/>
    <line class="st2" x1="83.6" y1="692.12" x2="83.72" y2="692.06"/>
    <line class="st2" x1="83.54" y1="692.36" x2="83.6" y2="692.12"/>
    <line class="st2" x1="83.54" y1="694.16" x2="83.54" y2="692.36"/>
    <polyline class="st2" points="83.54 694.16 83.54 694.28 83.54 692.36"/>
    <polyline class="st2" points="83.54 694.28 83.6 692.6 83.54 692.36"/>
    <polyline class="st2" points="83.54 694.28 83.6 694.4 83.6 692.6"/>
    <polyline class="st2" points="83.6 694.4 83.66 694.52 83.6 692.6"/>
    <polyline class="st2" points="83.66 694.52 83.84 692.78 83.6 692.6"/>
    <polyline class="st2" points="83.66 694.52 83.78 694.58 83.84 692.78"/>
    <polyline class="st2" points="83.78 694.58 83.84 694.64 83.84 692.78"/>
    <polyline class="st2" points="114.32 694.64 114.44 694.52 114.32 692.78 114.32 694.64"/>
    <polyline class="st2" points="114.44 694.52 114.56 692.6 114.32 692.78"/>
    <polyline class="st2" points="114.44 694.52 114.62 694.34 114.56 692.6"/>
    <polyline class="st2" points="114.62 694.34 114.62 692.36 114.56 692.6"/>
    <polyline class="st2" points="114.62 694.34 114.62 694.16 114.62 692.36"/>
    <line class="st2" x1="114.56" y1="692.12" x2="114.62" y2="692.36"/>
    <line class="st2" x1="114.44" y1="692.06" x2="114.56" y2="692.12"/>
    <polyline class="st2" points="98.36 703.04 98.6 703.1 98.36 701.18 98.36 703.04"/>
    <polyline class="st2" points="98.6 703.1 98.72 701.3 98.36 701.18"/>
    <polyline class="st2" points="98.6 703.1 98.96 703.16 98.72 701.3"/>
    <polyline class="st2" points="98.96 703.16 99.08 701.36 98.72 701.3"/>
    <polyline class="st2" points="98.96 703.16 99.32 703.16 99.08 701.36"/>
    <polyline class="st2" points="99.32 703.16 99.44 701.3 99.08 701.36"/>
    <polyline class="st2" points="99.32 703.16 99.62 703.1 99.44 701.3"/>
    <polyline class="st2" points="99.62 703.1 99.8 701.18 99.44 701.3"/>
    <polyline class="st2" points="99.62 703.1 99.8 703.04 99.8 701.18"/>
    <polyline class="st2" points="114.32 694.64 99.8 703.04 114.32 694.64 114.32 694.64"/>
    <line class="st2" x1="99.8" y1="703.04" x2="114.32" y2="694.64"/>
    <polyline class="st2" points="99.8 703.04 99.74 703.1 114.32 694.64"/>
    <polyline class="st2" points="99.74 703.1 114.32 694.7 114.32 694.64"/>
    <polyline class="st2" points="99.74 703.1 99.74 703.16 114.32 694.7"/>
    <polyline class="st2" points="99.74 703.16 114.26 694.76 114.32 694.7"/>
    <polyline class="st2" points="98.36 703.04 98.6 703.1 98.36 703.04"/>
    <polyline class="st2" points="98.36 703.04 98.6 703.16 98.6 703.1"/>
    <polyline class="st2" points="98.6 703.16 98.96 703.16 98.6 703.1"/>
    <polyline class="st2" points="98.6 703.16 98.96 703.22 98.96 703.16"/>
    <polyline class="st2" points="98.96 703.22 99.32 703.16 98.96 703.16"/>
    <polyline class="st2" points="98.96 703.22 99.32 703.22 99.32 703.16"/>
    <polyline class="st2" points="99.32 703.22 99.62 703.1 99.32 703.16"/>
    <polyline class="st2" points="99.32 703.22 99.62 703.1 99.62 703.1"/>
    <polyline class="st2" points="99.62 703.1 99.8 703.04 99.62 703.1"/>
    <polyline class="st2" points="99.62 703.1 99.8 703.04 99.8 703.04"/>
    <polyline class="st2" points="98.36 703.04 98.42 703.1 98.6 703.16"/>
    <polyline class="st2" points="98.42 703.1 98.6 703.22 98.6 703.16"/>
    <line class="st2" x1="98.6" y1="703.22" x2="98.96" y2="703.22"/>
    <polyline class="st2" points="98.6 703.22 98.96 703.28 98.96 703.22"/>
    <line class="st2" x1="98.96" y1="703.28" x2="99.32" y2="703.22"/>
    <polyline class="st2" points="98.96 703.28 99.32 703.28 99.32 703.22"/>
    <line class="st2" x1="99.32" y1="703.28" x2="99.62" y2="703.1"/>
    <polyline class="st2" points="99.32 703.28 99.62 703.16 99.62 703.1"/>
    <line class="st2" x1="99.62" y1="703.16" x2="99.8" y2="703.04"/>
    <polyline class="st2" points="99.62 703.16 99.74 703.1 99.8 703.04"/>
    <polyline class="st2" points="98.42 703.1 98.42 703.16 98.6 703.22"/>
    <polyline class="st2" points="98.42 703.16 98.66 703.22 98.6 703.22"/>
    <line class="st2" x1="98.66" y1="703.22" x2="98.96" y2="703.28"/>
    <polyline class="st2" points="98.66 703.22 98.96 703.28 98.96 703.28"/>
    <line class="st2" x1="98.96" y1="703.28" x2="99.32" y2="703.28"/>
    <polyline class="st2" points="98.96 703.28 99.26 703.28 99.32 703.28"/>
    <line class="st2" x1="99.26" y1="703.28" x2="99.62" y2="703.16"/>
    <polyline class="st2" points="99.26 703.28 99.56 703.22 99.62 703.16"/>
    <line class="st2" x1="99.56" y1="703.22" x2="99.74" y2="703.1"/>
    <polyline class="st2" points="99.56 703.22 99.74 703.16 99.74 703.1"/>
    <line class="st2" x1="83.9" y1="694.76" x2="83.84" y2="694.7"/>
    <polyline class="st2" points="83.9 694.76 83.84 694.7 83.84 694.7"/>
    <polyline class="st2" points="83.84 694.7 83.78 694.7 83.84 694.7"/>
    <line class="st2" x1="83.78" y1="694.7" x2="83.6" y2="694.52"/>
    <polyline class="st2" points="83.84 694.7 83.84 694.64 83.78 694.7"/>
    <polyline class="st2" points="83.84 694.64 83.78 694.64 83.78 694.7"/>
    <line class="st2" x1="83.78" y1="694.64" x2="83.6" y2="694.52"/>
    <polyline class="st2" points="83.78 694.64 83.6 694.46 83.6 694.52"/>
    <line class="st2" x1="83.84" y1="694.64" x2="83.78" y2="694.64"/>
    <polyline class="st2" points="83.84 694.64 83.78 694.58 83.78 694.64"/>
    <polyline class="st2" points="83.78 694.58 83.66 694.52 83.78 694.64"/>
    <line class="st2" x1="83.66" y1="694.52" x2="83.6" y2="694.46"/>
    <polyline class="st2" points="83.66 694.52 83.6 694.4 83.6 694.46"/>
    <polyline class="st2" points="83.6 694.4 83.54 694.28 83.6 694.46"/>
    <line class="st2" x1="83.54" y1="694.28" x2="83.54" y2="694.16"/>
    <line class="st2" x1="98.42" y1="703.16" x2="83.9" y2="694.76"/>
    <polyline class="st2" points="98.42 703.16 98.42 703.1 83.9 694.76"/>
    <polyline class="st2" points="98.42 703.1 83.84 694.7 83.9 694.76"/>
    <polyline class="st2" points="98.42 703.1 98.36 703.04 83.84 694.7"/>
    <polyline class="st2" points="98.36 703.04 83.84 694.64 83.84 694.7"/>
    <polyline class="st2" points="98.36 703.04 83.84 694.64 83.84 694.64"/>
    <line class="st2" x1="98.36" y1="703.04" x2="83.84" y2="694.64"/>
    <polyline class="st2" points="114.32 694.64 114.44 694.52 114.32 694.64"/>
    <polyline class="st2" points="114.32 694.64 114.44 694.58 114.44 694.52"/>
    <polyline class="st2" points="114.44 694.58 114.62 694.34 114.44 694.52"/>
    <polyline class="st2" points="114.44 694.58 114.62 694.4 114.62 694.34"/>
    <line class="st2" x1="114.62" y1="694.16" x2="114.62" y2="694.34"/>
    <polyline class="st2" points="114.32 694.64 114.32 694.7 114.44 694.58"/>
    <polyline class="st2" points="114.32 694.7 114.44 694.64 114.44 694.58"/>
    <line class="st2" x1="114.44" y1="694.64" x2="114.62" y2="694.4"/>
    <polyline class="st2" points="114.44 694.64 114.56 694.46 114.62 694.4"/>
    <line class="st2" x1="114.32" y1="694.7" x2="114.26" y2="694.76"/>
    <line class="st2" x1="99.8" y1="701.18" x2="99.8" y2="703.04"/>
    <line class="st2" x1="99.8" y1="703.04" x2="114.32" y2="694.64"/>
    <line class="st2" x1="114.32" y1="694.64" x2="114.32" y2="692.78"/>
    <line class="st2" x1="83.84" y1="692.78" x2="83.84" y2="694.64"/>
    <line class="st2" x1="83.84" y1="694.64" x2="98.36" y2="703.04"/>
    <line class="st2" x1="98.36" y1="703.04" x2="98.36" y2="701.18"/>
    <line class="st2" x1="83.84" y1="692.78" x2="98.36" y2="701.18"/>
    <line class="st2" x1="98.36" y1="701.18" x2="98.66" y2="701.18"/>
    <line class="st2" x1="99.5" y1="701.18" x2="99.8" y2="701.18"/>
    <line class="st2" x1="99.8" y1="701.18" x2="114.32" y2="692.78"/>
    <line class="st2" x1="114.32" y1="692.78" x2="114.32" y2="692.6"/>
    <line class="st2" x1="83.84" y1="692.6" x2="83.84" y2="692.78"/>
    <line class="st2" x1="94.94" y1="702.02" x2="89.06" y2="698.6"/>
    <polyline class="st2" points="94.94 702.02 94.88 701.96 89.06 698.6"/>
    <polyline class="st2" points="94.88 701.96 88.94 698.54 89.06 698.6"/>
    <polyline class="st2" points="94.88 701.96 88.88 698.42 88.94 698.54"/>
    <polyline class="st2" points="94.88 701.96 94.82 701.84 88.88 698.42"/>
    <polyline class="st2" points="94.82 701.84 94.82 701.72 88.88 698.42"/>
    <polyline class="st2" points="94.82 701.6 88.76 698.12 94.82 701.72 94.82 701.6"/>
    <polyline class="st2" points="88.76 698.12 88.82 698.24 94.82 701.72"/>
    <line class="st2" x1="88.82" y1="698.24" x2="88.88" y2="698.42"/>
    <line class="st2" x1="88.82" y1="698.24" x2="88.76" y2="698.12"/>
    <line class="st2" x1="88.94" y1="698.54" x2="88.88" y2="698.42"/>
    <line class="st2" x1="88.88" y1="698.42" x2="88.82" y2="698.24"/>
    <line class="st2" x1="89.06" y1="698.6" x2="88.94" y2="698.54"/>
    <line class="st2" x1="103.22" y1="702.02" x2="101.72" y2="702.02"/>
    <line class="st2" x1="96.44" y1="702.02" x2="94.94" y2="702.02"/>
    <polyline class="st2" points="103.22 702.02 103.28 701.96 101.78 701.96"/>
    <line class="st2" x1="96.44" y1="701.96" x2="94.94" y2="702.02"/>
    <line class="st2" x1="103.28" y1="701.96" x2="101.78" y2="701.96"/>
    <polyline class="st2" points="96.38 701.96 94.88 701.96 94.94 702.02"/>
    <line class="st2" x1="103.28" y1="701.96" x2="101.84" y2="701.96"/>
    <polyline class="st2" points="96.2 701.9 94.82 701.84 94.88 701.96"/>
    <polyline class="st2" points="103.28 701.96 103.28 701.84 101.96 701.84"/>
    <line class="st2" x1="96.2" y1="701.84" x2="94.82" y2="701.84"/>
    <polyline class="st2" points="103.28 701.84 103.34 701.72 102.14 701.78"/>
    <line class="st2" x1="96.2" y1="701.84" x2="94.82" y2="701.84"/>
    <line class="st2" x1="103.34" y1="701.6" x2="102.44" y2="701.6"/>
    <polyline class="st2" points="95.72 701.6 94.82 701.6 95.78 701.6"/>
    <polyline class="st2" points="102.2 701.72 103.34 701.72 103.34 701.6"/>
    <polyline class="st2" points="94.82 701.6 94.82 701.72 96.02 701.72"/>
    <line class="st2" x1="102.14" y1="701.72" x2="103.34" y2="701.72"/>
    <line class="st2" x1="94.82" y1="701.72" x2="94.82" y2="701.84"/>
    <line class="st2" x1="109.1" y1="698.6" x2="103.22" y2="702.02"/>
    <polyline class="st2" points="109.1 698.6 109.22 698.54 103.22 702.02"/>
    <polyline class="st2" points="109.22 698.54 103.28 701.96 103.22 702.02"/>
    <polyline class="st2" points="109.22 698.54 103.28 701.84 103.28 701.96"/>
    <polyline class="st2" points="109.22 698.54 109.28 698.42 103.28 701.84"/>
    <polyline class="st2" points="109.28 698.42 109.34 698.24 103.28 701.84"/>
    <polyline class="st2" points="109.34 698.12 103.34 701.6 109.34 698.24 109.34 698.12"/>
    <polyline class="st2" points="103.34 701.6 103.34 701.72 109.34 698.24"/>
    <line class="st2" x1="103.34" y1="701.72" x2="103.28" y2="701.84"/>
    <line class="st2" x1="109.22" y1="698.54" x2="109.1" y2="698.6"/>
    <line class="st2" x1="109.28" y1="698.42" x2="109.22" y2="698.54"/>
    <line class="st2" x1="109.34" y1="698.12" x2="109.34" y2="698.24"/>
    <line class="st2" x1="109.34" y1="698.24" x2="109.28" y2="698.42"/>
    <line class="st2" x1="88.76" y1="698.12" x2="88.76" y2="697.58"/>
    <line class="st2" x1="94.82" y1="701.6" x2="94.82" y2="701.06"/>
    <line class="st2" x1="88.76" y1="698.12" x2="94.82" y2="701.6"/>
    <line class="st2" x1="103.34" y1="701.6" x2="103.34" y2="701.06"/>
    <line class="st2" x1="94.82" y1="701.6" x2="95.72" y2="701.6"/>
    <line class="st2" x1="102.44" y1="701.6" x2="103.34" y2="701.6"/>
    <line class="st2" x1="109.34" y1="698.12" x2="109.34" y2="697.58"/>
    <line class="st2" x1="103.34" y1="701.6" x2="109.34" y2="698.12"/>
    <line class="st1" x1="749.78" y1="303.38" x2="749.78" y2="589.88"/>
    <line class="st1" x1="749.66" y1="303.44" x2="749.78" y2="589.88"/>
    <polyline class="st1" points="749.66 303.44 749.66 590.24 749.78 589.88"/>
    <line class="st1" x1="749.3" y1="303.62" x2="749.66" y2="590.24"/>
    <polyline class="st1" points="749.3 303.62 749.3 590.54 749.66 590.24"/>
    <polyline class="st1" points="719.18 321.02 719.48 590.54 719.48 320.84"/>
    <line class="st1" x1="719.18" y1="321.02" x2="719.18" y2="590.24"/>
    <line class="st1" x1="719.18" y1="590.24" x2="719.48" y2="590.54"/>
    <line class="st1" x1="719.06" y1="321.08" x2="719.18" y2="590.24"/>
    <line class="st1" x1="719.06" y1="321.08" x2="719.06" y2="589.88"/>
    <line class="st1" x1="719.06" y1="589.88" x2="719.18" y2="590.24"/>
    <polyline class="st1" points="734.96 311.9 735.5 598.52 735.5 311.6"/>
    <polyline class="st1" points="734.96 311.9 734.96 598.7 735.5 598.52"/>
    <line class="st1" x1="734.42" y1="312.26" x2="734.96" y2="598.7"/>
    <polyline class="st1" points="734.42 312.26 734.42 598.76 734.96 598.7"/>
    <line class="st1" x1="733.82" y1="312.56" x2="734.42" y2="598.76"/>
    <polyline class="st1" points="733.82 312.56 733.82 598.7 734.42 598.76"/>
    <line class="st1" x1="733.34" y1="312.86" x2="733.82" y2="598.7"/>
    <polyline class="st1" points="733.34 312.86 733.34 598.52 733.82 598.7"/>
    <line class="st1" x1="735.5" y1="598.52" x2="749.3" y2="590.54"/>
    <line class="st1" x1="749.3" y1="590.54" x2="749.3" y2="303.62"/>
    <line class="st1" x1="719.48" y1="590.54" x2="719.48" y2="320.84"/>
    <line class="st1" x1="719.48" y1="590.54" x2="733.34" y2="598.52"/>
    <line class="st1" x1="733.34" y1="598.52" x2="733.34" y2="312.86"/>
    <line class="st1" x1="735.5" y1="598.52" x2="735.5" y2="311.6"/>
    <polyline class="st1" points="749.66 592.16 749.78 592.1 749.66 590.3 749.66 592.16"/>
    <polyline class="st1" points="749.78 592.1 749.9 590.12 749.66 590.3"/>
    <polyline class="st1" points="749.78 592.1 749.9 591.98 749.9 590.12"/>
    <polyline class="st1" points="749.9 591.98 749.96 591.86 749.9 590.12"/>
    <polyline class="st1" points="749.96 591.86 749.96 589.88 749.9 590.12"/>
    <polyline class="st1" points="749.96 591.86 749.96 591.8 749.96 589.88"/>
    <line class="st1" x1="749.9" y1="589.7" x2="749.96" y2="589.88"/>
    <line class="st1" x1="749.78" y1="589.58" x2="749.9" y2="589.7"/>
    <polyline class="st1" points="733.7 600.56 733.76 600.62 733.7 598.7 733.7 600.56"/>
    <polyline class="st1" points="733.76 600.62 734 598.82 733.7 598.7"/>
    <polyline class="st1" points="733.76 600.62 734.06 600.68 734 598.82"/>
    <polyline class="st1" points="734.06 600.68 734.42 598.88 734 598.82"/>
    <polyline class="st1" points="734.06 600.68 734.48 600.74 734.42 598.88"/>
    <polyline class="st1" points="734.48 600.74 734.78 598.82 734.42 598.88"/>
    <polyline class="st1" points="734.48 600.74 734.84 600.68 734.78 598.82"/>
    <polyline class="st1" points="734.84 600.68 735.14 600.56 734.78 598.82"/>
    <polyline class="st1" points="735.14 600.56 735.14 598.7 734.78 598.82"/>
    <line class="st1" x1="718.94" y1="589.7" x2="719.06" y2="589.58"/>
    <line class="st1" x1="718.88" y1="589.88" x2="718.94" y2="589.7"/>
    <line class="st1" x1="718.88" y1="591.86" x2="718.88" y2="589.88"/>
    <polyline class="st1" points="718.88 591.86 718.94 590.12 718.88 589.88"/>
    <polyline class="st1" points="718.88 591.86 719 592.04 718.94 590.12"/>
    <polyline class="st1" points="719 592.04 719.12 590.3 718.94 590.12"/>
    <polyline class="st1" points="719 592.04 719.12 592.16 719.12 590.3"/>
    <line class="st1" x1="749.6" y1="592.28" x2="735.02" y2="600.68"/>
    <polyline class="st1" points="749.6 592.28 749.66 592.28 735.02 600.68"/>
    <polyline class="st1" points="749.66 592.28 735.08 600.68 735.02 600.68"/>
    <polyline class="st1" points="749.66 592.28 749.66 592.22 735.08 600.68"/>
    <polyline class="st1" points="749.66 592.22 735.14 600.62 735.08 600.68"/>
    <polyline class="st1" points="749.66 592.22 735.14 600.56 735.14 600.62"/>
    <polyline class="st1" points="749.66 592.22 749.66 592.16 735.14 600.56"/>
    <polyline class="st1" points="749.84 592.1 749.66 592.28 749.6 592.28"/>
    <line class="st1" x1="749.9" y1="592.04" x2="749.84" y2="592.1"/>
    <line class="st1" x1="749.9" y1="592.04" x2="749.66" y2="592.28"/>
    <polyline class="st1" points="749.9 592.04 749.66 592.22 749.66 592.28"/>
    <polyline class="st1" points="749.96 591.8 749.96 591.86 749.96 591.8"/>
    <line class="st1" x1="749.96" y1="591.86" x2="749.9" y2="592.04"/>
    <polyline class="st1" points="749.96 591.86 749.9 591.98 749.9 592.04"/>
    <polyline class="st1" points="749.9 591.98 749.78 592.1 749.9 592.04"/>
    <polyline class="st1" points="749.66 592.16 749.66 592.22 749.78 592.1 749.66 592.16"/>
    <polyline class="st1" points="718.88 591.86 719 592.04 718.88 591.86"/>
    <polyline class="st1" points="718.88 591.86 719 592.1 719 592.04"/>
    <polyline class="st1" points="719 592.1 719.12 592.16 719 592.04"/>
    <polyline class="st1" points="719 592.1 719.12 592.22 719.12 592.16"/>
    <line class="st1" x1="718.88" y1="591.92" x2="718.88" y2="591.86"/>
    <line class="st1" x1="718.88" y1="591.92" x2="719" y2="592.1"/>
    <polyline class="st1" points="718.88 591.92 719 592.16 719 592.1"/>
    <line class="st1" x1="719" y1="592.16" x2="719.12" y2="592.22"/>
    <polyline class="st1" points="719 592.16 719.18 592.28 719.12 592.22"/>
    <line class="st1" x1="719.24" y1="592.28" x2="719.18" y2="592.28"/>
    <line class="st1" x1="733.76" y1="600.68" x2="719.24" y2="592.28"/>
    <polyline class="st1" points="733.76 600.68 733.7 600.68 719.24 592.28"/>
    <polyline class="st1" points="733.7 600.68 719.18 592.28 719.24 592.28"/>
    <polyline class="st1" points="733.7 600.68 733.7 600.62 719.18 592.28"/>
    <polyline class="st1" points="733.7 600.62 719.12 592.22 719.18 592.28"/>
    <polyline class="st1" points="733.7 600.62 719.12 592.16 719.12 592.22"/>
    <polyline class="st1" points="733.7 600.62 733.7 600.56 719.12 592.16"/>
    <line class="st1" x1="735.02" y1="600.68" x2="734.78" y2="600.8"/>
    <line class="st1" x1="734.78" y1="600.8" x2="734.42" y2="600.86"/>
    <line class="st1" x1="734.42" y1="600.86" x2="734.12" y2="600.8"/>
    <line class="st1" x1="734.12" y1="600.8" x2="733.82" y2="600.74"/>
    <line class="st1" x1="733.82" y1="600.74" x2="733.76" y2="600.68"/>
    <polyline class="st1" points="735.02 600.68 735.08 600.68 734.78 600.8"/>
    <polyline class="st1" points="735.08 600.68 734.78 600.8 734.78 600.8"/>
    <line class="st1" x1="734.78" y1="600.8" x2="734.42" y2="600.86"/>
    <polyline class="st1" points="734.78 600.8 734.48 600.8 734.42 600.86"/>
    <line class="st1" x1="734.48" y1="600.8" x2="734.12" y2="600.8"/>
    <polyline class="st1" points="734.48 600.8 734.12 600.8 734.12 600.8"/>
    <line class="st1" x1="734.12" y1="600.8" x2="733.82" y2="600.74"/>
    <polyline class="st1" points="734.12 600.8 733.76 600.68 733.82 600.74"/>
    <polyline class="st1" points="733.76 600.68 733.7 600.68 733.76 600.68"/>
    <polyline class="st1" points="735.08 600.68 735.14 600.62 734.78 600.8"/>
    <polyline class="st1" points="735.14 600.62 734.84 600.74 734.78 600.8"/>
    <line class="st1" x1="734.84" y1="600.74" x2="734.48" y2="600.8"/>
    <polyline class="st1" points="734.84 600.74 734.48 600.74 734.48 600.8"/>
    <line class="st1" x1="734.48" y1="600.74" x2="734.12" y2="600.8"/>
    <polyline class="st1" points="734.48 600.74 734.06 600.74 734.12 600.8"/>
    <line class="st1" x1="734.06" y1="600.74" x2="733.76" y2="600.68"/>
    <polyline class="st1" points="734.06 600.74 733.76 600.62 733.76 600.68"/>
    <line class="st1" x1="733.76" y1="600.62" x2="733.7" y2="600.68"/>
    <polyline class="st1" points="733.76 600.62 733.7 600.62 733.7 600.68"/>
    <polyline class="st1" points="735.14 600.62 735.14 600.56 734.84 600.74"/>
    <polyline class="st1" points="735.14 600.56 734.84 600.68 734.84 600.74"/>
    <line class="st1" x1="734.84" y1="600.68" x2="734.48" y2="600.74"/>
    <polyline class="st1" points="734.84 600.68 734.48 600.74 734.48 600.74"/>
    <line class="st1" x1="734.48" y1="600.74" x2="734.06" y2="600.74"/>
    <polyline class="st1" points="734.48 600.74 734.06 600.68 734.06 600.74"/>
    <line class="st1" x1="734.06" y1="600.68" x2="733.76" y2="600.62"/>
    <polyline class="st1" points="734.06 600.68 733.76 600.62 733.76 600.62"/>
    <line class="st1" x1="733.76" y1="600.62" x2="733.7" y2="600.62"/>
    <polyline class="st1" points="733.76 600.62 733.7 600.56 733.7 600.62"/>
    <line class="st1" x1="719.12" y1="590.18" x2="719.12" y2="590.3"/>
    <line class="st1" x1="719.12" y1="590.3" x2="733.7" y2="598.7"/>
    <line class="st1" x1="733.7" y1="598.7" x2="734" y2="598.7"/>
    <line class="st1" x1="734.84" y1="598.7" x2="735.14" y2="598.7"/>
    <line class="st1" x1="735.14" y1="598.7" x2="749.66" y2="590.3"/>
    <line class="st1" x1="749.66" y1="590.3" x2="749.66" y2="590.18"/>
    <line class="st1" x1="719.12" y1="590.3" x2="719.12" y2="592.16"/>
    <line class="st1" x1="719.12" y1="592.16" x2="733.7" y2="600.56"/>
    <line class="st1" x1="733.7" y1="600.56" x2="733.7" y2="598.7"/>
    <line class="st1" x1="735.14" y1="598.7" x2="735.14" y2="600.56"/>
    <line class="st1" x1="735.14" y1="600.56" x2="749.66" y2="592.16"/>
    <line class="st1" x1="749.66" y1="592.16" x2="749.66" y2="590.3"/>
    <line class="st1" x1="744.68" y1="595.64" x2="744.68" y2="595.82"/>
    <line class="st1" x1="744.68" y1="595.82" x2="744.62" y2="595.94"/>
    <line class="st1" x1="744.62" y1="595.94" x2="744.5" y2="596.06"/>
    <line class="st1" x1="744.5" y1="596.06" x2="744.38" y2="596.18"/>
    <polyline class="st1" points="744.68 595.64 738.68 599.12 744.68 595.82 744.68 595.64"/>
    <polyline class="st1" points="738.68 599.12 738.68 599.3 744.68 595.82"/>
    <polyline class="st1" points="738.68 599.3 738.62 599.42 744.68 595.82"/>
    <polyline class="st1" points="738.62 599.48 744.5 596.06 738.62 599.42 738.62 599.48"/>
    <polyline class="st1" points="744.5 596.06 744.62 595.94 738.62 599.42"/>
    <line class="st1" x1="744.62" y1="595.94" x2="744.68" y2="595.82"/>
    <polyline class="st1" points="738.62 599.48 738.56 599.54 744.5 596.06"/>
    <polyline class="st1" points="738.56 599.54 744.38 596.18 744.5 596.06"/>
    <line class="st1" x1="738.68" y1="599.12" x2="737.72" y2="599.12"/>
    <polyline class="st1" points="731.06 599.12 730.16 599.12 731.12 599.12"/>
    <polyline class="st1" points="737.54 599.24 738.68 599.3 738.68 599.12"/>
    <polyline class="st1" points="730.16 599.12 730.16 599.3 731.3 599.3"/>
    <line class="st1" x1="737.48" y1="599.3" x2="738.68" y2="599.3"/>
    <polyline class="st1" points="730.16 599.3 730.16 599.42 731.48 599.36"/>
    <line class="st1" x1="737.48" y1="599.3" x2="738.68" y2="599.3"/>
    <line class="st1" x1="730.22" y1="599.48" x2="731.66" y2="599.48"/>
    <polyline class="st1" points="737.12 599.48 738.62 599.48 737.18 599.48"/>
    <polyline class="st1" points="731.54 599.42 730.16 599.42 730.22 599.48"/>
    <polyline class="st1" points="738.62 599.48 738.62 599.42 737.3 599.42"/>
    <line class="st1" x1="731.54" y1="599.42" x2="730.16" y2="599.42"/>
    <line class="st1" x1="738.62" y1="599.42" x2="738.68" y2="599.3"/>
    <polyline class="st1" points="730.22 599.48 730.28 599.54 731.78 599.54"/>
    <line class="st1" x1="737.12" y1="599.48" x2="738.62" y2="599.48"/>
    <line class="st1" x1="730.28" y1="599.54" x2="731.78" y2="599.54"/>
    <polyline class="st1" points="737.06 599.54 738.56 599.54 738.62 599.48"/>
    <line class="st1" x1="724.4" y1="596.18" x2="724.28" y2="596.06"/>
    <line class="st1" x1="724.28" y1="596.06" x2="724.22" y2="595.94"/>
    <line class="st1" x1="724.22" y1="595.94" x2="724.16" y2="595.82"/>
    <line class="st1" x1="724.16" y1="595.82" x2="724.1" y2="595.64"/>
    <line class="st1" x1="730.28" y1="599.54" x2="724.4" y2="596.18"/>
    <polyline class="st1" points="730.28 599.54 730.22 599.48 724.4 596.18"/>
    <polyline class="st1" points="730.22 599.48 724.28 596.06 724.4 596.18"/>
    <polyline class="st1" points="730.22 599.48 724.22 595.94 724.28 596.06"/>
    <polyline class="st1" points="730.22 599.48 730.16 599.42 724.22 595.94"/>
    <polyline class="st1" points="730.16 599.42 730.16 599.3 724.22 595.94"/>
    <polyline class="st1" points="730.16 599.12 724.1 595.64 730.16 599.3 730.16 599.12"/>
    <polyline class="st1" points="724.1 595.64 724.16 595.82 730.16 599.3"/>
    <line class="st1" x1="724.16" y1="595.82" x2="724.22" y2="595.94"/>
    <line class="st1" x1="738.68" y1="599.12" x2="738.68" y2="598.58"/>
    <line class="st1" x1="730.16" y1="599.12" x2="731.06" y2="599.12"/>
    <line class="st1" x1="737.72" y1="599.12" x2="738.68" y2="599.12"/>
    <line class="st1" x1="730.16" y1="599.12" x2="730.16" y2="598.58"/>
    <line class="st1" x1="724.1" y1="595.64" x2="730.16" y2="599.12"/>
    <line class="st1" x1="744.56" y1="596" x2="744.56" y2="596.06"/>
    <polyline class="st1" points="738.62 599.42 738.62 599.48 738.62 599.48"/>
    <polyline class="st1" points="738.5 599.54 738.44 599.54 738.44 599.54"/>
    <polyline class="st1" points="730.22 599.42 730.22 599.48 730.22 599.48"/>
    <line class="st1" x1="744.68" y1="595.64" x2="744.68" y2="595.1"/>
    <line class="st1" x1="738.68" y1="599.12" x2="744.68" y2="595.64"/>
    <line class="st1" x1="724.1" y1="595.64" x2="724.1" y2="595.1"/>
    <line class="st1" x1="520.82" y1="435.56" x2="520.82" y2="457.76"/>
    <line class="st1" x1="520.82" y1="435.56" x2="520.82" y2="457.76"/>
    <line class="st1" x1="520.7" y1="435.62" x2="520.7" y2="458.06"/>
    <line class="st1" x1="520.7" y1="458.06" x2="520.82" y2="457.76"/>
    <line class="st1" x1="520.7" y1="435.62" x2="520.7" y2="458.06"/>
    <polyline class="st1" points="520.4 435.8 520.4 458.36 520.7 458.06"/>
    <polyline class="st1" points="490.58 453.02 490.58 458.36 490.58 453.02"/>
    <polyline class="st1" points="490.22 453.2 490.22 458.06 490.58 458.36"/>
    <line class="st1" x1="490.22" y1="453.2" x2="490.22" y2="458.06"/>
    <polyline class="st1" points="490.1 453.26 490.1 457.76 490.22 458.06"/>
    <polyline class="st1" points="506.48 443.84 506.54 466.34 506.54 443.78"/>
    <line class="st1" x1="506.06" y1="444.08" x2="506.06" y2="466.52"/>
    <line class="st1" x1="506.06" y1="466.52" x2="506.54" y2="466.34"/>
    <line class="st1" x1="506" y1="444.08" x2="506.06" y2="466.52"/>
    <line class="st1" x1="505.46" y1="444.44" x2="505.46" y2="466.58"/>
    <line class="st1" x1="505.46" y1="466.58" x2="506.06" y2="466.52"/>
    <line class="st1" x1="505.46" y1="444.44" x2="505.46" y2="466.58"/>
    <line class="st1" x1="504.92" y1="444.74" x2="504.92" y2="466.52"/>
    <line class="st1" x1="504.92" y1="466.52" x2="505.46" y2="466.58"/>
    <line class="st1" x1="504.86" y1="444.74" x2="504.92" y2="466.52"/>
    <polyline class="st1" points="504.38 445.04 504.38 466.34 504.92 466.52"/>
    <line class="st1" x1="506.54" y1="466.34" x2="520.4" y2="458.36"/>
    <line class="st1" x1="520.4" y1="458.36" x2="520.4" y2="435.8"/>
    <line class="st1" x1="490.58" y1="458.36" x2="490.58" y2="453.02"/>
    <line class="st1" x1="490.58" y1="458.36" x2="504.38" y2="466.34"/>
    <line class="st1" x1="504.38" y1="466.34" x2="504.38" y2="445.04"/>
    <line class="st1" x1="506.54" y1="466.34" x2="506.54" y2="443.78"/>
    <polyline class="st1" points="506.18 468.38 506.18 466.52 506.06 468.44 506.18 468.38"/>
    <polyline class="st1" points="506.18 466.52 505.88 466.7 506.06 468.44"/>
    <polyline class="st1" points="505.88 466.7 505.7 468.56 506.06 468.44"/>
    <polyline class="st1" points="505.88 466.7 505.46 466.7 505.7 468.56"/>
    <polyline class="st1" points="505.46 466.7 505.34 468.56 505.7 468.56"/>
    <polyline class="st1" points="505.46 466.7 505.1 466.7 505.34 468.56"/>
    <polyline class="st1" points="505.1 466.7 504.98 468.5 505.34 468.56"/>
    <polyline class="st1" points="505.1 466.7 504.74 466.52 504.98 468.5"/>
    <polyline class="st1" points="504.74 466.52 504.74 468.38 504.98 468.5"/>
    <line class="st1" x1="520.82" y1="457.4" x2="520.94" y2="457.52"/>
    <polyline class="st1" points="520.94 457.52 521.06 457.76 521 459.5"/>
    <polyline class="st1" points="521.06 457.76 521 459.74 521 459.5"/>
    <polyline class="st1" points="521.06 457.76 520.94 457.94 521 459.74"/>
    <polyline class="st1" points="520.94 457.94 520.88 459.92 521 459.74"/>
    <polyline class="st1" points="520.94 457.94 520.76 458.12 520.88 459.92"/>
    <polyline class="st1" points="520.76 458.12 520.76 459.98 520.88 459.92"/>
    <line class="st1" x1="506.12" y1="468.5" x2="506" y2="468.56"/>
    <line class="st1" x1="506" y1="468.56" x2="505.7" y2="468.68"/>
    <line class="st1" x1="505.7" y1="468.68" x2="505.34" y2="468.68"/>
    <line class="st1" x1="505.34" y1="468.68" x2="505.04" y2="468.62"/>
    <line class="st1" x1="505.04" y1="468.62" x2="504.86" y2="468.5"/>
    <polyline class="st1" points="506.12 468.5 506.18 468.5 506 468.56"/>
    <polyline class="st1" points="506.18 468.5 506 468.56 506 468.56"/>
    <line class="st1" x1="506" y1="468.56" x2="505.7" y2="468.68"/>
    <polyline class="st1" points="506 468.56 505.7 468.62 505.7 468.68"/>
    <line class="st1" x1="505.7" y1="468.62" x2="505.34" y2="468.68"/>
    <polyline class="st1" points="505.7 468.62 505.34 468.62 505.34 468.68"/>
    <line class="st1" x1="505.34" y1="468.62" x2="505.04" y2="468.62"/>
    <polyline class="st1" points="505.34 468.62 504.98 468.56 505.04 468.62"/>
    <line class="st1" x1="504.98" y1="468.56" x2="504.86" y2="468.5"/>
    <polyline class="st1" points="504.98 468.56 504.8 468.5 504.86 468.5"/>
    <polyline class="st1" points="506.18 468.5 506.18 468.44 506 468.56"/>
    <polyline class="st1" points="506.18 468.44 506.06 468.5 506 468.56"/>
    <line class="st1" x1="506.06" y1="468.5" x2="505.7" y2="468.62"/>
    <polyline class="st1" points="506.06 468.5 505.7 468.56 505.7 468.62"/>
    <line class="st1" x1="505.7" y1="468.56" x2="505.34" y2="468.62"/>
    <polyline class="st1" points="505.7 468.56 505.34 468.62 505.34 468.62"/>
    <line class="st1" x1="505.34" y1="468.62" x2="504.98" y2="468.56"/>
    <polyline class="st1" points="505.34 468.62 504.98 468.5 504.98 468.56"/>
    <line class="st1" x1="504.98" y1="468.5" x2="504.8" y2="468.5"/>
    <polyline class="st1" points="504.98 468.5 504.74 468.44 504.8 468.5"/>
    <polyline class="st1" points="506.18 468.44 506.18 468.38 506.06 468.5"/>
    <polyline class="st1" points="506.18 468.38 506.06 468.44 506.06 468.5"/>
    <line class="st1" x1="506.06" y1="468.44" x2="505.7" y2="468.56"/>
    <polyline class="st1" points="506.06 468.44 505.7 468.56 505.7 468.56"/>
    <line class="st1" x1="505.7" y1="468.56" x2="505.34" y2="468.62"/>
    <polyline class="st1" points="505.7 468.56 505.34 468.56 505.34 468.62"/>
    <line class="st1" x1="505.34" y1="468.56" x2="504.98" y2="468.5"/>
    <polyline class="st1" points="505.34 468.56 504.98 468.5 504.98 468.5"/>
    <line class="st1" x1="504.98" y1="468.5" x2="504.74" y2="468.44"/>
    <polyline class="st1" points="504.98 468.5 504.74 468.38 504.74 468.44"/>
    <polyline class="st1" points="504.74 468.38 490.22 459.98 504.74 468.44 504.74 468.38"/>
    <polyline class="st1" points="490.22 459.98 490.22 460.04 504.74 468.44"/>
    <polyline class="st1" points="490.22 460.04 490.22 460.1 504.74 468.44"/>
    <polyline class="st1" points="490.22 460.1 504.8 468.5 504.74 468.44"/>
    <polyline class="st1" points="490.22 460.1 490.28 460.1 504.8 468.5"/>
    <polyline class="st1" points="490.28 460.1 504.86 468.5 504.8 468.5"/>
    <line class="st1" x1="489.98" y1="459.86" x2="489.98" y2="459.8"/>
    <polyline class="st1" points="489.98 459.86 490.16 459.98 489.98 459.8"/>
    <polyline class="st1" points="489.98 459.86 490.16 460.04 490.16 459.98"/>
    <polyline class="st1" points="490.16 460.04 490.22 460.04 490.16 459.98"/>
    <polyline class="st1" points="490.16 460.04 490.22 460.1 490.22 460.04"/>
    <line class="st1" x1="490.22" y1="460.1" x2="490.16" y2="460.04"/>
    <polyline class="st1" points="490.22 460.1 490.28 460.1 490.22 460.1"/>
    <polyline class="st1" points="490.22 460.04 490.22 459.98 490.16 459.98"/>
    <polyline class="st1" points="490.22 459.98 490.16 459.92 490.16 459.98"/>
    <polyline class="st1" points="490.16 459.92 490.04 459.86 490.16 459.98"/>
    <line class="st1" x1="490.04" y1="459.86" x2="489.98" y2="459.8"/>
    <polyline class="st1" points="490.04 459.86 489.98 459.74 489.98 459.8"/>
    <polyline class="st1" points="489.98 459.74 489.92 459.68 489.98 459.8"/>
    <line class="st1" x1="489.92" y1="459.68" x2="489.92" y2="459.56"/>
    <line class="st1" x1="520.94" y1="459.8" x2="520.82" y2="459.98"/>
    <polyline class="st1" points="520.82 459.98 520.7 460.1 520.64 460.1"/>
    <line class="st1" x1="521" y1="459.74" x2="520.94" y2="459.8"/>
    <line class="st1" x1="521" y1="459.74" x2="520.82" y2="459.98"/>
    <polyline class="st1" points="521 459.74 520.88 459.92 520.82 459.98"/>
    <line class="st1" x1="520.88" y1="459.92" x2="520.7" y2="460.1"/>
    <polyline class="st1" points="520.88 459.92 520.76 460.04 520.7 460.1"/>
    <polyline class="st1" points="521 459.5 521 459.74 521 459.74"/>
    <line class="st1" x1="521" y1="459.74" x2="520.88" y2="459.92"/>
    <polyline class="st1" points="521 459.74 520.88 459.92 520.88 459.92"/>
    <line class="st1" x1="520.88" y1="459.92" x2="520.76" y2="460.04"/>
    <polyline class="st1" points="520.88 459.92 520.76 459.98 520.76 460.04"/>
    <line class="st1" x1="520.64" y1="460.1" x2="506.12" y2="468.5"/>
    <polyline class="st1" points="520.64 460.1 520.7 460.1 506.12 468.5"/>
    <polyline class="st1" points="520.7 460.1 506.18 468.5 506.12 468.5"/>
    <polyline class="st1" points="520.7 460.1 520.76 460.04 506.18 468.5"/>
    <polyline class="st1" points="520.76 460.04 506.18 468.44 506.18 468.5"/>
    <polyline class="st1" points="520.76 460.04 506.18 468.38 506.18 468.44"/>
    <polyline class="st1" points="520.76 460.04 520.76 459.98 506.18 468.38"/>
    <polyline class="st1" points="490.22 459.98 490.22 458.12 490.16 459.92 490.22 459.98"/>
    <polyline class="st1" points="490.22 458.12 490.04 459.86 490.16 459.92"/>
    <polyline class="st1" points="490.22 458.12 489.98 457.94 490.04 459.86"/>
    <polyline class="st1" points="489.98 457.94 489.98 459.74 490.04 459.86"/>
    <polyline class="st1" points="489.98 457.94 489.92 459.68 489.98 459.74"/>
    <polyline class="st1" points="489.98 457.94 489.92 457.76 489.92 459.68"/>
    <polyline class="st1" points="489.92 457.76 489.92 459.56 489.92 459.68"/>
    <line class="st1" x1="489.92" y1="457.76" x2="489.98" y2="457.52"/>
    <line class="st1" x1="489.98" y1="457.52" x2="490.1" y2="457.4"/>
    <line class="st1" x1="506.18" y1="468.38" x2="506.18" y2="466.52"/>
    <line class="st1" x1="506.18" y1="466.52" x2="505.88" y2="466.52"/>
    <line class="st1" x1="505.04" y1="466.52" x2="504.74" y2="466.52"/>
    <line class="st1" x1="504.74" y1="466.52" x2="504.74" y2="468.38"/>
    <line class="st1" x1="520.76" y1="458" x2="520.76" y2="458.12"/>
    <line class="st1" x1="520.76" y1="458.12" x2="520.76" y2="459.98"/>
    <line class="st1" x1="520.76" y1="458.12" x2="506.18" y2="466.52"/>
    <line class="st1" x1="504.74" y1="466.52" x2="490.22" y2="458.12"/>
    <line class="st1" x1="504.74" y1="468.38" x2="490.22" y2="459.98"/>
    <line class="st1" x1="520.76" y1="459.98" x2="506.18" y2="468.38"/>
    <line class="st1" x1="490.22" y1="459.98" x2="490.22" y2="458.12"/>
    <line class="st1" x1="490.22" y1="458.12" x2="490.22" y2="458"/>
    <line class="st1" x1="515.78" y1="463.46" x2="515.72" y2="463.64"/>
    <line class="st1" x1="515.72" y1="463.64" x2="515.66" y2="463.76"/>
    <line class="st1" x1="515.66" y1="463.76" x2="515.6" y2="463.88"/>
    <line class="st1" x1="515.6" y1="463.88" x2="515.48" y2="464"/>
    <polyline class="st1" points="515.78 463.46 509.72 466.94 515.72 463.64 515.78 463.46"/>
    <polyline class="st1" points="509.72 466.94 509.72 467.12 515.72 463.64"/>
    <polyline class="st1" points="509.72 467.12 509.72 467.24 515.72 463.64"/>
    <polyline class="st1" points="509.66 467.3 515.6 463.88 509.72 467.24 509.66 467.3"/>
    <polyline class="st1" points="515.6 463.88 515.66 463.76 509.72 467.24"/>
    <line class="st1" x1="515.66" y1="463.76" x2="515.72" y2="463.64"/>
    <polyline class="st1" points="509.66 467.3 509.6 467.36 515.6 463.88"/>
    <polyline class="st1" points="509.6 467.36 515.48 464 515.6 463.88"/>
    <line class="st1" x1="495.5" y1="464" x2="495.38" y2="463.88"/>
    <line class="st1" x1="495.38" y1="463.88" x2="495.26" y2="463.76"/>
    <line class="st1" x1="495.26" y1="463.76" x2="495.2" y2="463.64"/>
    <line class="st1" x1="495.2" y1="463.64" x2="495.2" y2="463.46"/>
    <line class="st1" x1="509.72" y1="466.94" x2="508.82" y2="466.94"/>
    <polyline class="st1" points="502.16 466.94 501.2 466.94 502.16 467"/>
    <polyline class="st1" points="508.58 467.06 509.72 467.12 509.72 466.94"/>
    <polyline class="st1" points="501.2 466.94 501.2 467.12 502.4 467.12"/>
    <line class="st1" x1="508.58" y1="467.12" x2="509.72" y2="467.12"/>
    <polyline class="st1" points="501.2 467.12 501.26 467.24 502.58 467.18"/>
    <line class="st1" x1="508.52" y1="467.12" x2="509.72" y2="467.12"/>
    <line class="st1" x1="501.26" y1="467.3" x2="502.76" y2="467.3"/>
    <polyline class="st1" points="508.22 467.3 509.66 467.3 508.22 467.3"/>
    <polyline class="st1" points="502.64 467.24 501.26 467.24 501.26 467.3"/>
    <polyline class="st1" points="509.66 467.3 509.72 467.24 508.34 467.24"/>
    <line class="st1" x1="502.58" y1="467.24" x2="501.26" y2="467.24"/>
    <line class="st1" x1="509.72" y1="467.24" x2="509.72" y2="467.12"/>
    <polyline class="st1" points="501.26 467.3 501.32 467.36 502.82 467.36"/>
    <line class="st1" x1="508.16" y1="467.3" x2="509.66" y2="467.3"/>
    <line class="st1" x1="501.32" y1="467.36" x2="502.82" y2="467.36"/>
    <polyline class="st1" points="508.1 467.36 509.6 467.36 509.66 467.3"/>
    <polyline class="st1" points="501.2 466.94 495.2 463.46 501.2 467.12 501.2 466.94"/>
    <polyline class="st1" points="495.2 463.46 495.2 463.64 501.2 467.12"/>
    <polyline class="st1" points="495.2 463.64 495.26 463.76 501.2 467.12"/>
    <polyline class="st1" points="495.38 463.88 501.26 467.3 495.26 463.76 495.38 463.88"/>
    <polyline class="st1" points="501.26 467.3 501.26 467.24 495.26 463.76"/>
    <line class="st1" x1="501.26" y1="467.24" x2="501.2" y2="467.12"/>
    <polyline class="st1" points="495.38 463.88 495.5 464 501.26 467.3"/>
    <polyline class="st1" points="495.5 464 501.32 467.36 501.26 467.3"/>
    <line class="st1" x1="495.2" y1="463.46" x2="495.2" y2="462.92"/>
    <line class="st1" x1="501.2" y1="466.94" x2="501.2" y2="466.4"/>
    <line class="st1" x1="515.78" y1="463.46" x2="509.72" y2="466.94"/>
    <line class="st1" x1="509.72" y1="466.94" x2="508.82" y2="466.94"/>
    <line class="st1" x1="502.16" y1="466.94" x2="501.2" y2="466.94"/>
    <polyline class="st1" points="495.32 463.82 495.32 463.88 495.32 463.88"/>
    <line class="st1" x1="501.2" y1="466.94" x2="495.2" y2="463.46"/>
    <line class="st1" x1="509.72" y1="466.94" x2="509.72" y2="466.4"/>
    <line class="st1" x1="515.78" y1="463.46" x2="515.78" y2="462.92"/>
  </g>
</svg>