<?xml version="1.0" encoding="UTF-8"?>
<svg id="Layer_2" xmlns="http://www.w3.org/2000/svg" version="1.1" viewBox="0 0 3611.4 595.28">
  <!-- Generator: Adobe Illustrator 30.5.0, SVG Export Plug-In . SVG Version: 2.1.3 Build 41)  -->
  <defs>
    <style>
      .st0 {
        fill: #363a3c;
      }
    </style>
  </defs>
  <polygon class="st0" points="1554.27 106.32 1554.27 172.38 1806.53 172.38 1806.53 485.64 1880.98 485.64 1880.98 172.38 2133.24 172.38 2133.24 106.32 1554.27 106.32"/>
  <path class="st0" d="M658.14,106.32H204.1c-54.93,0-99.47,44.53-99.47,99.47v279.85h74.45V219.94c0-26.27,21.29-47.56,47.56-47.56h167.48v313.26h74.44V172.38h167.49c26.27,0,47.56,21.29,47.56,47.56v265.7h74.44V206.22c0-55.09-44.81-99.9-99.9-99.9"/>
  <path class="st0" d="M1024.21,171.65h456.97v-66.06h-479.5c-54.94,0-99.47,44.53-99.47,99.47v94.65h.29s-.29,0-.29,0v86.36c0,54.94,44.54,99.47,99.47,99.47h479.5v-66.06h-456.97c-26.27,0-47.56-21.29-47.56-47.56v-42.41h441.87v-35.72h-.87s.87,0,.87,0v-29.41h-441.87v-45.17c0-26.26,21.29-47.56,47.56-47.56Z"/>
  <path class="st0" d="M2751.62,342.66c34.86-16.21,57.01-50.71,56.94-89.51l-.11-47.95c-.05-54.52-44.45-98.88-98.97-98.88h-479.67l-.22,379.32h74.45l-.05-133.49,370.45-.15,55.88,133.64h81.36l-60.06-142.98ZM2734.28,238.13c0,26.27-21.3,47.56-47.56,47.56h-382.77l-.06-113.31h1.51l-.73-.11h382.05c26.26,0,47.56,21.29,47.56,47.56"/>
  <path class="st0" d="M3411.69,106.32h-377.38c-55.28,0-100.27,44.98-100.27,100.27v178.69c0,55.29,44.99,100.27,100.27,100.27h377.38c55.28,0,100.26-44.98,100.26-100.27v-178.69c0-55.28-44.98-100.27-100.26-100.27ZM3437.5,220.52v151.99c0,26.27-21.29,47.56-47.56,47.56h-333.89c-26.26,0-47.56-21.29-47.56-47.56v-152.57c0-26.27,21.29-47.56,47.56-47.56h333.89c26.27,0,47.56,21.29,47.56,47.56v.58Z"/>
</svg>