<?xml version="1.0" encoding="UTF-8"?>
<svg id="Layer_2" xmlns="http://www.w3.org/2000/svg" version="1.1" viewBox="0 0 1133.86 1133.86">
  <!-- Generator: Adobe Illustrator 30.3.0, SVG Export Plug-In . SVG Version: 2.1.3 Build 182)  -->
  <defs>
    <style>
      .st0 {
        fill: none;
        stroke: #000;
        stroke-linecap: round;
        stroke-linejoin: round;
      }
    </style>
  </defs>
  <line class="st0" x1="673.51" y1="530.46" x2="673.03" y2="530.73"/>
  <line class="st0" x1="673.03" y1="530.73" x2="673.03" y2="692.07"/>
  <line class="st0" x1="673.03" y1="692.07" x2="673.51" y2="691.8"/>
  <line class="st0" x1="673.03" y1="530.73" x2="99.96" y2="199.87"/>
  <line class="st0" x1="99.96" y1="199.87" x2="99.96" y2="361.21"/>
  <line class="st0" x1="99.96" y1="361.21" x2="673.03" y2="692.07"/>
  <line class="st0" x1="100.44" y1="199.6" x2="99.96" y2="199.87"/>
  <line class="st0" x1="673.51" y1="692.89" x2="673.03" y2="693.16"/>
  <line class="st0" x1="673.03" y1="693.16" x2="673.03" y2="854.5"/>
  <line class="st0" x1="673.03" y1="854.5" x2="673.51" y2="854.23"/>
  <line class="st0" x1="673.03" y1="693.16" x2="99.96" y2="362.3"/>
  <line class="st0" x1="99.96" y1="362.3" x2="99.96" y2="523.65"/>
  <line class="st0" x1="99.96" y1="523.65" x2="673.03" y2="854.5"/>
  <line class="st0" x1="100.91" y1="361.76" x2="99.96" y2="362.3"/>
  <line class="st0" x1="673.51" y1="855.32" x2="673.03" y2="855.59"/>
  <line class="st0" x1="673.03" y1="855.59" x2="673.03" y2="1016.93"/>
  <line class="st0" x1="673.03" y1="1016.93" x2="673.51" y2="1016.66"/>
  <line class="st0" x1="673.03" y1="855.59" x2="99.96" y2="524.74"/>
  <line class="st0" x1="99.96" y1="524.74" x2="99.96" y2="686.08"/>
  <line class="st0" x1="99.96" y1="686.08" x2="673.03" y2="1016.93"/>
  <line class="st0" x1="100.91" y1="524.19" x2="99.96" y2="524.74"/>
  <line class="st0" x1="612.14" y1="495.03" x2="386.03" y2="364.48"/>
  <line class="st0" x1="386.03" y1="364.48" x2="159.92" y2="233.94"/>
  <line class="st0" x1="159.92" y1="233.94" x2="98.56" y2="198.51"/>
  <line class="st0" x1="673.51" y1="520.65" x2="98.56" y2="188.7"/>
  <line class="st0" x1="98.56" y1="188.7" x2="98.56" y2="198.51"/>
  <line class="st0" x1="98.56" y1="188.7" x2="98.56" y2="188.72"/>
  <line class="st0" x1="673.51" y1="520.65" x2="673.51" y2="530.46"/>
  <line class="st0" x1="216.56" y1="120.57" x2="791.51" y2="452.51"/>
  <line class="st0" x1="216.56" y1="120.57" x2="98.56" y2="188.7"/>
  <line class="st0" x1="744.57" y1="479.61" x2="791.51" y2="452.51"/>
  <line class="st0" x1="791.51" y1="452.51" x2="791.47" y2="452.55"/>
  <line class="st0" x1="791.47" y1="452.55" x2="791.47" y2="452.55"/>
  <line class="st0" x1="109.41" y1="780.92" x2="109.41" y2="692.11"/>
  <path class="st0" d="M109.41,691.53"/>
  <line class="st0" x1="115.78" y1="784.6" x2="109.41" y2="780.92"/>
  <line class="st0" x1="673.51" y1="1106.6" x2="533.54" y2="1025.79"/>
  <line class="st0" x1="533.54" y1="1025.79" x2="260.22" y2="867.99"/>
  <line class="st0" x1="260.22" y1="867.99" x2="115.78" y2="784.6"/>
  <path class="st0" d="M483.7,907.63"/>
  <line class="st0" x1="673.51" y1="836.24" x2="673.51" y2="762.25"/>
  <line class="st0" x1="673.51" y1="762.25" x2="673.51" y2="672.11"/>
  <line class="st0" x1="673.51" y1="672.11" x2="673.51" y2="593.28"/>
  <line class="st0" x1="673.51" y1="593.28" x2="673.51" y2="555.67"/>
  <line class="st0" x1="673.51" y1="555.67" x2="673.51" y2="530.46"/>
  <line class="st0" x1="681.74" y1="515.89" x2="687.08" y2="512.82"/>
  <line class="st0" x1="687.08" y1="512.82" x2="744.57" y2="479.62"/>
  <line class="st0" x1="673.51" y1="974.15" x2="673.51" y2="836.24"/>
  <line class="st0" x1="791.51" y1="452.51" x2="791.51" y2="452.51"/>
  <line class="st0" x1="865.47" y1="526.68" x2="900.02" y2="537.81"/>
  <line class="st0" x1="900.02" y1="537.81" x2="923.26" y2="539.75"/>
  <line class="st0" x1="923.26" y1="539.75" x2="947.65" y2="538.43"/>
  <line class="st0" x1="947.65" y1="538.43" x2="969.9" y2="534.56"/>
  <line class="st0" x1="969.9" y1="534.56" x2="972.97" y2="533.85"/>
  <line class="st0" x1="972.97" y1="533.85" x2="999" y2="526.05"/>
  <line class="st0" x1="999" y1="526.05" x2="1025.51" y2="515.11"/>
  <line class="st0" x1="1025.51" y1="515.11" x2="1048.62" y2="503.02"/>
  <line class="st0" x1="1048.62" y1="503.02" x2="1052.26" y2="501.12"/>
  <line class="st0" x1="1052.26" y1="501.12" x2="1061.99" y2="495.3"/>
  <line class="st0" x1="673.51" y1="1119.13" x2="673.51" y2="1087.52"/>
  <line class="st0" x1="673.51" y1="1087.52" x2="673.51" y2="1068.46"/>
  <line class="st0" x1="673.51" y1="1068.46" x2="673.51" y2="1056.31"/>
  <line class="st0" x1="673.51" y1="1056.31" x2="673.51" y2="974.15"/>
  <line class="st0" x1="1060.75" y1="506.03" x2="1070.49" y2="500.21"/>
  <line class="st0" x1="1070.49" y1="500.21" x2="1061.99" y2="495.3"/>
  <line class="st0" x1="800.01" y1="457.42" x2="803.97" y2="465.4"/>
  <line class="st0" x1="791.51" y1="452.51" x2="800.01" y2="457.42"/>
  <line class="st0" x1="803.97" y1="465.4" x2="816.42" y2="485.6"/>
  <line class="st0" x1="816.42" y1="485.6" x2="831.05" y2="503.04"/>
  <line class="st0" x1="831.05" y1="503.04" x2="847.73" y2="517.59"/>
  <line class="st0" x1="847.73" y1="517.59" x2="866.31" y2="529.12"/>
  <line class="st0" x1="866.31" y1="529.12" x2="886.64" y2="537.52"/>
  <line class="st0" x1="886.64" y1="537.52" x2="908.51" y2="542.71"/>
  <line class="st0" x1="908.51" y1="542.71" x2="931.75" y2="544.66"/>
  <line class="st0" x1="931.75" y1="544.66" x2="956.14" y2="543.33"/>
  <line class="st0" x1="956.14" y1="543.33" x2="981.47" y2="538.75"/>
  <line class="st0" x1="981.47" y1="538.75" x2="1007.5" y2="530.96"/>
  <line class="st0" x1="1007.5" y1="530.96" x2="1034.01" y2="520.02"/>
  <line class="st0" x1="1034.01" y1="520.02" x2="1060.75" y2="506.03"/>
  <line class="st0" x1="847.73" y1="517.59" x2="865.47" y2="526.68"/>
  <line class="st0" x1="1070.49" y1="899.74" x2="1070.49" y2="500.21"/>
  <line class="st0" x1="800.01" y1="457.42" x2="816.42" y2="485.6"/>
  <line class="st0" x1="800.01" y1="457.42" x2="682" y2="525.55"/>
  <line class="st0" x1="682" y1="525.55" x2="682" y2="1124.04"/>
  <line class="st0" x1="682" y1="1124.04" x2="1070.49" y2="899.74"/>
  <line class="st0" x1="1061.99" y1="495.3" x2="1048.62" y2="503.02"/>
  <line class="st0" x1="1061.99" y1="495.3" x2="487.05" y2="163.35"/>
  <line class="st0" x1="487.05" y1="163.35" x2="473.69" y2="171.07"/>
  <line class="st0" x1="473.69" y1="171.07" x2="388.86" y2="220.04"/>
  <line class="st0" x1="98.56" y1="504.3" x2="99.96" y2="522.95"/>
  <line class="st0" x1="100.02" y1="523.68" x2="100.1" y2="524.66"/>
  <line class="st0" x1="98.56" y1="261.33" x2="98.56" y2="340.17"/>
  <line class="st0" x1="98.56" y1="340.17" x2="98.56" y2="429.21"/>
  <line class="st0" x1="98.56" y1="429.21" x2="98.56" y2="504.3"/>
  <line class="st0" x1="98.56" y1="504.3" x2="98.56" y2="642.2"/>
  <line class="st0" x1="98.56" y1="642.2" x2="98.56" y2="724.37"/>
  <line class="st0" x1="98.56" y1="724.37" x2="98.56" y2="736.51"/>
  <line class="st0" x1="98.56" y1="736.51" x2="98.56" y2="755.57"/>
  <line class="st0" x1="98.56" y1="755.57" x2="98.56" y2="787.19"/>
  <line class="st0" x1="98.56" y1="787.19" x2="103.63" y2="784.26"/>
  <line class="st0" x1="103.63" y1="784.26" x2="106.7" y2="782.49"/>
  <line class="st0" x1="106.7" y1="782.49" x2="109.41" y2="780.92"/>
  <line class="st0" x1="98.56" y1="188.7" x2="98.56" y2="188.7"/>
  <line class="st0" x1="98.56" y1="223.72" x2="98.56" y2="261.33"/>
  <line class="st0" x1="473.69" y1="171.07" x2="450.56" y2="183.17"/>
  <line class="st0" x1="450.56" y1="183.17" x2="424.05" y2="194.1"/>
  <line class="st0" x1="424.05" y1="194.1" x2="398.02" y2="201.9"/>
  <line class="st0" x1="398.02" y1="201.9" x2="394.96" y2="202.62"/>
  <line class="st0" x1="394.96" y1="202.62" x2="372.7" y2="206.48"/>
  <line class="st0" x1="372.7" y1="206.48" x2="365.99" y2="206.84"/>
  <path class="st0" d="M109.41,771.11"/>
  <path class="st0" d="M98.56,777.38"/>
  <line class="st0" x1="90.05" y1="183.79" x2="208.07" y2="115.66"/>
  <line class="st0" x1="357.5" y1="201.94" x2="364.2" y2="201.57"/>
  <line class="st0" x1="364.2" y1="201.57" x2="389.52" y2="196.99"/>
  <line class="st0" x1="389.52" y1="196.99" x2="415.56" y2="189.2"/>
  <line class="st0" x1="415.56" y1="189.2" x2="442.06" y2="178.26"/>
  <line class="st0" x1="478.55" y1="158.45" x2="442.06" y2="178.26"/>
  <line class="st0" x1="90.05" y1="782.28" x2="90.05" y2="183.79"/>
  <line class="st0" x1="442.06" y1="178.26" x2="468.81" y2="164.27"/>
  <line class="st0" x1="468.81" y1="164.27" x2="478.55" y2="158.45"/>
  <line class="st0" x1="90.05" y1="183.79" x2="98.56" y2="188.7"/>
  <line class="st0" x1="208.07" y1="115.66" x2="216.56" y2="120.57"/>
  <line class="st0" x1="487.05" y1="163.35" x2="478.55" y2="158.45"/>
  <line class="st0" x1="99.1" y1="414.42" x2="99.96" y2="414.92"/>
  <line class="st0" x1="99.1" y1="414.42" x2="99.03" y2="414.37"/>
  <line class="st0" x1="99.03" y1="414.37" x2="98.96" y2="414.3"/>
  <line class="st0" x1="98.96" y1="414.3" x2="98.9" y2="414.2"/>
  <line class="st0" x1="98.9" y1="414.2" x2="98.86" y2="414.1"/>
  <line class="st0" x1="98.86" y1="414.1" x2="98.83" y2="414"/>
  <line class="st0" x1="98.83" y1="414" x2="98.8" y2="413.88"/>
  <line class="st0" x1="98.8" y1="413.88" x2="98.79" y2="413.75"/>
  <line class="st0" x1="98.79" y1="413.75" x2="98.79" y2="413.61"/>
  <line class="st0" x1="98.79" y1="413.61" x2="98.8" y2="413.47"/>
  <line class="st0" x1="98.8" y1="413.47" x2="98.83" y2="413.32"/>
  <line class="st0" x1="98.83" y1="413.32" x2="98.86" y2="413.17"/>
  <line class="st0" x1="98.86" y1="413.17" x2="98.9" y2="413.02"/>
  <line class="st0" x1="98.9" y1="413.02" x2="98.96" y2="412.87"/>
  <line class="st0" x1="98.96" y1="412.87" x2="99.03" y2="412.72"/>
  <line class="st0" x1="99.03" y1="412.72" x2="99.1" y2="412.57"/>
  <line class="st0" x1="99.1" y1="412.57" x2="99.18" y2="412.42"/>
  <line class="st0" x1="99.18" y1="412.42" x2="99.28" y2="412.29"/>
  <line class="st0" x1="99.28" y1="412.29" x2="99.37" y2="412.16"/>
  <line class="st0" x1="99.37" y1="412.16" x2="99.48" y2="412.03"/>
  <line class="st0" x1="99.48" y1="412.03" x2="99.59" y2="411.92"/>
  <line class="st0" x1="99.59" y1="411.92" x2="99.7" y2="411.82"/>
  <line class="st0" x1="99.7" y1="411.82" x2="99.82" y2="411.73"/>
  <line class="st0" x1="99.82" y1="411.73" x2="99.94" y2="411.65"/>
  <line class="st0" x1="99.94" y1="411.65" x2="99.96" y2="411.63"/>
  <line class="st0" x1="99.1" y1="247.63" x2="99.96" y2="248.13"/>
  <line class="st0" x1="99.1" y1="247.63" x2="99.03" y2="247.58"/>
  <line class="st0" x1="99.03" y1="247.58" x2="98.96" y2="247.5"/>
  <line class="st0" x1="98.96" y1="247.5" x2="98.9" y2="247.41"/>
  <line class="st0" x1="98.9" y1="247.41" x2="98.86" y2="247.31"/>
  <line class="st0" x1="98.86" y1="247.31" x2="98.83" y2="247.2"/>
  <line class="st0" x1="98.83" y1="247.2" x2="98.8" y2="247.09"/>
  <line class="st0" x1="98.8" y1="247.09" x2="98.79" y2="246.96"/>
  <line class="st0" x1="98.79" y1="246.96" x2="98.79" y2="246.82"/>
  <line class="st0" x1="98.79" y1="246.82" x2="98.8" y2="246.68"/>
  <line class="st0" x1="98.8" y1="246.68" x2="98.83" y2="246.53"/>
  <line class="st0" x1="98.83" y1="246.53" x2="98.86" y2="246.38"/>
  <line class="st0" x1="98.86" y1="246.38" x2="98.9" y2="246.23"/>
  <line class="st0" x1="98.9" y1="246.23" x2="98.96" y2="246.08"/>
  <line class="st0" x1="98.96" y1="246.08" x2="99.03" y2="245.93"/>
  <line class="st0" x1="99.03" y1="245.93" x2="99.1" y2="245.78"/>
  <line class="st0" x1="99.1" y1="245.78" x2="99.18" y2="245.63"/>
  <line class="st0" x1="99.18" y1="245.63" x2="99.28" y2="245.5"/>
  <line class="st0" x1="99.28" y1="245.5" x2="99.37" y2="245.37"/>
  <line class="st0" x1="99.37" y1="245.37" x2="99.48" y2="245.24"/>
  <line class="st0" x1="99.48" y1="245.24" x2="99.59" y2="245.13"/>
  <line class="st0" x1="99.59" y1="245.13" x2="99.7" y2="245.03"/>
  <line class="st0" x1="99.7" y1="245.03" x2="99.82" y2="244.94"/>
  <line class="st0" x1="99.82" y1="244.94" x2="99.89" y2="244.89"/>
  <line class="st0" x1="98.56" y1="265.91" x2="99.96" y2="266.73"/>
  <line class="st0" x1="98.56" y1="262.03" x2="98.72" y2="261.84"/>
  <line class="st0" x1="98.72" y1="261.84" x2="98.89" y2="261.66"/>
  <line class="st0" x1="98.89" y1="261.66" x2="99.07" y2="261.49"/>
  <line class="st0" x1="99.07" y1="261.49" x2="99.26" y2="261.35"/>
  <line class="st0" x1="99.26" y1="261.35" x2="99.45" y2="261.22"/>
  <line class="st0" x1="99.45" y1="261.22" x2="99.64" y2="261.12"/>
  <line class="st0" x1="99.64" y1="261.12" x2="99.83" y2="261.04"/>
  <line class="st0" x1="99.83" y1="261.04" x2="99.96" y2="260.99"/>
  <line class="st0" x1="98.56" y1="564.61" x2="99.96" y2="565.42"/>
  <line class="st0" x1="98.56" y1="560.73" x2="98.72" y2="560.54"/>
  <line class="st0" x1="98.72" y1="560.54" x2="98.89" y2="560.36"/>
  <line class="st0" x1="98.89" y1="560.36" x2="99.07" y2="560.19"/>
  <line class="st0" x1="99.07" y1="560.19" x2="99.26" y2="560.05"/>
  <line class="st0" x1="99.26" y1="560.05" x2="99.45" y2="559.92"/>
  <line class="st0" x1="99.45" y1="559.92" x2="99.64" y2="559.82"/>
  <line class="st0" x1="99.64" y1="559.82" x2="99.83" y2="559.74"/>
  <line class="st0" x1="99.83" y1="559.74" x2="99.96" y2="559.69"/>
  <line class="st0" x1="98.56" y1="434.88" x2="99.96" y2="435.7"/>
  <line class="st0" x1="98.56" y1="431" x2="98.72" y2="430.81"/>
  <line class="st0" x1="98.72" y1="430.81" x2="98.89" y2="430.63"/>
  <line class="st0" x1="98.89" y1="430.63" x2="99.07" y2="430.47"/>
  <line class="st0" x1="99.07" y1="430.47" x2="99.26" y2="430.32"/>
  <line class="st0" x1="99.26" y1="430.32" x2="99.45" y2="430.19"/>
  <line class="st0" x1="99.45" y1="430.19" x2="99.64" y2="430.09"/>
  <line class="st0" x1="99.64" y1="430.09" x2="99.83" y2="430.01"/>
  <line class="st0" x1="99.83" y1="430.01" x2="99.96" y2="429.97"/>
  <line class="st0" x1="673.51" y1="530.46" x2="650.85" y2="517.38"/>
  <line class="st0" x1="650.85" y1="517.38" x2="612.14" y2="495.03"/>
  <line class="st0" x1="673.51" y1="520.65" x2="678.47" y2="517.78"/>
  <line class="st0" x1="678.47" y1="517.78" x2="681.74" y2="515.89"/>
  <line class="st0" x1="682" y1="1124.04" x2="673.51" y2="1119.13"/>
  <line class="st0" x1="682" y1="525.55" x2="673.51" y2="520.65"/>
  <line class="st0" x1="98.56" y1="198.51" x2="98.56" y2="223.72"/>
  <path class="st0" d="M100.63,770.09"/>
  <path class="st0" d="M108.77,770.19"/>
  <line class="st0" x1="90.05" y1="782.28" x2="98.56" y2="787.19"/>
</svg>