<?xml version="1.0" encoding="UTF-8"?>
<svg id="Layer_3" xmlns="http://www.w3.org/2000/svg" version="1.1" viewBox="0 0 1133.86 1133.86">
  <!-- Generator: Adobe Illustrator 30.3.0, SVG Export Plug-In . SVG Version: 2.1.3 Build 182)  -->
  <defs>
    <style>
      .st0 {
        fill: none;
        stroke: #000;
        stroke-linecap: round;
        stroke-linejoin: round;
      }
    </style>
  </defs>
  <line class="st0" x1="182.12" y1="319.91" x2="183.06" y2="319.37"/>
  <line class="st0" x1="182.12" y1="481.25" x2="182.12" y2="319.91"/>
  <line class="st0" x1="567.31" y1="542.3" x2="568.25" y2="541.75"/>
  <line class="st0" x1="182.12" y1="319.91" x2="567.31" y2="542.3"/>
  <line class="st0" x1="567.31" y1="703.64" x2="569.19" y2="702.55"/>
  <line class="st0" x1="569.19" y1="702.55" x2="569.19" y2="542.3"/>
  <line class="st0" x1="567.31" y1="542.3" x2="567.31" y2="703.64"/>
  <line class="st0" x1="567.31" y1="703.64" x2="182.12" y2="481.25"/>
  <line class="st0" x1="182.12" y1="482.34" x2="183.06" y2="481.8"/>
  <line class="st0" x1="182.12" y1="643.68" x2="182.12" y2="482.34"/>
  <line class="st0" x1="567.31" y1="704.73" x2="569.19" y2="703.64"/>
  <line class="st0" x1="569.19" y1="703.64" x2="568.24" y2="703.09"/>
  <line class="st0" x1="182.12" y1="482.34" x2="567.31" y2="704.73"/>
  <line class="st0" x1="567.31" y1="866.07" x2="569.19" y2="864.98"/>
  <line class="st0" x1="569.19" y1="864.98" x2="569.19" y2="703.64"/>
  <line class="st0" x1="567.31" y1="704.73" x2="567.31" y2="866.07"/>
  <line class="st0" x1="567.31" y1="866.07" x2="182.12" y2="643.68"/>
  <line class="st0" x1="182.12" y1="644.77" x2="183.06" y2="644.23"/>
  <line class="st0" x1="182.12" y1="806.11" x2="182.12" y2="644.77"/>
  <line class="st0" x1="567.31" y1="867.16" x2="569.19" y2="866.07"/>
  <line class="st0" x1="569.19" y1="866.07" x2="568.24" y2="865.53"/>
  <line class="st0" x1="182.12" y1="644.77" x2="567.31" y2="867.16"/>
  <line class="st0" x1="567.31" y1="1028.5" x2="569.19" y2="1027.41"/>
  <line class="st0" x1="569.19" y1="1027.41" x2="569.19" y2="866.07"/>
  <line class="st0" x1="567.31" y1="867.16" x2="567.31" y2="1028.5"/>
  <line class="st0" x1="567.31" y1="1028.5" x2="182.12" y2="806.11"/>
  <line class="st0" x1="572.97" y1="1028.5" x2="571.08" y2="1027.41"/>
  <line class="st0" x1="958.16" y1="806.11" x2="572.97" y2="1028.5"/>
  <line class="st0" x1="572.97" y1="867.16" x2="571.08" y2="866.07"/>
  <line class="st0" x1="571.08" y1="866.07" x2="571.08" y2="1027.41"/>
  <line class="st0" x1="572.97" y1="1028.5" x2="572.97" y2="867.16"/>
  <line class="st0" x1="958.16" y1="644.77" x2="957.21" y2="644.23"/>
  <line class="st0" x1="572.02" y1="865.53" x2="571.08" y2="866.07"/>
  <line class="st0" x1="572.97" y1="867.16" x2="958.16" y2="644.77"/>
  <line class="st0" x1="958.16" y1="644.77" x2="958.16" y2="806.11"/>
  <line class="st0" x1="572.97" y1="866.07" x2="571.08" y2="864.98"/>
  <line class="st0" x1="958.16" y1="643.68" x2="572.97" y2="866.07"/>
  <line class="st0" x1="572.97" y1="704.73" x2="571.08" y2="703.64"/>
  <line class="st0" x1="571.08" y1="703.64" x2="571.08" y2="864.98"/>
  <line class="st0" x1="572.97" y1="866.07" x2="572.97" y2="704.73"/>
  <line class="st0" x1="958.16" y1="482.34" x2="957.21" y2="481.8"/>
  <line class="st0" x1="572.02" y1="703.09" x2="571.08" y2="703.64"/>
  <line class="st0" x1="572.97" y1="704.73" x2="958.16" y2="482.34"/>
  <line class="st0" x1="958.16" y1="482.34" x2="958.16" y2="643.68"/>
  <line class="st0" x1="572.97" y1="703.64" x2="571.08" y2="702.55"/>
  <line class="st0" x1="958.16" y1="481.25" x2="572.97" y2="703.64"/>
  <line class="st0" x1="572.97" y1="542.3" x2="572.02" y2="541.75"/>
  <line class="st0" x1="571.08" y1="542.3" x2="571.08" y2="702.55"/>
  <line class="st0" x1="572.97" y1="703.64" x2="572.97" y2="542.3"/>
  <line class="st0" x1="958.16" y1="319.91" x2="957.21" y2="319.37"/>
  <line class="st0" x1="572.97" y1="542.3" x2="958.16" y2="319.91"/>
  <line class="st0" x1="958.16" y1="319.91" x2="958.16" y2="481.25"/>
  <line class="st0" x1="947.78" y1="900.95" x2="950.48" y2="902.52"/>
  <line class="st0" x1="950.48" y1="902.52" x2="953.55" y2="904.29"/>
  <line class="st0" x1="953.55" y1="904.29" x2="958.63" y2="907.21"/>
  <line class="st0" x1="958.63" y1="907.21" x2="958.63" y2="899.71"/>
  <line class="st0" x1="958.63" y1="899.71" x2="958.63" y2="875.6"/>
  <line class="st0" x1="958.63" y1="875.6" x2="958.63" y2="856.54"/>
  <line class="st0" x1="958.63" y1="856.54" x2="958.63" y2="844.4"/>
  <line class="st0" x1="958.63" y1="844.4" x2="958.63" y2="770.55"/>
  <line class="st0" x1="958.63" y1="770.55" x2="958.63" y2="698.32"/>
  <line class="st0" x1="958.63" y1="698.32" x2="958.63" y2="548.16"/>
  <line class="st0" x1="958.63" y1="548.16" x2="958.63" y2="535.28"/>
  <line class="st0" x1="958.63" y1="535.28" x2="958.63" y2="460.19"/>
  <line class="st0" x1="958.63" y1="460.19" x2="958.63" y2="381.37"/>
  <line class="st0" x1="958.63" y1="381.37" x2="958.63" y2="343.76"/>
  <line class="st0" x1="958.63" y1="343.76" x2="958.63" y2="318.55"/>
  <line class="st0" x1="840.62" y1="240.6" x2="849.12" y2="235.7"/>
  <line class="st0" x1="849.12" y1="235.7" x2="967.13" y2="303.83"/>
  <line class="st0" x1="967.13" y1="303.83" x2="967.13" y2="902.31"/>
  <path class="st0" d="M943.67,920.64"/>
  <path class="st0" d="M954.54,926.91"/>
  <line class="st0" x1="967.13" y1="303.83" x2="958.63" y2="308.74"/>
  <path class="st0" d="M980.49,903.32"/>
  <path class="st0" d="M972,876.61"/>
  <line class="st0" x1="967.13" y1="902.31" x2="958.63" y2="907.21"/>
  <line class="st0" x1="181.64" y1="308.74" x2="181.64" y2="308.74"/>
  <line class="st0" x1="181.64" y1="343.76" x2="181.64" y2="381.37"/>
  <line class="st0" x1="181.64" y1="381.37" x2="181.64" y2="460.19"/>
  <line class="st0" x1="181.64" y1="460.19" x2="181.64" y2="535.28"/>
  <line class="st0" x1="181.64" y1="535.28" x2="181.64" y2="548.16"/>
  <line class="st0" x1="181.64" y1="548.16" x2="181.64" y2="698.32"/>
  <line class="st0" x1="181.64" y1="698.32" x2="181.64" y2="770.55"/>
  <line class="st0" x1="181.64" y1="770.55" x2="181.64" y2="844.4"/>
  <line class="st0" x1="181.64" y1="844.4" x2="181.64" y2="856.94"/>
  <line class="st0" x1="181.64" y1="856.94" x2="181.64" y2="875.21"/>
  <line class="st0" x1="181.64" y1="875.21" x2="181.64" y2="899.71"/>
  <line class="st0" x1="181.64" y1="899.71" x2="181.64" y2="907.21"/>
  <line class="st0" x1="181.64" y1="907.21" x2="186.72" y2="904.29"/>
  <line class="st0" x1="186.72" y1="904.29" x2="189.78" y2="902.52"/>
  <line class="st0" x1="189.78" y1="902.52" x2="192.5" y2="900.95"/>
  <line class="st0" x1="173.15" y1="902.31" x2="173.15" y2="303.83"/>
  <line class="st0" x1="173.15" y1="303.83" x2="291.16" y2="235.7"/>
  <line class="st0" x1="840.62" y1="240.6" x2="958.63" y2="308.74"/>
  <line class="st0" x1="570.13" y1="396.76" x2="840.62" y2="240.6"/>
  <line class="st0" x1="958.63" y1="308.74" x2="570.13" y2="533.03"/>
  <line class="st0" x1="570.13" y1="533.03" x2="570.13" y2="542.84"/>
  <line class="st0" x1="570.13" y1="542.84" x2="727.09" y2="452.23"/>
  <line class="st0" x1="727.09" y1="452.23" x2="811.59" y2="403.44"/>
  <line class="st0" x1="811.59" y1="403.44" x2="885.47" y2="360.79"/>
  <line class="st0" x1="570.13" y1="396.76" x2="570.13" y2="533.03"/>
  <line class="st0" x1="181.64" y1="318.55" x2="181.64" y2="308.74"/>
  <line class="st0" x1="181.64" y1="308.74" x2="299.65" y2="240.6"/>
  <line class="st0" x1="570.13" y1="396.76" x2="299.65" y2="240.6"/>
  <line class="st0" x1="181.64" y1="308.74" x2="570.13" y2="533.03"/>
  <line class="st0" x1="444.34" y1="470.21" x2="530.25" y2="519.81"/>
  <line class="st0" x1="530.25" y1="519.81" x2="570.13" y2="542.84"/>
  <line class="st0" x1="181.64" y1="318.55" x2="225.89" y2="344.09"/>
  <line class="st0" x1="225.89" y1="344.09" x2="254.81" y2="360.79"/>
  <line class="st0" x1="254.81" y1="360.79" x2="328.69" y2="403.44"/>
  <line class="st0" x1="328.69" y1="403.44" x2="444.34" y2="470.21"/>
  <line class="st0" x1="570.13" y1="283.39" x2="668.32" y2="340.08"/>
  <line class="st0" x1="570.13" y1="283.39" x2="471.95" y2="340.08"/>
  <line class="st0" x1="569.19" y1="1023.04" x2="570.13" y2="1023.59"/>
  <line class="st0" x1="570.13" y1="1023.59" x2="570.13" y2="542.83"/>
  <line class="st0" x1="570.13" y1="1023.59" x2="571.08" y2="1023.05"/>
  <line class="st0" x1="947.77" y1="812.11" x2="947.77" y2="900.95"/>
  <line class="st0" x1="561.64" y1="1025.23" x2="561.64" y2="1049.89"/>
  <line class="st0" x1="561.64" y1="1049.89" x2="561.64" y2="1064.76"/>
  <path class="st0" d="M570.13,1118.97"/>
  <path class="st0" d="M561.64,1082.45"/>
  <line class="st0" x1="570.13" y1="1118.97" x2="570.13" y2="1023.59"/>
  <line class="st0" x1="561.64" y1="1106.56" x2="561.64" y2="1082.45"/>
  <line class="st0" x1="570.13" y1="1118.97" x2="561.64" y2="1114.07"/>
  <line class="st0" x1="561.64" y1="1114.07" x2="561.64" y2="1106.56"/>
  <line class="st0" x1="576.51" y1="1115.29" x2="570.13" y2="1118.97"/>
  <path class="st0" d="M570.13,1109.16"/>
  <path class="st0" d="M686.95,1041.72"/>
  <path class="st0" d="M686.95,1041.72"/>
  <path class="st0" d="M903.63,916.63"/>
  <path class="st0" d="M947.77,900.95"/>
  <path class="st0" d="M903.63,916.63"/>
  <line class="st0" x1="947.77" y1="900.95" x2="846.28" y2="959.55"/>
  <line class="st0" x1="846.28" y1="959.55" x2="671.63" y2="1060.39"/>
  <line class="st0" x1="671.63" y1="1060.39" x2="576.51" y2="1115.29"/>
  <line class="st0" x1="192.5" y1="900.95" x2="192.5" y2="812.11"/>
  <line class="st0" x1="561.64" y1="1114.07" x2="555.27" y2="1110.39"/>
  <path class="st0" d="M534.14,1088.39"/>
  <path class="st0" d="M451.54,1040.69"/>
  <line class="st0" x1="555.27" y1="1110.39" x2="462.27" y2="1056.71"/>
  <line class="st0" x1="462.27" y1="1056.71" x2="291.87" y2="958.32"/>
  <line class="st0" x1="291.87" y1="958.32" x2="192.5" y2="900.95"/>
  <path class="st0" d="M534.14,1088.39"/>
  <path class="st0" d="M561.64,1104.26"/>
  <line class="st0" x1="561.64" y1="1064.76" x2="561.64" y2="1082.45"/>
  <path class="st0" d="M561.64,1040.3"/>
  <path class="st0" d="M561.64,1034.13"/>
  <path class="st0" d="M561.64,1051.58"/>
  <path class="st0" d="M561.64,1057.74"/>
  <line class="st0" x1="958.63" y1="308.74" x2="958.63" y2="308.74"/>
  <line class="st0" x1="181.64" y1="318.55" x2="181.64" y2="343.76"/>
  <line class="st0" x1="173.15" y1="902.31" x2="181.64" y2="907.21"/>
  <line class="st0" x1="291.16" y1="235.7" x2="299.65" y2="240.6"/>
  <line class="st0" x1="173.15" y1="303.83" x2="181.64" y2="308.74"/>
  <line class="st0" x1="958.63" y1="308.74" x2="958.63" y2="318.55"/>
  <line class="st0" x1="914.37" y1="344.09" x2="885.47" y2="360.79"/>
  <line class="st0" x1="958.63" y1="318.55" x2="914.37" y2="344.09"/>
  <path class="st0" d="M903.63,916.63"/>
</svg>