<?xml version="1.0" encoding="UTF-8"?>
<svg id="Layer_2" xmlns="http://www.w3.org/2000/svg" version="1.1" viewBox="0 0 1133.86 1133.86">
  <!-- Generator: Adobe Illustrator 30.3.0, SVG Export Plug-In . SVG Version: 2.1.3 Build 182)  -->
  <defs>
    <style>
      .st0 {
        fill: none;
        stroke: #000;
        stroke-linecap: round;
        stroke-linejoin: round;
      }
    </style>
  </defs>
  <line class="st0" x1="699.16" y1="429.81" x2="699.17" y2="429.81"/>
  <line class="st0" x1="768.77" y1="502.56" x2="807.67" y2="515.09"/>
  <line class="st0" x1="807.67" y1="515.09" x2="830.91" y2="517.04"/>
  <line class="st0" x1="830.91" y1="517.04" x2="855.29" y2="515.71"/>
  <line class="st0" x1="855.29" y1="515.71" x2="877.55" y2="511.85"/>
  <line class="st0" x1="877.55" y1="511.85" x2="880.62" y2="511.13"/>
  <line class="st0" x1="880.62" y1="511.13" x2="906.66" y2="503.34"/>
  <line class="st0" x1="906.66" y1="503.34" x2="933.16" y2="492.4"/>
  <line class="st0" x1="933.16" y1="492.4" x2="956.28" y2="480.31"/>
  <line class="st0" x1="956.28" y1="480.31" x2="959.91" y2="478.41"/>
  <line class="st0" x1="959.91" y1="478.41" x2="969.64" y2="472.59"/>
  <line class="st0" x1="581.15" y1="1096.42" x2="581.15" y2="1064.8"/>
  <line class="st0" x1="581.15" y1="1064.8" x2="581.15" y2="1045.74"/>
  <line class="st0" x1="581.15" y1="1045.74" x2="581.15" y2="1033.6"/>
  <line class="st0" x1="581.15" y1="1033.6" x2="581.15" y2="951.43"/>
  <line class="st0" x1="581.15" y1="951.43" x2="581.15" y2="813.53"/>
  <line class="st0" x1="581.15" y1="813.53" x2="581.15" y2="739.53"/>
  <line class="st0" x1="581.15" y1="739.53" x2="581.15" y2="649.4"/>
  <line class="st0" x1="581.15" y1="649.4" x2="581.15" y2="570.56"/>
  <line class="st0" x1="581.15" y1="570.56" x2="581.15" y2="532.95"/>
  <line class="st0" x1="581.15" y1="532.95" x2="581.15" y2="507.74"/>
  <path class="st0" d="M785.79,509.9"/>
  <path class="st0" d="M769.69,503.25"/>
  <path class="st0" d="M807.67,515.09"/>
  <path class="st0" d="M785.79,509.9"/>
  <line class="st0" x1="968.4" y1="483.31" x2="978.14" y2="477.5"/>
  <line class="st0" x1="978.14" y1="477.5" x2="969.64" y2="472.59"/>
  <line class="st0" x1="707.66" y1="434.71" x2="711.62" y2="442.7"/>
  <line class="st0" x1="699.17" y1="429.81" x2="707.66" y2="434.71"/>
  <line class="st0" x1="711.62" y1="442.7" x2="724.07" y2="462.88"/>
  <line class="st0" x1="724.07" y1="462.88" x2="738.7" y2="480.33"/>
  <line class="st0" x1="738.7" y1="480.33" x2="755.38" y2="494.88"/>
  <line class="st0" x1="755.38" y1="494.88" x2="773.97" y2="506.41"/>
  <line class="st0" x1="773.97" y1="506.41" x2="794.29" y2="514.81"/>
  <line class="st0" x1="794.29" y1="514.81" x2="816.17" y2="520"/>
  <line class="st0" x1="816.17" y1="520" x2="839.4" y2="521.94"/>
  <line class="st0" x1="839.4" y1="521.94" x2="863.8" y2="520.62"/>
  <line class="st0" x1="863.8" y1="520.62" x2="889.11" y2="516.04"/>
  <line class="st0" x1="889.11" y1="516.04" x2="915.15" y2="508.24"/>
  <line class="st0" x1="915.15" y1="508.24" x2="941.66" y2="497.3"/>
  <line class="st0" x1="941.66" y1="497.3" x2="968.4" y2="483.31"/>
  <path class="st0" d="M839.4,521.94"/>
  <path class="st0" d="M794.29,514.81"/>
  <line class="st0" x1="978.14" y1="877.03" x2="978.14" y2="477.5"/>
  <line class="st0" x1="738.7" y1="480.33" x2="773.97" y2="506.41"/>
  <line class="st0" x1="707.66" y1="434.71" x2="724.07" y2="462.88"/>
  <line class="st0" x1="707.66" y1="434.71" x2="589.65" y2="502.85"/>
  <line class="st0" x1="589.65" y1="502.85" x2="589.65" y2="1101.32"/>
  <line class="st0" x1="589.65" y1="1101.32" x2="978.14" y2="877.03"/>
  <line class="st0" x1="519.78" y1="472.31" x2="388.09" y2="396.28"/>
  <line class="st0" x1="388.09" y1="396.28" x2="256.39" y2="320.24"/>
  <line class="st0" x1="256.39" y1="320.24" x2="195.02" y2="284.81"/>
  <line class="st0" x1="581.15" y1="497.93" x2="195.02" y2="275"/>
  <line class="st0" x1="195.02" y1="275" x2="195.02" y2="284.81"/>
  <line class="st0" x1="195.02" y1="275" x2="195.02" y2="275.03"/>
  <line class="st0" x1="581.15" y1="497.93" x2="581.15" y2="507.74"/>
  <line class="st0" x1="313.03" y1="206.87" x2="699.16" y2="429.8"/>
  <line class="st0" x1="313.03" y1="206.87" x2="195.02" y2="275"/>
  <line class="st0" x1="589.4" y1="493.17" x2="699.16" y2="429.8"/>
  <line class="st0" x1="699.16" y1="429.8" x2="699.12" y2="429.83"/>
  <line class="st0" x1="699.12" y1="429.83" x2="699.12" y2="429.83"/>
  <line class="st0" x1="969.64" y1="472.59" x2="956.28" y2="480.31"/>
  <line class="st0" x1="969.64" y1="472.59" x2="583.51" y2="249.66"/>
  <line class="st0" x1="583.51" y1="249.66" x2="570.17" y2="257.36"/>
  <line class="st0" x1="570.17" y1="257.36" x2="485.33" y2="306.35"/>
  <line class="st0" x1="205.88" y1="867.54" x2="205.88" y2="778.37"/>
  <line class="st0" x1="212.25" y1="870.9" x2="205.88" y2="867.22"/>
  <line class="st0" x1="581.15" y1="1083.88" x2="488.4" y2="1030.33"/>
  <line class="st0" x1="488.4" y1="1030.33" x2="309.49" y2="927.04"/>
  <line class="st0" x1="309.49" y1="927.04" x2="212.25" y2="870.9"/>
  <line class="st0" x1="195.02" y1="590.59" x2="195.49" y2="596.82"/>
  <line class="st0" x1="195.02" y1="275" x2="195.02" y2="275.01"/>
  <line class="st0" x1="195.02" y1="310.02" x2="195.02" y2="347.63"/>
  <line class="st0" x1="195.02" y1="347.63" x2="195.02" y2="426.46"/>
  <line class="st0" x1="195.02" y1="426.46" x2="195.02" y2="515.51"/>
  <line class="st0" x1="195.02" y1="515.51" x2="195.02" y2="590.59"/>
  <line class="st0" x1="195.02" y1="590.59" x2="195.02" y2="728.5"/>
  <line class="st0" x1="195.02" y1="728.5" x2="195.02" y2="810.67"/>
  <line class="st0" x1="195.02" y1="810.67" x2="195.02" y2="822.81"/>
  <line class="st0" x1="195.02" y1="822.81" x2="195.02" y2="841.87"/>
  <line class="st0" x1="195.02" y1="841.87" x2="195.02" y2="873.48"/>
  <line class="st0" x1="195.02" y1="873.48" x2="200.09" y2="870.56"/>
  <line class="st0" x1="200.09" y1="870.56" x2="203.16" y2="868.79"/>
  <line class="st0" x1="203.16" y1="868.79" x2="205.88" y2="867.22"/>
  <line class="st0" x1="570.17" y1="257.36" x2="547.03" y2="269.47"/>
  <line class="st0" x1="547.03" y1="269.47" x2="520.52" y2="280.4"/>
  <line class="st0" x1="520.52" y1="280.4" x2="494.48" y2="288.2"/>
  <line class="st0" x1="494.48" y1="288.2" x2="491.42" y2="288.92"/>
  <line class="st0" x1="491.42" y1="288.92" x2="469.17" y2="292.78"/>
  <line class="st0" x1="469.17" y1="292.78" x2="462.46" y2="293.15"/>
  <line class="st0" x1="186.52" y1="270.1" x2="304.54" y2="201.97"/>
  <line class="st0" x1="453.97" y1="288.24" x2="460.67" y2="287.87"/>
  <line class="st0" x1="460.67" y1="287.87" x2="485.99" y2="283.29"/>
  <line class="st0" x1="485.99" y1="283.29" x2="512.03" y2="275.5"/>
  <line class="st0" x1="512.03" y1="275.5" x2="538.53" y2="264.56"/>
  <line class="st0" x1="575.02" y1="244.76" x2="538.53" y2="264.56"/>
  <line class="st0" x1="186.52" y1="868.58" x2="186.52" y2="270.1"/>
  <line class="st0" x1="538.53" y1="264.56" x2="565.28" y2="250.57"/>
  <line class="st0" x1="565.28" y1="250.57" x2="575.02" y2="244.76"/>
  <line class="st0" x1="186.52" y1="270.1" x2="195.02" y2="275.01"/>
  <line class="st0" x1="304.54" y1="201.97" x2="313.03" y2="206.87"/>
  <line class="st0" x1="583.51" y1="249.66" x2="575.02" y2="244.76"/>
  <line class="st0" x1="195.49" y1="500.66" x2="195.43" y2="500.59"/>
  <line class="st0" x1="195.43" y1="500.59" x2="195.38" y2="500.5"/>
  <line class="st0" x1="195.38" y1="500.5" x2="195.32" y2="500.4"/>
  <line class="st0" x1="195.32" y1="500.4" x2="195.3" y2="500.29"/>
  <line class="st0" x1="195.3" y1="500.29" x2="195.27" y2="500.18"/>
  <line class="st0" x1="195.27" y1="500.18" x2="195.26" y2="500.05"/>
  <line class="st0" x1="195.26" y1="500.05" x2="195.26" y2="499.91"/>
  <line class="st0" x1="195.26" y1="499.91" x2="195.27" y2="499.77"/>
  <line class="st0" x1="195.27" y1="499.77" x2="195.3" y2="499.62"/>
  <line class="st0" x1="195.3" y1="499.62" x2="195.32" y2="499.48"/>
  <line class="st0" x1="195.32" y1="499.48" x2="195.38" y2="499.32"/>
  <line class="st0" x1="195.38" y1="499.32" x2="195.43" y2="499.17"/>
  <line class="st0" x1="195.43" y1="499.17" x2="195.49" y2="499.03"/>
  <line class="st0" x1="195.49" y1="333.87" x2="195.43" y2="333.8"/>
  <line class="st0" x1="195.43" y1="333.8" x2="195.38" y2="333.71"/>
  <line class="st0" x1="195.38" y1="333.71" x2="195.32" y2="333.61"/>
  <line class="st0" x1="195.32" y1="333.61" x2="195.3" y2="333.5"/>
  <line class="st0" x1="195.3" y1="333.5" x2="195.27" y2="333.38"/>
  <line class="st0" x1="195.27" y1="333.38" x2="195.26" y2="333.26"/>
  <line class="st0" x1="195.26" y1="333.26" x2="195.26" y2="333.12"/>
  <line class="st0" x1="195.26" y1="333.12" x2="195.27" y2="332.97"/>
  <line class="st0" x1="195.27" y1="332.97" x2="195.3" y2="332.83"/>
  <line class="st0" x1="195.3" y1="332.83" x2="195.32" y2="332.68"/>
  <line class="st0" x1="195.32" y1="332.68" x2="195.38" y2="332.53"/>
  <line class="st0" x1="195.38" y1="332.53" x2="195.43" y2="332.38"/>
  <line class="st0" x1="195.43" y1="332.38" x2="195.49" y2="332.24"/>
  <line class="st0" x1="195.02" y1="352.22" x2="195.49" y2="352.49"/>
  <line class="st0" x1="195.02" y1="348.34" x2="195.19" y2="348.14"/>
  <line class="st0" x1="195.19" y1="348.14" x2="195.36" y2="347.96"/>
  <line class="st0" x1="195.36" y1="347.96" x2="195.49" y2="347.84"/>
  <line class="st0" x1="195.02" y1="650.91" x2="195.49" y2="651.19"/>
  <line class="st0" x1="195.02" y1="647.04" x2="195.19" y2="646.84"/>
  <line class="st0" x1="195.19" y1="646.84" x2="195.36" y2="646.65"/>
  <line class="st0" x1="195.36" y1="646.65" x2="195.49" y2="646.54"/>
  <line class="st0" x1="195.02" y1="521.19" x2="195.49" y2="521.46"/>
  <line class="st0" x1="195.02" y1="517.31" x2="195.19" y2="517.11"/>
  <line class="st0" x1="195.19" y1="517.11" x2="195.36" y2="516.93"/>
  <line class="st0" x1="195.36" y1="516.93" x2="195.49" y2="516.81"/>
  <line class="st0" x1="196.44" y1="285.63" x2="195.49" y2="286.17"/>
  <line class="st0" x1="195.49" y1="286.17" x2="580.68" y2="508.56"/>
  <line class="st0" x1="580.68" y1="508.56" x2="581.15" y2="508.29"/>
  <line class="st0" x1="195.49" y1="286.17" x2="195.49" y2="447.51"/>
  <line class="st0" x1="195.49" y1="447.51" x2="580.68" y2="669.9"/>
  <line class="st0" x1="580.68" y1="669.9" x2="580.68" y2="508.56"/>
  <line class="st0" x1="581.15" y1="669.63" x2="580.68" y2="669.9"/>
  <line class="st0" x1="581.15" y1="832.06" x2="580.68" y2="832.33"/>
  <line class="st0" x1="580.68" y1="832.33" x2="195.49" y2="609.94"/>
  <line class="st0" x1="195.49" y1="448.6" x2="196.44" y2="448.06"/>
  <line class="st0" x1="195.49" y1="609.94" x2="195.49" y2="448.6"/>
  <line class="st0" x1="580.68" y1="670.99" x2="581.15" y2="670.72"/>
  <line class="st0" x1="195.49" y1="448.6" x2="580.68" y2="670.99"/>
  <line class="st0" x1="580.68" y1="670.99" x2="580.68" y2="832.33"/>
  <line class="st0" x1="581.15" y1="994.49" x2="580.68" y2="994.76"/>
  <line class="st0" x1="580.68" y1="994.76" x2="195.49" y2="772.37"/>
  <line class="st0" x1="195.49" y1="611.03" x2="196.44" y2="610.49"/>
  <line class="st0" x1="195.49" y1="772.37" x2="195.49" y2="611.03"/>
  <line class="st0" x1="580.68" y1="833.42" x2="581.15" y2="833.15"/>
  <line class="st0" x1="195.49" y1="611.03" x2="580.68" y2="833.42"/>
  <line class="st0" x1="580.68" y1="833.42" x2="580.68" y2="994.76"/>
  <line class="st0" x1="581.15" y1="497.94" x2="586.12" y2="495.07"/>
  <line class="st0" x1="586.12" y1="495.07" x2="589.4" y2="493.17"/>
  <line class="st0" x1="589.65" y1="1101.32" x2="581.15" y2="1096.42"/>
  <line class="st0" x1="589.65" y1="502.85" x2="581.15" y2="497.94"/>
  <path class="st0" d="M589.65,502.85"/>
  <path class="st0" d="M589.4,493.17"/>
  <line class="st0" x1="581.15" y1="507.74" x2="558.49" y2="494.66"/>
  <line class="st0" x1="558.49" y1="494.66" x2="519.78" y2="472.31"/>
  <path class="st0" d="M581.15,497.93"/>
  <path class="st0" d="M519.78,472.31"/>
  <line class="st0" x1="195.02" y1="284.81" x2="195.02" y2="310.02"/>
  <line class="st0" x1="186.52" y1="868.58" x2="195.02" y2="873.48"/>
</svg>