<?xml version="1.0" encoding="UTF-8"?>
<svg id="Layer_1" xmlns="http://www.w3.org/2000/svg" version="1.1" viewBox="0 0 1133.86 1133.86">
  <!-- Generator: Adobe Illustrator 30.3.0, SVG Export Plug-In . SVG Version: 2.1.3 Build 182)  -->
  <defs>
    <style>
      .st0, .st1 {
        fill: none;
        stroke: #000;
        stroke-linecap: round;
        stroke-linejoin: round;
      }

      .st1 {
        fill-rule: evenodd;
      }
    </style>
  </defs>
  <polyline class="st1" points="92.97 204.58 92.49 204.86 670.38 538.5 670.86 538.23 92.97 204.58"/>
  <polyline class="st1" points="92.49 368.66 670.38 702.3 672.28 701.2 671.33 700.65 670.38 701.2 93.44 368.11 92.49 368.66"/>
  <polyline class="st1" points="93.44 531.9 92.49 532.45 670.38 866.1 672.28 865 671.33 864.45 670.38 865 93.44 531.9"/>
  <polyline class="st1" points="694.59 668.54 696.08 669.32 696.08 659.43 694.59 658.65 694.59 668.54"/>
  <polyline class="st1" points="692.97 667.85 694.59 668.54 694.59 658.65 692.97 657.96 692.97 667.85"/>
  <polyline class="st1" points="691.24 667.26 692.97 667.85 692.97 657.96 691.24 657.36 691.24 667.26"/>
  <polyline class="st1" points="689.41 666.77 691.24 667.26 691.24 657.36 689.41 656.94 689.41 666.77"/>
  <polyline class="st1" points="687.52 666.38 689.41 666.77 689.41 656.94 687.52 656.49 687.52 666.38"/>
  <polyline class="st1" points="685.55 666.11 687.52 666.38 687.52 656.49 685.55 656.22 685.55 666.11"/>
  <polyline class="st1" points="683.56 665.95 685.55 666.11 685.55 656.22 683.56 656.12 683.56 665.95"/>
  <polyline class="st1" points="683.56 656.12 681.8 656.03 681.8 665.91 683.56 665.95 683.56 656.12"/>
  <path class="st1" d="M701.92,668.2c.11-.26.02-1.26,0-1.54v1.54"/>
  <path class="st1" d="M701.65,669.62c.32-1.21.42-2.92,0-4.11v4.11"/>
  <path class="st1" d="M701.18,664.38v6.55c.15-.3.46-.98.47-1.31-.03-.91.21-4.52-.47-5.24"/>
  <path class="st1" d="M700.51,672.04c1.12-.56.54-6.7.67-7.66l-.67-1.1v8.76"/>
  <path class="st1" d="M699.66,672.12l.41.51c.13-.13.35-.43.45-.59v-8.76l-.85-1.06v9.89"/>
  <polyline class="st1" points="698.63 671.12 699.66 672.12 699.66 662.22 698.63 661.33 698.63 671.12"/>
  <polyline class="st1" points="697.43 670.18 698.63 671.12 698.63 661.33 697.43 660.29 697.43 670.18"/>
  <polyline class="st1" points="696.08 669.32 697.43 670.18 697.43 660.29 696.08 659.43 696.08 669.32"/>
  <polyline class="st1" points="699.66 672.12 700.04 672.66 700.07 672.62 699.66 672.12"/>
  <path class="st1" d="M691.24,667.26l3.35,1.29c-.81-.38-2.49-1.02-3.35-1.29"/>
  <polyline class="st1" points="690.37 933.71 681.8 928.76 681.8 938.66 690.37 933.71"/>
  <polyline class="st1" points="672.28 700.1 671.33 700.65 672.28 701.2 672.28 863.9 671.33 864.45 672.28 865 672.28 1023.85 673.23 1024.4 673.23 536.86 672.28 537.4 672.28 700.1"/>
  <line class="st0" x1="672.28" y1="700.1" x2="672.28" y2="537.4"/>
  <line class="st0" x1="92.97" y1="204.58" x2="92.49" y2="204.86"/>
  <line class="st0" x1="92.49" y1="204.86" x2="92.49" y2="367.56"/>
  <line class="st0" x1="92.49" y1="204.86" x2="670.38" y2="538.5"/>
  <line class="st0" x1="670.38" y1="538.5" x2="670.38" y2="701.2"/>
  <line class="st0" x1="670.38" y1="701.2" x2="92.49" y2="367.56"/>
  <line class="st0" x1="672.28" y1="537.4" x2="670.38" y2="538.5"/>
  <line class="st0" x1="672.28" y1="700.1" x2="670.38" y2="701.2"/>
  <line class="st0" x1="672.28" y1="863.9" x2="672.28" y2="701.2"/>
  <line class="st0" x1="672.28" y1="701.2" x2="671.33" y2="700.65"/>
  <line class="st0" x1="93.44" y1="368.11" x2="92.49" y2="368.66"/>
  <line class="st0" x1="92.49" y1="368.66" x2="92.49" y2="531.35"/>
  <line class="st0" x1="92.49" y1="368.66" x2="670.38" y2="702.3"/>
  <line class="st0" x1="670.38" y1="702.3" x2="670.38" y2="865"/>
  <line class="st0" x1="670.38" y1="865" x2="92.49" y2="531.35"/>
  <line class="st0" x1="672.28" y1="701.2" x2="670.38" y2="702.3"/>
  <line class="st0" x1="672.28" y1="863.9" x2="670.38" y2="865"/>
  <line class="st0" x1="672.28" y1="1027.7" x2="672.28" y2="1023.85"/>
  <line class="st0" x1="672.28" y1="1023.85" x2="672.28" y2="865"/>
  <line class="st0" x1="672.28" y1="865" x2="671.33" y2="864.45"/>
  <line class="st0" x1="93.44" y1="531.9" x2="92.49" y2="532.45"/>
  <line class="st0" x1="92.49" y1="532.45" x2="92.49" y2="695.15"/>
  <line class="st0" x1="92.49" y1="532.45" x2="670.38" y2="866.1"/>
  <line class="st0" x1="670.38" y1="866.1" x2="670.38" y2="1028.8"/>
  <line class="st0" x1="670.38" y1="1028.8" x2="92.49" y2="695.15"/>
  <line class="st0" x1="672.28" y1="865" x2="670.38" y2="866.1"/>
  <line class="st0" x1="672.28" y1="1027.7" x2="670.38" y2="1028.8"/>
  <line class="st0" x1="694.59" y1="658.65" x2="696.08" y2="659.43"/>
  <line class="st0" x1="696.08" y1="669.32" x2="694.59" y2="668.54"/>
  <line class="st0" x1="692.97" y1="657.96" x2="694.59" y2="658.65"/>
  <line class="st0" x1="694.59" y1="668.54" x2="692.97" y2="667.85"/>
  <line class="st0" x1="691.24" y1="657.36" x2="692.97" y2="657.96"/>
  <line class="st0" x1="692.97" y1="667.85" x2="691.24" y2="667.26"/>
  <line class="st0" x1="689.41" y1="656.88" x2="691.24" y2="657.36"/>
  <line class="st0" x1="691.24" y1="667.26" x2="689.41" y2="666.77"/>
  <line class="st0" x1="687.52" y1="656.49" x2="689.41" y2="656.88"/>
  <line class="st0" x1="689.41" y1="666.77" x2="687.52" y2="666.38"/>
  <line class="st0" x1="685.55" y1="656.22" x2="687.52" y2="656.49"/>
  <line class="st0" x1="687.52" y1="666.38" x2="685.55" y2="666.11"/>
  <line class="st0" x1="683.56" y1="656.06" x2="685.55" y2="656.22"/>
  <line class="st0" x1="685.55" y1="666.11" x2="683.56" y2="665.95"/>
  <line class="st0" x1="681.8" y1="656.02" x2="683.56" y2="656.06"/>
  <line class="st0" x1="683.56" y1="665.95" x2="681.8" y2="665.91"/>
  <line class="st0" x1="687.03" y1="678.94" x2="685.06" y2="679.18"/>
  <line class="st0" x1="688.95" y1="678.58" x2="687.03" y2="678.94"/>
  <line class="st0" x1="690.79" y1="678.11" x2="688.95" y2="678.58"/>
  <line class="st0" x1="692.55" y1="677.55" x2="690.79" y2="678.11"/>
  <line class="st0" x1="697.11" y1="675.28" x2="695.72" y2="676.12"/>
  <line class="st0" x1="698.34" y1="674.36" x2="697.11" y2="675.28"/>
  <line class="st0" x1="699.42" y1="673.38" x2="698.34" y2="674.36"/>
  <line class="st0" x1="700.31" y1="672.34" x2="699.42" y2="673.38"/>
  <line class="st0" x1="701.03" y1="671.25" x2="700.31" y2="672.34"/>
  <line class="st0" x1="701.54" y1="670.13" x2="701.03" y2="671.25"/>
  <line class="st0" x1="701.92" y1="666.66" x2="701.99" y2="667.82"/>
  <line class="st0" x1="701.65" y1="665.51" x2="701.92" y2="666.66"/>
  <line class="st0" x1="701.18" y1="664.38" x2="701.65" y2="665.51"/>
  <line class="st0" x1="700.51" y1="663.28" x2="701.18" y2="664.38"/>
  <line class="st0" x1="699.66" y1="662.22" x2="700.51" y2="663.28"/>
  <line class="st0" x1="700.07" y1="672.62" x2="699.66" y2="672.12"/>
  <line class="st0" x1="698.63" y1="661.22" x2="699.66" y2="662.22"/>
  <line class="st0" x1="699.66" y1="672.12" x2="698.63" y2="671.12"/>
  <line class="st0" x1="697.43" y1="660.29" x2="698.63" y2="661.22"/>
  <line class="st0" x1="698.63" y1="671.12" x2="697.43" y2="670.18"/>
  <line class="st0" x1="696.08" y1="659.43" x2="697.43" y2="660.29"/>
  <line class="st0" x1="697.43" y1="670.18" x2="696.08" y2="669.32"/>
  <line class="st0" x1="700.04" y1="672.66" x2="699.66" y2="672.12"/>
  <line class="st0" x1="694.59" y1="668.54" x2="691.24" y2="667.26"/>
  <line class="st0" x1="681.8" y1="732.53" x2="1062.62" y2="512.67"/>
  <line class="st0" x1="697.43" y1="660.29" x2="699.66" y2="662.22"/>
  <line class="st0" x1="681.8" y1="656.03" x2="685.55" y2="656.22"/>
  <line class="st0" x1="685.06" y1="679.18" x2="681.8" y2="679.3"/>
  <line class="st0" x1="701.99" y1="667.82" x2="701.54" y2="670.13"/>
  <line class="st0" x1="687.52" y1="656.49" x2="691.24" y2="657.36"/>
  <line class="st0" x1="383.81" y1="225.2" x2="482.82" y2="168.03"/>
  <line class="st0" x1="482.82" y1="168.03" x2="1062.62" y2="502.77"/>
  <line class="st0" x1="1062.62" y1="502.77" x2="681.8" y2="722.64"/>
  <line class="st0" x1="695.72" y1="676.12" x2="692.55" y2="677.55"/>
  <line class="st0" x1="1062.62" y1="502.77" x2="1062.62" y2="512.67"/>
  <line class="st0" x1="210.06" y1="124.89" x2="91.06" y2="193.59"/>
  <line class="st0" x1="91.06" y1="193.59" x2="91.06" y2="203.48"/>
  <line class="st0" x1="91.06" y1="193.59" x2="670.86" y2="528.33"/>
  <line class="st0" x1="670.86" y1="528.33" x2="670.86" y2="538.23"/>
  <line class="st0" x1="670.86" y1="538.23" x2="91.06" y2="203.48"/>
  <line class="st0" x1="670.86" y1="528.33" x2="789.86" y2="459.62"/>
  <line class="st0" x1="789.86" y1="459.62" x2="789.86" y2="469.52"/>
  <line class="st0" x1="789.86" y1="469.52" x2="681.8" y2="531.9"/>
  <line class="st0" x1="673.23" y1="536.85" x2="670.86" y2="538.23"/>
  <line class="st0" x1="681.8" y1="531.9" x2="673.23" y2="536.85"/>
  <line class="st0" x1="789.86" y1="459.62" x2="210.06" y2="124.89"/>
  <line class="st0" x1="690.37" y1="1120.59" x2="690.37" y2="933.71"/>
  <line class="st0" x1="690.37" y1="933.71" x2="681.8" y2="928.76"/>
  <line class="st0" x1="102.01" y1="700.66" x2="102.01" y2="790.79"/>
  <line class="st0" x1="681.8" y1="1013.96" x2="681.8" y2="1125.54"/>
  <line class="st0" x1="681.8" y1="1125.54" x2="102.01" y2="790.79"/>
  <line class="st0" x1="690.37" y1="933.71" x2="681.8" y2="938.66"/>
  <line class="st0" x1="690.37" y1="1120.59" x2="681.8" y2="1125.54"/>
  <line class="st0" x1="672.28" y1="1023.85" x2="673.23" y2="1024.4"/>
  <line class="st0" x1="673.23" y1="1024.4" x2="676.09" y2="1022.75"/>
  <line class="st0" x1="673.23" y1="536.86" x2="673.23" y2="1024.4"/>
  <line class="st0" x1="676.09" y1="1017.25" x2="676.09" y2="1022.75"/>
  <line class="st0" x1="681.8" y1="531.91" x2="681.8" y2="722.64"/>
  <line class="st0" x1="681.8" y1="732.53" x2="681.8" y2="938.66"/>
  <line class="st0" x1="681.8" y1="722.64" x2="681.8" y2="732.53"/>
  <line class="st0" x1="681.8" y1="938.66" x2="681.8" y2="1013.96"/>
  <line class="st0" x1="681.8" y1="1013.96" x2="676.09" y2="1017.25"/>
</svg>