<?xml version="1.0" encoding="UTF-8"?>
<svg id="Layer_1" xmlns="http://www.w3.org/2000/svg" version="1.1" viewBox="0 0 1133.86 1133.86">
  <!-- Generator: Adobe Illustrator 30.3.0, SVG Export Plug-In . SVG Version: 2.1.3 Build 182)  -->
  <defs>
    <style>
      .st0 {
        stroke-dasharray: .06;
      }

      .st0, .st1, .st2, .st3, .st4, .st5, .st6, .st7, .st8, .st9, .st10, .st11, .st12, .st13, .st14, .st15, .st16, .st17, .st18, .st19, .st20, .st21, .st22, .st23, .st24, .st25, .st26, .st27, .st28, .st29, .st30, .st31, .st32, .st33, .st34, .st35, .st36, .st37 {
        fill: none;
      }

      .st0, .st1, .st2, .st3, .st4, .st5, .st6, .st7, .st8, .st10, .st11, .st12, .st13, .st14, .st15, .st16, .st17, .st18, .st19, .st20, .st21, .st22, .st23, .st24, .st25, .st26, .st27, .st28, .st29, .st30, .st31, .st32, .st33, .st34, .st35, .st36, .st37 {
        stroke: #000;
        stroke-linecap: round;
        stroke-linejoin: round;
      }

      .st1 {
        stroke-dasharray: 9.9 9.9;
      }

      .st2 {
        stroke-dasharray: 12.1 12.1;
      }

      .st3 {
        stroke-dasharray: 11.79 11.79;
      }

      .st4 {
        stroke-dasharray: 11.93 11.93;
      }

      .st5 {
        stroke-dasharray: .32;
      }

      .st6 {
        stroke-dasharray: 12.14 12.14;
      }

      .st7 {
        stroke-dasharray: .41;
      }

      .st8 {
        stroke-dasharray: 11.76 11.76;
      }

      .st10 {
        stroke-dasharray: 9.3;
      }

      .st11 {
        stroke-dasharray: 3.55;
      }

      .st12 {
        stroke-dasharray: 8.59;
      }

      .st13 {
        stroke-dasharray: 9.84;
      }

      .st14 {
        stroke-dasharray: 9.81;
      }

      .st15 {
        stroke-dasharray: 12.09 12.09;
      }

      .st16 {
        stroke-dasharray: 10.43 10.43;
      }

      .st17 {
        stroke-dasharray: 3.14;
      }

      .st18 {
        stroke-dasharray: 12.16 12.16;
      }

      .st20 {
        stroke-dasharray: 6.45 6.45;
      }

      .st21 {
        stroke-dasharray: 11.37 11.37;
      }

      .st22 {
        stroke-dasharray: 11.45 11.45;
      }

      .st23 {
        stroke-dasharray: .1;
      }

      .st24 {
        stroke-dasharray: .37;
      }

      .st25 {
        stroke-dasharray: 12.56 12.56;
      }

      .st26 {
        stroke-dasharray: 10.74 10.74;
      }

      .st27 {
        stroke-dasharray: 11.65 11.65;
      }

      .st28 {
        stroke-dasharray: 8.31;
      }

      .st29 {
        stroke-dasharray: 11.19;
      }

      .st30 {
        stroke-dasharray: 12.63 12.63;
      }

      .st31 {
        stroke-dasharray: 11.51 11.51;
      }

      .st32 {
        stroke-dasharray: 8.6;
      }

      .st33 {
        stroke-dasharray: 12.4 12.4;
      }

      .st34 {
        stroke-dasharray: 8.08 8.08;
      }

      .st35 {
        stroke-dasharray: 11.84 11.84;
      }

      .st36 {
        stroke-dasharray: 9.35;
      }

      .st38 {
        opacity: .26;
      }

      .st37 {
        stroke-dasharray: .09;
      }
    </style>
  </defs>
  <line class="st19" x1="568.33" y1="1007.14" x2="191.18" y2="789.4"/>
  <line class="st19" x1="190.85" y1="667.43" x2="190.85" y2="788.86"/>
  <line class="st19" x1="190.85" y1="788.86" x2="190.98" y2="789.21"/>
  <line class="st19" x1="190.98" y1="789.21" x2="191.04" y2="789.28"/>
  <line class="st19" x1="191.04" y1="789.28" x2="190.88" y2="789.01"/>
  <line class="st19" x1="190.88" y1="789.01" x2="190.92" y2="789.09"/>
  <line class="st19" x1="190.92" y1="789.09" x2="191.18" y2="789.4"/>
  <line class="st19" x1="191.18" y1="789.4" x2="191.13" y2="789.36"/>
  <line class="st19" x1="568.33" y1="844.71" x2="468.66" y2="787.17"/>
  <path class="st19" d="M600.01,746.19"/>
  <line class="st19" x1="962.84" y1="503.74" x2="939.82" y2="517.03"/>
  <line class="st19" x1="939.82" y1="517.03" x2="908.44" y2="535.16"/>
  <line class="st19" x1="908.44" y1="535.16" x2="891.32" y2="545.03"/>
  <line class="st19" x1="891.32" y1="545.03" x2="848.13" y2="569.97"/>
  <line class="st19" x1="848.13" y1="569.97" x2="791.25" y2="602.81"/>
  <line class="st19" x1="791.25" y1="602.81" x2="755.14" y2="623.66"/>
  <line class="st19" x1="755.14" y1="623.66" x2="655.06" y2="681.44"/>
  <line class="st19" x1="655.06" y1="681.44" x2="629.69" y2="696.09"/>
  <line class="st19" x1="629.69" y1="696.09" x2="602.54" y2="711.76"/>
  <line class="st19" x1="602.54" y1="711.76" x2="586.15" y2="721.23"/>
  <line class="st19" x1="586.15" y1="721.23" x2="583.43" y2="722.8"/>
  <line class="st19" x1="583.43" y1="722.8" x2="580.36" y2="724.57"/>
  <polyline class="st19" points="580.36 724.57 568.33 731.52 481.35 781.73"/>
  <line class="st19" x1="481.35" y1="781.73" x2="472.95" y2="785.83"/>
  <line class="st19" x1="472.95" y1="785.83" x2="458.76" y2="790.23"/>
  <line class="st19" x1="458.76" y1="790.23" x2="443.15" y2="792.5"/>
  <line class="st19" x1="443.15" y1="792.5" x2="427.04" y2="792.5"/>
  <line class="st19" x1="427.04" y1="792.5" x2="411.42" y2="790.23"/>
  <line class="st19" x1="411.42" y1="790.23" x2="397.24" y2="785.83"/>
  <line class="st19" x1="397.24" y1="785.83" x2="388.83" y2="781.73"/>
  <line class="st19" x1="388.83" y1="781.73" x2="381.63" y2="777.58"/>
  <line class="st19" x1="381.63" y1="777.58" x2="308" y2="735.06"/>
  <line class="st19" x1="308" y1="735.06" x2="177.94" y2="659.98"/>
  <line class="st19" x1="177.94" y1="659.98" x2="104.31" y2="617.46"/>
  <line class="st19" x1="104.31" y1="617.46" x2="88.61" y2="608.4"/>
  <line class="st19" x1="88.61" y1="608.4" x2="81.51" y2="603.55"/>
  <line class="st19" x1="81.51" y1="603.55" x2="73.88" y2="595.36"/>
  <line class="st19" x1="73.88" y1="595.36" x2="69.95" y2="586.34"/>
  <line class="st19" x1="388.83" y1="771.92" x2="88.61" y2="598.59"/>
  <line class="st19" x1="472.95" y1="776.01" x2="481.35" y2="771.92"/>
  <line class="st19" x1="481.35" y1="771.92" x2="962.84" y2="493.93"/>
  <line class="st19" x1="962.84" y1="493.93" x2="570.09" y2="267.18"/>
  <line class="st19" x1="570.09" y1="267.18" x2="88.61" y2="545.17"/>
  <line class="st19" x1="88.61" y1="545.17" x2="81.51" y2="550.02"/>
  <line class="st19" x1="81.51" y1="550.02" x2="73.88" y2="558.2"/>
  <line class="st19" x1="73.88" y1="558.2" x2="69.95" y2="567.23"/>
  <line class="st19" x1="69.95" y1="567.23" x2="69.95" y2="576.53"/>
  <line class="st19" x1="69.95" y1="576.53" x2="73.88" y2="585.55"/>
  <line class="st19" x1="73.88" y1="585.55" x2="81.51" y2="593.73"/>
  <line class="st19" x1="81.51" y1="593.73" x2="88.61" y2="598.59"/>
  <line class="st19" x1="388.83" y1="771.92" x2="397.24" y2="776.01"/>
  <line class="st19" x1="397.24" y1="776.01" x2="411.42" y2="780.42"/>
  <line class="st19" x1="411.42" y1="780.42" x2="427.04" y2="782.69"/>
  <line class="st19" x1="427.04" y1="782.69" x2="443.15" y2="782.69"/>
  <line class="st19" x1="443.15" y1="782.69" x2="458.76" y2="780.42"/>
  <line class="st19" x1="458.76" y1="780.42" x2="472.95" y2="776.01"/>
  <line class="st19" x1="69.95" y1="586.34" x2="69.95" y2="576.53"/>
  <line class="st19" x1="962.84" y1="503.74" x2="962.84" y2="493.93"/>
  <polyline class="st19" points="568.33 1101.66 559.23 1096.41 550.74 1091.51 200.96 888.56"/>
  <line class="st19" x1="200.96" y1="795.04" x2="200.96" y2="888.56"/>
  <line class="st19" x1="568.33" y1="1111.24" x2="576.82" y2="1116.14"/>
  <line class="st19" x1="962.84" y1="501.96" x2="962.84" y2="890.22"/>
  <line class="st19" x1="962.84" y1="890.22" x2="576.82" y2="1116.14"/>
  <polyline class="st19" points="568.33 1110.6 568.33 1100.67 568.33 1007.14 568.33 844.71 568.33 731.52"/>
  <polyline class="st19" points="576.82 727.15 576.82 833.62 576.82 834.07 576.82 996.05 576.82 1090.8 576.82 1116.14"/>
  <g class="st38">
    <g>
      <line class="st19" x1="949.01" y1="789.4" x2="943.81" y2="792.4"/>
      <line class="st2" x1="933.34" y1="798.45" x2="582.3" y2="1001.11"/>
      <line class="st19" x1="577.06" y1="1004.14" x2="571.86" y2="1007.14"/>
    </g>
  </g>
  <g class="st38">
    <g>
      <line class="st19" x1="949.34" y1="667.43" x2="949.34" y2="673.43"/>
      <line class="st18" x1="949.34" y1="685.59" x2="949.34" y2="776.78"/>
      <line class="st19" x1="949.34" y1="782.86" x2="949.34" y2="788.86"/>
    </g>
  </g>
  <g class="st38">
    <line class="st24" x1="949.34" y1="788.86" x2="949.21" y2="789.21"/>
  </g>
  <g class="st38">
    <line class="st23" x1="949.21" y1="789.21" x2="949.15" y2="789.28"/>
  </g>
  <g class="st38">
    <line class="st5" x1="949.15" y1="789.28" x2="949.31" y2="789.01"/>
  </g>
  <g class="st38">
    <line class="st37" x1="949.31" y1="789.01" x2="949.27" y2="789.09"/>
  </g>
  <g class="st38">
    <line class="st7" x1="949.27" y1="789.09" x2="949.01" y2="789.4"/>
  </g>
  <g class="st38">
    <line class="st0" x1="949.01" y1="789.4" x2="949.05" y2="789.36"/>
  </g>
  <g class="st38">
    <g>
      <line class="st19" x1="671.53" y1="787.17" x2="666.33" y2="790.17"/>
      <line class="st22" x1="656.41" y1="795.89" x2="582.02" y2="838.84"/>
      <line class="st19" x1="577.06" y1="841.71" x2="571.86" y2="844.71"/>
    </g>
  </g>
  <g class="st38">
    <path class="st9" d="M540.18,746.19"/>
  </g>
  <g class="st38">
    <g>
      <line class="st19" x1="177.35" y1="503.74" x2="182.55" y2="506.74"/>
      <line class="st19" x1="195.17" y1="514.03" x2="200.36" y2="517.03"/>
    </g>
  </g>
  <g class="st38">
    <g>
      <line class="st19" x1="200.36" y1="517.03" x2="205.56" y2="520.03"/>
      <line class="st34" x1="212.56" y1="524.08" x2="223.06" y2="530.14"/>
      <line class="st19" x1="226.56" y1="532.16" x2="231.75" y2="535.16"/>
    </g>
  </g>
  <g class="st38">
    <g>
      <line class="st19" x1="231.75" y1="535.16" x2="236.95" y2="538.16"/>
      <line class="st19" x1="243.67" y1="542.03" x2="248.87" y2="545.03"/>
    </g>
  </g>
  <g class="st38">
    <g>
      <line class="st19" x1="248.87" y1="545.03" x2="254.06" y2="548.03"/>
      <line class="st30" x1="265" y1="554.34" x2="281.4" y2="563.81"/>
      <line class="st19" x1="286.87" y1="566.97" x2="292.06" y2="569.97"/>
    </g>
  </g>
  <g class="st38">
    <g>
      <line class="st19" x1="292.06" y1="569.97" x2="297.26" y2="572.97"/>
      <line class="st26" x1="306.56" y1="578.34" x2="339.1" y2="597.13"/>
      <line class="st19" x1="343.75" y1="599.81" x2="348.94" y2="602.81"/>
    </g>
  </g>
  <g class="st38">
    <g>
      <line class="st19" x1="348.94" y1="602.81" x2="354.14" y2="605.81"/>
      <line class="st1" x1="362.71" y1="610.76" x2="375.57" y2="618.18"/>
      <line class="st19" x1="379.86" y1="620.66" x2="385.05" y2="623.66"/>
    </g>
  </g>
  <g class="st38">
    <g>
      <line class="st19" x1="385.05" y1="623.66" x2="390.25" y2="626.66"/>
      <line class="st31" x1="400.21" y1="632.41" x2="474.95" y2="675.56"/>
      <line class="st19" x1="479.93" y1="678.44" x2="485.13" y2="681.44"/>
    </g>
  </g>
  <g class="st38">
    <g>
      <line class="st19" x1="485.13" y1="681.44" x2="490.32" y2="684.44"/>
      <line class="st19" x1="505.3" y1="693.09" x2="510.5" y2="696.09"/>
    </g>
  </g>
  <g class="st38">
    <g>
      <line class="st19" x1="510.5" y1="696.09" x2="515.7" y2="699.09"/>
      <line class="st20" x1="521.28" y1="702.31" x2="529.66" y2="707.15"/>
      <line class="st19" x1="532.45" y1="708.76" x2="537.64" y2="711.76"/>
    </g>
  </g>
  <g class="st38">
    <g>
      <line class="st19" x1="537.64" y1="711.76" x2="542.84" y2="714.76"/>
      <line class="st19" x1="548.85" y1="718.23" x2="554.04" y2="721.23"/>
    </g>
  </g>
  <g class="st38">
    <line class="st17" x1="554.04" y1="721.23" x2="556.76" y2="722.8"/>
  </g>
  <g class="st38">
    <line class="st11" x1="556.76" y1="722.8" x2="559.83" y2="724.57"/>
  </g>
  <g class="st38">
    <g>
      <line class="st19" x1="658.84" y1="781.73" x2="653.64" y2="778.73"/>
      <polyline class="st21" points="643.8 773.04 571.86 731.52 569.95 730.41"/>
      <line class="st19" x1="565.03" y1="727.57" x2="559.83" y2="724.57"/>
    </g>
  </g>
  <g class="st38">
    <line class="st36" x1="658.84" y1="781.73" x2="667.24" y2="785.83"/>
  </g>
  <g class="st38">
    <g>
      <line class="st19" x1="667.24" y1="785.83" x2="672.97" y2="787.61"/>
      <line class="st19" x1="675.7" y1="788.45" x2="681.43" y2="790.23"/>
    </g>
  </g>
  <g class="st38">
    <g>
      <line class="st19" x1="681.43" y1="790.23" x2="687.36" y2="791.1"/>
      <line class="st19" x1="691.1" y1="791.64" x2="697.04" y2="792.5"/>
    </g>
  </g>
  <g class="st38">
    <g>
      <line class="st19" x1="697.04" y1="792.5" x2="703.04" y2="792.5"/>
      <line class="st19" x1="707.15" y1="792.5" x2="713.15" y2="792.5"/>
    </g>
  </g>
  <g class="st38">
    <g>
      <line class="st19" x1="713.15" y1="792.5" x2="719.09" y2="791.64"/>
      <line class="st19" x1="722.84" y1="791.1" x2="728.77" y2="790.23"/>
    </g>
  </g>
  <g class="st38">
    <g>
      <line class="st19" x1="728.77" y1="790.23" x2="734.5" y2="788.45"/>
      <line class="st19" x1="737.22" y1="787.61" x2="742.95" y2="785.83"/>
    </g>
  </g>
  <g class="st38">
    <line class="st36" x1="742.95" y1="785.83" x2="751.36" y2="781.73"/>
  </g>
  <g class="st38">
    <line class="st28" x1="751.36" y1="781.73" x2="758.56" y2="777.58"/>
  </g>
  <g class="st38">
    <g>
      <line class="st19" x1="758.56" y1="777.58" x2="763.76" y2="774.58"/>
      <line class="st16" x1="772.79" y1="769.36" x2="822.48" y2="740.67"/>
      <line class="st19" x1="827" y1="738.06" x2="832.19" y2="735.06"/>
    </g>
  </g>
  <g class="st38">
    <g>
      <line class="st19" x1="832.19" y1="735.06" x2="837.39" y2="732.06"/>
      <line class="st25" x1="848.27" y1="725.78" x2="951.61" y2="666.12"/>
      <line class="st19" x1="957.05" y1="662.98" x2="962.25" y2="659.98"/>
    </g>
  </g>
  <g class="st38">
    <g>
      <line class="st19" x1="962.25" y1="659.98" x2="967.44" y2="656.98"/>
      <line class="st16" x1="976.48" y1="651.76" x2="1026.17" y2="623.07"/>
      <line class="st19" x1="1030.69" y1="620.46" x2="1035.88" y2="617.46"/>
    </g>
  </g>
  <g class="st38">
    <g>
      <line class="st19" x1="1035.88" y1="617.46" x2="1041.08" y2="614.46"/>
      <line class="st19" x1="1046.39" y1="611.4" x2="1051.58" y2="608.4"/>
    </g>
  </g>
  <g class="st38">
    <line class="st12" x1="1051.58" y1="608.4" x2="1058.68" y2="603.55"/>
  </g>
  <g class="st38">
    <line class="st29" x1="1058.68" y1="603.55" x2="1066.31" y2="595.36"/>
  </g>
  <g class="st38">
    <line class="st13" x1="1066.31" y1="595.36" x2="1070.24" y2="586.34"/>
  </g>
  <g class="st38">
    <g>
      <line class="st19" x1="751.36" y1="771.92" x2="756.55" y2="768.92"/>
      <line class="st33" x1="767.29" y1="762.72" x2="1041.02" y2="604.68"/>
      <line class="st19" x1="1046.39" y1="601.59" x2="1051.58" y2="598.59"/>
    </g>
  </g>
  <g class="st38">
    <line class="st36" x1="667.24" y1="776.01" x2="658.84" y2="771.92"/>
  </g>
  <g class="st38">
    <g>
      <line class="st19" x1="658.84" y1="771.92" x2="653.65" y2="768.92"/>
      <line class="st15" x1="643.18" y1="762.87" x2="187.78" y2="499.95"/>
      <line class="st19" x1="182.55" y1="496.93" x2="177.35" y2="493.93"/>
    </g>
  </g>
  <g class="st38">
    <g>
      <line class="st19" x1="177.35" y1="493.93" x2="182.55" y2="490.93"/>
      <line class="st4" x1="192.88" y1="484.97" x2="559.73" y2="273.17"/>
      <line class="st19" x1="564.9" y1="270.18" x2="570.09" y2="267.18"/>
    </g>
  </g>
  <g class="st38">
    <g>
      <line class="st19" x1="570.09" y1="267.18" x2="575.29" y2="270.18"/>
      <line class="st15" x1="585.76" y1="276.23" x2="1041.15" y2="539.15"/>
      <line class="st19" x1="1046.39" y1="542.17" x2="1051.58" y2="545.17"/>
    </g>
  </g>
  <g class="st38">
    <line class="st32" x1="1051.58" y1="545.17" x2="1058.68" y2="550.02"/>
  </g>
  <g class="st38">
    <line class="st29" x1="1058.68" y1="550.02" x2="1066.31" y2="558.2"/>
  </g>
  <g class="st38">
    <line class="st13" x1="1066.31" y1="558.2" x2="1070.24" y2="567.23"/>
  </g>
  <g class="st38">
    <line class="st10" x1="1070.24" y1="567.23" x2="1070.24" y2="576.53"/>
  </g>
  <g class="st38">
    <line class="st13" x1="1070.24" y1="576.53" x2="1066.31" y2="585.55"/>
  </g>
  <g class="st38">
    <line class="st29" x1="1066.31" y1="585.55" x2="1058.68" y2="593.73"/>
  </g>
  <g class="st38">
    <line class="st12" x1="1058.68" y1="593.73" x2="1051.58" y2="598.59"/>
  </g>
  <g class="st38">
    <line class="st36" x1="751.36" y1="771.92" x2="742.95" y2="776.01"/>
  </g>
  <g class="st38">
    <g>
      <line class="st19" x1="742.95" y1="776.01" x2="737.22" y2="777.8"/>
      <line class="st19" x1="734.5" y1="778.64" x2="728.77" y2="780.42"/>
    </g>
  </g>
  <g class="st38">
    <g>
      <line class="st19" x1="728.77" y1="780.42" x2="722.84" y2="781.28"/>
      <line class="st19" x1="719.09" y1="781.83" x2="713.15" y2="782.69"/>
    </g>
  </g>
  <g class="st38">
    <g>
      <line class="st19" x1="713.15" y1="782.69" x2="707.15" y2="782.69"/>
      <line class="st19" x1="703.04" y1="782.69" x2="697.04" y2="782.69"/>
    </g>
  </g>
  <g class="st38">
    <g>
      <line class="st19" x1="697.04" y1="782.69" x2="691.1" y2="781.83"/>
      <line class="st19" x1="687.36" y1="781.28" x2="681.43" y2="780.42"/>
    </g>
  </g>
  <g class="st38">
    <g>
      <line class="st19" x1="681.43" y1="780.42" x2="675.7" y2="778.64"/>
      <line class="st19" x1="672.97" y1="777.8" x2="667.24" y2="776.01"/>
    </g>
  </g>
  <g class="st38">
    <line class="st14" x1="1070.24" y1="586.34" x2="1070.24" y2="576.53"/>
  </g>
  <g class="st38">
    <line class="st14" x1="177.35" y1="503.74" x2="177.35" y2="493.93"/>
  </g>
  <g class="st38">
    <g>
      <line class="st19" x1="939.23" y1="888.56" x2="934.04" y2="891.57"/>
      <polyline class="st3" points="923.85 897.49 589.45 1091.51 582.17 1095.71"/>
      <line class="st19" x1="577.06" y1="1098.66" x2="571.86" y2="1101.66"/>
    </g>
  </g>
  <g class="st38">
    <g>
      <line class="st19" x1="939.23" y1="795.04" x2="939.23" y2="801.04"/>
      <line class="st27" x1="939.23" y1="812.68" x2="939.23" y2="876.74"/>
      <line class="st19" x1="939.23" y1="882.56" x2="939.23" y2="888.56"/>
    </g>
  </g>
  <g class="st38">
    <line class="st14" x1="571.87" y1="1111.24" x2="563.37" y2="1116.14"/>
  </g>
  <g class="st38">
    <g>
      <line class="st19" x1="177.35" y1="501.96" x2="177.35" y2="507.96"/>
      <line class="st6" x1="177.35" y1="520.1" x2="177.35" y2="878.15"/>
      <line class="st19" x1="177.35" y1="884.22" x2="177.35" y2="890.22"/>
    </g>
  </g>
  <g class="st38">
    <g>
      <line class="st19" x1="177.35" y1="890.22" x2="182.53" y2="893.25"/>
      <line class="st8" x1="192.68" y1="899.19" x2="553.11" y2="1110.14"/>
      <line class="st19" x1="558.19" y1="1113.11" x2="563.37" y2="1116.14"/>
    </g>
  </g>
  <g class="st38">
    <g>
      <line class="st19" x1="571.86" y1="731.52" x2="571.86" y2="737.52"/>
      <polyline class="st35" points="571.86 749.36 571.86 844.71 571.86 1007.14 571.86 1098.68"/>
      <line class="st19" x1="571.86" y1="1104.6" x2="571.86" y2="1110.6"/>
    </g>
  </g>
  <g class="st38">
    <g>
      <line class="st19" x1="563.37" y1="1116.14" x2="563.37" y2="1110.14"/>
      <polyline class="st18" points="563.37 1097.98 563.37 1090.8 563.37 996.05 563.37 834.07 563.37 833.62 563.37 739.23"/>
      <line class="st19" x1="563.37" y1="733.15" x2="563.37" y2="727.15"/>
    </g>
  </g>
</svg>