<?xml version="1.0" encoding="UTF-8"?>
<svg id="Layer_1" xmlns="http://www.w3.org/2000/svg" version="1.1" viewBox="0 0 1133.86 1133.86">
  <!-- Generator: Adobe Illustrator 30.3.0, SVG Export Plug-In . SVG Version: 2.1.3 Build 182)  -->
  <defs>
    <style>
      .st0, .st1 {
        fill: none;
        stroke: #000;
        stroke-linecap: round;
        stroke-linejoin: round;
      }

      .st1 {
        fill-rule: evenodd;
      }
    </style>
  </defs>
  <polyline class="st1" points="578.05 1005.13 579.95 1004.03 579.95 841.33 578.05 842.43 578.05 1005.13"/>
  <polyline class="st1" points="189.61 618.17 578.05 842.43 579.95 841.33 579 840.79 578.05 841.33 190.57 617.62 189.61 618.17"/>
  <polyline class="st1" points="578.05 678.64 578.05 841.33 579.95 840.24 579.95 677.54 578.05 678.64"/>
  <polyline class="st1" points="189.61 454.37 578.05 678.64 579.95 677.54 579 676.99 578.05 677.54 190.57 453.82 189.61 454.37"/>
  <polyline class="st1" points="190.57 290.03 189.61 290.57 578.05 514.84 579.95 513.74 579.48 513.46 578.52 514.01 190.57 290.03"/>
  <polyline class="st1" points="579.95 676.44 579.95 513.74 578.05 514.84 578.05 677.54 579.95 676.44"/>
  <polyline class="st1" points="605.1 645.97 603.75 645.11 606.3 646.9 605.1 645.97"/>
  <polyline class="st1" points="603.75 635.21 602.26 634.43 602.26 644.33 603.75 645.11 603.75 635.21"/>
  <polyline class="st1" points="600.64 633.74 600.64 643.64 602.26 644.33 602.26 634.43 600.64 633.74"/>
  <polyline class="st1" points="600.64 633.74 598.91 633.15 598.91 643.04 600.64 643.64 600.64 633.74"/>
  <polyline class="st1" points="597.08 632.72 597.08 642.55 598.91 643.04 598.91 633.15 597.08 632.72"/>
  <polyline class="st1" points="597.08 632.72 595.18 632.28 595.18 642.17 597.08 642.55 597.08 632.72"/>
  <polyline class="st1" points="595.18 632.28 593.23 632 593.23 641.9 595.18 642.17 595.18 632.28"/>
  <polyline class="st1" points="593.23 632 591.23 631.84 591.23 641.74 593.23 641.9 593.23 632"/>
  <polyline class="st1" points="589.47 641.7 591.23 641.74 591.23 631.84 589.47 631.8 589.47 641.7"/>
  <polyline class="st1" points="609.67 643.61 609.59 642.44 609.59 644.3 609.67 643.61"/>
  <path class="st1" d="M609.59,642.44l-.28-.84v3.95c.34-.76.28-2.3.28-3.12"/>
  <path class="st1" d="M608.84,640.16v6.56c.11-.24.44-.9.47-1.16,0-1.09.15-4.46-.47-5.4"/>
  <path class="st1" d="M608.18,647.82c1.12-.56.54-6.7.67-7.66l-.67-1.09v8.76"/>
  <path class="st1" d="M608.18,639.07l-.85-1.06v9.89l.41.51c.13-.13.35-.43.45-.59v-8.76"/>
  <polyline class="st1" points="606.3 646.9 607.33 647.9 607.33 638.01 606.3 637.01 606.3 646.9"/>
  <polyline class="st1" points="605.1 636.08 605.1 645.97 606.3 646.9 606.3 637.01 605.1 636.08"/>
  <polyline class="st1" points="605.1 636.08 603.75 635.21 603.75 645.11 605.1 645.97 605.1 636.08"/>
  <polyline class="st1" points="579 840.79 579.95 841.33 579.95 1002.94 580.9 1003.48 580.9 512.64 579.48 513.46 579.95 513.74 579.95 676.44 579 676.99 579.95 677.54 579.95 840.24 579 840.79"/>
  <polyline class="st1" points="589.47 904.55 589.47 914.44 598.04 909.49 589.47 904.55"/>
  <line class="st0" x1="578.05" y1="1005.13" x2="579.95" y2="1004.03"/>
  <line class="st0" x1="189.61" y1="780.87" x2="578.05" y2="1005.13"/>
  <line class="st0" x1="578.05" y1="842.43" x2="579.95" y2="841.33"/>
  <line class="st0" x1="579.95" y1="841.33" x2="579.95" y2="1004.03"/>
  <line class="st0" x1="578.05" y1="1005.13" x2="578.05" y2="842.43"/>
  <line class="st0" x1="189.61" y1="618.17" x2="190.57" y2="617.62"/>
  <line class="st0" x1="579" y1="840.79" x2="579.95" y2="841.33"/>
  <line class="st0" x1="578.05" y1="842.43" x2="189.61" y2="618.17"/>
  <line class="st0" x1="189.61" y1="618.17" x2="189.61" y2="780.87"/>
  <line class="st0" x1="578.05" y1="841.33" x2="579.95" y2="840.24"/>
  <line class="st0" x1="189.61" y1="617.07" x2="578.05" y2="841.33"/>
  <line class="st0" x1="578.05" y1="678.64" x2="579.95" y2="677.54"/>
  <line class="st0" x1="579.95" y1="677.54" x2="579.95" y2="840.24"/>
  <line class="st0" x1="578.05" y1="841.33" x2="578.05" y2="678.64"/>
  <line class="st0" x1="189.61" y1="454.37" x2="190.57" y2="453.82"/>
  <line class="st0" x1="579" y1="676.99" x2="579.95" y2="677.54"/>
  <line class="st0" x1="578.05" y1="678.64" x2="189.61" y2="454.37"/>
  <line class="st0" x1="189.61" y1="454.37" x2="189.61" y2="617.07"/>
  <line class="st0" x1="579.95" y1="676.44" x2="579.95" y2="513.74"/>
  <line class="st0" x1="579.95" y1="513.74" x2="579.48" y2="513.46"/>
  <line class="st0" x1="579.95" y1="513.74" x2="578.05" y2="514.84"/>
  <line class="st0" x1="578.05" y1="514.84" x2="189.61" y2="290.57"/>
  <line class="st0" x1="189.61" y1="290.57" x2="190.57" y2="290.03"/>
  <line class="st0" x1="578.05" y1="514.84" x2="578.05" y2="677.54"/>
  <line class="st0" x1="578.05" y1="677.54" x2="189.61" y2="453.27"/>
  <line class="st0" x1="189.61" y1="453.27" x2="189.61" y2="290.57"/>
  <line class="st0" x1="579.95" y1="676.44" x2="578.05" y2="677.54"/>
  <line class="st0" x1="598.91" y1="633.15" x2="597.08" y2="632.66"/>
  <line class="st0" x1="597.08" y1="632.66" x2="595.18" y2="632.28"/>
  <line class="st0" x1="595.18" y1="632.28" x2="598.91" y2="633.15"/>
  <line class="st0" x1="609.59" y1="642.44" x2="609.32" y2="641.29"/>
  <line class="st0" x1="609.32" y1="641.29" x2="608.84" y2="640.16"/>
  <line class="st0" x1="608.84" y1="640.16" x2="609.59" y2="642.44"/>
  <line class="st0" x1="594.7" y1="654.72" x2="590.73" y2="655.1"/>
  <line class="st0" x1="481.89" y1="310.91" x2="580.9" y2="253.75"/>
  <line class="st0" x1="580.9" y1="253.75" x2="970.28" y2="478.56"/>
  <line class="st0" x1="970.28" y1="478.56" x2="589.47" y2="698.42"/>
  <line class="st0" x1="589.47" y1="655.1" x2="590.73" y2="655.1"/>
  <line class="st0" x1="594.7" y1="654.72" x2="596.61" y2="654.37"/>
  <line class="st0" x1="596.61" y1="654.37" x2="598.46" y2="653.9"/>
  <line class="st0" x1="598.46" y1="653.9" x2="600.21" y2="653.33"/>
  <line class="st0" x1="600.21" y1="653.33" x2="601.86" y2="652.66"/>
  <line class="st0" x1="601.86" y1="652.66" x2="603.39" y2="651.91"/>
  <line class="st0" x1="603.39" y1="651.91" x2="604.78" y2="651.06"/>
  <line class="st0" x1="604.78" y1="651.06" x2="606.01" y2="650.15"/>
  <line class="st0" x1="606.01" y1="650.15" x2="607.09" y2="649.16"/>
  <line class="st0" x1="607.09" y1="649.16" x2="607.98" y2="648.12"/>
  <line class="st0" x1="607.98" y1="648.12" x2="608.7" y2="647.04"/>
  <line class="st0" x1="608.7" y1="647.04" x2="609.22" y2="645.91"/>
  <line class="st0" x1="609.22" y1="645.91" x2="609.54" y2="644.77"/>
  <line class="st0" x1="609.54" y1="644.77" x2="609.67" y2="643.61"/>
  <line class="st0" x1="609.67" y1="643.61" x2="609.59" y2="642.44"/>
  <line class="st0" x1="608.84" y1="640.16" x2="608.18" y2="639.07"/>
  <line class="st0" x1="608.18" y1="639.07" x2="607.33" y2="638.01"/>
  <line class="st0" x1="607.33" y1="638.01" x2="606.3" y2="637.01"/>
  <line class="st0" x1="606.3" y1="637.01" x2="605.1" y2="636.08"/>
  <line class="st0" x1="605.1" y1="636.08" x2="603.75" y2="635.21"/>
  <line class="st0" x1="603.75" y1="635.21" x2="602.26" y2="634.43"/>
  <line class="st0" x1="602.26" y1="634.43" x2="600.64" y2="633.74"/>
  <line class="st0" x1="600.64" y1="633.74" x2="598.91" y2="633.15"/>
  <line class="st0" x1="595.18" y1="632.28" x2="593.23" y2="632"/>
  <line class="st0" x1="593.23" y1="632" x2="591.23" y2="631.84"/>
  <line class="st0" x1="591.23" y1="631.84" x2="589.47" y2="631.8"/>
  <line class="st0" x1="603.75" y1="645.11" x2="605.1" y2="645.97"/>
  <line class="st0" x1="605.1" y1="645.97" x2="606.3" y2="646.9"/>
  <line class="st0" x1="606.3" y1="646.9" x2="603.75" y2="645.11"/>
  <line class="st0" x1="589.47" y1="708.32" x2="970.28" y2="488.45"/>
  <line class="st0" x1="589.47" y1="641.7" x2="591.23" y2="641.74"/>
  <line class="st0" x1="591.23" y1="641.74" x2="593.23" y2="641.9"/>
  <line class="st0" x1="593.23" y1="641.9" x2="595.18" y2="642.17"/>
  <line class="st0" x1="595.18" y1="642.17" x2="597.08" y2="642.55"/>
  <line class="st0" x1="597.08" y1="642.55" x2="598.91" y2="643.04"/>
  <line class="st0" x1="598.91" y1="643.04" x2="600.64" y2="643.64"/>
  <line class="st0" x1="600.64" y1="643.64" x2="602.26" y2="644.33"/>
  <line class="st0" x1="602.26" y1="644.33" x2="603.75" y2="645.11"/>
  <line class="st0" x1="606.3" y1="646.9" x2="607.33" y2="647.9"/>
  <line class="st0" x1="607.33" y1="647.9" x2="607.73" y2="648.41"/>
  <line class="st0" x1="970.28" y1="478.56" x2="970.28" y2="488.45"/>
  <line class="st0" x1="189.14" y1="289.2" x2="578.52" y2="514.01"/>
  <line class="st0" x1="578.52" y1="514.01" x2="580.9" y2="512.64"/>
  <line class="st0" x1="589.47" y1="507.69" x2="697.53" y2="445.3"/>
  <line class="st0" x1="580.9" y1="512.64" x2="589.47" y2="507.69"/>
  <line class="st0" x1="308.14" y1="210.6" x2="189.14" y2="279.31"/>
  <line class="st0" x1="189.14" y1="279.31" x2="189.14" y2="289.2"/>
  <line class="st0" x1="308.14" y1="210.6" x2="697.53" y2="435.41"/>
  <line class="st0" x1="697.53" y1="435.41" x2="578.52" y2="504.12"/>
  <line class="st0" x1="578.52" y1="504.12" x2="189.14" y2="279.31"/>
  <line class="st0" x1="578.52" y1="504.12" x2="578.52" y2="514.01"/>
  <line class="st0" x1="697.53" y1="435.41" x2="697.53" y2="445.3"/>
  <line class="st0" x1="579.95" y1="1002.94" x2="580.9" y2="1003.48"/>
  <line class="st0" x1="580.9" y1="1003.48" x2="583.76" y2="1001.84"/>
  <line class="st0" x1="580.9" y1="512.64" x2="580.9" y2="1003.48"/>
  <line class="st0" x1="583.76" y1="996.34" x2="583.76" y2="1001.84"/>
  <line class="st0" x1="589.47" y1="507.69" x2="589.47" y2="698.42"/>
  <line class="st0" x1="589.47" y1="708.32" x2="589.47" y2="914.44"/>
  <line class="st0" x1="589.47" y1="698.42" x2="589.47" y2="708.32"/>
  <line class="st0" x1="589.47" y1="914.44" x2="589.47" y2="993.04"/>
  <line class="st0" x1="589.47" y1="993.04" x2="583.76" y2="996.34"/>
  <line class="st0" x1="598.04" y1="1096.38" x2="598.04" y2="909.49"/>
  <line class="st0" x1="598.04" y1="909.49" x2="589.47" y2="904.55"/>
  <line class="st0" x1="598.04" y1="1096.38" x2="589.47" y2="1101.32"/>
  <line class="st0" x1="589.47" y1="1101.32" x2="589.47" y2="993.04"/>
  <line class="st0" x1="589.47" y1="914.44" x2="598.04" y2="909.49"/>
  <line class="st0" x1="589.47" y1="1101.32" x2="200.09" y2="876.51"/>
  <line class="st0" x1="200.09" y1="876.51" x2="200.09" y2="786.92"/>
</svg>