<?xml version="1.0" encoding="UTF-8"?>
<svg id="Layer_1" xmlns="http://www.w3.org/2000/svg" version="1.1" viewBox="0 0 841.89 841.89">
  <!-- Generator: Adobe Illustrator 30.3.0, SVG Export Plug-In . SVG Version: 2.1.3 Build 182)  -->
  <defs>
    <style>
      .st0 {
        stroke-linecap: round;
        stroke-linejoin: round;
      }

      .st0, .st1, .st2 {
        fill: none;
        stroke: #000;
      }

      .st1 {
        isolation: isolate;
        opacity: .5;
        stroke-width: .2px;
      }

      .st1, .st2 {
        stroke-linecap: square;
        stroke-miterlimit: 10;
      }

      .st3 {
        fill: #1d1d1b;
      }

      .st2 {
        stroke-width: .5px;
      }
    </style>
  </defs>
  <g id="Layer_3">
    <line class="st1" x1="438.71" y1="615.43" x2="438.71" y2="363.06"/>
    <polyline class="st1" points="438.71 615.43 438.77 615.87 438.71 363.06"/>
    <line class="st1" x1="438.77" y1="615.87" x2="438.82" y2="363.11"/>
    <polyline class="st1" points="438.77 615.87 439.09 616.79 438.82 363.11"/>
    <line class="st1" x1="439.09" y1="616.79" x2="439.09" y2="363.28"/>
    <polyline class="st1" points="446.79 630.13 447.22 630.72 446.79 367.72"/>
    <line class="st1" x1="446.79" y1="367.72" x2="446.79" y2="630.13"/>
    <line class="st1" x1="447.22" y1="630.72" x2="447.22" y2="367.99"/>
    <polyline class="st1" points="447.22 630.72 447.77 631.16 447.22 367.99"/>
    <line class="st1" x1="447.77" y1="631.16" x2="447.77" y2="368.32"/>
    <polyline class="st1" points="447.77 631.16 448.04 631.27 447.77 368.32"/>
    <line class="st1" x1="448.04" y1="631.27" x2="448.25" y2="367.99"/>
    <polyline class="st1" points="448.04 631.27 448.25 631.32 448.25 367.99"/>
    <polyline class="st1" points="448.25 631.32 448.53 631.32 448.25 367.99"/>
    <line class="st1" x1="448.53" y1="631.32" x2="448.69" y2="367.72"/>
    <polyline class="st1" points="448.53 631.32 448.69 631.21 448.69 367.72"/>
    <polyline class="st1" points="462.84 623.08 463 622.92 462.84 359.59"/>
    <line class="st1" x1="462.84" y1="359.59" x2="462.84" y2="623.08"/>
    <line class="st1" x1="463" y1="622.92" x2="463.11" y2="359.43"/>
    <polyline class="st1" points="463 622.92 463.11 622.75 463.11 359.43"/>
    <polyline class="st1" points="463.11 622.75 463.22 622.48 463.11 359.43"/>
    <line class="st1" x1="463.22" y1="622.48" x2="463.22" y2="359.37"/>
    <polyline class="st1" points="463.22 622.48 463.22 622.21 463.22 359.37"/>
    <line class="st1" x1="439.09" y1="363.28" x2="439.09" y2="616.79"/>
    <line class="st1" x1="439.09" y1="616.79" x2="446.79" y2="630.13"/>
    <line class="st1" x1="446.79" y1="367.72" x2="446.79" y2="630.13"/>
    <line class="st1" x1="448.69" y1="367.72" x2="448.69" y2="631.21"/>
    <line class="st1" x1="448.69" y1="631.21" x2="462.84" y2="623.08"/>
    <line class="st1" x1="462.84" y1="359.59" x2="462.84" y2="623.08"/>
    <line class="st1" x1="802.61" y1="163.43" x2="804.29" y2="164.41"/>
    <line class="st1" x1="804.29" y1="164.36" x2="802.61" y2="163.38"/>
    <line class="st1" x1="802.34" y1="163.6" x2="804.29" y2="164.74"/>
    <line class="st1" x1="802.34" y1="163.6" x2="804.29" y2="164.74"/>
    <line class="st1" x1="802.23" y1="163.65" x2="804.29" y2="164.84"/>
    <line class="st1" x1="804.29" y1="164.36" x2="802.61" y2="163.38"/>
    <polyline class="st1" points="600.71 279.94 600.71 287.91 600.76 279.94"/>
    <polyline class="st1" points="600.71 287.91 601.36 287.59 601.36 279.62"/>
    <line class="st1" x1="601.36" y1="287.59" x2="601.36" y2="279.62"/>
    <polyline class="st1" points="601.36 287.59 601.69 287.37 601.69 279.4"/>
    <polyline class="st1" points="601.69 287.37 602.07 287.16 602.07 279.24"/>
    <line class="st1" x1="602.07" y1="287.16" x2="602.07" y2="279.19"/>
    <polyline class="st1" points="602.07 287.16 602.39 286.99 602.39 279.02"/>
    <line class="st1" x1="602.39" y1="286.99" x2="602.39" y2="279.02"/>
    <polyline class="st1" points="602.39 286.99 602.66 286.83 602.66 278.86"/>
    <polyline class="st1" points="616.76 278.7 616.97 278.54 616.97 270.57"/>
    <line class="st1" x1="616.76" y1="270.73" x2="616.76" y2="278.7"/>
    <line class="st1" x1="616.97" y1="278.54" x2="616.97" y2="270.57"/>
    <polyline class="st1" points="616.97 278.54 617.14 278.48 617.14 270.51"/>
    <line class="st1" x1="617.14" y1="278.48" x2="617.14" y2="270.51"/>
    <polyline class="st1" points="617.14 278.48 617.19 278.43 617.19 270.46"/>
    <line class="st1" x1="592.63" y1="292.58" x2="592.63" y2="284.66"/>
    <polyline class="st1" points="592.63 292.58 592.74 292.52 592.74 284.61"/>
    <line class="st1" x1="592.74" y1="292.52" x2="592.74" y2="284.61"/>
    <polyline class="st1" points="592.74 292.52 593.01 292.36 593.01 284.39"/>
    <line class="st1" x1="593.01" y1="292.36" x2="593.01" y2="284.39"/>
    <line class="st1" x1="602.66" y1="286.83" x2="616.76" y2="278.7"/>
    <line class="st1" x1="616.76" y1="278.7" x2="616.76" y2="270.73"/>
    <line class="st1" x1="602.66" y1="286.83" x2="602.66" y2="278.86"/>
    <line class="st1" x1="593.01" y1="292.36" x2="593.01" y2="284.39"/>
    <line class="st1" x1="593.01" y1="292.36" x2="600.71" y2="287.91"/>
    <line class="st1" x1="600.71" y1="287.91" x2="600.71" y2="279.94"/>
    <polyline class="st1" points="804.29 403.23 602.66 286.83 804.29 403.56"/>
    <polyline class="st1" points="602.66 286.83 602.39 286.99 804.29 403.56"/>
    <polyline class="st1" points="602.39 286.99 602.07 287.16 804.29 403.56"/>
    <line class="st1" x1="602.07" y1="287.16" x2="804.29" y2="403.94"/>
    <polyline class="st1" points="602.07 287.16 601.69 287.37 804.29 403.94"/>
    <line class="st1" x1="601.69" y1="287.37" x2="804.29" y2="404.37"/>
    <polyline class="st1" points="601.69 287.37 601.36 287.59 804.29 404.37"/>
    <polyline class="st1" points="601.36 287.59 804.35 404.8 804.29 404.37"/>
    <polyline class="st1" points="601.36 287.59 600.71 287.91 804.35 404.8"/>
    <polyline class="st1" points="600.71 287.91 804.73 405.67 804.35 404.8"/>
    <line class="st1" x1="617.19" y1="278.43" x2="804.29" y2="386.48"/>
    <polyline class="st1" points="617.19 278.43 617.14 278.48 804.29 386.48"/>
    <line class="st1" x1="617.14" y1="278.48" x2="804.29" y2="386.53"/>
    <polyline class="st1" points="617.14 278.48 616.97 278.54 804.29 386.53"/>
    <line class="st1" x1="616.97" y1="278.54" x2="804.29" y2="386.7"/>
    <line class="st1" x1="616.76" y1="278.7" x2="804.29" y2="386.97"/>
    <polyline class="st1" points="804.29 386.91 616.97 278.54 616.76 278.7"/>
    <line class="st1" x1="828.63" y1="411.85" x2="828.47" y2="412.02"/>
    <line class="st1" x1="828.8" y1="411.42" x2="828.74" y2="411.64"/>
    <line class="st1" x1="828.74" y1="411.64" x2="828.63" y2="411.85"/>
    <line class="st1" x1="828.85" y1="411.09" x2="828.8" y2="411.42"/>
    <polyline class="st1" points="593.01 292.36 592.74 292.52 812.42 419.01 593.01 292.36"/>
    <polyline class="st1" points="592.74 292.52 812.86 419.61 812.42 419.01"/>
    <polyline class="st1" points="592.74 292.52 592.63 292.58 812.86 419.61"/>
    <polyline class="st1" points="592.63 292.58 813.35 420.04 812.86 419.61"/>
    <line class="st1" x1="813.62" y1="420.15" x2="813.35" y2="420.04"/>
    <line class="st1" x1="813.89" y1="420.2" x2="813.62" y2="420.15"/>
    <line class="st1" x1="814.32" y1="420.15" x2="814.1" y2="420.2"/>
    <line class="st1" x1="814.1" y1="420.2" x2="813.89" y2="420.2"/>
    <line class="st1" x1="804.29" y1="403.23" x2="602.66" y2="286.83"/>
    <line class="st1" x1="804.29" y1="386.97" x2="616.76" y2="278.7"/>
    <line class="st1" x1="616.76" y1="278.7" x2="602.66" y2="286.83"/>
    <line class="st1" x1="828.47" y1="412.02" x2="814.32" y2="420.15"/>
    <line class="st1" x1="812.42" y1="419.01" x2="593.01" y2="292.36"/>
    <line class="st1" x1="804.73" y1="405.67" x2="600.71" y2="287.91"/>
    <line class="st1" x1="600.71" y1="287.91" x2="593.01" y2="292.36"/>
    <line class="st1" x1="812.42" y1="419.01" x2="804.73" y2="405.67"/>
    <line class="st1" x1="804.29" y1="404.37" x2="804.29" y2="162.46"/>
    <polyline class="st1" points="804.29 404.37 804.35 404.8 804.29 162.4"/>
    <line class="st1" x1="804.35" y1="404.8" x2="804.4" y2="162.35"/>
    <polyline class="st1" points="804.35 404.8 804.73 405.67 804.45 162.35"/>
    <line class="st1" x1="804.73" y1="405.67" x2="804.73" y2="162.19"/>
    <polyline class="st1" points="812.42 419.01 812.86 419.61 812.42 157.74"/>
    <line class="st1" x1="812.42" y1="157.74" x2="812.42" y2="419.01"/>
    <line class="st1" x1="812.86" y1="419.61" x2="812.86" y2="157.52"/>
    <polyline class="st1" points="812.86 419.61 813.35 420.04 812.86 157.52"/>
    <line class="st1" x1="813.35" y1="420.04" x2="813.35" y2="157.2"/>
    <polyline class="st1" points="813.35 420.04 813.62 420.15 813.4 157.2"/>
    <line class="st1" x1="813.62" y1="420.15" x2="813.89" y2="156.93"/>
    <polyline class="st1" points="813.62 420.15 813.89 420.2 813.89 156.93"/>
    <polyline class="st1" points="813.89 420.2 814.1 420.2 813.89 156.87"/>
    <line class="st1" x1="814.1" y1="420.2" x2="814.32" y2="156.66"/>
    <polyline class="st1" points="814.1 420.2 814.32 420.15 814.32 156.66"/>
    <polyline class="st1" points="828.47 412.02 828.63 411.85 828.47 148.53"/>
    <line class="st1" x1="828.47" y1="148.53" x2="828.47" y2="412.02"/>
    <line class="st1" x1="828.63" y1="411.85" x2="828.74" y2="148.31"/>
    <polyline class="st1" points="828.63 411.85 828.74 411.64 828.74 148.31"/>
    <polyline class="st1" points="828.74 411.64 828.8 411.42 828.74 148.31"/>
    <line class="st1" x1="828.8" y1="411.42" x2="828.85" y2="148.25"/>
    <polyline class="st1" points="828.8 411.42 828.85 411.09 828.85 148.25"/>
    <line class="st1" x1="804.73" y1="162.19" x2="804.73" y2="405.67"/>
    <line class="st1" x1="804.73" y1="405.67" x2="812.42" y2="419.01"/>
    <line class="st1" x1="812.42" y1="157.74" x2="812.42" y2="419.01"/>
    <line class="st1" x1="814.32" y1="156.66" x2="814.32" y2="420.15"/>
    <line class="st1" x1="814.32" y1="420.15" x2="828.47" y2="412.02"/>
    <line class="st1" x1="828.47" y1="148.53" x2="828.47" y2="412.02"/>
    <polyline class="st1" points="438.71 614.35 237.03 497.89 438.71 614.68"/>
    <polyline class="st1" points="237.03 497.89 236.76 498.06 438.71 614.68"/>
    <polyline class="st1" points="236.76 498.06 236.43 498.27 438.71 614.68"/>
    <line class="st1" x1="236.43" y1="498.27" x2="438.71" y2="615.05"/>
    <polyline class="st1" points="236.43 498.27 236.05 498.49 438.71 615.05"/>
    <line class="st1" x1="236.05" y1="498.49" x2="438.71" y2="615.43"/>
    <polyline class="st1" points="236.05 498.49 235.73 498.65 438.71 615.43"/>
    <polyline class="st1" points="235.73 498.65 438.77 615.87 438.71 615.43"/>
    <polyline class="st1" points="235.73 498.65 235.13 499.03 438.77 615.87"/>
    <polyline class="st1" points="235.13 499.03 439.09 616.79 438.77 615.87"/>
    <line class="st1" x1="251.56" y1="489.54" x2="438.71" y2="597.6"/>
    <polyline class="st1" points="251.56 489.54 251.5 489.54 438.71 597.6"/>
    <line class="st1" x1="251.5" y1="489.54" x2="438.71" y2="597.65"/>
    <polyline class="st1" points="251.5 489.54 251.4 489.65 438.71 597.65"/>
    <line class="st1" x1="251.4" y1="489.65" x2="438.71" y2="597.81"/>
    <line class="st1" x1="251.18" y1="489.76" x2="438.71" y2="598.03"/>
    <polyline class="st1" points="438.71 598.03 251.4 489.65 251.18 489.76"/>
    <line class="st1" x1="463" y1="622.92" x2="462.84" y2="623.08"/>
    <line class="st1" x1="463.22" y1="622.48" x2="463.11" y2="622.75"/>
    <line class="st1" x1="463.11" y1="622.75" x2="463" y2="622.92"/>
    <line class="st1" x1="463.22" y1="622.21" x2="463.22" y2="622.48"/>
    <polyline class="st1" points="227.43 503.48 227.11 503.64 446.79 630.13 227.43 503.48"/>
    <polyline class="st1" points="227.11 503.64 447.22 630.72 446.79 630.13"/>
    <polyline class="st1" points="227.11 503.64 227 503.69 447.22 630.72"/>
    <polyline class="st1" points="227 503.69 447.77 631.16 447.22 630.72"/>
    <line class="st1" x1="448.04" y1="631.27" x2="447.77" y2="631.16"/>
    <line class="st1" x1="448.25" y1="631.32" x2="448.04" y2="631.27"/>
    <line class="st1" x1="448.69" y1="631.21" x2="448.53" y2="631.32"/>
    <line class="st1" x1="448.53" y1="631.32" x2="448.25" y2="631.32"/>
    <line class="st1" x1="438.71" y1="614.35" x2="237.03" y2="497.89"/>
    <line class="st1" x1="438.71" y1="598.03" x2="251.18" y2="489.76"/>
    <line class="st1" x1="251.18" y1="489.76" x2="237.03" y2="497.89"/>
    <line class="st1" x1="462.84" y1="623.08" x2="448.69" y2="631.21"/>
    <line class="st1" x1="446.79" y1="630.13" x2="227.43" y2="503.48"/>
    <line class="st1" x1="439.09" y1="616.79" x2="235.13" y2="499.03"/>
    <line class="st1" x1="235.13" y1="499.03" x2="227.43" y2="503.48"/>
    <line class="st1" x1="446.79" y1="630.13" x2="439.09" y2="616.79"/>
    <polyline class="st1" points="235.13 245.52 235.13 499.03 235.56 245.79"/>
    <polyline class="st1" points="235.13 499.03 235.73 498.65 235.56 245.79"/>
    <line class="st1" x1="235.73" y1="498.65" x2="236.05" y2="246.06"/>
    <polyline class="st1" points="235.73 498.65 236.05 498.49 236.05 246.06"/>
    <polyline class="st1" points="236.05 498.49 236.43 498.27 236.11 246.06"/>
    <line class="st1" x1="236.43" y1="498.27" x2="236.59" y2="246.39"/>
    <polyline class="st1" points="236.43 498.27 236.76 498.06 236.59 246.39"/>
    <line class="st1" x1="236.76" y1="498.06" x2="237.03" y2="246.66"/>
    <polyline class="st1" points="236.76 498.06 237.03 497.89 237.03 246.66"/>
    <polyline class="st1" points="251.18 489.76 251.4 489.65 251.18 267.69"/>
    <line class="st1" x1="251.18" y1="267.64" x2="251.18" y2="489.76"/>
    <line class="st1" x1="251.4" y1="489.65" x2="251.45" y2="267.8"/>
    <polyline class="st1" points="251.4 489.65 251.5 489.54 251.45 267.8"/>
    <line class="st1" x1="251.5" y1="489.54" x2="251.56" y2="267.85"/>
    <polyline class="st1" points="251.5 489.54 251.56 489.54 251.56 267.85"/>
    <line class="st1" x1="227" y1="503.69" x2="227" y2="240.86"/>
    <polyline class="st1" points="227 503.69 227.11 503.64 227 240.86"/>
    <line class="st1" x1="227.11" y1="503.64" x2="227.11" y2="240.91"/>
    <polyline class="st1" points="227.11 503.64 227.43 503.48 227.11 240.91"/>
    <line class="st1" x1="227.43" y1="503.48" x2="227.43" y2="241.07"/>
    <line class="st1" x1="239.41" y1="260.92" x2="239.52" y2="260.97"/>
    <line class="st1" x1="239.52" y1="261.02" x2="239.74" y2="261.08"/>
    <line class="st1" x1="239.31" y1="260.75" x2="239.52" y2="261.02"/>
    <line class="st1" x1="239.25" y1="260.37" x2="239.31" y2="260.75"/>
    <line class="st1" x1="237.03" y1="497.89" x2="251.18" y2="489.76"/>
    <line class="st1" x1="251.18" y1="489.76" x2="251.18" y2="267.64"/>
    <line class="st1" x1="237.03" y1="497.89" x2="237.03" y2="246.66"/>
    <line class="st1" x1="227.43" y1="503.48" x2="227.43" y2="241.07"/>
    <line class="st1" x1="227.43" y1="503.48" x2="235.13" y2="499.03"/>
    <line class="st1" x1="235.13" y1="499.03" x2="235.13" y2="245.52"/>
    <line class="st1" x1="239.25" y1="260.37" x2="239.31" y2="260.43"/>
    <line class="st1" x1="239.25" y1="247.9" x2="239.25" y2="260.37"/>
    <line class="st1" x1="239.31" y1="260.7" x2="438.71" y2="375.47"/>
    <line class="st1" x1="438.71" y1="375.47" x2="239.25" y2="260.32"/>
    <line class="st1" x1="239.31" y1="260.7" x2="438.71" y2="375.8"/>
    <line class="st1" x1="239.41" y1="260.86" x2="438.71" y2="375.8"/>
    <line class="st1" x1="239.41" y1="260.86" x2="438.71" y2="375.91"/>
    <line class="st1" x1="438.71" y1="375.47" x2="239.25" y2="260.32"/>
  </g>
  <line class="st0" x1="832.65" y1="457.94" x2="447.82" y2="680.17"/>
  <line class="st0" x1="447.82" y1="680.17" x2="183.92" y2="527.8"/>
  <line class="st0" x1="179.95" y1="476.26" x2="179.95" y2="204.59"/>
  <circle class="st3" cx="180.28" cy="204.59" r="3.98"/>
  <circle class="st3" cx="179.95" cy="476.26" r="3.98"/>
  <circle class="st3" cx="184.26" cy="527.99" r="3.98"/>
  <circle class="st3" cx="447.82" cy="680.17" r="3.98"/>
  <circle class="st3" cx="832.65" cy="457.94" r="3.98"/>
  <line class="st2" x1="608.14" y1="8.32" x2="831.67" y2="137.41"/>
  <line class="st2" x1="224.23" y1="229.96" x2="608.14" y2="8.32"/>
  <line class="st2" x1="831.67" y1="137.41" x2="447.77" y2="359.05"/>
  <line class="st2" x1="447.77" y1="368.32" x2="831.67" y2="146.63"/>
  <line class="st2" x1="831.67" y1="146.63" x2="831.67" y2="137.41"/>
  <line class="st2" x1="224.23" y1="239.23" x2="447.77" y2="368.32"/>
  <line class="st2" x1="447.77" y1="359.05" x2="224.23" y2="229.96"/>
  <line class="st2" x1="224.23" y1="239.23" x2="224.23" y2="229.96"/>
  <line class="st2" x1="447.77" y1="359.05" x2="447.77" y2="368.32"/>
  <path d="M159.41,345.55c0-8.37-4.14-12.96-11.97-12.96s-12.24,4.68-12.24,12.96v26.91h-4.59v-64.08h4.59v25.83c3.24-3.78,7.47-5.67,12.78-5.67,9.99,0,16.02,6.12,16.02,16.2v27.72h-4.59v-26.91Z"/>
  <path d="M305.99,668.09c-3.87,5.04-7.92,6.12-12.87,6.12-4.59,0-8.37-1.53-10.62-3.78-4.41-4.41-5.58-11.61-5.58-18.45s1.17-14.04,5.58-18.45c2.25-2.25,6.03-3.78,10.62-3.78,4.95,0,9,1.08,12.87,6.12v-26.28h4.59v64.08h-4.59v-5.58ZM293.75,633.8c-10.62,0-12.24,9.18-12.24,18.18s1.62,18.18,12.24,18.18,12.24-9.18,12.24-18.18-1.62-18.18-12.24-18.18Z"/>
  <path d="M665.53,631.87l-12.24-36.18-12.24,36.18h-4.68l-13.86-43.38h5.04l11.07,37.98,12.42-37.98h4.5l12.42,37.98,11.07-37.98h5.04l-13.86,43.38h-4.68Z"/>
</svg>