<?xml version="1.0" encoding="UTF-8"?>
<svg id="Layer_1" xmlns="http://www.w3.org/2000/svg" version="1.1" viewBox="0 0 858.56 916.92">
  <!-- Generator: Adobe Illustrator 30.3.0, SVG Export Plug-In . SVG Version: 2.1.3 Build 182)  -->
  <defs>
    <style>
      .st0, .st1 {
        stroke-width: .06px;
      }

      .st0, .st1, .st2 {
        fill: none;
        stroke-linecap: square;
        stroke-miterlimit: 10;
      }

      .st0, .st2 {
        stroke: #000;
      }

      .st1 {
        stroke: #00d7d7;
      }

      .st2 {
        stroke-width: .35px;
      }
    </style>
  </defs>
  <line class="st0" x1="858.53" y1="916.89" x2="858.53" y2="916.89"/>
  <line class="st0" x1="858.53" y1="916.89" x2="858.53" y2="916.89"/>
  <line class="st0" x1="858.53" y1="916.89" x2="858.53" y2="916.89"/>
  <line class="st0" x1="858.53" y1="916.89" x2="858.53" y2="916.89"/>
  <line class="st0" x1="858.53" y1="916.89" x2="858.53" y2="916.89"/>
  <line class="st0" x1="858.53" y1="916.89" x2="858.53" y2="916.89"/>
  <line class="st0" x1="858.53" y1="916.89" x2="858.53" y2="916.89"/>
  <line class="st0" x1="858.53" y1="916.89" x2="858.53" y2="916.89"/>
  <line class="st0" x1="858.53" y1="916.89" x2="858.53" y2="916.89"/>
  <line class="st0" x1="858.53" y1="916.89" x2="858.53" y2="916.89"/>
  <line class="st0" x1="858.53" y1="916.89" x2="858.53" y2="916.89"/>
  <line class="st0" x1="858.53" y1="916.89" x2="858.53" y2="916.89"/>
  <line class="st0" x1="858.53" y1="916.89" x2="858.53" y2="916.89"/>
  <line class="st0" x1="858.53" y1="916.89" x2="858.53" y2="916.89"/>
  <line class="st0" x1="858.53" y1="916.89" x2="858.53" y2="916.89"/>
  <line class="st0" x1="858.53" y1="916.89" x2="858.53" y2="916.89"/>
  <line class="st0" x1="858.53" y1="916.89" x2="858.53" y2="916.89"/>
  <line class="st0" x1="858.53" y1="916.89" x2="858.53" y2="916.89"/>
  <line class="st0" x1="858.53" y1="916.89" x2="858.53" y2="916.89"/>
  <line class="st0" x1="858.53" y1="916.89" x2="858.53" y2="916.89"/>
  <line class="st0" x1="858.53" y1="916.89" x2="858.53" y2="916.89"/>
  <line class="st0" x1="858.53" y1="916.89" x2="858.53" y2="916.89"/>
  <line class="st0" x1="858.53" y1="916.89" x2="858.53" y2="916.89"/>
  <line class="st0" x1="858.53" y1="916.89" x2="858.53" y2="916.89"/>
  <line class="st0" x1="858.53" y1="916.89" x2="858.53" y2="916.89"/>
  <line class="st0" x1="858.53" y1="916.89" x2="858.53" y2="916.89"/>
  <line class="st0" x1="858.53" y1="916.89" x2="858.53" y2="916.89"/>
  <line class="st0" x1="858.53" y1="916.89" x2="858.53" y2="916.89"/>
  <line class="st0" x1="858.53" y1="916.89" x2="858.53" y2="916.89"/>
  <line class="st0" x1="858.53" y1="916.89" x2="858.53" y2="916.89"/>
  <line class="st0" x1="858.53" y1="916.89" x2="858.53" y2="916.89"/>
  <line class="st0" x1="858.53" y1="916.89" x2="858.53" y2="916.89"/>
  <line class="st0" x1="858.53" y1="916.89" x2="858.53" y2="916.89"/>
  <line class="st0" x1="858.53" y1="916.89" x2="858.53" y2="916.89"/>
  <line class="st0" x1="858.53" y1="916.89" x2="858.53" y2="916.89"/>
  <line class="st0" x1="858.53" y1="916.89" x2="858.53" y2="916.89"/>
  <line class="st0" x1="858.53" y1="916.89" x2="858.53" y2="916.89"/>
  <line class="st0" x1="858.53" y1="916.89" x2="858.53" y2="916.89"/>
  <line class="st0" x1="858.53" y1="916.89" x2="858.53" y2="916.89"/>
  <line class="st0" x1="858.53" y1="916.89" x2="858.53" y2="916.89"/>
  <line class="st1" x1="228.77" y1="903.99" x2="228.77" y2="903.99"/>
  <line class="st1" x1="228.77" y1="903.99" x2="228.77" y2="903.99"/>
  <line class="st1" x1="228.77" y1="903.99" x2="228.77" y2="903.99"/>
  <line class="st1" x1="228.77" y1="903.99" x2="228.77" y2="903.99"/>
  <line class="st1" x1="228.77" y1="903.99" x2="228.77" y2="903.99"/>
  <line class="st1" x1="228.77" y1="903.99" x2="228.77" y2="903.99"/>
  <line class="st1" x1="228.77" y1="903.99" x2="228.77" y2="903.99"/>
  <line class="st1" x1="228.77" y1="903.99" x2="228.77" y2="903.99"/>
  <line class="st1" x1="228.77" y1="903.99" x2="228.77" y2="903.99"/>
  <line class="st1" x1="228.77" y1="903.99" x2="228.77" y2="903.99"/>
  <line class="st1" x1="228.77" y1="903.99" x2="228.77" y2="903.99"/>
  <line class="st1" x1="228.77" y1="903.99" x2="228.77" y2="903.99"/>
  <line class="st1" x1="228.77" y1="903.99" x2="228.77" y2="903.99"/>
  <line class="st1" x1="228.77" y1="903.99" x2="228.77" y2="903.99"/>
  <line class="st1" x1="228.77" y1="903.99" x2="228.77" y2="903.99"/>
  <line class="st1" x1="228.77" y1="903.99" x2="228.77" y2="903.99"/>
  <line class="st1" x1="228.77" y1="903.99" x2="228.77" y2="903.99"/>
  <line class="st1" x1="228.77" y1="903.99" x2="228.77" y2="903.99"/>
  <line class="st1" x1="228.77" y1="903.99" x2="228.77" y2="903.99"/>
  <line class="st1" x1="228.77" y1="903.99" x2="228.77" y2="903.99"/>
  <line class="st1" x1="228.77" y1="903.99" x2="228.77" y2="903.99"/>
  <line class="st1" x1="228.77" y1="903.99" x2="228.77" y2="903.99"/>
  <line class="st1" x1="228.77" y1="903.99" x2="228.77" y2="903.99"/>
  <line class="st1" x1="228.77" y1="903.99" x2="228.77" y2="903.99"/>
  <line class="st1" x1="228.77" y1="903.99" x2="228.77" y2="903.99"/>
  <line class="st1" x1="228.77" y1="903.99" x2="228.77" y2="903.99"/>
  <line class="st1" x1="228.77" y1="903.99" x2="228.77" y2="903.99"/>
  <line class="st1" x1="228.77" y1="903.99" x2="228.77" y2="903.99"/>
  <line class="st1" x1="228.77" y1="903.99" x2="228.77" y2="903.99"/>
  <line class="st1" x1="228.77" y1="903.99" x2="228.77" y2="903.99"/>
  <line class="st1" x1="228.77" y1="903.99" x2="228.77" y2="903.99"/>
  <line class="st1" x1="228.77" y1="903.99" x2="228.77" y2="903.99"/>
  <line class="st1" x1="228.77" y1="903.99" x2="228.77" y2="903.99"/>
  <line class="st1" x1="228.77" y1="903.99" x2="228.77" y2="903.99"/>
  <line class="st1" x1="228.77" y1="903.99" x2="228.77" y2="903.99"/>
  <line class="st1" x1="228.77" y1="903.99" x2="228.77" y2="903.99"/>
  <line class="st1" x1="228.77" y1="903.99" x2="228.77" y2="903.99"/>
  <line class="st1" x1="228.77" y1="903.99" x2="228.77" y2="903.99"/>
  <line class="st1" x1="228.77" y1="903.99" x2="228.77" y2="903.99"/>
  <line class="st1" x1="228.77" y1="903.99" x2="228.77" y2="903.99"/>
  <line class="st1" x1="228.77" y1="903.99" x2="228.77" y2="903.99"/>
  <line class="st1" x1="228.77" y1="903.99" x2="228.77" y2="903.99"/>
  <line class="st1" x1="228.77" y1="903.99" x2="228.77" y2="903.99"/>
  <line class="st1" x1="228.77" y1="903.99" x2="228.77" y2="903.99"/>
  <line class="st1" x1="228.77" y1="903.99" x2="228.77" y2="903.99"/>
  <line class="st1" x1="228.77" y1="903.99" x2="228.77" y2="903.99"/>
  <line class="st1" x1="228.77" y1="903.99" x2="228.77" y2="903.99"/>
  <line class="st1" x1="228.77" y1="903.99" x2="228.77" y2="903.99"/>
  <line class="st1" x1="228.77" y1="903.99" x2="228.77" y2="903.99"/>
  <line class="st1" x1="228.77" y1="903.99" x2="228.77" y2="903.99"/>
  <line class="st1" x1="228.77" y1="903.99" x2="228.77" y2="903.99"/>
  <line class="st1" x1="228.77" y1="903.99" x2="228.77" y2="903.99"/>
  <line class="st1" x1="228.77" y1="903.99" x2="228.77" y2="903.99"/>
  <line class="st1" x1="228.77" y1="903.99" x2="228.77" y2="903.99"/>
  <line class="st1" x1="228.77" y1="903.99" x2="228.77" y2="903.99"/>
  <line class="st1" x1="228.77" y1="903.99" x2="228.77" y2="903.99"/>
  <line class="st1" x1="228.77" y1="903.99" x2="228.77" y2="903.99"/>
  <line class="st1" x1="228.77" y1="903.99" x2="228.77" y2="903.99"/>
  <line class="st1" x1="228.77" y1="903.99" x2="228.77" y2="903.99"/>
  <line class="st1" x1="228.77" y1="903.99" x2="228.77" y2="903.99"/>
  <line class="st1" x1="228.77" y1="903.99" x2="228.77" y2="903.99"/>
  <line class="st1" x1="228.77" y1="903.99" x2="228.77" y2="903.99"/>
  <line class="st1" x1="228.77" y1="903.99" x2="228.77" y2="903.99"/>
  <line class="st1" x1="228.77" y1="903.99" x2="228.77" y2="903.99"/>
  <line class="st1" x1="228.77" y1="903.99" x2="228.77" y2="903.99"/>
  <line class="st1" x1="228.77" y1="903.99" x2="228.77" y2="903.99"/>
  <line class="st1" x1="228.77" y1="903.99" x2="228.77" y2="903.99"/>
  <line class="st1" x1="228.77" y1="903.99" x2="228.77" y2="903.99"/>
  <line class="st1" x1="228.77" y1="903.99" x2="228.77" y2="903.99"/>
  <line class="st1" x1="228.77" y1="903.99" x2="228.77" y2="903.99"/>
  <line class="st1" x1="228.77" y1="903.99" x2="228.77" y2="903.99"/>
  <line class="st1" x1="228.77" y1="903.99" x2="228.77" y2="903.99"/>
  <line class="st1" x1="228.77" y1="903.99" x2="228.77" y2="903.99"/>
  <line class="st1" x1="228.77" y1="903.99" x2="228.77" y2="903.99"/>
  <line class="st1" x1="228.77" y1="903.99" x2="228.77" y2="903.99"/>
  <line class="st1" x1="228.77" y1="903.99" x2="228.77" y2="903.99"/>
  <line class="st1" x1="228.77" y1="903.99" x2="228.77" y2="903.99"/>
  <line class="st1" x1="228.77" y1="903.99" x2="228.77" y2="903.99"/>
  <line class="st1" x1="228.77" y1="903.99" x2="228.77" y2="903.99"/>
  <line class="st1" x1="228.77" y1="903.99" x2="228.77" y2="903.99"/>
  <line class="st2" x1="263.89" y1="689.14" x2="266.59" y2="692.29"/>
  <line class="st2" x1="263.15" y1="685.6" x2="263.89" y2="689.14"/>
  <polyline class="st2" points="264.17 689.49 264.36 688.92 263.15 685.6"/>
  <polyline class="st2" points="264.36 688.92 264.36 682.13 263.15 685.6"/>
  <polyline class="st2" points="264.36 688.92 267.52 685.86 264.36 682.13"/>
  <polyline class="st2" points="267.52 685.86 267.52 679.1 264.36 682.13"/>
  <polyline class="st2" points="267.52 685.86 272.2 683.56 267.52 679.1"/>
  <polyline class="st2" points="272.2 683.56 272.2 676.84 267.52 679.1"/>
  <polyline class="st2" points="272.2 683.56 277.88 682.32 272.2 676.84"/>
  <polyline class="st2" points="277.88 682.32 277.88 675.53 272.2 676.84"/>
  <polyline class="st2" points="277.88 682.32 284.03 682.13 277.88 675.53"/>
  <polyline class="st2" points="284.03 682.13 284.03 675.41 277.88 675.53"/>
  <polyline class="st2" points="284.03 682.13 289.92 683.15 284.03 675.41"/>
  <polyline class="st2" points="289.92 683.15 289.92 676.39 284.03 675.41"/>
  <polyline class="st2" points="289.92 683.15 294.86 685.19 289.92 676.39"/>
  <polyline class="st2" points="294.86 685.19 294.86 678.46 289.92 676.39"/>
  <polyline class="st2" points="294.86 685.19 298.46 688.09 294.86 678.46"/>
  <polyline class="st2" points="298.46 688.09 298.46 681.33 294.86 678.46"/>
  <line class="st2" x1="298.46" y1="688.09" x2="299.16" y2="689.43"/>
  <line class="st2" x1="299.67" y1="688.6" x2="298.46" y2="681.33"/>
  <line class="st2" x1="300.21" y1="684.71" x2="298.46" y2="681.33"/>
  <line class="st2" x1="299.96" y1="688.25" x2="300.21" y2="684.71"/>
  <line class="st2" x1="297.73" y1="691.53" x2="299.96" y2="688.25"/>
  <line class="st2" x1="293.78" y1="694.27" x2="297.73" y2="691.53"/>
  <line class="st2" x1="288.49" y1="696.05" x2="293.78" y2="694.27"/>
  <line class="st2" x1="282.5" y1="696.79" x2="288.49" y2="696.05"/>
  <line class="st2" x1="276.41" y1="696.34" x2="282.5" y2="696.79"/>
  <line class="st2" x1="270.93" y1="694.78" x2="276.41" y2="696.34"/>
  <line class="st2" x1="268.57" y1="693.63" x2="270.93" y2="694.78"/>
  <line class="st2" x1="266.59" y1="692.29" x2="268.57" y2="693.63"/>
  <line class="st2" x1="491.64" y1="519.83" x2="491.99" y2="512.09"/>
  <line class="st2" x1="491.99" y1="512.09" x2="494.48" y2="504.5"/>
  <line class="st2" x1="494.48" y1="504.5" x2="499.03" y2="497.24"/>
  <line class="st2" x1="499.03" y1="497.24" x2="505.6" y2="490.45"/>
  <line class="st2" x1="505.6" y1="490.45" x2="513.95" y2="484.42"/>
  <line class="st2" x1="513.95" y1="484.42" x2="523.89" y2="479.26"/>
  <line class="st2" x1="523.89" y1="479.26" x2="535.14" y2="475.06"/>
  <line class="st2" x1="535.14" y1="475.06" x2="547.41" y2="471.93"/>
  <line class="st2" x1="547.41" y1="471.93" x2="560.38" y2="470.05"/>
  <line class="st2" x1="560.38" y1="470.05" x2="573.73" y2="469.35"/>
  <line class="st2" x1="573.73" y1="469.35" x2="587.08" y2="469.93"/>
  <line class="st2" x1="587.08" y1="469.93" x2="600.15" y2="471.77"/>
  <line class="st2" x1="600.15" y1="471.77" x2="612.48" y2="474.77"/>
  <line class="st2" x1="612.48" y1="474.77" x2="623.83" y2="478.91"/>
  <line class="st2" x1="623.83" y1="478.91" x2="633.83" y2="484.01"/>
  <line class="st2" x1="633.83" y1="484.01" x2="642.34" y2="489.97"/>
  <line class="st2" x1="642.34" y1="489.97" x2="649.03" y2="496.66"/>
  <line class="st2" x1="649.03" y1="496.66" x2="653.75" y2="503.93"/>
  <line class="st2" x1="653.75" y1="503.93" x2="656.43" y2="511.51"/>
  <line class="st2" x1="656.43" y1="511.51" x2="656.9" y2="519.26"/>
  <line class="st2" x1="656.9" y1="519.26" x2="656.9" y2="526.01"/>
  <polyline class="st2" points="656.9 519.26 655.25 526.9 656.9 526.01"/>
  <polyline class="st2" points="655.25 526.9 655.25 533.66 656.9 526.01"/>
  <polyline class="st2" points="655.25 526.9 651.46 534.33 655.25 533.66"/>
  <polyline class="st2" points="651.46 534.33 651.46 541.08 655.25 533.66"/>
  <polyline class="st2" points="569.72 564.83 569.72 571.61 576.18 564.92 569.72 564.83"/>
  <polyline class="st2" points="569.72 571.61 576.18 571.65 576.18 564.92"/>
  <polyline class="st2" points="576.18 571.65 582.72 571.42 576.18 564.92"/>
  <polyline class="st2" points="589.15 570.85 589.15 564.12 582.72 571.42 589.15 570.85"/>
  <polyline class="st2" points="589.15 564.12 582.72 564.63 582.72 571.42"/>
  <line class="st2" x1="582.72" y1="564.63" x2="576.18" y2="564.92"/>
  <polyline class="st2" points="538.2 578.56 544.96 575.41 538.2 571.77 538.2 578.56"/>
  <polyline class="st2" points="544.96 575.41 544.96 568.62 538.2 571.77"/>
  <polyline class="st2" points="544.96 575.41 552.63 573.14 544.96 568.62"/>
  <polyline class="st2" points="552.63 573.14 552.63 566.36 544.96 568.62"/>
  <polyline class="st2" points="552.63 573.14 561.05 571.84 552.63 566.36"/>
  <polyline class="st2" points="561.05 571.84 561.05 565.08 552.63 566.36"/>
  <polyline class="st2" points="561.05 571.84 569.72 571.61 561.05 565.08"/>
  <polyline class="st2" points="569.72 571.61 569.72 564.83 561.05 565.08"/>
  <polyline class="st2" points="364.4 690.13 364.81 685.16 364.4 683.4 364.4 690.13"/>
  <polyline class="st2" points="364.81 685.16 364.81 678.4 364.4 683.4"/>
  <polyline class="st2" points="364.81 685.16 367.01 680.28 364.81 678.4"/>
  <polyline class="st2" points="367.01 680.28 367.01 673.56 364.81 678.4"/>
  <polyline class="st2" points="367.01 680.28 370.96 675.82 367.01 673.56"/>
  <polyline class="st2" points="370.96 675.82 370.96 669.1 367.01 673.56"/>
  <polyline class="st2" points="370.96 675.82 376.41 671.93 370.96 669.1"/>
  <polyline class="st2" points="376.41 671.93 376.41 665.21 370.96 669.1"/>
  <line class="st2" x1="273.06" y1="638.53" x2="286.35" y2="638.38"/>
  <line class="st2" x1="260.03" y1="639.97" x2="273.06" y2="638.53"/>
  <line class="st2" x1="247.51" y1="642.55" x2="260.03" y2="639.97"/>
  <line class="st2" x1="235.88" y1="646.28" x2="247.51" y2="642.55"/>
  <line class="st2" x1="225.45" y1="651.06" x2="235.88" y2="646.28"/>
  <line class="st2" x1="216.47" y1="656.7" x2="225.45" y2="651.06"/>
  <line class="st2" x1="209.17" y1="663.14" x2="216.47" y2="656.7"/>
  <line class="st2" x1="203.75" y1="670.15" x2="209.17" y2="663.14"/>
  <line class="st2" x1="200.31" y1="677.54" x2="203.75" y2="670.15"/>
  <polyline class="st2" points="199 691.94 199 685.19 200.31 677.54"/>
  <polyline class="st2" points="199 691.94 199.83 699.59 199 685.19"/>
  <polyline class="st2" points="199.83 699.59 199.83 692.87 199 685.19"/>
  <polyline class="st2" points="199.83 699.59 202.77 707.08 199.83 692.87"/>
  <polyline class="st2" points="202.77 707.08 202.77 700.33 199.83 692.87"/>
  <polyline class="st2" points="202.77 707.08 207.77 714.19 202.77 700.33"/>
  <polyline class="st2" points="207.77 714.19 207.77 707.43 202.77 700.33"/>
  <polyline class="st2" points="207.77 714.19 214.65 720.75 207.77 707.43"/>
  <polyline class="st2" points="214.65 720.75 214.65 714 207.77 707.43"/>
  <polyline class="st2" points="214.65 720.75 223.26 726.62 214.65 714"/>
  <polyline class="st2" points="223.26 726.62 223.26 719.86 214.65 714"/>
  <polyline class="st2" points="223.26 726.62 233.36 731.59 223.26 719.86"/>
  <polyline class="st2" points="233.36 731.59 233.36 724.8 223.26 719.86"/>
  <polyline class="st2" points="233.36 731.59 244.77 735.54 233.36 724.8"/>
  <polyline class="st2" points="244.77 735.54 244.77 728.78 233.36 724.8"/>
  <polyline class="st2" points="244.77 735.54 257.07 738.44 244.77 728.78"/>
  <polyline class="st2" points="257.07 738.44 257.07 731.68 244.77 728.78"/>
  <polyline class="st2" points="257.07 738.44 270 740.13 257.07 731.68"/>
  <polyline class="st2" points="270 740.13 270 733.34 257.07 731.68"/>
  <polyline class="st2" points="270 740.13 283.26 740.57 270 733.34"/>
  <polyline class="st2" points="283.26 740.57 283.26 733.82 270 733.34"/>
  <polyline class="st2" points="283.26 740.57 296.49 739.81 283.26 733.82"/>
  <polyline class="st2" points="296.49 739.81 296.49 733.08 283.26 733.82"/>
  <polyline class="st2" points="296.49 739.81 309.36 737.86 296.49 733.08"/>
  <polyline class="st2" points="309.36 737.86 309.36 731.11 296.49 733.08"/>
  <polyline class="st2" points="309.36 737.86 321.47 734.71 309.36 731.11"/>
  <polyline class="st2" points="321.47 734.71 321.47 727.95 309.36 731.11"/>
  <polyline class="st2" points="321.47 734.71 332.59 730.5 321.47 727.95"/>
  <polyline class="st2" points="332.59 730.5 332.59 723.75 321.47 727.95"/>
  <polyline class="st2" points="332.59 730.5 342.41 725.34 332.59 723.75"/>
  <polyline class="st2" points="342.41 725.34 342.41 718.55 332.59 723.75"/>
  <polyline class="st2" points="342.41 725.34 350.63 719.29 342.41 718.55"/>
  <polyline class="st2" points="350.63 719.29 350.63 712.56 342.41 718.55"/>
  <polyline class="st2" points="350.63 719.29 357.07 712.59 350.63 712.56"/>
  <polyline class="st2" points="357.07 712.59 357.07 705.87 350.63 712.56"/>
  <polyline class="st2" points="357.07 712.59 361.59 705.36 357.07 705.87"/>
  <polyline class="st2" points="361.59 705.36 361.59 698.64 357.07 705.87"/>
  <polyline class="st2" points="361.59 705.36 364.04 697.84 361.59 698.64"/>
  <polyline class="st2" points="364.04 697.84 364.04 691.05 361.59 698.64"/>
  <polyline class="st2" points="364.04 697.84 364.4 690.13 364.04 691.05"/>
  <polyline class="st2" points="364.4 690.13 364.4 683.4 364.04 691.05"/>
  <line class="st2" x1="311.15" y1="634.55" x2="317.9" y2="631.4"/>
  <line class="st2" x1="303.4" y1="636.81" x2="311.15" y2="634.55"/>
  <line class="st2" x1="295.05" y1="638.09" x2="303.4" y2="636.81"/>
  <line class="st2" x1="286.35" y1="638.38" x2="295.05" y2="638.09"/>
  <polyline class="st2" points="598.81 555.11 599.32 557.46 599.32 564.22"/>
  <polyline class="st2" points="599.32 557.46 598.4 566.58 599.32 564.22"/>
  <polyline class="st2" points="599.32 557.46 598.4 559.79 598.4 566.58"/>
  <polyline class="st2" points="598.4 559.79 596.2 568.59 598.4 566.58"/>
  <polyline class="st2" points="598.4 559.79 596.2 561.8 596.2 568.59"/>
  <polyline class="st2" points="596.2 561.8 593.01 570.08 596.2 568.59"/>
  <polyline class="st2" points="596.2 561.8 593.01 563.33 593.01 570.08"/>
  <polyline class="st2" points="593.01 563.33 589.15 570.85 593.01 570.08"/>
  <polyline class="st2" points="593.01 563.33 589.15 564.12 589.15 570.85"/>
  <polyline class="st2" points="629.21 542.2 632.27 544.18 629.21 535.44 629.21 542.2"/>
  <polyline class="st2" points="632.27 544.18 632.27 537.42 629.21 535.44"/>
  <polyline class="st2" points="632.27 544.18 636.35 545.39 632.27 537.42"/>
  <polyline class="st2" points="636.35 545.39 636.35 538.63 632.27 537.42"/>
  <polyline class="st2" points="636.35 545.39 640.94 545.64 636.35 538.63"/>
  <polyline class="st2" points="640.94 545.64 640.94 538.92 636.35 538.63"/>
  <polyline class="st2" points="640.94 545.64 645.37 544.94 640.94 538.92"/>
  <polyline class="st2" points="645.37 544.94 645.37 538.15 640.94 538.92"/>
  <polyline class="st2" points="645.37 544.94 649.03 543.32 645.37 538.15"/>
  <polyline class="st2" points="649.03 543.32 649.03 536.59 645.37 538.15"/>
  <polyline class="st2" points="649.03 543.32 651.46 541.08 649.03 536.59"/>
  <polyline class="st2" points="651.46 541.08 651.46 534.33 649.03 536.59"/>
  <line class="st2" x1="556.71" y1="513.77" x2="567.96" y2="520.98"/>
  <line class="st2" x1="567.96" y1="520.98" x2="577.91" y2="528.75"/>
  <line class="st2" x1="577.91" y1="528.75" x2="586.45" y2="537.1"/>
  <line class="st2" x1="586.45" y1="537.1" x2="593.39" y2="545.96"/>
  <line class="st2" x1="593.39" y1="545.96" x2="598.81" y2="555.11"/>
  <line class="st2" x1="491.23" y1="524.86" x2="491.64" y2="519.83"/>
  <line class="st2" x1="489" y1="529.68" x2="491.23" y2="524.86"/>
  <line class="st2" x1="485.08" y1="534.17" x2="489" y2="529.68"/>
  <line class="st2" x1="479.6" y1="538.09" x2="485.08" y2="534.17"/>
  <line class="st2" x1="553.3" y1="510.91" x2="556.71" y2="513.77"/>
  <line class="st2" x1="551.9" y1="507.53" x2="553.3" y2="510.91"/>
  <polyline class="st2" points="552.35 508.58 552.7 504.06 551.9 507.53"/>
  <line class="st2" x1="552.7" y1="509.38" x2="552.7" y2="504.06"/>
  <polyline class="st2" points="553.08 510.36 555.53 507.78 552.7 504.06"/>
  <polyline class="st2" points="555.53 507.78 555.53 501.06 552.7 504.06"/>
  <polyline class="st2" points="555.53 507.78 560.09 505.52 555.53 501.06"/>
  <polyline class="st2" points="560.09 505.52 560.09 498.77 555.53 501.06"/>
  <polyline class="st2" points="560.09 505.52 565.73 504.34 560.09 498.77"/>
  <polyline class="st2" points="565.73 504.34 565.73 497.59 560.09 498.77"/>
  <polyline class="st2" points="565.73 504.34 571.79 504.41 565.73 497.59"/>
  <polyline class="st2" points="571.79 504.41 571.79 497.68 565.73 497.59"/>
  <polyline class="st2" points="571.79 504.41 577.33 505.74 571.79 497.68"/>
  <polyline class="st2" points="577.33 505.74 577.33 498.96 571.79 497.68"/>
  <polyline class="st2" points="577.33 498.96 577.33 505.74 592.05 507.21 577.33 498.96"/>
  <polyline class="st2" points="577.33 505.74 592.05 513.97 592.05 507.21"/>
  <polyline class="st2" points="592.05 513.97 605.66 516.07 592.05 507.21"/>
  <polyline class="st2" points="592.05 513.97 605.66 522.86 605.66 516.07"/>
  <polyline class="st2" points="605.66 522.86 618.03 525.5 605.66 516.07"/>
  <polyline class="st2" points="605.66 522.86 618.03 532.26 618.03 525.5"/>
  <polyline class="st2" points="618.03 532.26 629.21 535.44 618.03 525.5"/>
  <polyline class="st2" points="618.03 532.26 629.21 542.2 629.21 535.44"/>
  <polyline class="st2" points="569.72 564.83 576.18 564.92 582.72 564.63 589.15 564.12"/>
  <polyline class="st2" points="589.15 564.12 591.61 563.74 593.87 562.98 595.85 562.02 597.44 560.84 598.56 559.54 599.16 558.07 599.32 556.6 598.81 555.11"/>
  <polyline class="st2" points="629.21 535.44 630.87 536.72 633 537.74 635.46 538.47 638.13 538.85 640.94 538.92 643.65 538.6 646.13 537.96 648.36 536.97 650.18 535.76 651.46 534.33"/>
  <polyline class="st2" points="651.46 534.33 653.81 530.28 655.5 526.17 656.55 521.93 657 517.69 656.75 513.42 655.85 509.19 654.29 505.04 652.12 500.96 649.35 497.01 645.91 493.25 641.93 489.65 637.43 486.31 632.43 483.18 626.98 480.31 621.12 477.76 614.84 475.47 608.24 473.56 601.42 472.03 594.32 470.79 587.08 469.93 579.79 469.48 572.39 469.35 565.03 469.67 557.77 470.31 550.6 471.36 543.62 472.76 536.92 474.51 530.49 476.59 524.4 478.98 518.73 481.68 513.47 484.71 508.75 487.96 504.48 491.47 500.82 495.13 497.73 498.99 495.21 503 493.33 507.15 492.12 511.32 491.55 515.59 491.64 519.83"/>
  <polyline class="st2" points="491.64 519.83 491.64 522.73 491 525.57 489.79 528.31 488.04 531.01 485.71 533.56 482.88 535.92 479.6 538.09"/>
  <line class="st2" x1="479.6" y1="538.09" x2="317.9" y2="631.4"/>
  <polyline class="st2" points="317.9 631.4 314.17 633.34 310.09 634.93 305.73 636.27 301.08 637.32 296.26 638.02 291.32 638.38 286.35 638.38"/>
  <polyline class="st2" points="286.35 638.38 278.99 638.31 271.6 638.66 264.33 639.36 257.19 640.45 250.22 641.91 243.52 643.7 237.15 645.83 231.09 648.29 225.45 651.06 220.29 654.09 215.54 657.4 211.4 660.91 207.8 664.63 204.8 668.52 202.38 672.54 200.63 676.71 199.48 680.92 199 685.19 199.23 689.43 200.06 693.7 201.55 697.84 203.69 701.95 206.49 705.9 209.81 709.69 213.76 713.3 218.28 716.7 223.26 719.86 228.7 722.7 234.57 725.28 240.81 727.57 247.41 729.55 254.26 731.11 261.34 732.35 268.57 733.21 275.93 733.75 283.26 733.82 290.65 733.56 297.98 732.89 305.15 731.91 312.13 730.5 318.86 728.75 325.33 726.68 331.41 724.29 337.12 721.58 342.41 718.55 347.19 715.3 351.43 711.8 355.15 708.13 358.25 704.28 360.76 700.26 362.64 696.15 363.85 691.94 364.46 687.71 364.4 683.4"/>
  <polyline class="st2" points="364.4 683.4 364.4 680.57 365 677.7 366.21 674.9 367.96 672.25 370.29 669.7 373.13 667.34 376.41 665.21"/>
  <line class="st2" x1="376.41" y1="665.21" x2="538.2" y2="571.77"/>
  <polyline class="st2" points="538.2 571.77 541.86 569.89 546.01 568.27 550.37 566.93 555.02 565.91 559.84 565.21 564.71 564.86 569.72 564.83"/>
  <polyline class="st2" points="294.86 678.46 292.47 677.29 289.76 676.36 286.83 675.69 283.71 675.34 280.55 675.31 277.4 675.6 274.43 676.17 271.63 677 269.14 678.15 266.98 679.45 265.29 680.98 264.05 682.7 263.31 684.46 263.09 686.3 263.44 688.09 264.33 689.84 265.67 691.5 267.52 693 269.75 694.27 272.3 695.32 275.17 696.09 278.19 696.63 281.35 696.79 284.5 696.66 287.56 696.28 290.46 695.51 293.11 694.56 295.43 693.35 297.38 691.88 298.84 690.29 299.83 688.53 300.31 686.72 300.25 684.9 299.64 683.15 298.49 681.43 296.93 679.87 294.86 678.46"/>
  <polyline class="st2" points="599.22 564.44 599.16 564.83 598.56 566.26 598.43 566.45"/>
  <polyline class="st2" points="598.17 566.74 597.44 567.63 596.42 568.36"/>
  <polyline class="st2" points="596.07 568.62 595.85 568.81 593.87 569.77 593.27 569.96"/>
  <polyline class="st2" points="592.6 570.15 591.61 570.47 589.15 570.85"/>
  <polyline class="st2" points="651.46 541.08 650.18 542.49 649.26 543.12"/>
  <polyline class="st2" points="648.78 543.47 648.36 543.73 646.13 544.69 645.62 544.81"/>
  <polyline class="st2" points="644.92 545 643.65 545.35 640.94 545.64 638.13 545.61 636.83 545.39"/>
  <polyline class="st2" points="636.06 545.29 635.46 545.23 633 544.46 632.53 544.24"/>
  <polyline class="st2" points="631.95 543.98 630.87 543.47 629.21 542.2"/>
  <line class="st2" x1="619.01" y1="533.09" x2="617.48" y2="531.81"/>
  <line class="st2" x1="606.65" y1="523.59" x2="604.51" y2="522.09"/>
  <line class="st2" x1="592.69" y1="514.41" x2="590.78" y2="513.26"/>
  <line class="st2" x1="572.07" y1="504.47" x2="571.63" y2="504.41"/>
  <line class="st2" x1="566.18" y1="504.34" x2="565.51" y2="504.37"/>
  <line class="st2" x1="560.54" y1="505.43" x2="559.84" y2="505.65"/>
  <line class="st2" x1="555.85" y1="507.62" x2="555.31" y2="508.01"/>
  <line class="st2" x1="290.02" y1="683.18" x2="289.83" y2="683.15"/>
  <line class="st2" x1="284.28" y1="682.16" x2="283.93" y2="682.13"/>
  <line class="st2" x1="278.23" y1="682.26" x2="277.75" y2="682.32"/>
  <line class="st2" x1="272.55" y1="683.5" x2="272.01" y2="683.66"/>
  <line class="st2" x1="267.81" y1="685.73" x2="267.39" y2="685.98"/>
  <line class="st2" x1="264.62" y1="688.69" x2="264.33" y2="689.04"/>
  <line class="st2" x1="298.46" y1="688.12" x2="298.37" y2="687.99"/>
  <line class="st2" x1="651.46" y1="534.33" x2="651.46" y2="541.08"/>
  <polyline class="st2" points="651.46 541.08 653.81 537.07 654.99 534.17"/>
  <polyline class="st2" points="655.28 533.4 655.5 532.93 656.55 528.72 656.78 526.62"/>
  <polyline class="st2" points="656.9 525.21 657 524.45 656.9 523.14"/>
  <polyline class="st2" points="569.72 571.61 576.18 571.65 582.72 571.42 589.15 570.85"/>
  <line class="st2" x1="589.15" y1="570.85" x2="589.15" y2="564.12"/>
  <line class="st2" x1="569.72" y1="564.83" x2="569.72" y2="571.61"/>
  <line class="st2" x1="538.2" y1="571.77" x2="538.2" y2="578.56"/>
  <line class="st2" x1="544.32" y1="575.69" x2="545.31" y2="575.28"/>
  <line class="st2" x1="552.03" y1="573.3" x2="553.34" y2="573.02"/>
  <line class="st2" x1="560.67" y1="571.9" x2="561.78" y2="571.84"/>
  <line class="st2" x1="376.41" y1="665.21" x2="376.41" y2="671.93"/>
  <line class="st2" x1="376.41" y1="671.93" x2="538.2" y2="578.56"/>
  <line class="st2" x1="364.4" y1="683.4" x2="364.4" y2="690.13"/>
  <line class="st2" x1="364.78" y1="685.6" x2="364.91" y2="684.93"/>
  <line class="st2" x1="366.85" y1="680.69" x2="367.36" y2="679.93"/>
  <line class="st2" x1="370.77" y1="676.04" x2="371.44" y2="675.53"/>
  <polyline class="st2" points="199 691.94 199.23 696.18 199.8 699.02"/>
  <polyline class="st2" points="199.96 699.85 200.06 700.42 201.55 704.63 202.51 706.48"/>
  <polyline class="st2" points="203.12 707.56 203.69 708.71 206.49 712.63 207.42 713.74"/>
  <polyline class="st2" points="208.34 714.73 209.81 716.45 213.76 720.05 214.36 720.53"/>
  <polyline class="st2" points="215.26 721.17 218.28 723.46 223.26 726.62 228.7 729.48 232.62 731.2"/>
  <polyline class="st2" points="233.77 731.71 234.57 732.06 240.81 734.36 243.78 735.22"/>
  <polyline class="st2" points="245.53 735.76 247.41 736.27 254.26 737.9 256.21 738.22"/>
  <polyline class="st2" points="258.15 738.57 261.34 739.11 268.57 740 269.53 740.03"/>
  <polyline class="st2" points="271.02 740.13 275.93 740.48 283.26 740.57 290.65 740.32 295.53 739.87"/>
  <polyline class="st2" points="296.96 739.74 297.98 739.65 305.15 738.63 308.28 738.02"/>
  <polyline class="st2" points="310.16 737.64 312.13 737.23 318.86 735.54 320.71 734.93"/>
  <polyline class="st2" points="322.39 734.36 325.33 733.44 331.41 731.01 332.18 730.66"/>
  <polyline class="st2" points="333.29 730.12 337.12 728.3 342.41 725.34 347.19 722.06 350.02 719.73"/>
  <polyline class="st2" points="350.85 719.03 351.43 718.59 355.15 714.89 356.56 713.17"/>
  <polyline class="st2" points="357.38 712.12 358.25 711.03 360.76 706.99 361.27 705.87"/>
  <polyline class="st2" points="361.81 704.75 362.64 702.87 363.85 698.67 363.95 698.09"/>
  <polyline class="st2" points="364.08 697.27 364.46 694.43 364.4 690.13"/>
  <polyline class="st2" points="556.71 513.77 563.88 518.2 570.61 522.86 576.73 527.73 582.37 532.86 587.37 538.22 591.83 543.67 595.62 549.34 598.81 555.11"/>
  <line class="st2" x1="577.33" y1="505.74" x2="577.33" y2="498.96"/>
  <polyline class="st2" points="577.33 498.96 574.5 498.13 571.37 497.62 568.15 497.46 564.94 497.68 561.88 498.26 559.07 499.12 556.59 500.36 554.58 501.79 553.08 503.42 552.16 505.2 551.87 507.05 552.22 508.93 553.18 510.68 554.67 512.34 556.71 513.77"/>
  <line class="st2" x1="629.21" y1="542.2" x2="629.21" y2="535.44"/>
  <polyline class="st2" points="629.21 535.44 623 529.71 616.34 524.1 609.29 518.75 601.84 513.49 594.06 508.45 585.87 503.58 577.33 498.96"/>
</svg>