<?xml version="1.0" encoding="UTF-8"?>
<svg id="Layer_1" xmlns="http://www.w3.org/2000/svg" version="1.1" viewBox="0 0 858.56 916.92">
  <!-- Generator: Adobe Illustrator 30.3.0, SVG Export Plug-In . SVG Version: 2.1.3 Build 182)  -->
  <defs>
    <style>
      .st0, .st1 {
        stroke: #000;
      }

      .st0, .st1, .st2 {
        stroke-linecap: square;
        stroke-miterlimit: 10;
      }

      .st0, .st2 {
        fill: none;
        stroke-width: .06px;
      }

      .st1 {
        fill: #f2f2f2;
        stroke-width: .5px;
      }

      .st2 {
        stroke: #00d7d7;
      }
    </style>
  </defs>
  <line class="st0" x1="858.53" y1="916.89" x2="858.53" y2="916.89"/>
  <line class="st0" x1="858.53" y1="916.89" x2="858.53" y2="916.89"/>
  <line class="st0" x1="858.53" y1="916.89" x2="858.53" y2="916.89"/>
  <line class="st0" x1="858.53" y1="916.89" x2="858.53" y2="916.89"/>
  <line class="st0" x1="858.53" y1="916.89" x2="858.53" y2="916.89"/>
  <line class="st0" x1="858.53" y1="916.89" x2="858.53" y2="916.89"/>
  <line class="st0" x1="858.53" y1="916.89" x2="858.53" y2="916.89"/>
  <line class="st0" x1="858.53" y1="916.89" x2="858.53" y2="916.89"/>
  <line class="st0" x1="858.53" y1="916.89" x2="858.53" y2="916.89"/>
  <line class="st0" x1="858.53" y1="916.89" x2="858.53" y2="916.89"/>
  <line class="st0" x1="858.53" y1="916.89" x2="858.53" y2="916.89"/>
  <line class="st0" x1="858.53" y1="916.89" x2="858.53" y2="916.89"/>
  <line class="st0" x1="858.53" y1="916.89" x2="858.53" y2="916.89"/>
  <line class="st0" x1="858.53" y1="916.89" x2="858.53" y2="916.89"/>
  <line class="st0" x1="858.53" y1="916.89" x2="858.53" y2="916.89"/>
  <line class="st0" x1="858.53" y1="916.89" x2="858.53" y2="916.89"/>
  <line class="st0" x1="858.53" y1="916.89" x2="858.53" y2="916.89"/>
  <line class="st0" x1="858.53" y1="916.89" x2="858.53" y2="916.89"/>
  <line class="st0" x1="858.53" y1="916.89" x2="858.53" y2="916.89"/>
  <line class="st0" x1="858.53" y1="916.89" x2="858.53" y2="916.89"/>
  <line class="st0" x1="858.53" y1="916.89" x2="858.53" y2="916.89"/>
  <line class="st0" x1="858.53" y1="916.89" x2="858.53" y2="916.89"/>
  <line class="st0" x1="858.53" y1="916.89" x2="858.53" y2="916.89"/>
  <line class="st0" x1="858.53" y1="916.89" x2="858.53" y2="916.89"/>
  <line class="st0" x1="858.53" y1="916.89" x2="858.53" y2="916.89"/>
  <line class="st0" x1="858.53" y1="916.89" x2="858.53" y2="916.89"/>
  <line class="st0" x1="858.53" y1="916.89" x2="858.53" y2="916.89"/>
  <line class="st0" x1="858.53" y1="916.89" x2="858.53" y2="916.89"/>
  <line class="st0" x1="858.53" y1="916.89" x2="858.53" y2="916.89"/>
  <line class="st0" x1="858.53" y1="916.89" x2="858.53" y2="916.89"/>
  <line class="st0" x1="858.53" y1="916.89" x2="858.53" y2="916.89"/>
  <line class="st0" x1="858.53" y1="916.89" x2="858.53" y2="916.89"/>
  <line class="st0" x1="858.53" y1="916.89" x2="858.53" y2="916.89"/>
  <line class="st0" x1="858.53" y1="916.89" x2="858.53" y2="916.89"/>
  <line class="st0" x1="858.53" y1="916.89" x2="858.53" y2="916.89"/>
  <line class="st0" x1="858.53" y1="916.89" x2="858.53" y2="916.89"/>
  <line class="st0" x1="858.53" y1="916.89" x2="858.53" y2="916.89"/>
  <line class="st0" x1="858.53" y1="916.89" x2="858.53" y2="916.89"/>
  <line class="st0" x1="858.53" y1="916.89" x2="858.53" y2="916.89"/>
  <line class="st0" x1="858.53" y1="916.89" x2="858.53" y2="916.89"/>
  <line class="st2" x1="228.77" y1="903.99" x2="228.77" y2="903.99"/>
  <line class="st2" x1="228.77" y1="903.99" x2="228.77" y2="903.99"/>
  <line class="st2" x1="228.77" y1="903.99" x2="228.77" y2="903.99"/>
  <line class="st2" x1="228.77" y1="903.99" x2="228.77" y2="903.99"/>
  <line class="st2" x1="228.77" y1="903.99" x2="228.77" y2="903.99"/>
  <line class="st2" x1="228.77" y1="903.99" x2="228.77" y2="903.99"/>
  <line class="st2" x1="228.77" y1="903.99" x2="228.77" y2="903.99"/>
  <line class="st2" x1="228.77" y1="903.99" x2="228.77" y2="903.99"/>
  <line class="st2" x1="228.77" y1="903.99" x2="228.77" y2="903.99"/>
  <line class="st2" x1="228.77" y1="903.99" x2="228.77" y2="903.99"/>
  <line class="st2" x1="228.77" y1="903.99" x2="228.77" y2="903.99"/>
  <line class="st2" x1="228.77" y1="903.99" x2="228.77" y2="903.99"/>
  <line class="st2" x1="228.77" y1="903.99" x2="228.77" y2="903.99"/>
  <line class="st2" x1="228.77" y1="903.99" x2="228.77" y2="903.99"/>
  <line class="st2" x1="228.77" y1="903.99" x2="228.77" y2="903.99"/>
  <line class="st2" x1="228.77" y1="903.99" x2="228.77" y2="903.99"/>
  <line class="st2" x1="228.77" y1="903.99" x2="228.77" y2="903.99"/>
  <line class="st2" x1="228.77" y1="903.99" x2="228.77" y2="903.99"/>
  <line class="st2" x1="228.77" y1="903.99" x2="228.77" y2="903.99"/>
  <line class="st2" x1="228.77" y1="903.99" x2="228.77" y2="903.99"/>
  <line class="st2" x1="228.77" y1="903.99" x2="228.77" y2="903.99"/>
  <line class="st2" x1="228.77" y1="903.99" x2="228.77" y2="903.99"/>
  <line class="st2" x1="228.77" y1="903.99" x2="228.77" y2="903.99"/>
  <line class="st2" x1="228.77" y1="903.99" x2="228.77" y2="903.99"/>
  <line class="st2" x1="228.77" y1="903.99" x2="228.77" y2="903.99"/>
  <line class="st2" x1="228.77" y1="903.99" x2="228.77" y2="903.99"/>
  <line class="st2" x1="228.77" y1="903.99" x2="228.77" y2="903.99"/>
  <line class="st2" x1="228.77" y1="903.99" x2="228.77" y2="903.99"/>
  <line class="st2" x1="228.77" y1="903.99" x2="228.77" y2="903.99"/>
  <line class="st2" x1="228.77" y1="903.99" x2="228.77" y2="903.99"/>
  <line class="st2" x1="228.77" y1="903.99" x2="228.77" y2="903.99"/>
  <line class="st2" x1="228.77" y1="903.99" x2="228.77" y2="903.99"/>
  <line class="st2" x1="228.77" y1="903.99" x2="228.77" y2="903.99"/>
  <line class="st2" x1="228.77" y1="903.99" x2="228.77" y2="903.99"/>
  <line class="st2" x1="228.77" y1="903.99" x2="228.77" y2="903.99"/>
  <line class="st2" x1="228.77" y1="903.99" x2="228.77" y2="903.99"/>
  <line class="st2" x1="228.77" y1="903.99" x2="228.77" y2="903.99"/>
  <line class="st2" x1="228.77" y1="903.99" x2="228.77" y2="903.99"/>
  <line class="st2" x1="228.77" y1="903.99" x2="228.77" y2="903.99"/>
  <line class="st2" x1="228.77" y1="903.99" x2="228.77" y2="903.99"/>
  <line class="st2" x1="228.77" y1="903.99" x2="228.77" y2="903.99"/>
  <line class="st2" x1="228.77" y1="903.99" x2="228.77" y2="903.99"/>
  <line class="st2" x1="228.77" y1="903.99" x2="228.77" y2="903.99"/>
  <line class="st2" x1="228.77" y1="903.99" x2="228.77" y2="903.99"/>
  <line class="st2" x1="228.77" y1="903.99" x2="228.77" y2="903.99"/>
  <line class="st2" x1="228.77" y1="903.99" x2="228.77" y2="903.99"/>
  <line class="st2" x1="228.77" y1="903.99" x2="228.77" y2="903.99"/>
  <line class="st2" x1="228.77" y1="903.99" x2="228.77" y2="903.99"/>
  <line class="st2" x1="228.77" y1="903.99" x2="228.77" y2="903.99"/>
  <line class="st2" x1="228.77" y1="903.99" x2="228.77" y2="903.99"/>
  <line class="st2" x1="228.77" y1="903.99" x2="228.77" y2="903.99"/>
  <line class="st2" x1="228.77" y1="903.99" x2="228.77" y2="903.99"/>
  <line class="st2" x1="228.77" y1="903.99" x2="228.77" y2="903.99"/>
  <line class="st2" x1="228.77" y1="903.99" x2="228.77" y2="903.99"/>
  <line class="st2" x1="228.77" y1="903.99" x2="228.77" y2="903.99"/>
  <line class="st2" x1="228.77" y1="903.99" x2="228.77" y2="903.99"/>
  <line class="st2" x1="228.77" y1="903.99" x2="228.77" y2="903.99"/>
  <line class="st2" x1="228.77" y1="903.99" x2="228.77" y2="903.99"/>
  <line class="st2" x1="228.77" y1="903.99" x2="228.77" y2="903.99"/>
  <line class="st2" x1="228.77" y1="903.99" x2="228.77" y2="903.99"/>
  <line class="st2" x1="228.77" y1="903.99" x2="228.77" y2="903.99"/>
  <line class="st2" x1="228.77" y1="903.99" x2="228.77" y2="903.99"/>
  <line class="st2" x1="228.77" y1="903.99" x2="228.77" y2="903.99"/>
  <line class="st2" x1="228.77" y1="903.99" x2="228.77" y2="903.99"/>
  <line class="st2" x1="228.77" y1="903.99" x2="228.77" y2="903.99"/>
  <line class="st2" x1="228.77" y1="903.99" x2="228.77" y2="903.99"/>
  <line class="st2" x1="228.77" y1="903.99" x2="228.77" y2="903.99"/>
  <line class="st2" x1="228.77" y1="903.99" x2="228.77" y2="903.99"/>
  <line class="st2" x1="228.77" y1="903.99" x2="228.77" y2="903.99"/>
  <line class="st2" x1="228.77" y1="903.99" x2="228.77" y2="903.99"/>
  <line class="st2" x1="228.77" y1="903.99" x2="228.77" y2="903.99"/>
  <line class="st2" x1="228.77" y1="903.99" x2="228.77" y2="903.99"/>
  <line class="st2" x1="228.77" y1="903.99" x2="228.77" y2="903.99"/>
  <line class="st2" x1="228.77" y1="903.99" x2="228.77" y2="903.99"/>
  <line class="st2" x1="228.77" y1="903.99" x2="228.77" y2="903.99"/>
  <line class="st2" x1="228.77" y1="903.99" x2="228.77" y2="903.99"/>
  <line class="st2" x1="228.77" y1="903.99" x2="228.77" y2="903.99"/>
  <line class="st2" x1="228.77" y1="903.99" x2="228.77" y2="903.99"/>
  <line class="st2" x1="228.77" y1="903.99" x2="228.77" y2="903.99"/>
  <line class="st2" x1="228.77" y1="903.99" x2="228.77" y2="903.99"/>
  <polyline class="st1" points="550.78 822.39 552.42 821.93 554.09 821.41 555.73 820.82 557.3 820.16 558.87 819.39 560.37 818.52 561.83 817.61 563.26 816.63 564.66 815.59 565.98 814.47 567.2 813.29 568.46 812.03 569.54 810.71 570.62 809.38 571.67 807.95 572.57 806.49 573.41 804.99 574.21 803.42 574.87 801.82 575.5 800.21 576.06 798.57 576.48 796.9"/>
  <polyline class="st1" points="576.48 796.9 579.02 786.16 581.46 775.39 583.87 764.58 586.2 753.81 588.37 743 590.53 732.15 592.59 721.31 594.54 710.43 596.46 699.59 598.23 688.68 599.98 677.73 601.58 666.85 603.15 655.9 604.61 644.99 605.97 633.97 607.3 623.02 608.52 612.08 609.67 601.09 610.68 590.07 611.66 579.13 612.53 568.07 613.37 557.06 614.06 546.04 614.73 535.06 615.25 523.97 615.74 512.99 616.12 501.93 616.4 490.92 616.61 479.86 616.71 468.81 616.78 457.79 616.71 446.74 616.61 435.65 616.4 424.67 616.12 413.62 615.74 402.53 615.25 391.55 614.73 380.53 614.06 369.48 613.37 358.46 612.53 347.48 611.66 336.46 610.68 325.44 609.67 314.46 608.52 303.51 607.3 292.49 605.97 281.54 604.61 270.6 603.15 259.65 601.58 248.7 599.98 237.79 598.23 226.87 596.46 216 594.54 205.08 592.59 194.24 590.53 183.36 588.37 172.55 586.2 161.71 583.87 150.94 581.46 140.16 579.02 129.35 576.48 118.62"/>
  <polyline class="st1" points="305.18 822.39 311.88 823.85 318.64 825.25 325.37 826.61 332.14 827.86 338.93 829.05 345.7 830.09 352.53 831.1 359.37 831.98 366.2 832.85 373.03 833.54 379.87 834.21 386.74 834.73 393.57 835.22 400.44 835.6 407.34 835.92 414.21 836.16 421.11 836.26 427.98 836.3 434.82 836.26 441.72 836.16 448.59 835.92 455.49 835.6 462.36 835.22 469.19 834.73 476.1 834.21 482.93 833.54 489.73 832.85 496.56 831.98 503.4 831.1 510.23 830.09 517.03 829.05 523.79 827.86 530.56 826.61 537.29 825.25 544.05 823.85 550.78 822.39"/>
  <polyline class="st1" points="550.78 822.39 552.42 821.93 554.09 821.41 555.73 820.82 557.3 820.16 558.87 819.39 560.37 818.52 561.83 817.61 563.26 816.63 564.66 815.59 565.98 814.47 567.2 813.29 568.46 812.03 569.54 810.71 570.62 809.38 571.67 807.95 572.57 806.49 573.41 804.99 574.21 803.42 574.87 801.82 575.5 800.21 576.06 798.57 576.48 796.9"/>
  <polyline class="st1" points="576.48 796.9 579.02 786.16 581.46 775.39 583.87 764.58 586.2 753.81 588.37 743 590.53 732.15 592.59 721.31 594.54 710.43 596.46 699.59 598.23 688.68 599.98 677.73 601.58 666.85 603.15 655.9 604.61 644.99 605.97 633.97 607.3 623.02 608.52 612.08 609.67 601.09 610.68 590.07 611.66 579.13 612.53 568.07 613.37 557.06 614.06 546.04 614.73 535.06 615.25 523.97 615.74 512.99 616.12 501.93 616.4 490.92 616.61 479.86 616.71 468.81 616.78 457.79 616.71 446.74 616.61 435.65 616.4 424.67 616.12 413.62 615.74 402.53 615.25 391.55 614.73 380.53 614.06 369.48 613.37 358.46 612.53 347.48 611.66 336.46 610.68 325.44 609.67 314.46 608.52 303.51 607.3 292.49 605.97 281.54 604.61 270.6 603.15 259.65 601.58 248.7 599.98 237.79 598.23 226.87 596.46 216 594.54 205.08 592.59 194.24 590.53 183.36 588.37 172.55 586.2 161.71 583.87 150.94 581.46 140.16 579.02 129.35 576.48 118.62"/>
  <polyline class="st1" points="576.48 118.62 576.06 116.94 575.5 115.3 574.87 113.7 574.21 112.13 573.41 110.56 572.57 109.03 571.67 107.56 570.62 106.17 569.54 104.81 568.46 103.48 567.2 102.26 565.98 101.08 564.66 99.93 563.26 98.88 561.83 97.91 560.37 97 558.87 96.2 557.3 95.43 555.73 94.73 554.09 94.1 552.42 93.62 550.78 93.2"/>
  <polyline class="st1" points="550.78 93.2 544.05 91.7 537.29 90.27 530.56 88.91 523.79 87.65 517.03 86.54 510.23 85.46 503.4 84.48 496.56 83.54 489.73 82.74 482.93 81.97 476.1 81.34 469.19 80.79 462.36 80.3 455.49 79.91 448.59 79.6 441.72 79.39 434.82 79.25 427.98 79.22 421.11 79.25 414.21 79.39 407.34 79.6 400.44 79.91 393.57 80.3 386.74 80.79 379.87 81.34 373.03 81.97 366.2 82.74 359.37 83.54 352.53 84.48 345.7 85.46 338.93 86.54 332.14 87.65 325.37 88.91 318.64 90.27 311.88 91.7 305.18 93.2"/>
  <polyline class="st1" points="305.18 93.2 303.51 93.62 301.84 94.1 300.2 94.73 298.63 95.43 297.06 96.2 295.56 97 294.1 97.91 292.67 98.88 291.27 99.93 289.98 101.08 288.73 102.26 287.54 103.48 286.39 104.81 285.31 106.17 284.33 107.56 283.36 109.03 282.56 110.56 281.79 112.13 281.09 113.7 280.43 115.3 279.94 116.94 279.45 118.62"/>
  <polyline class="st1" points="279.45 118.62 276.91 129.35 274.47 140.16 272.06 150.94 269.76 161.71 267.56 172.55 265.4 183.36 263.34 194.24 261.39 205.08 259.51 216 257.7 226.87 255.99 237.79 254.35 248.7 252.78 259.65 251.32 270.6 249.96 281.54 248.67 292.49 247.41 303.44 246.26 314.46 245.25 325.44 244.27 336.46 243.4 347.48 242.6 358.46 241.87 369.48 241.24 380.53 240.68 391.55 240.19 402.53 239.81 413.62 239.53 424.67 239.32 435.65 239.22 446.74 239.18 457.79 239.22 468.81 239.32 479.86 239.53 490.92 239.81 501.93 240.19 512.99 240.68 523.97 241.24 535.06 241.87 546.04 242.6 557.06 243.4 568.07 244.27 579.06 245.25 590.07 246.26 601.09 247.41 612.08 248.67 623.02 249.96 633.97 251.32 644.99 252.78 655.9 254.35 666.85 255.99 677.73 257.7 688.68 259.51 699.59 261.39 710.43 263.34 721.31 265.4 732.15 267.56 743 269.76 753.81 272.06 764.58 274.47 775.39 276.91 786.16 279.45 796.9"/>
  <polyline class="st1" points="279.45 796.9 279.94 798.57 280.43 800.21 281.09 801.82 281.79 803.42 282.56 804.99 283.36 806.49 284.33 807.95 285.31 809.38 286.39 810.71 287.54 812.03 288.73 813.29 289.98 814.47 291.27 815.59 292.67 816.63 294.1 817.61 295.56 818.52 297.06 819.39 298.63 820.16 300.2 820.82 301.84 821.41 303.51 821.93 305.18 822.39"/>
  <polyline class="st1" points="279.45 796.9 279.94 798.57 280.43 800.21 281.09 801.82 281.79 803.42 282.56 804.99 283.36 806.49 284.33 807.95 285.31 809.38 286.39 810.71 287.54 812.03 288.73 813.29 289.98 814.47 291.27 815.59 292.67 816.63 294.1 817.61 295.56 818.52 297.06 819.39 298.63 820.16 300.2 820.82 301.84 821.41 303.51 821.93 305.18 822.39"/>
  <polyline class="st1" points="305.18 822.39 311.88 823.85 318.64 825.25 325.37 826.61 332.14 827.86 338.93 829.05 345.7 830.09 352.53 831.1 359.37 831.98 366.2 832.85 373.03 833.54 379.87 834.21 386.74 834.73 393.57 835.22 400.44 835.6 407.34 835.92 414.21 836.16 421.11 836.26 427.98 836.3 434.82 836.26 441.72 836.16 448.59 835.92 455.49 835.6 462.36 835.22 469.19 834.73 476.1 834.21 482.93 833.54 489.73 832.85 496.56 831.98 503.4 831.1 510.23 830.09 517.03 829.05 523.79 827.86 530.56 826.61 537.29 825.25 544.05 823.85 550.78 822.39"/>
  <polyline class="st1" points="279.45 118.62 276.91 129.35 274.47 140.16 272.06 150.94 269.76 161.71 267.56 172.55 265.4 183.36 263.34 194.24 261.39 205.08 259.51 216 257.7 226.87 255.99 237.79 254.35 248.7 252.78 259.65 251.32 270.6 249.96 281.54 248.67 292.49 247.41 303.44 246.26 314.46 245.25 325.44 244.27 336.46 243.4 347.48 242.6 358.46 241.87 369.48 241.24 380.53 240.68 391.55 240.19 402.53 239.81 413.62 239.53 424.67 239.32 435.65 239.22 446.74 239.18 457.79 239.22 468.81 239.32 479.86 239.53 490.92 239.81 501.93 240.19 512.99 240.68 523.97 241.24 535.06 241.87 546.04 242.6 557.06 243.4 568.07 244.27 579.06 245.25 590.07 246.26 601.09 247.41 612.08 248.67 623.02 249.96 633.97 251.32 644.99 252.78 655.9 254.35 666.85 255.99 677.73 257.7 688.68 259.51 699.59 261.39 710.43 263.34 721.31 265.4 732.15 267.56 743 269.76 753.81 272.06 764.58 274.47 775.39 276.91 786.16 279.45 796.9"/>
  <polyline class="st1" points="305.18 93.2 303.51 93.62 301.84 94.1 300.2 94.73 298.63 95.43 297.06 96.2 295.56 97 294.1 97.91 292.67 98.88 291.27 99.93 289.98 101.08 288.73 102.26 287.54 103.48 286.39 104.81 285.31 106.17 284.33 107.56 283.36 109.03 282.56 110.56 281.79 112.13 281.09 113.7 280.43 115.3 279.94 116.94 279.45 118.62"/>
  <polyline class="st1" points="550.78 93.2 544.05 91.7 537.29 90.27 530.56 88.91 523.79 87.65 517.03 86.54 510.23 85.46 503.4 84.48 496.56 83.54 489.73 82.74 482.93 81.97 476.1 81.34 469.19 80.79 462.36 80.3 455.49 79.91 448.59 79.6 441.72 79.39 434.82 79.25 427.98 79.22 421.11 79.25 414.21 79.39 407.34 79.6 400.44 79.91 393.57 80.3 386.74 80.79 379.87 81.34 373.03 81.97 366.2 82.74 359.37 83.54 352.53 84.48 345.7 85.46 338.93 86.54 332.14 87.65 325.37 88.91 318.64 90.27 311.88 91.7 305.18 93.2"/>
  <polyline class="st1" points="576.48 118.62 576.06 116.94 575.5 115.3 574.87 113.7 574.21 112.13 573.41 110.56 572.57 109.03 571.67 107.56 570.62 106.17 569.54 104.81 568.46 103.48 567.2 102.26 565.98 101.08 564.66 99.93 563.26 98.88 561.83 97.91 560.37 97 558.87 96.2 557.3 95.43 555.73 94.73 554.09 94.1 552.42 93.62 550.78 93.2"/>
  <polyline class="st1" points="550.78 822.39 552.42 821.93 554.09 821.41 555.73 820.82 557.3 820.16 558.87 819.39 560.37 818.52 561.83 817.61 563.26 816.63 564.66 815.59 565.98 814.47 567.2 813.29 568.46 812.03 569.54 810.71 570.62 809.38 571.67 807.95 572.57 806.49 573.41 804.99 574.21 803.42 574.87 801.82 575.5 800.21 576.06 798.57 576.48 796.9"/>
  <polyline class="st1" points="577.42 797.11 579.96 786.37 582.4 775.6 584.78 764.79 587.11 754.02 589.34 743.17 591.43 732.33 593.53 721.49 595.48 710.61 597.36 699.76 599.14 688.78 600.88 677.9 602.52 666.99 604.09 656.04 605.56 645.09 606.95 634.15 608.24 623.13 609.46 612.18 610.58 601.2 611.66 590.18 612.63 579.16 613.51 568.18 614.34 557.16 615.04 546.11 615.63 535.09 616.22 524.04 616.68 512.99 617.03 501.97 617.38 490.92 617.51 479.86 617.69 468.81 617.76 457.79 617.69 446.74 617.51 435.65 617.38 424.6 617.03 413.62 616.68 402.53 616.22 391.48 615.63 380.49 615.04 369.41 614.34 358.42 613.51 347.37 612.63 336.35 611.66 325.34 610.58 314.35 609.46 303.37 608.24 292.39 606.95 281.44 605.56 270.42 604.09 259.47 602.52 248.56 600.88 237.61 599.14 226.74 597.36 215.82 595.48 204.94 593.53 194.03 591.43 183.19 589.34 172.34 587.11 161.5 584.78 150.73 582.4 139.92 579.96 129.15 577.42 118.41"/>
  <polyline class="st1" points="304.97 823.29 311.7 824.76 318.43 826.22 325.2 827.51 332 828.77 338.76 829.95 345.59 831.07 352.43 832.05 359.26 832.95 366.1 833.75 372.93 834.52 379.8 835.11 386.63 835.71 393.5 836.19 400.4 836.58 407.27 836.86 414.18 837.07 421.04 837.24 427.98 837.28 434.89 837.24 441.75 837.07 448.66 836.86 455.53 836.58 462.43 836.19 469.3 835.71 476.13 835.11 483.04 834.52 489.87 833.75 496.74 832.95 503.57 832.05 510.34 831.07 517.17 829.95 523.97 828.77 530.73 827.51 537.5 826.22 544.23 824.76 550.96 823.29"/>
  <polyline class="st1" points="278.51 797.11 279 798.85 279.56 800.53 280.15 802.2 280.92 803.84 281.68 805.41 282.56 806.98 283.53 808.51 284.54 809.91 285.62 811.34 286.81 812.66 288.03 813.99 289.32 815.17 290.68 816.32 292.07 817.4 293.54 818.41 295.07 819.35 296.64 820.23 298.25 820.96 299.88 821.69 301.56 822.32 303.23 822.81 304.97 823.29"/>
  <polyline class="st1" points="278.51 118.41 275.97 129.15 273.53 139.92 271.15 150.73 268.82 161.5 266.59 172.34 264.5 183.19 262.44 194.03 260.49 204.94 258.57 215.82 256.79 226.74 255.05 237.61 253.44 248.56 251.84 259.47 250.37 270.42 248.98 281.44 247.69 292.39 246.47 303.37 245.35 314.35 244.27 325.34 243.33 336.35 242.43 347.37 241.62 358.42 240.89 369.41 240.3 380.49 239.78 391.48 239.29 402.53 238.9 413.55 238.62 424.6 238.42 435.65 238.24 446.74 238.24 457.79 238.24 468.81 238.42 479.86 238.62 490.92 238.9 501.97 239.29 512.99 239.78 524.04 240.3 535.09 240.89 546.11 241.62 557.16 242.43 568.18 243.33 579.16 244.27 590.18 245.35 601.2 246.47 612.18 247.69 623.13 248.98 634.15 250.37 645.09 251.84 656.04 253.44 666.99 255.05 677.9 256.79 688.78 258.57 699.76 260.49 710.61 262.44 721.49 264.5 732.33 266.59 743.17 268.82 754.02 271.15 764.79 273.53 775.6 275.97 786.37 278.51 797.11"/>
  <polyline class="st1" points="304.97 92.29 303.23 92.71 301.56 93.27 299.88 93.86 298.25 94.56 296.64 95.33 295.07 96.2 293.54 97.1 292.07 98.15 290.68 99.23 289.32 100.35 288.03 101.6 286.81 102.86 285.62 104.22 284.54 105.61 283.53 107.07 282.56 108.54 281.68 110.11 280.92 111.68 280.15 113.32 279.56 114.99 279 116.66 278.51 118.41"/>
  <polyline class="st1" points="550.96 92.29 544.23 90.76 537.5 89.36 530.73 88 523.97 86.75 517.17 85.56 510.34 84.52 503.57 83.51 496.74 82.56 489.87 81.76 483.04 81.06 476.13 80.4 469.3 79.81 462.43 79.39 455.53 78.94 448.66 78.66 441.75 78.45 434.89 78.28 427.98 78.28 421.04 78.28 414.18 78.45 407.27 78.66 400.4 78.94 393.5 79.39 386.63 79.81 379.8 80.4 372.93 81.06 366.1 81.76 359.26 82.56 352.43 83.51 345.59 84.52 338.76 85.56 332 86.75 325.2 88 318.43 89.36 311.7 90.76 304.97 92.29"/>
  <polyline class="st1" points="577.42 118.41 576.93 116.66 576.37 114.99 575.78 113.32 575.01 111.68 574.28 110.11 573.41 108.54 572.43 107.07 571.39 105.61 570.31 104.22 569.12 102.86 567.94 101.6 566.61 100.35 565.25 99.23 563.86 98.15 562.39 97.1 560.86 96.2 559.29 95.33 557.72 94.56 556.05 93.86 554.41 93.27 552.7 92.71 550.96 92.29"/>
  <polyline class="st1" points="577.42 797.11 579.96 786.37 582.4 775.6 584.78 764.79 587.11 754.02 589.34 743.17 591.43 732.33 593.53 721.49 595.48 710.61 597.36 699.76 599.14 688.78 600.88 677.9 602.52 666.99 604.09 656.04 605.56 645.09 606.95 634.15 608.24 623.13 609.46 612.18 610.58 601.2 611.66 590.18 612.63 579.16 613.51 568.18 614.34 557.16 615.04 546.11 615.63 535.09 616.22 524.04 616.68 512.99 617.03 501.97 617.38 490.92 617.51 479.86 617.69 468.81 617.76 457.79 617.69 446.74 617.51 435.65 617.38 424.6 617.03 413.62 616.68 402.53 616.22 391.48 615.63 380.49 615.04 369.41 614.34 358.42 613.51 347.37 612.63 336.35 611.66 325.34 610.58 314.35 609.46 303.37 608.24 292.39 606.95 281.44 605.56 270.42 604.09 259.47 602.52 248.56 600.88 237.61 599.14 226.74 597.36 215.82 595.48 204.94 593.53 194.03 591.43 183.19 589.34 172.34 587.11 161.5 584.78 150.73 582.4 139.92 579.96 129.15 577.42 118.41"/>
  <polyline class="st1" points="550.96 823.29 552.7 822.81 554.41 822.32 556.05 821.69 557.72 820.96 559.29 820.23 560.86 819.35 562.39 818.41 563.86 817.4 565.25 816.32 566.61 815.17 567.94 813.99 569.12 812.66 570.31 811.34 571.39 809.91 572.43 808.51 573.41 806.98 574.28 805.41 575.01 803.84 575.78 802.2 576.37 800.53 576.93 798.85 577.42 797.11"/>
  <polyline class="st1" points="305.18 822.39 311.88 823.85 318.64 825.25 325.37 826.61 332.14 827.86 338.93 829.05 345.7 830.09 352.53 831.1 359.37 831.98 366.2 832.85 373.03 833.54 379.87 834.21 386.74 834.73 393.57 835.22 400.44 835.6 407.34 835.92 414.21 836.16 421.11 836.26 427.98 836.3 434.82 836.26 441.72 836.16 448.59 835.92 455.49 835.6 462.36 835.22 469.19 834.73 476.1 834.21 482.93 833.54 489.73 832.85 496.56 831.98 503.4 831.1 510.23 830.09 517.03 829.05 523.79 827.86 530.56 826.61 537.29 825.25 544.05 823.85 550.78 822.39"/>
  <polyline class="st1" points="279.45 796.9 279.94 798.57 280.43 800.21 281.09 801.82 281.79 803.42 282.56 804.99 283.36 806.49 284.33 807.95 285.31 809.38 286.39 810.71 287.54 812.03 288.73 813.29 289.98 814.47 291.27 815.59 292.67 816.63 294.1 817.61 295.56 818.52 297.06 819.39 298.63 820.16 300.2 820.82 301.84 821.41 303.51 821.93 305.18 822.39"/>
  <polyline class="st1" points="279.45 118.62 276.91 129.35 274.47 140.16 272.06 150.94 269.76 161.71 267.56 172.55 265.4 183.36 263.34 194.24 261.39 205.08 259.51 216 257.7 226.87 255.99 237.79 254.35 248.7 252.78 259.65 251.32 270.6 249.96 281.54 248.67 292.49 247.41 303.44 246.26 314.46 245.25 325.44 244.27 336.46 243.4 347.48 242.6 358.46 241.87 369.48 241.24 380.53 240.68 391.55 240.19 402.53 239.81 413.62 239.53 424.67 239.32 435.65 239.22 446.74 239.18 457.79 239.22 468.81 239.32 479.86 239.53 490.92 239.81 501.93 240.19 512.99 240.68 523.97 241.24 535.06 241.87 546.04 242.6 557.06 243.4 568.07 244.27 579.06 245.25 590.07 246.26 601.09 247.41 612.08 248.67 623.02 249.96 633.97 251.32 644.99 252.78 655.9 254.35 666.85 255.99 677.73 257.7 688.68 259.51 699.59 261.39 710.43 263.34 721.31 265.4 732.15 267.56 743 269.76 753.81 272.06 764.58 274.47 775.39 276.91 786.16 279.45 796.9"/>
  <polyline class="st1" points="305.18 93.2 303.51 93.62 301.84 94.1 300.2 94.73 298.63 95.43 297.06 96.2 295.56 97 294.1 97.91 292.67 98.88 291.27 99.93 289.98 101.08 288.73 102.26 287.54 103.48 286.39 104.81 285.31 106.17 284.33 107.56 283.36 109.03 282.56 110.56 281.79 112.13 281.09 113.7 280.43 115.3 279.94 116.94 279.45 118.62"/>
  <polyline class="st1" points="550.78 93.2 544.05 91.7 537.29 90.27 530.56 88.91 523.79 87.65 517.03 86.54 510.23 85.46 503.4 84.48 496.56 83.54 489.73 82.74 482.93 81.97 476.1 81.34 469.19 80.79 462.36 80.3 455.49 79.91 448.59 79.6 441.72 79.39 434.82 79.25 427.98 79.22 421.11 79.25 414.21 79.39 407.34 79.6 400.44 79.91 393.57 80.3 386.74 80.79 379.87 81.34 373.03 81.97 366.2 82.74 359.37 83.54 352.53 84.48 345.7 85.46 338.93 86.54 332.14 87.65 325.37 88.91 318.64 90.27 311.88 91.7 305.18 93.2"/>
  <polyline class="st1" points="576.48 118.62 576.06 116.94 575.5 115.3 574.87 113.7 574.21 112.13 573.41 110.56 572.57 109.03 571.67 107.56 570.62 106.17 569.54 104.81 568.46 103.48 567.2 102.26 565.98 101.08 564.66 99.93 563.26 98.88 561.83 97.91 560.37 97 558.87 96.2 557.3 95.43 555.73 94.73 554.09 94.1 552.42 93.62 550.78 93.2"/>
  <polyline class="st1" points="576.48 796.9 579.02 786.16 581.46 775.39 583.87 764.58 586.2 753.81 588.37 743 590.53 732.15 592.59 721.31 594.54 710.43 596.46 699.59 598.23 688.68 599.98 677.73 601.58 666.85 603.15 655.9 604.61 644.99 605.97 633.97 607.3 623.02 608.52 612.08 609.67 601.09 610.68 590.07 611.66 579.13 612.53 568.07 613.37 557.06 614.06 546.04 614.73 535.06 615.25 523.97 615.74 512.99 616.12 501.93 616.4 490.92 616.61 479.86 616.71 468.81 616.78 457.79 616.71 446.74 616.61 435.65 616.4 424.67 616.12 413.62 615.74 402.53 615.25 391.55 614.73 380.53 614.06 369.48 613.37 358.46 612.53 347.48 611.66 336.46 610.68 325.44 609.67 314.46 608.52 303.51 607.3 292.49 605.97 281.54 604.61 270.6 603.15 259.65 601.58 248.7 599.98 237.79 598.23 226.87 596.46 216 594.54 205.08 592.59 194.24 590.53 183.36 588.37 172.55 586.2 161.71 583.87 150.94 581.46 140.16 579.02 129.35 576.48 118.62"/>
  <polyline class="st1" points="550.96 823.29 552.7 822.81 554.41 822.32 556.05 821.69 557.72 820.96 559.29 820.23 560.86 819.35 562.39 818.41 563.86 817.4 565.25 816.32 566.61 815.17 567.94 813.99 569.12 812.66 570.31 811.34 571.39 809.91 572.43 808.51 573.41 806.98 574.28 805.41 575.01 803.84 575.78 802.2 576.37 800.53 576.93 798.85 577.42 797.11"/>
  <polyline class="st1" points="577.42 118.41 576.93 116.66 576.37 114.99 575.78 113.32 575.01 111.68 574.28 110.11 573.41 108.54 572.43 107.07 571.39 105.61 570.31 104.22 569.12 102.86 567.94 101.6 566.61 100.35 565.25 99.23 563.86 98.15 562.39 97.1 560.86 96.2 559.29 95.33 557.72 94.56 556.05 93.86 554.41 93.27 552.7 92.71 550.96 92.29"/>
  <polyline class="st1" points="550.96 92.29 544.23 90.76 537.5 89.36 530.73 88 523.97 86.75 517.17 85.56 510.34 84.52 503.57 83.51 496.74 82.56 489.87 81.76 483.04 81.06 476.13 80.4 469.3 79.81 462.43 79.39 455.53 78.94 448.66 78.66 441.75 78.45 434.89 78.28 427.98 78.28 421.04 78.28 414.18 78.45 407.27 78.66 400.4 78.94 393.5 79.39 386.63 79.81 379.8 80.4 372.93 81.06 366.1 81.76 359.26 82.56 352.43 83.51 345.59 84.52 338.76 85.56 332 86.75 325.2 88 318.43 89.36 311.7 90.76 304.97 92.29"/>
  <polyline class="st1" points="304.97 92.29 303.23 92.71 301.56 93.27 299.88 93.86 298.25 94.56 296.64 95.33 295.07 96.2 293.54 97.1 292.07 98.15 290.68 99.23 289.32 100.35 288.03 101.6 286.81 102.86 285.62 104.22 284.54 105.61 283.53 107.07 282.56 108.54 281.68 110.11 280.92 111.68 280.15 113.32 279.56 114.99 279 116.66 278.51 118.41"/>
  <polyline class="st1" points="278.51 118.41 275.97 129.15 273.53 139.92 271.15 150.73 268.82 161.5 266.59 172.34 264.5 183.19 262.44 194.03 260.49 204.94 258.57 215.82 256.79 226.74 255.05 237.61 253.44 248.56 251.84 259.47 250.37 270.42 248.98 281.44 247.69 292.39 246.47 303.37 245.35 314.35 244.27 325.34 243.33 336.35 242.43 347.37 241.62 358.42 240.89 369.41 240.3 380.49 239.78 391.48 239.29 402.53 238.9 413.55 238.62 424.6 238.42 435.65 238.24 446.74 238.24 457.79 238.24 468.81 238.42 479.86 238.62 490.92 238.9 501.97 239.29 512.99 239.78 524.04 240.3 535.09 240.89 546.11 241.62 557.16 242.43 568.18 243.33 579.16 244.27 590.18 245.35 601.2 246.47 612.18 247.69 623.13 248.98 634.15 250.37 645.09 251.84 656.04 253.44 666.99 255.05 677.9 256.79 688.78 258.57 699.76 260.49 710.61 262.44 721.49 264.5 732.33 266.59 743.17 268.82 754.02 271.15 764.79 273.53 775.6 275.97 786.37 278.51 797.11"/>
  <polyline class="st1" points="304.97 823.29 311.7 824.76 318.43 826.22 325.2 827.51 332 828.77 338.76 829.95 345.59 831.07 352.43 832.05 359.26 832.95 366.1 833.75 372.93 834.52 379.8 835.11 386.63 835.71 393.5 836.19 400.4 836.58 407.27 836.86 414.18 837.07 421.04 837.24 427.98 837.28 434.89 837.24 441.75 837.07 448.66 836.86 455.53 836.58 462.43 836.19 469.3 835.71 476.13 835.11 483.04 834.52 489.87 833.75 496.74 832.95 503.57 832.05 510.34 831.07 517.17 829.95 523.97 828.77 530.73 827.51 537.5 826.22 544.23 824.76 550.96 823.29"/>
  <polyline class="st1" points="278.51 797.11 279 798.85 279.56 800.53 280.15 802.2 280.92 803.84 281.68 805.41 282.56 806.98 283.53 808.51 284.54 809.91 285.62 811.34 286.81 812.66 288.03 813.99 289.32 815.17 290.68 816.32 292.07 817.4 293.54 818.41 295.07 819.35 296.64 820.23 298.25 820.96 299.88 821.69 301.56 822.32 303.23 822.81 304.97 823.29"/>
  <polygon class="st1" points="550.78 822.39 552.42 821.93 554.09 821.41 555.73 820.82 557.3 820.16 558.87 819.39 560.37 818.52 561.83 817.61 563.26 816.63 564.66 815.59 565.98 814.47 567.2 813.29 568.46 812.03 569.54 810.71 570.62 809.38 571.67 807.95 572.57 806.49 573.41 804.99 574.21 803.42 574.87 801.82 575.5 800.21 576.06 798.57 576.48 796.9 579.02 786.16 581.46 775.39 583.87 764.58 586.2 753.81 588.37 743 590.53 732.15 592.59 721.31 594.54 710.43 596.46 699.59 598.23 688.68 599.98 677.73 601.58 666.85 603.15 655.9 604.61 644.99 605.97 633.97 607.3 623.02 608.52 612.08 609.67 601.09 610.68 590.07 611.66 579.13 612.53 568.07 613.37 557.06 614.06 546.04 614.73 535.06 615.25 523.97 615.74 512.99 616.12 501.93 616.4 490.92 616.61 479.86 616.71 468.81 616.78 457.79 616.71 446.74 616.61 435.65 616.4 424.67 616.12 413.62 615.74 402.53 615.25 391.55 614.73 380.53 614.06 369.48 613.37 358.46 612.53 347.48 611.66 336.46 610.68 325.44 609.67 314.46 608.52 303.51 607.3 292.49 605.97 281.54 604.61 270.6 603.15 259.65 601.58 248.7 599.98 237.79 598.23 226.87 596.46 216 594.54 205.08 592.59 194.24 590.53 183.36 588.37 172.55 586.2 161.71 583.87 150.94 581.46 140.16 579.02 129.35 576.48 118.62 576.06 116.94 575.5 115.3 574.87 113.7 574.21 112.13 573.41 110.56 572.57 109.03 571.67 107.56 570.62 106.17 569.54 104.81 568.46 103.48 567.2 102.26 565.98 101.08 564.66 99.93 563.26 98.88 561.83 97.91 560.37 97 558.87 96.2 557.3 95.43 555.73 94.73 554.09 94.1 552.42 93.62 550.78 93.2 544.05 91.7 537.29 90.27 530.56 88.91 523.79 87.65 517.03 86.54 510.23 85.46 503.4 84.48 496.56 83.54 489.73 82.74 482.93 81.97 476.1 81.34 469.19 80.79 462.36 80.3 455.49 79.91 448.59 79.6 441.72 79.39 434.82 79.25 427.98 79.22 421.11 79.25 414.21 79.39 407.34 79.6 400.44 79.91 393.57 80.3 386.74 80.79 379.87 81.34 373.03 81.97 366.2 82.74 359.37 83.54 352.53 84.48 345.7 85.46 338.93 86.54 332.14 87.65 325.37 88.91 318.64 90.27 311.88 91.7 305.18 93.2 303.51 93.62 301.84 94.1 300.2 94.73 298.63 95.43 297.06 96.2 295.56 97 294.1 97.91 292.67 98.88 291.27 99.93 289.98 101.08 288.73 102.26 287.54 103.48 286.39 104.81 285.31 106.17 284.33 107.56 283.36 109.03 282.56 110.56 281.79 112.13 281.09 113.7 280.43 115.3 279.94 116.94 279.45 118.62 276.91 129.35 274.47 140.16 272.06 150.94 269.76 161.71 267.56 172.55 265.4 183.36 263.34 194.24 261.39 205.08 259.51 216 257.7 226.87 255.99 237.79 254.35 248.7 252.78 259.65 251.32 270.6 249.96 281.54 248.67 292.49 247.41 303.44 246.26 314.46 245.25 325.44 244.27 336.46 243.4 347.48 242.6 358.46 241.87 369.48 241.24 380.53 240.68 391.55 240.19 402.53 239.81 413.62 239.53 424.67 239.32 435.65 239.22 446.74 239.18 457.79 239.22 468.81 239.32 479.86 239.53 490.92 239.81 501.93 240.19 512.99 240.68 523.97 241.24 535.06 241.87 546.04 242.6 557.06 243.4 568.07 244.27 579.06 245.25 590.07 246.26 601.09 247.41 612.08 248.67 623.02 249.96 633.97 251.32 644.99 252.78 655.9 254.35 666.85 255.99 677.73 257.7 688.68 259.51 699.59 261.39 710.43 263.34 721.31 265.4 732.15 267.56 743 269.76 753.81 272.06 764.58 274.47 775.39 276.91 786.16 279.45 796.9 279.94 798.57 280.43 800.21 281.09 801.82 281.79 803.42 282.56 804.99 283.36 806.49 284.33 807.95 285.31 809.38 286.39 810.71 287.54 812.03 288.73 813.29 289.98 814.47 291.27 815.59 292.67 816.63 294.1 817.61 295.56 818.52 297.06 819.39 298.63 820.16 300.2 820.82 301.84 821.41 303.51 821.93 305.18 822.39 311.88 823.85 318.64 825.25 325.37 826.61 332.14 827.86 338.93 829.05 345.7 830.09 352.53 831.1 359.37 831.98 366.2 832.85 373.03 833.54 379.87 834.21 386.74 834.73 393.57 835.22 400.44 835.6 407.34 835.92 414.21 836.16 421.11 836.26 427.98 836.3 434.82 836.26 441.72 836.16 448.59 835.92 455.49 835.6 462.36 835.22 469.19 834.73 476.1 834.21 482.93 833.54 489.73 832.85 496.56 831.98 503.4 831.1 510.23 830.09 517.03 829.05 523.79 827.86 530.56 826.61 537.29 825.25 544.05 823.85 550.78 822.39"/>
</svg>