<?xml version="1.0" encoding="UTF-8"?>
<svg id="Layer_1" xmlns="http://www.w3.org/2000/svg" version="1.1" viewBox="0 0 858.56 916.92">
  <!-- Generator: Adobe Illustrator 30.3.0, SVG Export Plug-In . SVG Version: 2.1.3 Build 182)  -->
  <defs>
    <style>
      .st0, .st1 {
        stroke: #000;
      }

      .st0, .st1, .st2 {
        stroke-linecap: square;
        stroke-miterlimit: 10;
      }

      .st0, .st2 {
        fill: none;
        stroke-width: .06px;
      }

      .st1 {
        fill: #f2f2f2;
        stroke-width: .5px;
      }

      .st2 {
        stroke: #00d7d7;
      }
    </style>
  </defs>
  <line class="st0" x1="858.53" y1="916.89" x2="858.53" y2="916.89"/>
  <line class="st0" x1="858.53" y1="916.89" x2="858.53" y2="916.89"/>
  <line class="st0" x1="858.53" y1="916.89" x2="858.53" y2="916.89"/>
  <line class="st0" x1="858.53" y1="916.89" x2="858.53" y2="916.89"/>
  <line class="st0" x1="858.53" y1="916.89" x2="858.53" y2="916.89"/>
  <line class="st0" x1="858.53" y1="916.89" x2="858.53" y2="916.89"/>
  <line class="st0" x1="858.53" y1="916.89" x2="858.53" y2="916.89"/>
  <line class="st0" x1="858.53" y1="916.89" x2="858.53" y2="916.89"/>
  <line class="st0" x1="858.53" y1="916.89" x2="858.53" y2="916.89"/>
  <line class="st0" x1="858.53" y1="916.89" x2="858.53" y2="916.89"/>
  <line class="st0" x1="858.53" y1="916.89" x2="858.53" y2="916.89"/>
  <line class="st0" x1="858.53" y1="916.89" x2="858.53" y2="916.89"/>
  <line class="st0" x1="858.53" y1="916.89" x2="858.53" y2="916.89"/>
  <line class="st0" x1="858.53" y1="916.89" x2="858.53" y2="916.89"/>
  <line class="st0" x1="858.53" y1="916.89" x2="858.53" y2="916.89"/>
  <line class="st0" x1="858.53" y1="916.89" x2="858.53" y2="916.89"/>
  <line class="st0" x1="858.53" y1="916.89" x2="858.53" y2="916.89"/>
  <line class="st0" x1="858.53" y1="916.89" x2="858.53" y2="916.89"/>
  <line class="st0" x1="858.53" y1="916.89" x2="858.53" y2="916.89"/>
  <line class="st0" x1="858.53" y1="916.89" x2="858.53" y2="916.89"/>
  <line class="st0" x1="858.53" y1="916.89" x2="858.53" y2="916.89"/>
  <line class="st0" x1="858.53" y1="916.89" x2="858.53" y2="916.89"/>
  <line class="st0" x1="858.53" y1="916.89" x2="858.53" y2="916.89"/>
  <line class="st0" x1="858.53" y1="916.89" x2="858.53" y2="916.89"/>
  <line class="st0" x1="858.53" y1="916.89" x2="858.53" y2="916.89"/>
  <line class="st0" x1="858.53" y1="916.89" x2="858.53" y2="916.89"/>
  <line class="st0" x1="858.53" y1="916.89" x2="858.53" y2="916.89"/>
  <line class="st0" x1="858.53" y1="916.89" x2="858.53" y2="916.89"/>
  <line class="st0" x1="858.53" y1="916.89" x2="858.53" y2="916.89"/>
  <line class="st0" x1="858.53" y1="916.89" x2="858.53" y2="916.89"/>
  <line class="st0" x1="858.53" y1="916.89" x2="858.53" y2="916.89"/>
  <line class="st0" x1="858.53" y1="916.89" x2="858.53" y2="916.89"/>
  <line class="st0" x1="858.53" y1="916.89" x2="858.53" y2="916.89"/>
  <line class="st0" x1="858.53" y1="916.89" x2="858.53" y2="916.89"/>
  <line class="st0" x1="858.53" y1="916.89" x2="858.53" y2="916.89"/>
  <line class="st0" x1="858.53" y1="916.89" x2="858.53" y2="916.89"/>
  <line class="st0" x1="858.53" y1="916.89" x2="858.53" y2="916.89"/>
  <line class="st0" x1="858.53" y1="916.89" x2="858.53" y2="916.89"/>
  <line class="st0" x1="858.53" y1="916.89" x2="858.53" y2="916.89"/>
  <line class="st0" x1="858.53" y1="916.89" x2="858.53" y2="916.89"/>
  <line class="st2" x1="228.77" y1="903.99" x2="228.77" y2="903.99"/>
  <line class="st2" x1="228.77" y1="903.99" x2="228.77" y2="903.99"/>
  <line class="st2" x1="228.77" y1="903.99" x2="228.77" y2="903.99"/>
  <line class="st2" x1="228.77" y1="903.99" x2="228.77" y2="903.99"/>
  <line class="st2" x1="228.77" y1="903.99" x2="228.77" y2="903.99"/>
  <line class="st2" x1="228.77" y1="903.99" x2="228.77" y2="903.99"/>
  <line class="st2" x1="228.77" y1="903.99" x2="228.77" y2="903.99"/>
  <line class="st2" x1="228.77" y1="903.99" x2="228.77" y2="903.99"/>
  <line class="st2" x1="228.77" y1="903.99" x2="228.77" y2="903.99"/>
  <line class="st2" x1="228.77" y1="903.99" x2="228.77" y2="903.99"/>
  <line class="st2" x1="228.77" y1="903.99" x2="228.77" y2="903.99"/>
  <line class="st2" x1="228.77" y1="903.99" x2="228.77" y2="903.99"/>
  <line class="st2" x1="228.77" y1="903.99" x2="228.77" y2="903.99"/>
  <line class="st2" x1="228.77" y1="903.99" x2="228.77" y2="903.99"/>
  <line class="st2" x1="228.77" y1="903.99" x2="228.77" y2="903.99"/>
  <line class="st2" x1="228.77" y1="903.99" x2="228.77" y2="903.99"/>
  <line class="st2" x1="228.77" y1="903.99" x2="228.77" y2="903.99"/>
  <line class="st2" x1="228.77" y1="903.99" x2="228.77" y2="903.99"/>
  <line class="st2" x1="228.77" y1="903.99" x2="228.77" y2="903.99"/>
  <line class="st2" x1="228.77" y1="903.99" x2="228.77" y2="903.99"/>
  <line class="st2" x1="228.77" y1="903.99" x2="228.77" y2="903.99"/>
  <line class="st2" x1="228.77" y1="903.99" x2="228.77" y2="903.99"/>
  <line class="st2" x1="228.77" y1="903.99" x2="228.77" y2="903.99"/>
  <line class="st2" x1="228.77" y1="903.99" x2="228.77" y2="903.99"/>
  <line class="st2" x1="228.77" y1="903.99" x2="228.77" y2="903.99"/>
  <line class="st2" x1="228.77" y1="903.99" x2="228.77" y2="903.99"/>
  <line class="st2" x1="228.77" y1="903.99" x2="228.77" y2="903.99"/>
  <line class="st2" x1="228.77" y1="903.99" x2="228.77" y2="903.99"/>
  <line class="st2" x1="228.77" y1="903.99" x2="228.77" y2="903.99"/>
  <line class="st2" x1="228.77" y1="903.99" x2="228.77" y2="903.99"/>
  <line class="st2" x1="228.77" y1="903.99" x2="228.77" y2="903.99"/>
  <line class="st2" x1="228.77" y1="903.99" x2="228.77" y2="903.99"/>
  <line class="st2" x1="228.77" y1="903.99" x2="228.77" y2="903.99"/>
  <line class="st2" x1="228.77" y1="903.99" x2="228.77" y2="903.99"/>
  <line class="st2" x1="228.77" y1="903.99" x2="228.77" y2="903.99"/>
  <line class="st2" x1="228.77" y1="903.99" x2="228.77" y2="903.99"/>
  <line class="st2" x1="228.77" y1="903.99" x2="228.77" y2="903.99"/>
  <line class="st2" x1="228.77" y1="903.99" x2="228.77" y2="903.99"/>
  <line class="st2" x1="228.77" y1="903.99" x2="228.77" y2="903.99"/>
  <line class="st2" x1="228.77" y1="903.99" x2="228.77" y2="903.99"/>
  <line class="st2" x1="228.77" y1="903.99" x2="228.77" y2="903.99"/>
  <line class="st2" x1="228.77" y1="903.99" x2="228.77" y2="903.99"/>
  <line class="st2" x1="228.77" y1="903.99" x2="228.77" y2="903.99"/>
  <line class="st2" x1="228.77" y1="903.99" x2="228.77" y2="903.99"/>
  <line class="st2" x1="228.77" y1="903.99" x2="228.77" y2="903.99"/>
  <line class="st2" x1="228.77" y1="903.99" x2="228.77" y2="903.99"/>
  <line class="st2" x1="228.77" y1="903.99" x2="228.77" y2="903.99"/>
  <line class="st2" x1="228.77" y1="903.99" x2="228.77" y2="903.99"/>
  <line class="st2" x1="228.77" y1="903.99" x2="228.77" y2="903.99"/>
  <line class="st2" x1="228.77" y1="903.99" x2="228.77" y2="903.99"/>
  <line class="st2" x1="228.77" y1="903.99" x2="228.77" y2="903.99"/>
  <line class="st2" x1="228.77" y1="903.99" x2="228.77" y2="903.99"/>
  <line class="st2" x1="228.77" y1="903.99" x2="228.77" y2="903.99"/>
  <line class="st2" x1="228.77" y1="903.99" x2="228.77" y2="903.99"/>
  <line class="st2" x1="228.77" y1="903.99" x2="228.77" y2="903.99"/>
  <line class="st2" x1="228.77" y1="903.99" x2="228.77" y2="903.99"/>
  <line class="st2" x1="228.77" y1="903.99" x2="228.77" y2="903.99"/>
  <line class="st2" x1="228.77" y1="903.99" x2="228.77" y2="903.99"/>
  <line class="st2" x1="228.77" y1="903.99" x2="228.77" y2="903.99"/>
  <line class="st2" x1="228.77" y1="903.99" x2="228.77" y2="903.99"/>
  <line class="st2" x1="228.77" y1="903.99" x2="228.77" y2="903.99"/>
  <line class="st2" x1="228.77" y1="903.99" x2="228.77" y2="903.99"/>
  <line class="st2" x1="228.77" y1="903.99" x2="228.77" y2="903.99"/>
  <line class="st2" x1="228.77" y1="903.99" x2="228.77" y2="903.99"/>
  <line class="st2" x1="228.77" y1="903.99" x2="228.77" y2="903.99"/>
  <line class="st2" x1="228.77" y1="903.99" x2="228.77" y2="903.99"/>
  <line class="st2" x1="228.77" y1="903.99" x2="228.77" y2="903.99"/>
  <line class="st2" x1="228.77" y1="903.99" x2="228.77" y2="903.99"/>
  <line class="st2" x1="228.77" y1="903.99" x2="228.77" y2="903.99"/>
  <line class="st2" x1="228.77" y1="903.99" x2="228.77" y2="903.99"/>
  <line class="st2" x1="228.77" y1="903.99" x2="228.77" y2="903.99"/>
  <line class="st2" x1="228.77" y1="903.99" x2="228.77" y2="903.99"/>
  <line class="st2" x1="228.77" y1="903.99" x2="228.77" y2="903.99"/>
  <line class="st2" x1="228.77" y1="903.99" x2="228.77" y2="903.99"/>
  <line class="st2" x1="228.77" y1="903.99" x2="228.77" y2="903.99"/>
  <line class="st2" x1="228.77" y1="903.99" x2="228.77" y2="903.99"/>
  <line class="st2" x1="228.77" y1="903.99" x2="228.77" y2="903.99"/>
  <line class="st2" x1="228.77" y1="903.99" x2="228.77" y2="903.99"/>
  <line class="st2" x1="228.77" y1="903.99" x2="228.77" y2="903.99"/>
  <line class="st2" x1="228.77" y1="903.99" x2="228.77" y2="903.99"/>
  <rect class="st1" x="239.87" y="79.64" width="378.82" height="757.63"/>
</svg>