<?xml version="1.0" encoding="UTF-8"?>
<svg id="Layer_1" xmlns="http://www.w3.org/2000/svg" version="1.1" viewBox="0 0 752.01 732.36">
  <!-- Generator: Adobe Illustrator 30.5.0, SVG Export Plug-In . SVG Version: 2.1.4 Build 138)  -->
  <defs>
    <style>
      .st0 {
        fill: #fff;
      }

      .st0, .st1, .st2 {
        stroke: #000;
      }

      .st0, .st2 {
        stroke-linecap: square;
        stroke-miterlimit: 10;
        stroke-width: .5px;
      }

      .st3 {
        fill: #1d1d1b;
      }

      .st1 {
        stroke-linecap: round;
        stroke-linejoin: round;
      }

      .st1, .st2 {
        fill: none;
      }
    </style>
  </defs>
  <g id="Layer_11" data-name="Layer_1">
    <line class="st1" x1="748.03" y1="483.53" x2="324.05" y2="728.38"/>
    <line class="st1" x1="324.05" y1="728.38" x2="43.74" y2="566.53"/>
    <line class="st1" x1="43.74" y1="530.63" x2="43.74" y2="230.27"/>
    <circle class="st3" cx="43.74" cy="530.63" r="3.98" transform="translate(-58.33 8.08) rotate(-6.34)"/>
    <circle class="st3" cx="43.74" cy="234.25" r="3.98"/>
    <circle class="st3" cx="43.73" cy="566.53" r="3.98" transform="translate(-62.29 8.29) rotate(-6.34)"/>
    <circle class="st3" cx="324.05" cy="728.38" r="3.98"/>
    <circle class="st3" cx="748.03" cy="483.53" r="3.98"/>
    <path d="M28.8,391.15c0-8.37-4.14-12.96-11.97-12.96s-12.24,4.68-12.24,12.96v26.91H0v-64.08h4.59v25.83c3.24-3.78,7.47-5.67,12.78-5.67,9.99,0,16.02,6.12,16.02,16.2v27.72h-4.59v-26.91h0Z"/>
    <path d="M160.48,707.39c-3.87,5.04-7.92,6.12-12.87,6.12-4.59,0-8.37-1.53-10.62-3.78-4.41-4.41-5.58-11.61-5.58-18.45s1.17-14.04,5.58-18.45c2.25-2.25,6.03-3.78,10.62-3.78,4.95,0,9,1.08,12.87,6.12v-26.28h4.59v64.08h-4.59v-5.58h0ZM148.24,673.1c-10.62,0-12.24,9.18-12.24,18.18s1.62,18.18,12.24,18.18,12.24-9.18,12.24-18.18-1.62-18.18-12.24-18.18Z"/>
    <path d="M572.54,663.02l-12.24-36.18-12.24,36.18h-4.68l-13.86-43.38h5.04l11.07,37.98,12.42-37.98h4.5l12.42,37.98,11.07-37.98h5.04l-13.86,43.38h-4.68Z"/>
  </g>
  <g id="Layer_2">
    <g>
      <polyline class="st0" points="92.29 268.78 92.65 282.52 92.65 268.96"/>
      <polyline class="st0" points="92.29 268.72 92.29 282.22 92.65 282.52"/>
      <line class="st2" x1="92.17" y1="268.66" x2="92.29" y2="282.22"/>
      <polyline class="st0" points="92.11 268.66 92.11 281.86 92.29 282.22"/>
      <polyline class="st0" points="100.99 287.38 101.53 287.56 100.99 273.76"/>
      <line class="st2" x1="100.99" y1="273.76" x2="100.99" y2="287.38"/>
      <line class="st2" x1="101.53" y1="287.56" x2="101.53" y2="274.06"/>
      <polyline class="st0" points="101.53 287.56 102.13 287.62 101.53 274.12"/>
      <line class="st2" x1="102.13" y1="287.62" x2="102.13" y2="274.42"/>
      <polyline class="st0" points="102.13 287.62 102.79 287.56 102.19 274.48"/>
      <line class="st2" x1="102.79" y1="287.56" x2="102.79" y2="274.84"/>
      <polyline class="st0" points="102.79 287.56 103.33 287.38 102.85 274.84"/>
      <line class="st2" x1="103.33" y1="287.38" x2="103.33" y2="275.14"/>
      <line class="st2" x1="92.65" y1="268.96" x2="92.65" y2="282.52"/>
      <line class="st2" x1="92.65" y1="282.52" x2="100.99" y2="287.38"/>
      <line class="st2" x1="100.99" y1="287.38" x2="100.99" y2="273.76"/>
      <line class="st2" x1="103.33" y1="275.14" x2="103.33" y2="287.38"/>
      <line class="st2" x1="103.33" y1="287.38" x2="110.35" y2="283.3"/>
      <line class="st2" x1="110.35" y1="283.3" x2="110.35" y2="279.16"/>
      <line class="st2" x1="112.45" y1="280.42" x2="112.45" y2="284.56"/>
      <line class="st2" x1="110.35" y1="283.3" x2="110.35" y2="279.16"/>
      <polyline class="st0" points="277.63 375.76 277.93 389.56 277.93 375.94"/>
      <polyline class="st0" points="277.57 375.76 277.57 389.2 277.93 389.56"/>
      <line class="st2" x1="277.51" y1="375.7" x2="277.57" y2="389.2"/>
      <polyline class="st0" points="277.45 375.7 277.45 388.84 277.57 389.2"/>
      <polyline class="st0" points="286.27 394.36 286.81 394.54 286.33 380.8"/>
      <line class="st2" x1="286.27" y1="380.8" x2="286.27" y2="394.36"/>
      <line class="st2" x1="286.81" y1="394.54" x2="286.81" y2="381.1"/>
      <polyline class="st0" points="286.81 394.54 287.47 394.66 286.87 381.1"/>
      <line class="st2" x1="287.47" y1="394.66" x2="287.47" y2="381.46"/>
      <polyline class="st0" points="287.47 394.66 288.13 394.54 287.53 381.46"/>
      <line class="st2" x1="288.13" y1="394.54" x2="288.13" y2="381.82"/>
      <polyline class="st0" points="288.13 394.54 288.67 394.36 288.19 381.88"/>
      <line class="st2" x1="288.67" y1="394.36" x2="288.67" y2="382.12"/>
      <line class="st2" x1="277.93" y1="375.94" x2="277.93" y2="389.56"/>
      <line class="st2" x1="277.93" y1="389.56" x2="286.27" y2="394.36"/>
      <line class="st2" x1="286.27" y1="394.36" x2="286.27" y2="380.8"/>
      <line class="st2" x1="288.67" y1="382.12" x2="288.67" y2="394.36"/>
      <line class="st2" x1="288.67" y1="394.36" x2="295.69" y2="390.28"/>
      <line class="st2" x1="295.69" y1="390.28" x2="295.69" y2="386.2"/>
      <line class="st2" x1="297.79" y1="387.4" x2="297.79" y2="391.54"/>
      <line class="st2" x1="295.69" y1="390.28" x2="295.69" y2="386.2"/>
      <line class="st2" x1="750.07" y1="169.12" x2="737.59" y2="161.92"/>
      <line class="st2" x1="728.71" y1="167.02" x2="741.19" y2="174.22"/>
      <line class="st2" x1="741.19" y1="174.22" x2="741.19" y2="451.18"/>
      <line class="st2" x1="741.19" y1="451.18" x2="750.07" y2="446.08"/>
      <line class="st2" x1="750.07" y1="446.08" x2="750.07" y2="169.12"/>
      <line class="st2" x1="750.07" y1="169.12" x2="741.19" y2="174.22"/>
      <line class="st2" x1="741.19" y1="451.18" x2="597.55" y2="368.26"/>
      <line class="st2" x1="750.07" y1="446.08" x2="750.07" y2="169.12"/>
      <line class="st2" x1="750.07" y1="169.12" x2="741.19" y2="174.22"/>
      <line class="st2" x1="741.19" y1="451.18" x2="750.07" y2="446.08"/>
      <line class="st2" x1="749.41" y1="168.7" x2="750.07" y2="169.12"/>
      <line class="st2" x1="741.19" y1="451.18" x2="741.19" y2="174.22"/>
      <line class="st2" x1="741.19" y1="174.22" x2="740.47" y2="173.8"/>
      <line class="st2" x1="740.47" y1="450.82" x2="741.19" y2="451.18"/>
      <line class="st2" x1="740.47" y1="450.82" x2="740.47" y2="173.8"/>
      <line class="st2" x1="740.47" y1="173.8" x2="749.41" y2="168.7"/>
      <line class="st2" x1="749.41" y1="168.7" x2="737.59" y2="161.92"/>
      <line class="st2" x1="740.47" y1="173.8" x2="749.41" y2="168.7"/>
      <line class="st2" x1="740.47" y1="173.8" x2="728.71" y2="167.02"/>
      <line class="st2" x1="740.47" y1="174.64" x2="740.47" y2="173.8"/>
      <line class="st2" x1="740.47" y1="174.64" x2="727.99" y2="167.44"/>
      <line class="st2" x1="598.27" y1="367.84" x2="740.47" y2="449.98"/>
      <line class="st2" x1="597.55" y1="368.26" x2="740.47" y2="450.82"/>
      <line class="st2" x1="740.47" y1="450.82" x2="740.47" y2="449.98"/>
      <line class="st2" x1="322.39" y1="391.3" x2="72.91" y2="247.3"/>
      <line class="st2" x1="72.91" y1="257.56" x2="322.39" y2="401.62"/>
      <line class="st2" x1="322.39" y1="401.62" x2="750.07" y2="154.66"/>
      <line class="st2" x1="750.07" y1="154.66" x2="750.07" y2="144.4"/>
      <line class="st2" x1="750.07" y1="144.4" x2="322.39" y2="391.3"/>
      <line class="st2" x1="322.39" y1="391.3" x2="322.39" y2="401.62"/>
      <line class="st2" x1="72.91" y1="247.3" x2="500.59" y2=".34"/>
      <line class="st2" x1="72.91" y1="257.56" x2="72.91" y2="247.3"/>
      <line class="st2" x1="500.59" y1=".34" x2="750.07" y2="144.4"/>
      <line class="st2" x1="72.91" y1="247.3" x2="500.59" y2=".34"/>
      <line class="st2" x1="72.91" y1="257.56" x2="72.91" y2="247.3"/>
      <line class="st2" x1="73.63" y1="247.72" x2="501.31" y2=".76"/>
      <line class="st2" x1="501.31" y1=".76" x2="500.59" y2=".34"/>
      <line class="st2" x1="72.91" y1="247.3" x2="73.63" y2="247.72"/>
      <line class="st2" x1="73.63" y1="257.98" x2="72.91" y2="257.56"/>
      <line class="st2" x1="73.63" y1="247.72" x2="73.63" y2="257.98"/>
      <line class="st2" x1="321.67" y1="390.94" x2="73.63" y2="247.72"/>
      <line class="st2" x1="73.63" y1="247.72" x2="73.63" y2="257.98"/>
      <line class="st2" x1="321.67" y1="401.2" x2="321.67" y2="390.94"/>
      <line class="st2" x1="322.39" y1="390.52" x2="74.35" y2="247.3"/>
      <line class="st2" x1="74.35" y1="247.3" x2="73.63" y2="247.72"/>
      <line class="st2" x1="321.67" y1="390.94" x2="322.39" y2="390.52"/>
      <line class="st2" x1="321.67" y1="401.2" x2="73.63" y2="257.98"/>
      <line class="st2" x1="750.07" y1="144.4" x2="322.39" y2="391.3"/>
      <line class="st2" x1="322.39" y1="391.3" x2="322.39" y2="401.62"/>
      <line class="st2" x1="750.07" y1="154.66" x2="750.07" y2="144.4"/>
      <line class="st2" x1="749.41" y1="143.98" x2="321.67" y2="390.94"/>
      <line class="st2" x1="321.67" y1="390.94" x2="322.39" y2="391.3"/>
      <line class="st2" x1="750.07" y1="144.4" x2="749.41" y2="143.98"/>
      <line class="st2" x1="750.07" y1="154.66" x2="322.39" y2="401.62"/>
      <line class="st2" x1="322.39" y1="401.62" x2="321.67" y2="401.2"/>
      <line class="st2" x1="321.67" y1="401.2" x2="321.67" y2="390.94"/>
      <line class="st2" x1="501.31" y1=".76" x2="749.41" y2="143.98"/>
      <line class="st2" x1="500.59" y1="1.18" x2="748.69" y2="144.4"/>
      <line class="st2" x1="748.69" y1="144.4" x2="749.41" y2="143.98"/>
      <line class="st2" x1="501.31" y1=".76" x2="500.59" y2="1.18"/>
      <line class="st2" x1="331.33" y1="410.86" x2="295.69" y2="390.28"/>
      <line class="st2" x1="277.45" y1="379.78" x2="110.35" y2="283.3"/>
      <line class="st2" x1="92.11" y1="272.8" x2="81.85" y2="266.86"/>
      <line class="st2" x1="72.91" y1="271.96" x2="322.39" y2="416.02"/>
      <line class="st2" x1="72.91" y1="548.92" x2="72.91" y2="271.96"/>
      <line class="st2" x1="72.91" y1="271.96" x2="81.85" y2="266.86"/>
      <line class="st2" x1="322.39" y1="416.02" x2="322.39" y2="692.98"/>
      <line class="st2" x1="322.39" y1="692.98" x2="331.33" y2="687.82"/>
      <line class="st2" x1="331.33" y1="687.82" x2="331.33" y2="410.86"/>
      <line class="st2" x1="331.33" y1="410.86" x2="322.39" y2="416.02"/>
      <line class="st2" x1="322.39" y1="692.98" x2="72.91" y2="548.92"/>
      <line class="st2" x1="322.39" y1="416.02" x2="322.39" y2="692.98"/>
      <line class="st2" x1="322.39" y1="692.98" x2="331.33" y2="687.82"/>
      <line class="st2" x1="331.33" y1="410.86" x2="322.39" y2="416.02"/>
      <line class="st2" x1="321.67" y1="415.6" x2="321.67" y2="692.56"/>
      <line class="st2" x1="321.67" y1="692.56" x2="322.39" y2="692.98"/>
      <line class="st2" x1="322.39" y1="416.02" x2="321.67" y2="415.6"/>
      <line class="st2" x1="331.33" y1="410.86" x2="331.33" y2="687.82"/>
      <line class="st2" x1="330.61" y1="410.44" x2="331.33" y2="410.86"/>
      <line class="st2" x1="321.67" y1="415.6" x2="330.61" y2="410.44"/>
      <line class="st2" x1="73.63" y1="272.38" x2="321.67" y2="415.6"/>
      <line class="st2" x1="321.67" y1="415.6" x2="330.61" y2="410.44"/>
      <line class="st2" x1="82.51" y1="267.22" x2="73.63" y2="272.38"/>
      <line class="st2" x1="73.63" y1="273.22" x2="321.67" y2="416.44"/>
      <line class="st2" x1="321.67" y1="416.44" x2="321.67" y2="415.6"/>
      <line class="st2" x1="73.63" y1="272.38" x2="73.63" y2="273.22"/>
      <line class="st2" x1="82.51" y1="267.22" x2="92.11" y2="272.8"/>
      <line class="st2" x1="110.35" y1="283.3" x2="277.45" y2="379.78"/>
      <line class="st2" x1="295.69" y1="390.28" x2="330.61" y2="410.44"/>
      <line class="st2" x1="72.91" y1="548.92" x2="72.91" y2="271.96"/>
      <line class="st2" x1="72.91" y1="271.96" x2="81.85" y2="266.86"/>
      <line class="st2" x1="73.63" y1="549.34" x2="73.63" y2="272.38"/>
      <line class="st2" x1="73.63" y1="272.38" x2="72.91" y2="271.96"/>
      <line class="st2" x1="72.91" y1="548.92" x2="73.63" y2="549.34"/>
      <line class="st2" x1="81.85" y1="266.86" x2="82.51" y2="267.22"/>
      <line class="st2" x1="82.51" y1="267.22" x2="73.63" y2="272.38"/>
      <line class="st2" x1="321.67" y1="691.78" x2="73.63" y2="548.56"/>
      <line class="st2" x1="73.63" y1="548.56" x2="73.63" y2="549.34"/>
      <line class="st2" x1="321.67" y1="692.56" x2="321.67" y2="691.78"/>
      <line class="st2" x1="321.67" y1="692.56" x2="73.63" y2="549.34"/>
      <line class="st2" x1="723.37" y1="170.14" x2="723.37" y2="295.66"/>
      <line class="st2" x1="723.37" y1="295.66" x2="331.33" y2="521.98"/>
      <line class="st2" x1="313.51" y1="400.6" x2="317.05" y2="398.56"/>
      <line class="st2" x1="310.63" y1="394.84" x2="307.09" y2="396.88"/>
      <line class="st2" x1="307.09" y1="396.88" x2="313.51" y2="400.6"/>
      <line class="st2" x1="313.51" y1="400.6" x2="317.05" y2="398.5"/>
      <line class="st2" x1="307.09" y1="396.88" x2="313.51" y2="400.6"/>
      <line class="st2" x1="314.23" y1="401.02" x2="317.77" y2="398.92"/>
      <line class="st2" x1="307.09" y1="396.88" x2="310.63" y2="394.84"/>
      <line class="st2" x1="723.37" y1="170.14" x2="723.37" y2="294.82"/>
      <line class="st2" x1="722.65" y1="170.56" x2="722.65" y2="295.24"/>
      <line class="st2" x1="722.65" y1="295.24" x2="723.37" y2="294.82"/>
      <line class="st2" x1="723.37" y1="295.66" x2="331.33" y2="521.98"/>
      <line class="st2" x1="723.37" y1="294.82" x2="331.33" y2="521.2"/>
      <line class="st2" x1="723.37" y1="295.66" x2="723.37" y2="294.82"/>
    </g>
  </g>
</svg>